M48
;GenerationSoftware,Autodesk,EAGLE,9.6.1*%
;CreationDate,2024-07-19T15:51:53Z*%
FMAT,2
ICI,OFF
METRIC,TZ,000.000
T5C0.250
T4C0.350
T3C1.016
T2C1.321
T1C1.500
%
G90
M71
T1
X-8350Y11556
X-6350Y5556
X5850Y5556
X5850Y17556
X-6350Y17556
T2
X5004Y26352
X0Y26352
X-5004Y26352
T3
X12700Y13335
X-12541Y17939
X-12541Y15399
X-12541Y12859
T4
X-7382Y23416
X-7302Y21431
X-9525Y8096
X-9049Y6191
X-1905Y4604
X0Y4763
X9835Y6665
X9995Y9211
X-2223Y9525
X-11271Y18535
X10160Y17463
T5
X6826Y2540
X-9949Y6642
X9735Y8279
X-9208Y19470
X-9208Y22066
X9811Y22763
X-9800Y22487
X-688Y3189
X4171Y2540
M30