G04 EAGLE Gerber RS-274X export*
G75*
%MOMM*%
%FSLAX34Y34*%
%LPD*%
%INTop Copper*%
%IPPOS*%
%AMOC8*
5,1,8,0,0,1.08239X$1,22.5*%
G01*
%ADD10C,1.000000*%
%ADD11C,2.250000*%
%ADD12R,0.800000X0.800000*%
%ADD13P,1.649562X8X22.500000*%
%ADD14C,1.524000*%
%ADD15C,1.981200*%
%ADD16C,0.750000*%
%ADD17C,0.609600*%
%ADD18C,0.254000*%
%ADD19C,0.554800*%
%ADD20C,0.508000*%
%ADD21C,0.406400*%
%ADD22C,0.203200*%

G36*
X76398Y35922D02*
X76398Y35922D01*
X76502Y35924D01*
X76521Y35931D01*
X76541Y35933D01*
X76636Y35973D01*
X76733Y36009D01*
X76749Y36021D01*
X76767Y36029D01*
X76898Y36134D01*
X78326Y37562D01*
X78379Y37636D01*
X78438Y37705D01*
X78451Y37735D01*
X78469Y37761D01*
X78496Y37848D01*
X78530Y37933D01*
X78535Y37974D01*
X78542Y37997D01*
X78541Y38029D01*
X78549Y38100D01*
X78549Y55687D01*
X78534Y55777D01*
X78527Y55868D01*
X78514Y55898D01*
X78509Y55930D01*
X78466Y56011D01*
X78431Y56095D01*
X78405Y56127D01*
X78394Y56147D01*
X78371Y56170D01*
X78360Y56182D01*
X78353Y56194D01*
X78346Y56201D01*
X78326Y56226D01*
X77246Y57305D01*
X75235Y62160D01*
X75235Y63164D01*
X75221Y63254D01*
X75213Y63345D01*
X75201Y63374D01*
X75196Y63406D01*
X75153Y63487D01*
X75117Y63571D01*
X75091Y63603D01*
X75080Y63624D01*
X75057Y63646D01*
X75012Y63702D01*
X71189Y67526D01*
X69178Y72380D01*
X69178Y91621D01*
X71189Y96476D01*
X75011Y100299D01*
X78326Y103613D01*
X78379Y103687D01*
X78438Y103756D01*
X78450Y103786D01*
X78469Y103813D01*
X78496Y103900D01*
X78530Y103984D01*
X78535Y104025D01*
X78542Y104048D01*
X78541Y104080D01*
X78549Y104151D01*
X78549Y131763D01*
X78534Y131853D01*
X78527Y131944D01*
X78514Y131973D01*
X78509Y132005D01*
X78466Y132086D01*
X78431Y132170D01*
X78405Y132202D01*
X78394Y132223D01*
X78371Y132245D01*
X78326Y132301D01*
X56698Y153929D01*
X56624Y153982D01*
X56554Y154041D01*
X56524Y154054D01*
X56498Y154072D01*
X56411Y154099D01*
X56326Y154133D01*
X56285Y154138D01*
X56263Y154145D01*
X56231Y154144D01*
X56159Y154152D01*
X54241Y154152D01*
X46372Y157411D01*
X40349Y163434D01*
X37089Y171304D01*
X37089Y179821D01*
X40349Y187691D01*
X40972Y188314D01*
X40975Y188318D01*
X40980Y188321D01*
X41047Y188418D01*
X41116Y188514D01*
X41117Y188519D01*
X41120Y188523D01*
X41153Y188636D01*
X41188Y188749D01*
X41188Y188754D01*
X41189Y188759D01*
X41192Y188927D01*
X36284Y238750D01*
X36270Y238802D01*
X36266Y238856D01*
X36239Y238920D01*
X36221Y238987D01*
X36191Y239033D01*
X36170Y239082D01*
X36102Y239168D01*
X36085Y239192D01*
X36076Y239199D01*
X36065Y239213D01*
X33026Y242252D01*
X29971Y249627D01*
X29971Y277423D01*
X33026Y284798D01*
X35463Y287235D01*
X35516Y287309D01*
X35576Y287378D01*
X35588Y287408D01*
X35607Y287435D01*
X35634Y287522D01*
X35668Y287606D01*
X35672Y287647D01*
X35679Y287670D01*
X35678Y287702D01*
X35686Y287773D01*
X35686Y288925D01*
X35672Y289015D01*
X35664Y289106D01*
X35652Y289136D01*
X35647Y289168D01*
X35604Y289248D01*
X35568Y289332D01*
X35542Y289364D01*
X35531Y289385D01*
X35508Y289407D01*
X35463Y289463D01*
X26338Y298589D01*
X26264Y298642D01*
X26194Y298701D01*
X26164Y298714D01*
X26138Y298732D01*
X26051Y298759D01*
X25966Y298793D01*
X25925Y298798D01*
X25903Y298805D01*
X25871Y298804D01*
X25799Y298812D01*
X-9525Y298812D01*
X-9545Y298809D01*
X-9564Y298811D01*
X-9666Y298789D01*
X-9768Y298772D01*
X-9785Y298763D01*
X-9805Y298758D01*
X-9894Y298705D01*
X-9985Y298657D01*
X-9999Y298643D01*
X-10016Y298632D01*
X-10083Y298554D01*
X-10155Y298479D01*
X-10163Y298461D01*
X-10176Y298445D01*
X-10215Y298349D01*
X-10258Y298256D01*
X-10260Y298236D01*
X-10268Y298217D01*
X-10286Y298051D01*
X-10286Y200025D01*
X-10272Y199935D01*
X-10264Y199844D01*
X-10252Y199814D01*
X-10247Y199782D01*
X-10204Y199702D01*
X-10168Y199618D01*
X-10142Y199586D01*
X-10131Y199565D01*
X-10108Y199543D01*
X-10063Y199487D01*
X826Y188597D01*
X826Y159065D01*
X-8476Y149763D01*
X-8534Y149683D01*
X-8596Y149606D01*
X-8605Y149583D01*
X-8619Y149564D01*
X-8648Y149469D01*
X-8684Y149376D01*
X-8686Y149346D01*
X-8692Y149328D01*
X-8691Y149296D01*
X-8699Y149209D01*
X-7628Y97825D01*
X-7618Y97768D01*
X-7617Y97710D01*
X-7589Y97614D01*
X-7583Y97583D01*
X-7576Y97570D01*
X-7570Y97549D01*
X-6349Y94601D01*
X-6349Y67501D01*
X-6335Y67410D01*
X-6327Y67320D01*
X-6315Y67290D01*
X-6310Y67258D01*
X-6267Y67177D01*
X-6231Y67093D01*
X-6205Y67061D01*
X-6194Y67040D01*
X-6171Y67018D01*
X-6126Y66962D01*
X-923Y61759D01*
X-849Y61706D01*
X-779Y61646D01*
X-749Y61634D01*
X-723Y61615D01*
X-636Y61588D01*
X-551Y61554D01*
X-510Y61550D01*
X-488Y61543D01*
X-456Y61544D01*
X-384Y61536D01*
X2767Y61536D01*
X7880Y59418D01*
X11793Y55505D01*
X13911Y50392D01*
X13911Y48895D01*
X13914Y48875D01*
X13912Y48856D01*
X13934Y48754D01*
X13950Y48652D01*
X13960Y48635D01*
X13964Y48615D01*
X14017Y48526D01*
X14066Y48435D01*
X14080Y48421D01*
X14090Y48404D01*
X14169Y48337D01*
X14244Y48265D01*
X14262Y48257D01*
X14277Y48244D01*
X14373Y48205D01*
X14467Y48162D01*
X14487Y48160D01*
X14505Y48152D01*
X14672Y48134D01*
X20349Y48134D01*
X25204Y46123D01*
X29026Y42300D01*
X29027Y42300D01*
X32556Y38771D01*
X32650Y38703D01*
X32745Y38633D01*
X32751Y38631D01*
X32756Y38627D01*
X32867Y38593D01*
X32979Y38557D01*
X32985Y38557D01*
X32991Y38555D01*
X33108Y38558D01*
X33224Y38559D01*
X33232Y38561D01*
X33237Y38561D01*
X33254Y38568D01*
X33386Y38606D01*
X35691Y39561D01*
X47734Y39561D01*
X48921Y39069D01*
X49010Y39048D01*
X49097Y39020D01*
X49129Y39020D01*
X49161Y39013D01*
X49251Y39021D01*
X49343Y39022D01*
X49382Y39034D01*
X49406Y39036D01*
X49435Y39049D01*
X49504Y39069D01*
X50691Y39561D01*
X62734Y39561D01*
X65554Y38393D01*
X65617Y38378D01*
X65678Y38353D01*
X65761Y38344D01*
X65793Y38337D01*
X65812Y38338D01*
X65845Y38335D01*
X70835Y38335D01*
X75589Y36366D01*
X75821Y36134D01*
X75837Y36122D01*
X75850Y36107D01*
X75937Y36050D01*
X76021Y35990D01*
X76040Y35984D01*
X76057Y35974D01*
X76157Y35948D01*
X76256Y35918D01*
X76276Y35918D01*
X76295Y35913D01*
X76398Y35922D01*
G37*
G36*
X-55472Y89741D02*
X-55472Y89741D01*
X-55382Y89748D01*
X-55352Y89761D01*
X-55320Y89766D01*
X-55239Y89809D01*
X-55155Y89844D01*
X-55123Y89870D01*
X-55102Y89881D01*
X-55080Y89904D01*
X-55024Y89949D01*
X-12162Y132812D01*
X-12109Y132886D01*
X-12049Y132955D01*
X-12037Y132985D01*
X-12018Y133011D01*
X-11991Y133098D01*
X-11957Y133183D01*
X-11953Y133224D01*
X-11946Y133247D01*
X-11947Y133279D01*
X-11939Y133350D01*
X-11939Y148910D01*
X-1049Y159799D01*
X-996Y159873D01*
X-937Y159943D01*
X-925Y159973D01*
X-906Y159999D01*
X-879Y160086D01*
X-845Y160171D01*
X-840Y160212D01*
X-833Y160234D01*
X-834Y160266D01*
X-826Y160338D01*
X-826Y187325D01*
X-831Y187356D01*
X-829Y187386D01*
X-851Y187476D01*
X-866Y187568D01*
X-880Y187595D01*
X-888Y187625D01*
X-938Y187703D01*
X-981Y187785D01*
X-1003Y187806D01*
X-1020Y187833D01*
X-1145Y187944D01*
X-11939Y195654D01*
X-11939Y236864D01*
X-11953Y236954D01*
X-11961Y237045D01*
X-11973Y237075D01*
X-11978Y237107D01*
X-12021Y237187D01*
X-12057Y237271D01*
X-12083Y237303D01*
X-12094Y237324D01*
X-12117Y237346D01*
X-12162Y237402D01*
X-17012Y242252D01*
X-20067Y249627D01*
X-20067Y277423D01*
X-17012Y284798D01*
X-12162Y289648D01*
X-12109Y289722D01*
X-12049Y289791D01*
X-12037Y289821D01*
X-12018Y289848D01*
X-11991Y289935D01*
X-11957Y290019D01*
X-11953Y290060D01*
X-11946Y290083D01*
X-11947Y290115D01*
X-11939Y290186D01*
X-11939Y298051D01*
X-11942Y298070D01*
X-11940Y298090D01*
X-11962Y298191D01*
X-11978Y298293D01*
X-11988Y298311D01*
X-11992Y298330D01*
X-12045Y298419D01*
X-12094Y298511D01*
X-12108Y298524D01*
X-12118Y298541D01*
X-12197Y298609D01*
X-12272Y298680D01*
X-12290Y298688D01*
X-12305Y298701D01*
X-12401Y298740D01*
X-12495Y298784D01*
X-12515Y298786D01*
X-12533Y298793D01*
X-12700Y298812D01*
X-56331Y298812D01*
X-56408Y298799D01*
X-56485Y298796D01*
X-56528Y298779D01*
X-56574Y298772D01*
X-56642Y298736D01*
X-56715Y298708D01*
X-56751Y298678D01*
X-56791Y298657D01*
X-56845Y298601D01*
X-56905Y298551D01*
X-56929Y298512D01*
X-56961Y298479D01*
X-56993Y298408D01*
X-57034Y298342D01*
X-57045Y298297D01*
X-57064Y298256D01*
X-57073Y298178D01*
X-57091Y298103D01*
X-57088Y298041D01*
X-57091Y298011D01*
X-57086Y297985D01*
X-57084Y297935D01*
X-56984Y297283D01*
X-57269Y296119D01*
X-57272Y296086D01*
X-57288Y295998D01*
X-57383Y294803D01*
X-57744Y294098D01*
X-57745Y294094D01*
X-57747Y294091D01*
X-57796Y293959D01*
X-57801Y293946D01*
X-57802Y293942D01*
X-57805Y293933D01*
X-57901Y293542D01*
X-57901Y293538D01*
X-57903Y293534D01*
X-57923Y293367D01*
X-57930Y292575D01*
X-58398Y291472D01*
X-58406Y291440D01*
X-58437Y291356D01*
X-58722Y290192D01*
X-59191Y289554D01*
X-59193Y289550D01*
X-59196Y289547D01*
X-59278Y289401D01*
X-59435Y289030D01*
X-59436Y289026D01*
X-59439Y289022D01*
X-59485Y288861D01*
X-59619Y288081D01*
X-60258Y287067D01*
X-60271Y287037D01*
X-60315Y286958D01*
X-60783Y285855D01*
X-61348Y285300D01*
X-61351Y285297D01*
X-61354Y285294D01*
X-61459Y285163D01*
X-61674Y284823D01*
X-61675Y284819D01*
X-61678Y284816D01*
X-61750Y284664D01*
X-62007Y283915D01*
X-62801Y283017D01*
X-62818Y282989D01*
X-62874Y282919D01*
X-63514Y281905D01*
X-64160Y281448D01*
X-64163Y281445D01*
X-64167Y281443D01*
X-64291Y281331D01*
X-64558Y281029D01*
X-64560Y281025D01*
X-64563Y281023D01*
X-64658Y280885D01*
X-65033Y280187D01*
X-65960Y279427D01*
X-65982Y279403D01*
X-66048Y279342D01*
X-66842Y278444D01*
X-67009Y278363D01*
X-67086Y278309D01*
X-67166Y278261D01*
X-67185Y278238D01*
X-67210Y278221D01*
X-67265Y278145D01*
X-67326Y278074D01*
X-67337Y278046D01*
X-67355Y278022D01*
X-67383Y277933D01*
X-67418Y277846D01*
X-67422Y277808D01*
X-67428Y277787D01*
X-67428Y277755D01*
X-67436Y277679D01*
X-67436Y247078D01*
X-67418Y246964D01*
X-67400Y246847D01*
X-67398Y246841D01*
X-67397Y246835D01*
X-67342Y246732D01*
X-67289Y246628D01*
X-67284Y246623D01*
X-67281Y246618D01*
X-67196Y246537D01*
X-67113Y246456D01*
X-67107Y246452D01*
X-67103Y246449D01*
X-67086Y246441D01*
X-66966Y246375D01*
X-65939Y245949D01*
X-62026Y242036D01*
X-59908Y236923D01*
X-59908Y231389D01*
X-60552Y229834D01*
X-60567Y229771D01*
X-60592Y229710D01*
X-60601Y229627D01*
X-60608Y229595D01*
X-60606Y229576D01*
X-60610Y229543D01*
X-60610Y220842D01*
X-60599Y220777D01*
X-60599Y220712D01*
X-60576Y220632D01*
X-60570Y220599D01*
X-60561Y220582D01*
X-60552Y220551D01*
X-59114Y217080D01*
X-59114Y211545D01*
X-61232Y206433D01*
X-65145Y202520D01*
X-66966Y201765D01*
X-67066Y201704D01*
X-67166Y201644D01*
X-67170Y201639D01*
X-67175Y201636D01*
X-67250Y201546D01*
X-67326Y201457D01*
X-67328Y201451D01*
X-67332Y201446D01*
X-67374Y201338D01*
X-67418Y201229D01*
X-67419Y201221D01*
X-67420Y201217D01*
X-67421Y201198D01*
X-67436Y201062D01*
X-67436Y197734D01*
X-67433Y197715D01*
X-67435Y197695D01*
X-67413Y197594D01*
X-67397Y197492D01*
X-67387Y197474D01*
X-67383Y197455D01*
X-67330Y197366D01*
X-67281Y197274D01*
X-67267Y197261D01*
X-67257Y197244D01*
X-67178Y197176D01*
X-67103Y197105D01*
X-67085Y197097D01*
X-67070Y197084D01*
X-66974Y197045D01*
X-66880Y197001D01*
X-66860Y196999D01*
X-66842Y196992D01*
X-66675Y196973D01*
X-59241Y196973D01*
X-51372Y193714D01*
X-45349Y187691D01*
X-42089Y179821D01*
X-42089Y171304D01*
X-45349Y163434D01*
X-51372Y157411D01*
X-59241Y154152D01*
X-66675Y154152D01*
X-66695Y154149D01*
X-66714Y154151D01*
X-66816Y154129D01*
X-66918Y154112D01*
X-66935Y154103D01*
X-66955Y154098D01*
X-67044Y154045D01*
X-67135Y153997D01*
X-67149Y153983D01*
X-67166Y153972D01*
X-67233Y153894D01*
X-67305Y153819D01*
X-67313Y153801D01*
X-67326Y153785D01*
X-67365Y153689D01*
X-67408Y153596D01*
X-67410Y153576D01*
X-67418Y153557D01*
X-67436Y153391D01*
X-67436Y144778D01*
X-68578Y143636D01*
X-79375Y143636D01*
X-79465Y143622D01*
X-79556Y143614D01*
X-79586Y143602D01*
X-79618Y143597D01*
X-79698Y143554D01*
X-79782Y143518D01*
X-79814Y143492D01*
X-79835Y143481D01*
X-79857Y143458D01*
X-79913Y143413D01*
X-98963Y124363D01*
X-99016Y124289D01*
X-99076Y124220D01*
X-99088Y124190D01*
X-99107Y124164D01*
X-99134Y124077D01*
X-99168Y123992D01*
X-99172Y123951D01*
X-99179Y123928D01*
X-99178Y123896D01*
X-99186Y123825D01*
X-99186Y111832D01*
X-99172Y111741D01*
X-99164Y111651D01*
X-99152Y111621D01*
X-99147Y111589D01*
X-99104Y111508D01*
X-99068Y111424D01*
X-99042Y111392D01*
X-99031Y111371D01*
X-99008Y111349D01*
X-98963Y111293D01*
X-90386Y102716D01*
X-90312Y102663D01*
X-90243Y102604D01*
X-90213Y102591D01*
X-90186Y102573D01*
X-90100Y102546D01*
X-90015Y102512D01*
X-89974Y102507D01*
X-89951Y102500D01*
X-89919Y102501D01*
X-89848Y102493D01*
X-89175Y102493D01*
X-84321Y100482D01*
X-75730Y91892D01*
X-75086Y90337D01*
X-75052Y90281D01*
X-75026Y90221D01*
X-74974Y90156D01*
X-74956Y90128D01*
X-74941Y90115D01*
X-74921Y90090D01*
X-74780Y89949D01*
X-74706Y89896D01*
X-74637Y89837D01*
X-74607Y89825D01*
X-74581Y89806D01*
X-74494Y89779D01*
X-74409Y89745D01*
X-74368Y89740D01*
X-74346Y89733D01*
X-74313Y89734D01*
X-74242Y89726D01*
X-55563Y89726D01*
X-55472Y89741D01*
G37*
G36*
X-67572Y319D02*
X-67572Y319D01*
X-67544Y316D01*
X-67476Y339D01*
X-67405Y353D01*
X-67382Y369D01*
X-67355Y378D01*
X-67300Y425D01*
X-67241Y465D01*
X-67226Y489D01*
X-67205Y508D01*
X-67173Y572D01*
X-67134Y633D01*
X-67129Y661D01*
X-67117Y686D01*
X-67108Y788D01*
X-67101Y829D01*
X-67103Y839D01*
X-67102Y852D01*
X-67345Y3902D01*
X-67354Y3935D01*
X-67358Y3982D01*
X-67899Y6189D01*
X-65216Y6189D01*
X-64931Y5121D01*
X-64717Y3476D01*
X-64690Y3386D01*
X-64670Y3295D01*
X-64655Y3269D01*
X-64646Y3240D01*
X-64592Y3164D01*
X-64544Y3084D01*
X-64521Y3064D01*
X-64504Y3040D01*
X-64428Y2985D01*
X-64357Y2924D01*
X-64329Y2912D01*
X-64305Y2895D01*
X-64216Y2867D01*
X-64129Y2832D01*
X-64091Y2828D01*
X-64070Y2821D01*
X-64038Y2822D01*
X-63962Y2813D01*
X-29587Y2813D01*
X-29475Y2832D01*
X-29361Y2848D01*
X-29353Y2852D01*
X-29344Y2853D01*
X-29244Y2906D01*
X-29141Y2958D01*
X-29134Y2964D01*
X-29127Y2968D01*
X-29048Y3051D01*
X-28967Y3132D01*
X-28963Y3140D01*
X-28957Y3146D01*
X-28909Y3250D01*
X-28859Y3353D01*
X-28857Y3363D01*
X-28854Y3369D01*
X-28851Y3392D01*
X-28828Y3518D01*
X-28786Y4074D01*
X-28789Y4108D01*
X-28784Y4143D01*
X-28800Y4230D01*
X-28807Y4319D01*
X-28821Y4351D01*
X-28828Y4385D01*
X-28862Y4456D01*
X-28719Y5084D01*
X-28717Y5117D01*
X-28702Y5196D01*
X-28654Y5835D01*
X-28613Y5894D01*
X-28556Y5962D01*
X-28543Y5994D01*
X-28524Y6022D01*
X-28468Y6181D01*
X-27978Y8328D01*
X-27976Y8362D01*
X-27966Y8395D01*
X-27969Y8484D01*
X-27963Y8573D01*
X-27972Y8607D01*
X-27973Y8641D01*
X-27997Y8717D01*
X-27762Y9316D01*
X-27755Y9348D01*
X-27728Y9425D01*
X-27586Y10049D01*
X-27536Y10101D01*
X-27470Y10160D01*
X-27452Y10190D01*
X-27428Y10216D01*
X-27350Y10364D01*
X-26546Y12414D01*
X-26539Y12448D01*
X-26524Y12479D01*
X-26513Y12567D01*
X-26494Y12654D01*
X-26498Y12689D01*
X-26494Y12723D01*
X-26506Y12802D01*
X-26184Y13359D01*
X-26172Y13390D01*
X-26135Y13462D01*
X-25901Y14058D01*
X-25844Y14102D01*
X-25770Y14150D01*
X-25748Y14177D01*
X-25721Y14198D01*
X-25621Y14334D01*
X-24520Y16241D01*
X-24508Y16273D01*
X-24489Y16302D01*
X-24465Y16387D01*
X-24433Y16471D01*
X-24432Y16505D01*
X-24423Y16539D01*
X-24423Y16618D01*
X-24022Y17121D01*
X-24005Y17150D01*
X-23957Y17215D01*
X-23637Y17770D01*
X-23575Y17805D01*
X-23494Y17842D01*
X-23469Y17865D01*
X-23438Y17882D01*
X-23320Y18001D01*
X-21947Y19723D01*
X-21930Y19753D01*
X-21907Y19778D01*
X-21870Y19860D01*
X-21827Y19937D01*
X-21820Y19971D01*
X-21806Y20003D01*
X-21794Y20082D01*
X-21323Y20519D01*
X-21302Y20545D01*
X-21245Y20603D01*
X-20846Y21104D01*
X-20813Y21116D01*
X-20771Y21123D01*
X-20737Y21141D01*
X-20693Y21153D01*
X-20665Y21173D01*
X-20632Y21185D01*
X-20579Y21225D01*
X-20554Y21238D01*
X-20536Y21256D01*
X-20498Y21285D01*
X-18883Y22783D01*
X-18862Y22810D01*
X-18835Y22832D01*
X-18787Y22907D01*
X-18733Y22977D01*
X-18721Y23010D01*
X-18702Y23039D01*
X-18679Y23115D01*
X-18147Y23477D01*
X-18123Y23500D01*
X-18098Y23519D01*
X-18092Y23522D01*
X-18088Y23526D01*
X-18058Y23548D01*
X-17589Y23984D01*
X-17519Y23999D01*
X-17431Y24010D01*
X-17399Y24025D01*
X-17365Y24033D01*
X-17217Y24111D01*
X-15398Y25352D01*
X-15373Y25376D01*
X-15343Y25393D01*
X-15284Y25460D01*
X-15220Y25521D01*
X-15204Y25552D01*
X-15181Y25578D01*
X-15147Y25650D01*
X-14567Y25929D01*
X-14540Y25948D01*
X-14468Y25986D01*
X-13939Y26346D01*
X-13867Y26351D01*
X-13779Y26349D01*
X-13745Y26359D01*
X-13711Y26361D01*
X-13553Y26417D01*
X-11569Y27373D01*
X-11540Y27392D01*
X-11508Y27405D01*
X-11440Y27463D01*
X-11367Y27514D01*
X-11347Y27542D01*
X-11320Y27564D01*
X-11276Y27630D01*
X-10661Y27819D01*
X-10631Y27834D01*
X-10555Y27861D01*
X-10428Y27922D01*
X-10408Y27936D01*
X-10385Y27944D01*
X-10308Y28006D01*
X-10227Y28063D01*
X-10212Y28083D01*
X-10193Y28098D01*
X-10140Y28181D01*
X-10081Y28261D01*
X-10073Y28284D01*
X-10060Y28305D01*
X-10036Y28401D01*
X-10006Y28495D01*
X-10006Y28520D01*
X-10000Y28543D01*
X-10008Y28642D01*
X-10009Y28741D01*
X-10017Y28764D01*
X-10019Y28789D01*
X-10058Y28880D01*
X-10091Y28973D01*
X-10106Y28992D01*
X-10115Y29015D01*
X-10220Y29146D01*
X-11181Y30106D01*
X-11181Y33668D01*
X-8663Y36186D01*
X-5101Y36186D01*
X-2583Y33668D01*
X-2583Y30584D01*
X-2571Y30508D01*
X-2568Y30432D01*
X-2551Y30388D01*
X-2543Y30341D01*
X-2508Y30273D01*
X-2480Y30202D01*
X-2450Y30165D01*
X-2428Y30124D01*
X-2373Y30071D01*
X-2324Y30012D01*
X-2284Y29987D01*
X-2250Y29954D01*
X-2181Y29922D01*
X-2115Y29882D01*
X-2070Y29871D01*
X-2027Y29851D01*
X-1951Y29842D01*
X-1876Y29825D01*
X-1813Y29827D01*
X-1783Y29824D01*
X-1757Y29829D01*
X-1709Y29831D01*
X-1480Y29866D01*
X-1413Y29839D01*
X-1334Y29798D01*
X-1300Y29793D01*
X-1268Y29780D01*
X-1101Y29762D01*
X1101Y29762D01*
X1135Y29767D01*
X1170Y29765D01*
X1256Y29787D01*
X1344Y29801D01*
X1374Y29818D01*
X1408Y29826D01*
X1477Y29866D01*
X2113Y29770D01*
X2146Y29771D01*
X2227Y29762D01*
X2867Y29762D01*
X2929Y29725D01*
X3001Y29673D01*
X3034Y29663D01*
X3064Y29646D01*
X3226Y29602D01*
X5403Y29274D01*
X5438Y29275D01*
X5472Y29267D01*
X5560Y29276D01*
X5649Y29277D01*
X5682Y29289D01*
X5717Y29292D01*
X5790Y29322D01*
X6405Y29132D01*
X6438Y29127D01*
X6516Y29107D01*
X7150Y29011D01*
X7205Y28966D01*
X7269Y28904D01*
X7300Y28889D01*
X7327Y28867D01*
X7481Y28800D01*
X9585Y28151D01*
X9619Y28146D01*
X9652Y28134D01*
X9741Y28130D01*
X9829Y28118D01*
X9863Y28124D01*
X9897Y28122D01*
X9975Y28140D01*
X10555Y27861D01*
X10586Y27852D01*
X10661Y27819D01*
X11272Y27631D01*
X11321Y27578D01*
X11374Y27507D01*
X11403Y27487D01*
X11426Y27462D01*
X11569Y27373D01*
X13553Y26417D01*
X13586Y26407D01*
X13616Y26390D01*
X13703Y26373D01*
X13788Y26348D01*
X13823Y26349D01*
X13857Y26342D01*
X13936Y26348D01*
X14468Y25986D01*
X14498Y25972D01*
X14567Y25929D01*
X15144Y25651D01*
X15183Y25591D01*
X15226Y25513D01*
X15251Y25490D01*
X15271Y25461D01*
X15398Y25352D01*
X17217Y24111D01*
X17249Y24097D01*
X17276Y24075D01*
X17360Y24045D01*
X17440Y24007D01*
X17475Y24004D01*
X17507Y23992D01*
X17587Y23986D01*
X18058Y23548D01*
X18086Y23530D01*
X18147Y23477D01*
X18676Y23117D01*
X18687Y23095D01*
X18688Y23087D01*
X18697Y23072D01*
X18707Y23052D01*
X18737Y22968D01*
X18759Y22941D01*
X18774Y22910D01*
X18883Y22783D01*
X20498Y21285D01*
X20526Y21266D01*
X20550Y21240D01*
X20588Y21220D01*
X20619Y21194D01*
X20660Y21177D01*
X20703Y21149D01*
X20736Y21140D01*
X20766Y21124D01*
X20827Y21110D01*
X20847Y21102D01*
X21245Y20603D01*
X21251Y20598D01*
X21254Y20592D01*
X21276Y20574D01*
X21323Y20519D01*
X21792Y20084D01*
X21813Y20015D01*
X21830Y19928D01*
X21848Y19898D01*
X21857Y19865D01*
X21947Y19723D01*
X23320Y18001D01*
X23345Y17978D01*
X23365Y17949D01*
X23437Y17896D01*
X23502Y17836D01*
X23534Y17822D01*
X23562Y17802D01*
X23636Y17773D01*
X23957Y17215D01*
X23978Y17190D01*
X24022Y17121D01*
X24421Y16621D01*
X24431Y16550D01*
X24435Y16461D01*
X24448Y16429D01*
X24453Y16394D01*
X24520Y16241D01*
X25621Y14334D01*
X25643Y14307D01*
X25658Y14276D01*
X25721Y14212D01*
X25777Y14143D01*
X25806Y14125D01*
X25831Y14100D01*
X25900Y14061D01*
X26135Y13462D01*
X26151Y13433D01*
X26184Y13359D01*
X26504Y12804D01*
X26504Y12733D01*
X26495Y12644D01*
X26502Y12610D01*
X26502Y12576D01*
X26546Y12414D01*
X27350Y10364D01*
X27368Y10334D01*
X27378Y10301D01*
X27430Y10229D01*
X27476Y10153D01*
X27502Y10130D01*
X27523Y10102D01*
X27585Y10052D01*
X27728Y9425D01*
X27740Y9394D01*
X27762Y9316D01*
X27995Y8720D01*
X27984Y8649D01*
X27962Y8563D01*
X27965Y8529D01*
X27959Y8494D01*
X27978Y8328D01*
X28468Y6181D01*
X28481Y6149D01*
X28487Y6115D01*
X28528Y6035D01*
X28561Y5953D01*
X28584Y5927D01*
X28600Y5896D01*
X28654Y5838D01*
X28702Y5196D01*
X28710Y5164D01*
X28719Y5084D01*
X28861Y4459D01*
X28840Y4391D01*
X28805Y4309D01*
X28803Y4274D01*
X28792Y4241D01*
X28786Y4074D01*
X28828Y3518D01*
X28855Y3406D01*
X28879Y3295D01*
X28883Y3287D01*
X28885Y3279D01*
X28946Y3182D01*
X29005Y3084D01*
X29012Y3078D01*
X29016Y3070D01*
X29105Y2998D01*
X29192Y2924D01*
X29200Y2920D01*
X29207Y2915D01*
X29314Y2875D01*
X29420Y2832D01*
X29431Y2831D01*
X29437Y2828D01*
X29460Y2827D01*
X29587Y2813D01*
X63962Y2813D01*
X64055Y2828D01*
X64148Y2836D01*
X64175Y2848D01*
X64205Y2853D01*
X64288Y2897D01*
X64374Y2934D01*
X64396Y2954D01*
X64422Y2968D01*
X64487Y3036D01*
X64556Y3099D01*
X64571Y3125D01*
X64592Y3146D01*
X64631Y3231D01*
X64677Y3313D01*
X64686Y3350D01*
X64695Y3369D01*
X64699Y3402D01*
X64717Y3476D01*
X64931Y5121D01*
X65216Y6189D01*
X67899Y6189D01*
X67358Y3982D01*
X67356Y3948D01*
X67345Y3902D01*
X67102Y852D01*
X67106Y824D01*
X67101Y796D01*
X67118Y726D01*
X67126Y655D01*
X67141Y630D01*
X67147Y603D01*
X67190Y545D01*
X67226Y482D01*
X67248Y465D01*
X67265Y442D01*
X67327Y406D01*
X67384Y362D01*
X67412Y355D01*
X67436Y341D01*
X67536Y324D01*
X67577Y314D01*
X67587Y315D01*
X67600Y313D01*
X86600Y313D01*
X86676Y329D01*
X86754Y337D01*
X86773Y348D01*
X86795Y353D01*
X86859Y397D01*
X86927Y435D01*
X86943Y454D01*
X86959Y465D01*
X86983Y503D01*
X87033Y563D01*
X96533Y17063D01*
X96542Y17091D01*
X96558Y17114D01*
X96573Y17184D01*
X96596Y17252D01*
X96593Y17281D01*
X96599Y17309D01*
X96586Y17379D01*
X96580Y17450D01*
X96567Y17476D01*
X96561Y17504D01*
X96521Y17563D01*
X96488Y17627D01*
X96466Y17645D01*
X96450Y17669D01*
X96367Y17726D01*
X96335Y17753D01*
X96324Y17756D01*
X96314Y17764D01*
X93548Y19072D01*
X93515Y19080D01*
X93472Y19101D01*
X90532Y19948D01*
X90498Y19951D01*
X90454Y19964D01*
X87416Y20330D01*
X87382Y20327D01*
X87335Y20333D01*
X84278Y20206D01*
X84245Y20198D01*
X84198Y20196D01*
X84123Y20181D01*
X84123Y22752D01*
X85141Y22887D01*
X88032Y22891D01*
X90899Y22517D01*
X93692Y21772D01*
X95255Y21127D01*
X95320Y21112D01*
X95345Y21102D01*
X95365Y21099D01*
X95434Y21078D01*
X95464Y21078D01*
X95494Y21071D01*
X95587Y21080D01*
X95680Y21081D01*
X95708Y21092D01*
X95739Y21095D01*
X95824Y21132D01*
X95911Y21163D01*
X95936Y21182D01*
X95964Y21195D01*
X96007Y21235D01*
X96013Y21238D01*
X96032Y21258D01*
X96105Y21315D01*
X96128Y21346D01*
X96145Y21361D01*
X96160Y21390D01*
X96170Y21403D01*
X96183Y21416D01*
X96188Y21427D01*
X96205Y21450D01*
X113367Y51177D01*
X113407Y51284D01*
X113415Y51302D01*
X113427Y51328D01*
X113427Y51334D01*
X113450Y51390D01*
X113451Y51399D01*
X113454Y51407D01*
X113458Y51521D01*
X113465Y51635D01*
X113462Y51644D01*
X113463Y51652D01*
X113430Y51762D01*
X113400Y51873D01*
X113395Y51880D01*
X113393Y51888D01*
X113327Y51982D01*
X113263Y52077D01*
X113255Y52084D01*
X113251Y52090D01*
X113233Y52103D01*
X113136Y52186D01*
X112681Y52496D01*
X112649Y52511D01*
X112622Y52533D01*
X112538Y52563D01*
X112458Y52600D01*
X112423Y52604D01*
X112391Y52616D01*
X112312Y52622D01*
X111840Y53059D01*
X111812Y53077D01*
X111751Y53130D01*
X111221Y53491D01*
X111191Y53556D01*
X111160Y53639D01*
X111139Y53666D01*
X111124Y53698D01*
X111014Y53825D01*
X109398Y55323D01*
X109369Y55342D01*
X109345Y55368D01*
X109267Y55410D01*
X109193Y55459D01*
X109160Y55468D01*
X109129Y55485D01*
X109052Y55502D01*
X108650Y56005D01*
X108626Y56027D01*
X108573Y56089D01*
X108103Y56524D01*
X108083Y56593D01*
X108065Y56680D01*
X108048Y56710D01*
X108038Y56743D01*
X107948Y56885D01*
X106573Y58608D01*
X106548Y58631D01*
X106528Y58660D01*
X106457Y58713D01*
X106391Y58773D01*
X106359Y58787D01*
X106331Y58807D01*
X106257Y58836D01*
X105935Y59393D01*
X105914Y59419D01*
X105871Y59488D01*
X105472Y59988D01*
X105462Y60059D01*
X105457Y60148D01*
X105445Y60180D01*
X105440Y60214D01*
X105372Y60368D01*
X104270Y62277D01*
X104248Y62304D01*
X104232Y62335D01*
X104170Y62398D01*
X104114Y62467D01*
X104084Y62485D01*
X104060Y62510D01*
X103991Y62550D01*
X103774Y63102D01*
X103747Y63147D01*
X103729Y63197D01*
X103685Y63252D01*
X103649Y63313D01*
X103609Y63347D01*
X103576Y63389D01*
X103516Y63427D01*
X103462Y63473D01*
X103413Y63493D01*
X103369Y63522D01*
X103300Y63539D01*
X103234Y63566D01*
X103181Y63569D01*
X103130Y63582D01*
X103059Y63576D01*
X102989Y63580D01*
X102938Y63567D01*
X102885Y63563D01*
X102820Y63535D01*
X102751Y63516D01*
X102707Y63487D01*
X102659Y63466D01*
X102570Y63396D01*
X102547Y63380D01*
X102540Y63372D01*
X102528Y63361D01*
X100538Y61372D01*
X96169Y61372D01*
X93079Y64462D01*
X93079Y65140D01*
X93064Y65230D01*
X93057Y65321D01*
X93044Y65350D01*
X93039Y65382D01*
X92996Y65463D01*
X92961Y65547D01*
X92935Y65579D01*
X92924Y65600D01*
X92901Y65622D01*
X92856Y65678D01*
X92193Y66340D01*
X92193Y70783D01*
X92178Y70873D01*
X92171Y70964D01*
X92159Y70993D01*
X92153Y71025D01*
X92111Y71106D01*
X92075Y71190D01*
X92049Y71222D01*
X92038Y71243D01*
X92015Y71265D01*
X91970Y71321D01*
X90010Y73281D01*
X89952Y73323D01*
X89900Y73373D01*
X89852Y73395D01*
X89810Y73425D01*
X89742Y73446D01*
X89676Y73476D01*
X89625Y73482D01*
X89575Y73497D01*
X89503Y73495D01*
X89432Y73503D01*
X89381Y73492D01*
X89329Y73491D01*
X89262Y73466D01*
X89192Y73451D01*
X89147Y73424D01*
X89098Y73407D01*
X89042Y73362D01*
X88981Y73325D01*
X88947Y73285D01*
X88906Y73253D01*
X88867Y73193D01*
X88821Y73138D01*
X88801Y73090D01*
X88773Y73046D01*
X88756Y72976D01*
X88729Y72910D01*
X88721Y72839D01*
X88713Y72807D01*
X88715Y72784D01*
X88710Y72743D01*
X88710Y35927D01*
X87047Y31913D01*
X82387Y27253D01*
X78373Y25590D01*
X73322Y25590D01*
X73303Y25587D01*
X73283Y25589D01*
X73182Y25567D01*
X73080Y25550D01*
X73062Y25541D01*
X73043Y25536D01*
X72954Y25483D01*
X72862Y25435D01*
X72849Y25421D01*
X72832Y25410D01*
X72764Y25332D01*
X72693Y25257D01*
X72685Y25239D01*
X72672Y25223D01*
X72633Y25127D01*
X72589Y25034D01*
X72587Y25014D01*
X72580Y24995D01*
X72561Y24829D01*
X72561Y23619D01*
X70043Y21101D01*
X66482Y21101D01*
X65201Y22382D01*
X65127Y22435D01*
X65057Y22495D01*
X65027Y22507D01*
X65001Y22526D01*
X64914Y22553D01*
X64829Y22587D01*
X64788Y22591D01*
X64766Y22598D01*
X64734Y22597D01*
X64663Y22605D01*
X62998Y22605D01*
X62979Y22602D01*
X62959Y22604D01*
X62858Y22582D01*
X62756Y22566D01*
X62738Y22556D01*
X62719Y22552D01*
X62630Y22499D01*
X62538Y22450D01*
X62525Y22436D01*
X62508Y22426D01*
X62440Y22347D01*
X62369Y22272D01*
X62361Y22254D01*
X62348Y22239D01*
X62309Y22143D01*
X62265Y22049D01*
X62263Y22029D01*
X62256Y22011D01*
X62237Y21844D01*
X62237Y20768D01*
X61344Y19875D01*
X52081Y19875D01*
X51188Y20768D01*
X51188Y24829D01*
X51185Y24848D01*
X51187Y24868D01*
X51165Y24969D01*
X51148Y25071D01*
X51139Y25089D01*
X51134Y25108D01*
X51081Y25197D01*
X51033Y25289D01*
X51019Y25302D01*
X51008Y25319D01*
X50930Y25387D01*
X50855Y25458D01*
X50837Y25466D01*
X50821Y25479D01*
X50725Y25518D01*
X50632Y25562D01*
X50612Y25564D01*
X50593Y25571D01*
X50427Y25590D01*
X47998Y25590D01*
X47979Y25587D01*
X47959Y25589D01*
X47858Y25567D01*
X47756Y25550D01*
X47738Y25541D01*
X47719Y25536D01*
X47630Y25483D01*
X47538Y25435D01*
X47525Y25421D01*
X47508Y25410D01*
X47440Y25332D01*
X47369Y25257D01*
X47361Y25239D01*
X47348Y25223D01*
X47309Y25127D01*
X47265Y25034D01*
X47263Y25014D01*
X47256Y24995D01*
X47237Y24829D01*
X47237Y20768D01*
X46344Y19875D01*
X37081Y19875D01*
X36188Y20768D01*
X36188Y24829D01*
X36185Y24848D01*
X36187Y24868D01*
X36165Y24969D01*
X36148Y25071D01*
X36139Y25089D01*
X36134Y25108D01*
X36081Y25197D01*
X36033Y25289D01*
X36019Y25302D01*
X36008Y25319D01*
X35930Y25387D01*
X35855Y25458D01*
X35837Y25466D01*
X35821Y25479D01*
X35725Y25518D01*
X35632Y25562D01*
X35612Y25564D01*
X35593Y25571D01*
X35427Y25590D01*
X23227Y25590D01*
X19213Y27253D01*
X16033Y30432D01*
X3688Y42777D01*
X3672Y42789D01*
X3660Y42804D01*
X3572Y42860D01*
X3489Y42921D01*
X3470Y42927D01*
X3453Y42937D01*
X3352Y42963D01*
X3253Y42993D01*
X3234Y42993D01*
X3214Y42997D01*
X3111Y42989D01*
X3008Y42987D01*
X2989Y42980D01*
X2969Y42978D01*
X2874Y42938D01*
X2777Y42902D01*
X2761Y42890D01*
X2743Y42882D01*
X2612Y42777D01*
X2185Y42350D01*
X-2185Y42350D01*
X-2664Y42829D01*
X-2738Y42882D01*
X-2807Y42942D01*
X-2837Y42954D01*
X-2864Y42973D01*
X-2951Y43000D01*
X-3035Y43034D01*
X-3076Y43038D01*
X-3099Y43045D01*
X-3131Y43044D01*
X-3202Y43052D01*
X-14260Y43052D01*
X-14350Y43038D01*
X-14441Y43030D01*
X-14471Y43018D01*
X-14503Y43013D01*
X-14584Y42970D01*
X-14668Y42934D01*
X-14700Y42908D01*
X-14720Y42897D01*
X-14743Y42874D01*
X-14799Y42829D01*
X-16865Y40763D01*
X-21235Y40763D01*
X-24325Y43853D01*
X-24325Y48222D01*
X-23338Y49209D01*
X-23285Y49283D01*
X-23225Y49353D01*
X-23213Y49383D01*
X-23194Y49409D01*
X-23167Y49496D01*
X-23133Y49581D01*
X-23129Y49622D01*
X-23122Y49644D01*
X-23123Y49676D01*
X-23115Y49748D01*
X-23115Y89214D01*
X-23118Y89234D01*
X-23116Y89253D01*
X-23138Y89355D01*
X-23154Y89457D01*
X-23164Y89474D01*
X-23168Y89494D01*
X-23221Y89583D01*
X-23270Y89674D01*
X-23284Y89688D01*
X-23294Y89705D01*
X-23373Y89772D01*
X-23448Y89844D01*
X-23466Y89852D01*
X-23481Y89865D01*
X-23577Y89904D01*
X-23671Y89947D01*
X-23691Y89949D01*
X-23709Y89957D01*
X-23876Y89975D01*
X-24410Y89975D01*
X-27500Y93065D01*
X-27500Y97435D01*
X-24410Y100525D01*
X-20040Y100525D01*
X-19140Y99625D01*
X-19076Y99578D01*
X-19017Y99525D01*
X-18976Y99507D01*
X-18940Y99481D01*
X-18865Y99458D01*
X-18792Y99426D01*
X-18748Y99422D01*
X-18705Y99409D01*
X-18626Y99411D01*
X-18547Y99404D01*
X-18504Y99414D01*
X-18459Y99415D01*
X-18385Y99443D01*
X-18307Y99461D01*
X-18270Y99484D01*
X-18228Y99500D01*
X-18166Y99549D01*
X-18099Y99592D01*
X-18071Y99626D01*
X-18036Y99653D01*
X-17993Y99720D01*
X-17943Y99782D01*
X-17927Y99823D01*
X-17903Y99860D01*
X-17884Y99937D01*
X-17856Y100012D01*
X-17851Y100070D01*
X-17843Y100099D01*
X-17846Y100126D01*
X-17841Y100179D01*
X-18060Y110721D01*
X-18072Y110784D01*
X-18074Y110847D01*
X-18094Y110904D01*
X-18105Y110963D01*
X-18136Y111018D01*
X-18158Y111078D01*
X-18196Y111125D01*
X-18225Y111178D01*
X-18272Y111220D01*
X-18312Y111270D01*
X-18362Y111303D01*
X-18407Y111343D01*
X-18465Y111369D01*
X-18519Y111403D01*
X-18577Y111418D01*
X-18632Y111442D01*
X-18695Y111448D01*
X-18757Y111463D01*
X-18817Y111459D01*
X-18877Y111464D01*
X-18939Y111449D01*
X-19003Y111444D01*
X-19058Y111421D01*
X-19116Y111407D01*
X-19170Y111373D01*
X-19229Y111348D01*
X-19296Y111294D01*
X-19324Y111276D01*
X-19336Y111262D01*
X-19360Y111243D01*
X-49375Y81228D01*
X-53390Y79565D01*
X-85548Y79565D01*
X-85618Y79553D01*
X-85690Y79551D01*
X-85739Y79533D01*
X-85790Y79525D01*
X-85854Y79492D01*
X-85921Y79467D01*
X-85962Y79434D01*
X-86008Y79410D01*
X-86057Y79358D01*
X-86113Y79313D01*
X-86141Y79269D01*
X-86177Y79232D01*
X-86207Y79167D01*
X-86246Y79106D01*
X-86259Y79056D01*
X-86281Y79009D01*
X-86289Y78937D01*
X-86306Y78868D01*
X-86302Y78816D01*
X-86308Y78764D01*
X-86293Y78694D01*
X-86287Y78622D01*
X-86267Y78575D01*
X-86256Y78524D01*
X-86219Y78462D01*
X-86191Y78396D01*
X-86146Y78340D01*
X-86129Y78313D01*
X-86112Y78297D01*
X-86086Y78265D01*
X-85915Y78094D01*
X-85915Y65115D01*
X-85900Y65025D01*
X-85893Y64934D01*
X-85880Y64904D01*
X-85875Y64872D01*
X-85832Y64791D01*
X-85797Y64707D01*
X-85771Y64675D01*
X-85760Y64655D01*
X-85737Y64632D01*
X-85692Y64576D01*
X-85213Y64097D01*
X-85213Y59728D01*
X-88303Y56638D01*
X-92672Y56638D01*
X-95762Y59728D01*
X-95762Y62233D01*
X-95774Y62304D01*
X-95776Y62375D01*
X-95794Y62424D01*
X-95802Y62476D01*
X-95836Y62539D01*
X-95860Y62606D01*
X-95893Y62647D01*
X-95917Y62693D01*
X-95969Y62742D01*
X-96014Y62798D01*
X-96058Y62827D01*
X-96095Y62862D01*
X-96160Y62893D01*
X-96221Y62931D01*
X-96271Y62944D01*
X-96318Y62966D01*
X-96390Y62974D01*
X-96459Y62991D01*
X-96511Y62987D01*
X-96563Y62993D01*
X-96633Y62978D01*
X-96704Y62972D01*
X-96752Y62952D01*
X-96803Y62941D01*
X-96865Y62904D01*
X-96931Y62876D01*
X-96987Y62831D01*
X-97014Y62815D01*
X-97030Y62797D01*
X-97062Y62771D01*
X-97710Y62123D01*
X-101271Y62123D01*
X-102523Y63374D01*
X-102565Y63405D01*
X-102602Y63444D01*
X-102665Y63477D01*
X-102722Y63518D01*
X-102773Y63533D01*
X-102820Y63558D01*
X-102890Y63569D01*
X-102957Y63590D01*
X-103010Y63589D01*
X-103062Y63597D01*
X-103132Y63586D01*
X-103203Y63584D01*
X-103253Y63566D01*
X-103305Y63557D01*
X-103368Y63524D01*
X-103434Y63500D01*
X-103476Y63466D01*
X-103522Y63442D01*
X-103571Y63390D01*
X-103626Y63346D01*
X-103655Y63301D01*
X-103691Y63263D01*
X-103744Y63163D01*
X-103759Y63139D01*
X-103762Y63129D01*
X-103769Y63114D01*
X-103990Y62553D01*
X-104047Y62508D01*
X-104121Y62460D01*
X-104143Y62433D01*
X-104170Y62412D01*
X-104270Y62277D01*
X-105372Y60368D01*
X-105385Y60336D01*
X-105404Y60307D01*
X-105428Y60221D01*
X-105459Y60138D01*
X-105461Y60103D01*
X-105470Y60070D01*
X-105470Y59991D01*
X-105871Y59488D01*
X-105887Y59459D01*
X-105935Y59393D01*
X-106256Y58839D01*
X-106318Y58804D01*
X-106399Y58767D01*
X-106425Y58744D01*
X-106455Y58727D01*
X-106573Y58608D01*
X-107948Y56885D01*
X-107965Y56855D01*
X-107989Y56829D01*
X-108025Y56748D01*
X-108068Y56670D01*
X-108075Y56636D01*
X-108089Y56605D01*
X-108101Y56526D01*
X-108573Y56089D01*
X-108593Y56063D01*
X-108650Y56005D01*
X-109050Y55505D01*
X-109116Y55479D01*
X-109202Y55455D01*
X-109231Y55435D01*
X-109263Y55423D01*
X-109398Y55323D01*
X-111014Y53825D01*
X-111035Y53797D01*
X-111063Y53776D01*
X-111111Y53701D01*
X-111165Y53630D01*
X-111177Y53598D01*
X-111195Y53569D01*
X-111219Y53493D01*
X-111751Y53130D01*
X-111775Y53107D01*
X-111840Y53059D01*
X-112309Y52624D01*
X-112379Y52609D01*
X-112467Y52598D01*
X-112499Y52583D01*
X-112533Y52575D01*
X-112681Y52496D01*
X-113136Y52186D01*
X-113219Y52107D01*
X-113304Y52030D01*
X-113308Y52023D01*
X-113314Y52017D01*
X-113368Y51916D01*
X-113423Y51816D01*
X-113425Y51807D01*
X-113429Y51799D01*
X-113447Y51686D01*
X-113468Y51574D01*
X-113467Y51565D01*
X-113469Y51557D01*
X-113450Y51444D01*
X-113434Y51330D01*
X-113430Y51321D01*
X-113429Y51314D01*
X-113418Y51294D01*
X-113403Y51259D01*
X-113402Y51253D01*
X-113397Y51246D01*
X-113367Y51177D01*
X-96205Y21450D01*
X-96160Y21396D01*
X-96135Y21354D01*
X-96119Y21340D01*
X-96093Y21302D01*
X-96068Y21283D01*
X-96049Y21260D01*
X-95970Y21210D01*
X-95951Y21196D01*
X-95948Y21194D01*
X-95947Y21193D01*
X-95896Y21155D01*
X-95866Y21145D01*
X-95840Y21129D01*
X-95750Y21107D01*
X-95662Y21078D01*
X-95631Y21079D01*
X-95601Y21071D01*
X-95509Y21080D01*
X-95416Y21080D01*
X-95378Y21091D01*
X-95356Y21093D01*
X-95327Y21106D01*
X-95255Y21127D01*
X-93692Y21772D01*
X-90899Y22517D01*
X-88032Y22891D01*
X-85141Y22887D01*
X-84123Y22752D01*
X-84123Y20181D01*
X-84198Y20196D01*
X-84232Y20196D01*
X-84278Y20206D01*
X-87335Y20333D01*
X-87369Y20327D01*
X-87416Y20330D01*
X-90454Y19964D01*
X-90486Y19954D01*
X-90532Y19948D01*
X-93472Y19101D01*
X-93502Y19085D01*
X-93548Y19072D01*
X-96314Y17764D01*
X-96336Y17747D01*
X-96363Y17737D01*
X-96415Y17688D01*
X-96473Y17645D01*
X-96487Y17620D01*
X-96508Y17600D01*
X-96537Y17535D01*
X-96573Y17473D01*
X-96576Y17445D01*
X-96588Y17418D01*
X-96589Y17346D01*
X-96598Y17276D01*
X-96590Y17248D01*
X-96591Y17219D01*
X-96555Y17125D01*
X-96544Y17084D01*
X-96537Y17076D01*
X-96533Y17063D01*
X-87033Y563D01*
X-86981Y505D01*
X-86935Y442D01*
X-86916Y431D01*
X-86901Y414D01*
X-86831Y381D01*
X-86764Y341D01*
X-86740Y337D01*
X-86722Y328D01*
X-86677Y326D01*
X-86600Y313D01*
X-67600Y313D01*
X-67572Y319D01*
G37*
G36*
X-101013Y82911D02*
X-101013Y82911D01*
X-100909Y82919D01*
X-100892Y82927D01*
X-100873Y82929D01*
X-100778Y82975D01*
X-100683Y83016D01*
X-100665Y83030D01*
X-100651Y83036D01*
X-100629Y83059D01*
X-100552Y83120D01*
X-97717Y85955D01*
X-97705Y85972D01*
X-97689Y85984D01*
X-97633Y86071D01*
X-97573Y86155D01*
X-97567Y86174D01*
X-97556Y86191D01*
X-97531Y86292D01*
X-97501Y86390D01*
X-97501Y86410D01*
X-97496Y86430D01*
X-97504Y86533D01*
X-97507Y86636D01*
X-97514Y86655D01*
X-97515Y86675D01*
X-97556Y86770D01*
X-97592Y86867D01*
X-97604Y86883D01*
X-97612Y86901D01*
X-97717Y87032D01*
X-107685Y97000D01*
X-109348Y101015D01*
X-109348Y125998D01*
X-107685Y130012D01*
X-85562Y152135D01*
X-81548Y153798D01*
X-78359Y153798D01*
X-78339Y153801D01*
X-78320Y153799D01*
X-78218Y153821D01*
X-78116Y153837D01*
X-78099Y153847D01*
X-78079Y153851D01*
X-77990Y153904D01*
X-77899Y153953D01*
X-77885Y153967D01*
X-77868Y153977D01*
X-77801Y154056D01*
X-77729Y154131D01*
X-77721Y154149D01*
X-77708Y154164D01*
X-77669Y154260D01*
X-77626Y154354D01*
X-77624Y154374D01*
X-77616Y154392D01*
X-77598Y154559D01*
X-77598Y185393D01*
X-77612Y185483D01*
X-77620Y185574D01*
X-77632Y185603D01*
X-77637Y185635D01*
X-77680Y185716D01*
X-77716Y185800D01*
X-77742Y185832D01*
X-77753Y185853D01*
X-77776Y185875D01*
X-77821Y185931D01*
X-83572Y191682D01*
X-83646Y191735D01*
X-83716Y191795D01*
X-83746Y191807D01*
X-83772Y191826D01*
X-83859Y191853D01*
X-83944Y191887D01*
X-83985Y191891D01*
X-84007Y191898D01*
X-84039Y191897D01*
X-84110Y191905D01*
X-88475Y191905D01*
X-88565Y191891D01*
X-88656Y191883D01*
X-88686Y191871D01*
X-88718Y191866D01*
X-88799Y191823D01*
X-88882Y191787D01*
X-88915Y191761D01*
X-88935Y191750D01*
X-88957Y191727D01*
X-89013Y191682D01*
X-90294Y190401D01*
X-93856Y190401D01*
X-96374Y192919D01*
X-96374Y196481D01*
X-93856Y198999D01*
X-90294Y198999D01*
X-89013Y197718D01*
X-88939Y197665D01*
X-88870Y197605D01*
X-88840Y197593D01*
X-88814Y197574D01*
X-88727Y197547D01*
X-88642Y197513D01*
X-88601Y197509D01*
X-88579Y197502D01*
X-88546Y197503D01*
X-88475Y197495D01*
X-81480Y197495D01*
X-79620Y195635D01*
X-78897Y194912D01*
X-78839Y194870D01*
X-78787Y194821D01*
X-78740Y194799D01*
X-78698Y194769D01*
X-78629Y194747D01*
X-78564Y194717D01*
X-78512Y194712D01*
X-78462Y194696D01*
X-78391Y194698D01*
X-78320Y194690D01*
X-78269Y194701D01*
X-78217Y194703D01*
X-78149Y194727D01*
X-78079Y194742D01*
X-78034Y194769D01*
X-77986Y194787D01*
X-77930Y194832D01*
X-77868Y194869D01*
X-77834Y194908D01*
X-77794Y194941D01*
X-77755Y195001D01*
X-77708Y195056D01*
X-77689Y195104D01*
X-77661Y195148D01*
X-77643Y195217D01*
X-77616Y195284D01*
X-77608Y195355D01*
X-77600Y195386D01*
X-77602Y195409D01*
X-77598Y195450D01*
X-77598Y211110D01*
X-77612Y211200D01*
X-77620Y211291D01*
X-77632Y211321D01*
X-77637Y211353D01*
X-77680Y211434D01*
X-77716Y211518D01*
X-77742Y211550D01*
X-77753Y211570D01*
X-77776Y211593D01*
X-77821Y211649D01*
X-78300Y212128D01*
X-78300Y212805D01*
X-78314Y212895D01*
X-78322Y212986D01*
X-78334Y213016D01*
X-78339Y213048D01*
X-78382Y213129D01*
X-78391Y213150D01*
X-78391Y230954D01*
X-78406Y231044D01*
X-78413Y231135D01*
X-78426Y231165D01*
X-78431Y231197D01*
X-78474Y231277D01*
X-78510Y231361D01*
X-78535Y231393D01*
X-78546Y231414D01*
X-78570Y231436D01*
X-78614Y231492D01*
X-79093Y231971D01*
X-79093Y236341D01*
X-77821Y237614D01*
X-77768Y237688D01*
X-77708Y237757D01*
X-77696Y237787D01*
X-77677Y237814D01*
X-77650Y237901D01*
X-77616Y237985D01*
X-77612Y238026D01*
X-77605Y238049D01*
X-77606Y238081D01*
X-77598Y238152D01*
X-77598Y279513D01*
X-77605Y279559D01*
X-77603Y279605D01*
X-77625Y279680D01*
X-77637Y279756D01*
X-77659Y279797D01*
X-77672Y279841D01*
X-77716Y279905D01*
X-77753Y279973D01*
X-77786Y280005D01*
X-77813Y280043D01*
X-77875Y280089D01*
X-77931Y280143D01*
X-77973Y280162D01*
X-78010Y280190D01*
X-78084Y280214D01*
X-78154Y280246D01*
X-78200Y280251D01*
X-78244Y280266D01*
X-78322Y280265D01*
X-78398Y280273D01*
X-78444Y280263D01*
X-78490Y280263D01*
X-78620Y280225D01*
X-78639Y280221D01*
X-78643Y280218D01*
X-78651Y280216D01*
X-79484Y279870D01*
X-81077Y279441D01*
X-81077Y282085D01*
X-78264Y283155D01*
X-78236Y283174D01*
X-78192Y283190D01*
X-75544Y284723D01*
X-75518Y284746D01*
X-75478Y284769D01*
X-73110Y286707D01*
X-73088Y286733D01*
X-73052Y286763D01*
X-71025Y289055D01*
X-71009Y289085D01*
X-70977Y289120D01*
X-69345Y291708D01*
X-69333Y291740D01*
X-69308Y291779D01*
X-68112Y294595D01*
X-68105Y294629D01*
X-68086Y294672D01*
X-67358Y297643D01*
X-67356Y297677D01*
X-67345Y297723D01*
X-67102Y300773D01*
X-67106Y300801D01*
X-67101Y300829D01*
X-67118Y300899D01*
X-67126Y300970D01*
X-67141Y300995D01*
X-67147Y301022D01*
X-67190Y301080D01*
X-67226Y301143D01*
X-67248Y301160D01*
X-67265Y301183D01*
X-67327Y301219D01*
X-67384Y301263D01*
X-67412Y301270D01*
X-67436Y301284D01*
X-67536Y301301D01*
X-67577Y301311D01*
X-67587Y301310D01*
X-67600Y301312D01*
X-86600Y301312D01*
X-86676Y301296D01*
X-86754Y301288D01*
X-86773Y301277D01*
X-86795Y301272D01*
X-86859Y301228D01*
X-86927Y301190D01*
X-86943Y301171D01*
X-86959Y301160D01*
X-86983Y301122D01*
X-87033Y301062D01*
X-96533Y284562D01*
X-96542Y284534D01*
X-96558Y284511D01*
X-96573Y284441D01*
X-96596Y284373D01*
X-96593Y284345D01*
X-96599Y284316D01*
X-96586Y284246D01*
X-96580Y284175D01*
X-96567Y284149D01*
X-96561Y284121D01*
X-96521Y284062D01*
X-96488Y283998D01*
X-96466Y283980D01*
X-96450Y283956D01*
X-96367Y283899D01*
X-96335Y283872D01*
X-96324Y283869D01*
X-96314Y283861D01*
X-93548Y282553D01*
X-93515Y282545D01*
X-93472Y282524D01*
X-90532Y281677D01*
X-90498Y281674D01*
X-90454Y281661D01*
X-87416Y281295D01*
X-87382Y281298D01*
X-87335Y281292D01*
X-84278Y281419D01*
X-84245Y281427D01*
X-84198Y281429D01*
X-84123Y281444D01*
X-84123Y278873D01*
X-85141Y278738D01*
X-88032Y278734D01*
X-90899Y279108D01*
X-93692Y279853D01*
X-95255Y280498D01*
X-95345Y280519D01*
X-95434Y280547D01*
X-95464Y280547D01*
X-95494Y280554D01*
X-95587Y280545D01*
X-95680Y280544D01*
X-95709Y280533D01*
X-95739Y280530D01*
X-95824Y280493D01*
X-95911Y280462D01*
X-95936Y280443D01*
X-95964Y280430D01*
X-96032Y280367D01*
X-96105Y280310D01*
X-96128Y280279D01*
X-96145Y280264D01*
X-96160Y280235D01*
X-96205Y280175D01*
X-113367Y250448D01*
X-113407Y250341D01*
X-113450Y250235D01*
X-113451Y250226D01*
X-113454Y250218D01*
X-113458Y250104D01*
X-113465Y249990D01*
X-113462Y249981D01*
X-113463Y249973D01*
X-113430Y249862D01*
X-113400Y249752D01*
X-113395Y249745D01*
X-113393Y249737D01*
X-113327Y249643D01*
X-113263Y249548D01*
X-113255Y249541D01*
X-113251Y249535D01*
X-113233Y249522D01*
X-113136Y249439D01*
X-112681Y249129D01*
X-112649Y249114D01*
X-112622Y249092D01*
X-112539Y249062D01*
X-112458Y249025D01*
X-112423Y249021D01*
X-112391Y249009D01*
X-112312Y249003D01*
X-111840Y248566D01*
X-111812Y248548D01*
X-111751Y248495D01*
X-111221Y248134D01*
X-111191Y248069D01*
X-111160Y247986D01*
X-111139Y247959D01*
X-111124Y247927D01*
X-111014Y247800D01*
X-109398Y246302D01*
X-109369Y246283D01*
X-109345Y246257D01*
X-109267Y246215D01*
X-109193Y246166D01*
X-109159Y246157D01*
X-109129Y246140D01*
X-109052Y246123D01*
X-108650Y245620D01*
X-108626Y245598D01*
X-108573Y245536D01*
X-108103Y245101D01*
X-108083Y245032D01*
X-108065Y244945D01*
X-108048Y244915D01*
X-108038Y244882D01*
X-107948Y244740D01*
X-106573Y243017D01*
X-106548Y242994D01*
X-106528Y242965D01*
X-106457Y242912D01*
X-106391Y242852D01*
X-106359Y242838D01*
X-106331Y242818D01*
X-106257Y242789D01*
X-105935Y242232D01*
X-105914Y242206D01*
X-105871Y242137D01*
X-105472Y241637D01*
X-105462Y241566D01*
X-105457Y241477D01*
X-105445Y241445D01*
X-105440Y241411D01*
X-105372Y241257D01*
X-104270Y239348D01*
X-104248Y239321D01*
X-104232Y239290D01*
X-104170Y239227D01*
X-104114Y239158D01*
X-104084Y239140D01*
X-104060Y239115D01*
X-103991Y239075D01*
X-103756Y238476D01*
X-103739Y238448D01*
X-103707Y238374D01*
X-103386Y237819D01*
X-103387Y237748D01*
X-103396Y237659D01*
X-103388Y237625D01*
X-103388Y237591D01*
X-103344Y237429D01*
X-102538Y235377D01*
X-102521Y235347D01*
X-102510Y235314D01*
X-102458Y235242D01*
X-102413Y235166D01*
X-102386Y235143D01*
X-102366Y235115D01*
X-102304Y235066D01*
X-102160Y234438D01*
X-102148Y234408D01*
X-102127Y234330D01*
X-101893Y233734D01*
X-101904Y233663D01*
X-101926Y233577D01*
X-101923Y233542D01*
X-101929Y233508D01*
X-101910Y233341D01*
X-101419Y231192D01*
X-101405Y231160D01*
X-101400Y231126D01*
X-101359Y231047D01*
X-101326Y230965D01*
X-101303Y230938D01*
X-101287Y230907D01*
X-101233Y230849D01*
X-101185Y230208D01*
X-101177Y230176D01*
X-101168Y230095D01*
X-101045Y229559D01*
X-101004Y229458D01*
X-100966Y229355D01*
X-100958Y229344D01*
X-100952Y229331D01*
X-100881Y229248D01*
X-100813Y229163D01*
X-100801Y229155D01*
X-100792Y229145D01*
X-100698Y229089D01*
X-100606Y229030D01*
X-100592Y229027D01*
X-100580Y229019D01*
X-100473Y228997D01*
X-100367Y228970D01*
X-100353Y228971D01*
X-100340Y228968D01*
X-100231Y228981D01*
X-100122Y228989D01*
X-100109Y228995D01*
X-100095Y228996D01*
X-99996Y229043D01*
X-99896Y229085D01*
X-99882Y229096D01*
X-99872Y229101D01*
X-99851Y229121D01*
X-99787Y229172D01*
X-96222Y229172D01*
X-96169Y229120D01*
X-96111Y229078D01*
X-96059Y229029D01*
X-96038Y229019D01*
X-96033Y229015D01*
X-96010Y229005D01*
X-95970Y228976D01*
X-95901Y228955D01*
X-95836Y228925D01*
X-95784Y228919D01*
X-95734Y228904D01*
X-95663Y228906D01*
X-95592Y228898D01*
X-95541Y228909D01*
X-95489Y228910D01*
X-95421Y228935D01*
X-95351Y228950D01*
X-95306Y228977D01*
X-95258Y228995D01*
X-95202Y229040D01*
X-95140Y229076D01*
X-95106Y229116D01*
X-95066Y229149D01*
X-95027Y229209D01*
X-95008Y229231D01*
X-95001Y229238D01*
X-95001Y229239D01*
X-94980Y229263D01*
X-94961Y229312D01*
X-94933Y229355D01*
X-94916Y229422D01*
X-94898Y229461D01*
X-94897Y229470D01*
X-94888Y229492D01*
X-94880Y229563D01*
X-94872Y229594D01*
X-94874Y229617D01*
X-94870Y229658D01*
X-94870Y230689D01*
X-94873Y230709D01*
X-94871Y230728D01*
X-94893Y230830D01*
X-94909Y230932D01*
X-94919Y230949D01*
X-94923Y230969D01*
X-94976Y231058D01*
X-95025Y231149D01*
X-95039Y231163D01*
X-95049Y231180D01*
X-95128Y231247D01*
X-95203Y231319D01*
X-95221Y231327D01*
X-95236Y231340D01*
X-95332Y231379D01*
X-95426Y231422D01*
X-95446Y231424D01*
X-95464Y231432D01*
X-95631Y231450D01*
X-96707Y231450D01*
X-97600Y232343D01*
X-97600Y241607D01*
X-96707Y242500D01*
X-87443Y242500D01*
X-86550Y241607D01*
X-86550Y232343D01*
X-87443Y231450D01*
X-88519Y231450D01*
X-88539Y231447D01*
X-88558Y231449D01*
X-88660Y231427D01*
X-88762Y231411D01*
X-88779Y231401D01*
X-88799Y231397D01*
X-88888Y231344D01*
X-88979Y231295D01*
X-88993Y231281D01*
X-89010Y231271D01*
X-89077Y231192D01*
X-89149Y231117D01*
X-89157Y231099D01*
X-89170Y231084D01*
X-89209Y230988D01*
X-89252Y230894D01*
X-89254Y230874D01*
X-89262Y230856D01*
X-89280Y230689D01*
X-89280Y224262D01*
X-89266Y224172D01*
X-89258Y224081D01*
X-89246Y224052D01*
X-89241Y224020D01*
X-89198Y223939D01*
X-89162Y223855D01*
X-89136Y223823D01*
X-89125Y223802D01*
X-89102Y223780D01*
X-89057Y223724D01*
X-87776Y222443D01*
X-87776Y218882D01*
X-90294Y216364D01*
X-93856Y216364D01*
X-96374Y218882D01*
X-96374Y219814D01*
X-96377Y219833D01*
X-96375Y219853D01*
X-96397Y219954D01*
X-96413Y220056D01*
X-96423Y220074D01*
X-96427Y220093D01*
X-96480Y220182D01*
X-96529Y220274D01*
X-96543Y220287D01*
X-96553Y220304D01*
X-96632Y220372D01*
X-96707Y220443D01*
X-96725Y220451D01*
X-96740Y220464D01*
X-96836Y220503D01*
X-96930Y220547D01*
X-96950Y220549D01*
X-96968Y220556D01*
X-97135Y220575D01*
X-99783Y220575D01*
X-100077Y220869D01*
X-100170Y220936D01*
X-100262Y221005D01*
X-100270Y221008D01*
X-100277Y221013D01*
X-100386Y221046D01*
X-100495Y221083D01*
X-100504Y221083D01*
X-100512Y221085D01*
X-100626Y221082D01*
X-100741Y221082D01*
X-100749Y221079D01*
X-100758Y221079D01*
X-100866Y221039D01*
X-100974Y221003D01*
X-100982Y220997D01*
X-100989Y220994D01*
X-101007Y220980D01*
X-101112Y220908D01*
X-101169Y220859D01*
X-101192Y220832D01*
X-101220Y220811D01*
X-101270Y220738D01*
X-101328Y220670D01*
X-101340Y220638D01*
X-101360Y220609D01*
X-101415Y220451D01*
X-101905Y218302D01*
X-101907Y218267D01*
X-101917Y218234D01*
X-101915Y218145D01*
X-101920Y218056D01*
X-101911Y218023D01*
X-101910Y217988D01*
X-101886Y217913D01*
X-102121Y217313D01*
X-102128Y217281D01*
X-102155Y217204D01*
X-102297Y216580D01*
X-102346Y216528D01*
X-102413Y216469D01*
X-102430Y216439D01*
X-102454Y216414D01*
X-102532Y216265D01*
X-103337Y214213D01*
X-103344Y214179D01*
X-103359Y214148D01*
X-103370Y214060D01*
X-103389Y213973D01*
X-103385Y213938D01*
X-103389Y213904D01*
X-103377Y213825D01*
X-103698Y213268D01*
X-103710Y213237D01*
X-103748Y213165D01*
X-103982Y212569D01*
X-104038Y212525D01*
X-104113Y212477D01*
X-104134Y212450D01*
X-104162Y212428D01*
X-104261Y212293D01*
X-105362Y210384D01*
X-105375Y210351D01*
X-105394Y210323D01*
X-105418Y210237D01*
X-105449Y210154D01*
X-105451Y210119D01*
X-105460Y210086D01*
X-105460Y210006D01*
X-105861Y209503D01*
X-105877Y209474D01*
X-105925Y209409D01*
X-106245Y208854D01*
X-106307Y208819D01*
X-106388Y208782D01*
X-106414Y208759D01*
X-106444Y208742D01*
X-106562Y208623D01*
X-107936Y206899D01*
X-107953Y206869D01*
X-107976Y206843D01*
X-108013Y206762D01*
X-108056Y206684D01*
X-108063Y206650D01*
X-108077Y206619D01*
X-108088Y206540D01*
X-108560Y206102D01*
X-108580Y206076D01*
X-108637Y206019D01*
X-109037Y205518D01*
X-109103Y205492D01*
X-109189Y205468D01*
X-109218Y205449D01*
X-109250Y205436D01*
X-109385Y205336D01*
X-111000Y203837D01*
X-111021Y203809D01*
X-111048Y203788D01*
X-111096Y203713D01*
X-111151Y203642D01*
X-111162Y203610D01*
X-111181Y203580D01*
X-111204Y203505D01*
X-111736Y203142D01*
X-111760Y203119D01*
X-111825Y203071D01*
X-112294Y202635D01*
X-112364Y202620D01*
X-112453Y202609D01*
X-112484Y202594D01*
X-112518Y202586D01*
X-112666Y202508D01*
X-114487Y201265D01*
X-114512Y201241D01*
X-114542Y201224D01*
X-114600Y201157D01*
X-114665Y201096D01*
X-114681Y201065D01*
X-114704Y201039D01*
X-114738Y200967D01*
X-115318Y200688D01*
X-115345Y200669D01*
X-115416Y200631D01*
X-115945Y200270D01*
X-116017Y200265D01*
X-116106Y200267D01*
X-116139Y200257D01*
X-116174Y200255D01*
X-116332Y200199D01*
X-118317Y199242D01*
X-118346Y199222D01*
X-118378Y199210D01*
X-118446Y199152D01*
X-118519Y199101D01*
X-118539Y199073D01*
X-118566Y199051D01*
X-118610Y198985D01*
X-119225Y198795D01*
X-119255Y198780D01*
X-119331Y198754D01*
X-119908Y198475D01*
X-119980Y198481D01*
X-120067Y198497D01*
X-120101Y198492D01*
X-120136Y198495D01*
X-120301Y198463D01*
X-122407Y197813D01*
X-122438Y197797D01*
X-122472Y197789D01*
X-122548Y197743D01*
X-122627Y197703D01*
X-122651Y197679D01*
X-122681Y197660D01*
X-122735Y197602D01*
X-123371Y197506D01*
X-123403Y197496D01*
X-123482Y197481D01*
X-124094Y197292D01*
X-124164Y197308D01*
X-124248Y197336D01*
X-124283Y197336D01*
X-124317Y197344D01*
X-124484Y197338D01*
X-126664Y197009D01*
X-126697Y196998D01*
X-126731Y196995D01*
X-126813Y196960D01*
X-126898Y196933D01*
X-126926Y196912D01*
X-126958Y196899D01*
X-127019Y196849D01*
X-127663Y196849D01*
X-127696Y196844D01*
X-127777Y196841D01*
X-128410Y196745D01*
X-128476Y196772D01*
X-128555Y196812D01*
X-128590Y196817D01*
X-128622Y196830D01*
X-128789Y196849D01*
X-130993Y196848D01*
X-131027Y196842D01*
X-131062Y196845D01*
X-131148Y196823D01*
X-131235Y196808D01*
X-131266Y196792D01*
X-131300Y196783D01*
X-131368Y196743D01*
X-132005Y196839D01*
X-132038Y196839D01*
X-132118Y196848D01*
X-132759Y196847D01*
X-132821Y196884D01*
X-132893Y196936D01*
X-132926Y196946D01*
X-132956Y196963D01*
X-133118Y197007D01*
X-135298Y197334D01*
X-135332Y197334D01*
X-135366Y197341D01*
X-135455Y197332D01*
X-135543Y197331D01*
X-135576Y197320D01*
X-135611Y197316D01*
X-135684Y197287D01*
X-136300Y197476D01*
X-136332Y197481D01*
X-136411Y197502D01*
X-137044Y197597D01*
X-137100Y197642D01*
X-137163Y197704D01*
X-137194Y197719D01*
X-137221Y197741D01*
X-137375Y197808D01*
X-139482Y198457D01*
X-139516Y198462D01*
X-139548Y198474D01*
X-139637Y198478D01*
X-139725Y198490D01*
X-139759Y198484D01*
X-139794Y198486D01*
X-139871Y198468D01*
X-140451Y198747D01*
X-140483Y198756D01*
X-140557Y198788D01*
X-141169Y198977D01*
X-141218Y199030D01*
X-141271Y199101D01*
X-141300Y199120D01*
X-141323Y199146D01*
X-141466Y199235D01*
X-141978Y199482D01*
X-142087Y199514D01*
X-142197Y199549D01*
X-142206Y199548D01*
X-142214Y199551D01*
X-142329Y199547D01*
X-142443Y199545D01*
X-142451Y199542D01*
X-142460Y199542D01*
X-142567Y199501D01*
X-142675Y199463D01*
X-142682Y199457D01*
X-142690Y199454D01*
X-142779Y199382D01*
X-142868Y199311D01*
X-142875Y199303D01*
X-142880Y199298D01*
X-142893Y199278D01*
X-142968Y199176D01*
X-160132Y169447D01*
X-160165Y169360D01*
X-160204Y169275D01*
X-160208Y169245D01*
X-160219Y169217D01*
X-160222Y169124D01*
X-160233Y169031D01*
X-160226Y169001D01*
X-160228Y168971D01*
X-160201Y168882D01*
X-160182Y168790D01*
X-160166Y168764D01*
X-160158Y168735D01*
X-160104Y168659D01*
X-160057Y168578D01*
X-160029Y168552D01*
X-160016Y168534D01*
X-159990Y168515D01*
X-159936Y168462D01*
X-159049Y167782D01*
X-158628Y167459D01*
X-156580Y165411D01*
X-154817Y163113D01*
X-153369Y160605D01*
X-152261Y157929D01*
X-151511Y155132D01*
X-151143Y152336D01*
X-153736Y152336D01*
X-153736Y152346D01*
X-153743Y152379D01*
X-153743Y152426D01*
X-154235Y155452D01*
X-154247Y155484D01*
X-154254Y155530D01*
X-155225Y158439D01*
X-155238Y158462D01*
X-155244Y158486D01*
X-155251Y158495D01*
X-155256Y158512D01*
X-156681Y161227D01*
X-156703Y161254D01*
X-156724Y161295D01*
X-158566Y163747D01*
X-158591Y163769D01*
X-158619Y163807D01*
X-160831Y165931D01*
X-160859Y165949D01*
X-160893Y165982D01*
X-163416Y167723D01*
X-163443Y167735D01*
X-163465Y167753D01*
X-163534Y167774D01*
X-163599Y167801D01*
X-163628Y167802D01*
X-163656Y167810D01*
X-163727Y167802D01*
X-163798Y167802D01*
X-163825Y167791D01*
X-163854Y167788D01*
X-163916Y167753D01*
X-163981Y167725D01*
X-164002Y167704D01*
X-164027Y167690D01*
X-164090Y167613D01*
X-164120Y167582D01*
X-164124Y167572D01*
X-164133Y167562D01*
X-173633Y151062D01*
X-173657Y150989D01*
X-173688Y150918D01*
X-173688Y150895D01*
X-173696Y150873D01*
X-173690Y150796D01*
X-173691Y150719D01*
X-173681Y150695D01*
X-173680Y150675D01*
X-173659Y150635D01*
X-173640Y150583D01*
X-173639Y150578D01*
X-173637Y150576D01*
X-173633Y150563D01*
X-164133Y134063D01*
X-164114Y134042D01*
X-164101Y134015D01*
X-164048Y133968D01*
X-164001Y133914D01*
X-163975Y133902D01*
X-163954Y133882D01*
X-163886Y133859D01*
X-163822Y133828D01*
X-163793Y133827D01*
X-163766Y133818D01*
X-163694Y133822D01*
X-163623Y133819D01*
X-163596Y133829D01*
X-163567Y133831D01*
X-163477Y133874D01*
X-163437Y133888D01*
X-163429Y133896D01*
X-163416Y133902D01*
X-160893Y135643D01*
X-160869Y135668D01*
X-160831Y135694D01*
X-158619Y137818D01*
X-158600Y137846D01*
X-158566Y137878D01*
X-156724Y140330D01*
X-156710Y140360D01*
X-156681Y140398D01*
X-155256Y143113D01*
X-155247Y143145D01*
X-155225Y143186D01*
X-154254Y146095D01*
X-154250Y146129D01*
X-154235Y146173D01*
X-153743Y149199D01*
X-153744Y149233D01*
X-153736Y149279D01*
X-153736Y149289D01*
X-151143Y149289D01*
X-151511Y146493D01*
X-152261Y143696D01*
X-153369Y141020D01*
X-154817Y138512D01*
X-156580Y136214D01*
X-158628Y134166D01*
X-159936Y133163D01*
X-159999Y133095D01*
X-160069Y133032D01*
X-160083Y133005D01*
X-160104Y132983D01*
X-160143Y132899D01*
X-160188Y132817D01*
X-160194Y132787D01*
X-160207Y132760D01*
X-160216Y132667D01*
X-160233Y132575D01*
X-160229Y132545D01*
X-160232Y132515D01*
X-160212Y132424D01*
X-160199Y132332D01*
X-160184Y132297D01*
X-160179Y132275D01*
X-160162Y132247D01*
X-160132Y132178D01*
X-142968Y102449D01*
X-142895Y102360D01*
X-142825Y102270D01*
X-142818Y102265D01*
X-142812Y102258D01*
X-142714Y102197D01*
X-142620Y102135D01*
X-142611Y102132D01*
X-142604Y102128D01*
X-142492Y102101D01*
X-142382Y102072D01*
X-142373Y102072D01*
X-142365Y102070D01*
X-142251Y102080D01*
X-142137Y102088D01*
X-142127Y102091D01*
X-142120Y102092D01*
X-142098Y102101D01*
X-141978Y102143D01*
X-141466Y102390D01*
X-141437Y102410D01*
X-141405Y102423D01*
X-141337Y102480D01*
X-141264Y102531D01*
X-141244Y102559D01*
X-141217Y102582D01*
X-141172Y102647D01*
X-140557Y102837D01*
X-140528Y102851D01*
X-140451Y102878D01*
X-139874Y103156D01*
X-139803Y103150D01*
X-139715Y103134D01*
X-139681Y103140D01*
X-139647Y103137D01*
X-139482Y103168D01*
X-137375Y103817D01*
X-137344Y103833D01*
X-137310Y103840D01*
X-137235Y103887D01*
X-137155Y103927D01*
X-137130Y103951D01*
X-137101Y103969D01*
X-137047Y104028D01*
X-136411Y104123D01*
X-136379Y104133D01*
X-136300Y104149D01*
X-135688Y104337D01*
X-135618Y104321D01*
X-135534Y104292D01*
X-135499Y104292D01*
X-135465Y104284D01*
X-135298Y104291D01*
X-133118Y104618D01*
X-133085Y104629D01*
X-133050Y104632D01*
X-132968Y104667D01*
X-132884Y104694D01*
X-132856Y104714D01*
X-132824Y104728D01*
X-132762Y104778D01*
X-132118Y104777D01*
X-132086Y104783D01*
X-132005Y104786D01*
X-131372Y104881D01*
X-131305Y104854D01*
X-131226Y104814D01*
X-131192Y104809D01*
X-131159Y104796D01*
X-130993Y104777D01*
X-128789Y104776D01*
X-128754Y104782D01*
X-128720Y104779D01*
X-128634Y104802D01*
X-128546Y104816D01*
X-128515Y104832D01*
X-128482Y104841D01*
X-128413Y104881D01*
X-127777Y104784D01*
X-127744Y104785D01*
X-127663Y104776D01*
X-127023Y104776D01*
X-126961Y104739D01*
X-126889Y104687D01*
X-126856Y104677D01*
X-126826Y104660D01*
X-126664Y104616D01*
X-124484Y104287D01*
X-124449Y104288D01*
X-124416Y104280D01*
X-124327Y104289D01*
X-124238Y104290D01*
X-124206Y104302D01*
X-124171Y104305D01*
X-124097Y104334D01*
X-123482Y104144D01*
X-123450Y104140D01*
X-123371Y104119D01*
X-122738Y104023D01*
X-122683Y103978D01*
X-122619Y103916D01*
X-122588Y103901D01*
X-122561Y103879D01*
X-122407Y103812D01*
X-120301Y103162D01*
X-120266Y103157D01*
X-120234Y103145D01*
X-120145Y103140D01*
X-120057Y103128D01*
X-120023Y103135D01*
X-119988Y103133D01*
X-119911Y103151D01*
X-119331Y102871D01*
X-119300Y102862D01*
X-119225Y102830D01*
X-118613Y102641D01*
X-118565Y102588D01*
X-118512Y102517D01*
X-118483Y102498D01*
X-118460Y102472D01*
X-118317Y102383D01*
X-116332Y101426D01*
X-116299Y101416D01*
X-116268Y101399D01*
X-116181Y101381D01*
X-116096Y101356D01*
X-116061Y101358D01*
X-116027Y101351D01*
X-115948Y101357D01*
X-115416Y100994D01*
X-115386Y100980D01*
X-115318Y100937D01*
X-114741Y100659D01*
X-114701Y100599D01*
X-114659Y100521D01*
X-114633Y100498D01*
X-114614Y100469D01*
X-114487Y100360D01*
X-112666Y99117D01*
X-112634Y99103D01*
X-112607Y99081D01*
X-112524Y99051D01*
X-112443Y99014D01*
X-112408Y99010D01*
X-112376Y98998D01*
X-112297Y98992D01*
X-111825Y98554D01*
X-111797Y98536D01*
X-111736Y98483D01*
X-111207Y98122D01*
X-111177Y98057D01*
X-111146Y97974D01*
X-111125Y97947D01*
X-111110Y97915D01*
X-111000Y97788D01*
X-109385Y96289D01*
X-109356Y96269D01*
X-109332Y96244D01*
X-109254Y96202D01*
X-109180Y96153D01*
X-109147Y96144D01*
X-109116Y96127D01*
X-109039Y96110D01*
X-108637Y95606D01*
X-108613Y95584D01*
X-108560Y95523D01*
X-108091Y95087D01*
X-108070Y95018D01*
X-108053Y94931D01*
X-108035Y94901D01*
X-108025Y94868D01*
X-107936Y94726D01*
X-106562Y93002D01*
X-106537Y92979D01*
X-106517Y92950D01*
X-106446Y92897D01*
X-106380Y92837D01*
X-106348Y92823D01*
X-106320Y92803D01*
X-106246Y92774D01*
X-105925Y92216D01*
X-105904Y92191D01*
X-105861Y92122D01*
X-105462Y91621D01*
X-105452Y91550D01*
X-105447Y91461D01*
X-105435Y91429D01*
X-105430Y91395D01*
X-105362Y91241D01*
X-104261Y89332D01*
X-104239Y89305D01*
X-104224Y89274D01*
X-104161Y89210D01*
X-104105Y89142D01*
X-104076Y89123D01*
X-104052Y89098D01*
X-103983Y89059D01*
X-103748Y88460D01*
X-103731Y88431D01*
X-103698Y88357D01*
X-103378Y87802D01*
X-103379Y87730D01*
X-103388Y87642D01*
X-103380Y87608D01*
X-103381Y87574D01*
X-103337Y87412D01*
X-102532Y85360D01*
X-102515Y85330D01*
X-102504Y85297D01*
X-102452Y85225D01*
X-102407Y85148D01*
X-102380Y85125D01*
X-102360Y85097D01*
X-102298Y85048D01*
X-102155Y84421D01*
X-102143Y84390D01*
X-102121Y84312D01*
X-101840Y83593D01*
X-101838Y83516D01*
X-101831Y83499D01*
X-101830Y83480D01*
X-101789Y83384D01*
X-101753Y83285D01*
X-101741Y83271D01*
X-101734Y83253D01*
X-101665Y83175D01*
X-101600Y83093D01*
X-101584Y83083D01*
X-101571Y83069D01*
X-101481Y83017D01*
X-101393Y82960D01*
X-101374Y82956D01*
X-101358Y82946D01*
X-101256Y82926D01*
X-101154Y82900D01*
X-101135Y82902D01*
X-101117Y82898D01*
X-101013Y82911D01*
G37*
G36*
X89581Y92101D02*
X89581Y92101D01*
X89652Y92106D01*
X89700Y92127D01*
X89751Y92138D01*
X89813Y92175D01*
X89879Y92203D01*
X89935Y92247D01*
X89962Y92264D01*
X89978Y92282D01*
X90010Y92307D01*
X91101Y93399D01*
X94003Y96301D01*
X96363Y96301D01*
X96453Y96315D01*
X96544Y96323D01*
X96573Y96335D01*
X96605Y96340D01*
X96686Y96383D01*
X96770Y96419D01*
X96802Y96445D01*
X96823Y96455D01*
X96845Y96479D01*
X96901Y96524D01*
X97764Y97387D01*
X102134Y97387D01*
X105223Y94297D01*
X105223Y93499D01*
X105242Y93387D01*
X105258Y93273D01*
X105262Y93265D01*
X105263Y93256D01*
X105316Y93156D01*
X105367Y93053D01*
X105374Y93047D01*
X105378Y93039D01*
X105460Y92961D01*
X105542Y92880D01*
X105550Y92876D01*
X105557Y92869D01*
X105660Y92821D01*
X105762Y92771D01*
X105771Y92770D01*
X105780Y92766D01*
X105893Y92753D01*
X106006Y92738D01*
X106015Y92740D01*
X106024Y92739D01*
X106136Y92763D01*
X106248Y92785D01*
X106255Y92789D01*
X106264Y92791D01*
X106362Y92850D01*
X106462Y92906D01*
X106469Y92914D01*
X106476Y92917D01*
X106491Y92935D01*
X106580Y93025D01*
X107936Y94726D01*
X107953Y94756D01*
X107976Y94782D01*
X108013Y94863D01*
X108056Y94941D01*
X108063Y94975D01*
X108077Y95006D01*
X108088Y95085D01*
X108560Y95523D01*
X108580Y95549D01*
X108637Y95606D01*
X109037Y96107D01*
X109103Y96133D01*
X109189Y96157D01*
X109218Y96176D01*
X109250Y96189D01*
X109385Y96289D01*
X111000Y97788D01*
X111021Y97816D01*
X111048Y97837D01*
X111096Y97912D01*
X111151Y97983D01*
X111162Y98015D01*
X111181Y98045D01*
X111204Y98120D01*
X111736Y98483D01*
X111760Y98506D01*
X111825Y98554D01*
X112294Y98990D01*
X112364Y99005D01*
X112453Y99016D01*
X112484Y99031D01*
X112518Y99039D01*
X112666Y99117D01*
X114487Y100360D01*
X114512Y100384D01*
X114542Y100401D01*
X114600Y100468D01*
X114665Y100529D01*
X114681Y100560D01*
X114704Y100586D01*
X114738Y100658D01*
X115318Y100937D01*
X115345Y100956D01*
X115416Y100994D01*
X115945Y101355D01*
X116017Y101360D01*
X116106Y101358D01*
X116139Y101368D01*
X116174Y101370D01*
X116332Y101426D01*
X118317Y102383D01*
X118346Y102403D01*
X118378Y102415D01*
X118446Y102473D01*
X118519Y102524D01*
X118539Y102552D01*
X118566Y102574D01*
X118610Y102640D01*
X119225Y102830D01*
X119255Y102845D01*
X119331Y102871D01*
X119908Y103150D01*
X119980Y103144D01*
X120067Y103128D01*
X120101Y103133D01*
X120136Y103130D01*
X120301Y103162D01*
X122407Y103812D01*
X122438Y103828D01*
X122472Y103836D01*
X122548Y103882D01*
X122627Y103922D01*
X122651Y103946D01*
X122681Y103965D01*
X122735Y104023D01*
X123371Y104119D01*
X123403Y104129D01*
X123482Y104144D01*
X124094Y104333D01*
X124164Y104317D01*
X124248Y104289D01*
X124283Y104289D01*
X124317Y104281D01*
X124484Y104287D01*
X126664Y104616D01*
X126697Y104627D01*
X126731Y104630D01*
X126813Y104665D01*
X126898Y104692D01*
X126926Y104713D01*
X126958Y104726D01*
X127019Y104776D01*
X127663Y104776D01*
X127696Y104781D01*
X127777Y104784D01*
X128410Y104880D01*
X128476Y104853D01*
X128555Y104813D01*
X128590Y104808D01*
X128622Y104795D01*
X128789Y104776D01*
X130993Y104777D01*
X131027Y104783D01*
X131062Y104780D01*
X131148Y104802D01*
X131235Y104817D01*
X131266Y104833D01*
X131300Y104842D01*
X131368Y104882D01*
X132005Y104786D01*
X132038Y104786D01*
X132118Y104777D01*
X132759Y104778D01*
X132821Y104741D01*
X132893Y104689D01*
X132926Y104679D01*
X132956Y104662D01*
X133118Y104618D01*
X135298Y104291D01*
X135332Y104291D01*
X135366Y104284D01*
X135455Y104293D01*
X135543Y104294D01*
X135576Y104305D01*
X135611Y104309D01*
X135684Y104338D01*
X136300Y104149D01*
X136332Y104144D01*
X136411Y104123D01*
X137044Y104028D01*
X137100Y103983D01*
X137163Y103921D01*
X137194Y103906D01*
X137221Y103884D01*
X137375Y103817D01*
X139482Y103168D01*
X139516Y103163D01*
X139548Y103151D01*
X139637Y103147D01*
X139725Y103135D01*
X139759Y103141D01*
X139794Y103139D01*
X139871Y103157D01*
X140451Y102878D01*
X140483Y102869D01*
X140557Y102837D01*
X141169Y102648D01*
X141218Y102595D01*
X141271Y102524D01*
X141300Y102505D01*
X141323Y102479D01*
X141466Y102390D01*
X141978Y102143D01*
X142087Y102111D01*
X142197Y102076D01*
X142206Y102077D01*
X142214Y102074D01*
X142329Y102078D01*
X142443Y102080D01*
X142451Y102083D01*
X142460Y102083D01*
X142567Y102124D01*
X142675Y102162D01*
X142682Y102168D01*
X142690Y102171D01*
X142779Y102243D01*
X142868Y102314D01*
X142875Y102322D01*
X142880Y102327D01*
X142893Y102347D01*
X142968Y102449D01*
X160132Y132178D01*
X160165Y132265D01*
X160204Y132350D01*
X160208Y132380D01*
X160219Y132408D01*
X160222Y132501D01*
X160233Y132594D01*
X160226Y132624D01*
X160228Y132654D01*
X160201Y132743D01*
X160182Y132835D01*
X160166Y132861D01*
X160158Y132890D01*
X160104Y132966D01*
X160057Y133047D01*
X160029Y133073D01*
X160016Y133091D01*
X159990Y133111D01*
X159936Y133163D01*
X159146Y133768D01*
X158628Y134166D01*
X156580Y136214D01*
X154817Y138512D01*
X153369Y141020D01*
X152261Y143696D01*
X151511Y146493D01*
X151143Y149289D01*
X153736Y149289D01*
X153736Y149279D01*
X153737Y149276D01*
X153737Y149273D01*
X153743Y149247D01*
X153743Y149246D01*
X153743Y149199D01*
X154235Y146173D01*
X154247Y146141D01*
X154254Y146095D01*
X155225Y143186D01*
X155242Y143157D01*
X155256Y143113D01*
X156681Y140398D01*
X156703Y140371D01*
X156724Y140330D01*
X158566Y137878D01*
X158591Y137856D01*
X158619Y137818D01*
X160831Y135694D01*
X160859Y135676D01*
X160893Y135643D01*
X163416Y133902D01*
X163443Y133890D01*
X163465Y133872D01*
X163534Y133852D01*
X163599Y133824D01*
X163628Y133823D01*
X163656Y133815D01*
X163727Y133823D01*
X163798Y133823D01*
X163825Y133834D01*
X163854Y133837D01*
X163916Y133873D01*
X163981Y133900D01*
X164002Y133921D01*
X164027Y133935D01*
X164090Y134012D01*
X164120Y134043D01*
X164124Y134053D01*
X164133Y134063D01*
X173633Y150563D01*
X173643Y150595D01*
X173652Y150608D01*
X173656Y150633D01*
X173657Y150636D01*
X173688Y150707D01*
X173688Y150730D01*
X173696Y150752D01*
X173690Y150829D01*
X173691Y150906D01*
X173681Y150930D01*
X173680Y150950D01*
X173659Y150990D01*
X173633Y151062D01*
X164133Y167562D01*
X164114Y167583D01*
X164101Y167610D01*
X164048Y167657D01*
X164001Y167711D01*
X163975Y167723D01*
X163954Y167743D01*
X163886Y167766D01*
X163822Y167797D01*
X163793Y167798D01*
X163766Y167807D01*
X163694Y167803D01*
X163623Y167806D01*
X163596Y167796D01*
X163567Y167794D01*
X163477Y167751D01*
X163437Y167737D01*
X163429Y167729D01*
X163416Y167723D01*
X160893Y165982D01*
X160869Y165957D01*
X160831Y165931D01*
X158619Y163807D01*
X158600Y163779D01*
X158566Y163747D01*
X156724Y161295D01*
X156710Y161265D01*
X156681Y161227D01*
X155256Y158512D01*
X155247Y158481D01*
X155231Y158456D01*
X155230Y158448D01*
X155225Y158439D01*
X154254Y155530D01*
X154250Y155496D01*
X154235Y155452D01*
X153743Y152426D01*
X153744Y152392D01*
X153736Y152346D01*
X153736Y152336D01*
X151143Y152336D01*
X151511Y155132D01*
X152261Y157929D01*
X153369Y160605D01*
X154817Y163113D01*
X154820Y163118D01*
X156580Y165411D01*
X158628Y167459D01*
X159936Y168462D01*
X159999Y168530D01*
X160069Y168593D01*
X160083Y168619D01*
X160104Y168642D01*
X160143Y168726D01*
X160188Y168808D01*
X160194Y168838D01*
X160207Y168865D01*
X160216Y168958D01*
X160233Y169050D01*
X160229Y169080D01*
X160232Y169110D01*
X160212Y169201D01*
X160199Y169293D01*
X160184Y169328D01*
X160179Y169350D01*
X160162Y169378D01*
X160132Y169447D01*
X142968Y199176D01*
X142895Y199265D01*
X142825Y199355D01*
X142818Y199360D01*
X142812Y199367D01*
X142715Y199428D01*
X142620Y199490D01*
X142611Y199493D01*
X142604Y199497D01*
X142492Y199524D01*
X142382Y199553D01*
X142373Y199553D01*
X142365Y199555D01*
X142251Y199545D01*
X142137Y199537D01*
X142127Y199534D01*
X142120Y199533D01*
X142098Y199524D01*
X141978Y199482D01*
X141466Y199235D01*
X141437Y199215D01*
X141405Y199202D01*
X141337Y199145D01*
X141264Y199094D01*
X141244Y199066D01*
X141217Y199043D01*
X141172Y198978D01*
X140557Y198788D01*
X140528Y198774D01*
X140451Y198747D01*
X139874Y198469D01*
X139803Y198475D01*
X139715Y198491D01*
X139681Y198485D01*
X139647Y198488D01*
X139482Y198457D01*
X137375Y197808D01*
X137344Y197792D01*
X137310Y197785D01*
X137235Y197738D01*
X137155Y197698D01*
X137130Y197674D01*
X137101Y197656D01*
X137047Y197597D01*
X136410Y197502D01*
X136379Y197492D01*
X136300Y197476D01*
X135688Y197288D01*
X135618Y197304D01*
X135534Y197333D01*
X135499Y197333D01*
X135465Y197341D01*
X135298Y197334D01*
X133118Y197007D01*
X133085Y196996D01*
X133050Y196993D01*
X132968Y196958D01*
X132884Y196931D01*
X132856Y196911D01*
X132824Y196897D01*
X132762Y196847D01*
X132118Y196848D01*
X132086Y196842D01*
X132005Y196839D01*
X131372Y196744D01*
X131305Y196771D01*
X131226Y196811D01*
X131192Y196816D01*
X131159Y196829D01*
X130993Y196848D01*
X128789Y196849D01*
X128754Y196843D01*
X128720Y196846D01*
X128634Y196823D01*
X128546Y196809D01*
X128515Y196793D01*
X128482Y196784D01*
X128413Y196744D01*
X127777Y196841D01*
X127744Y196840D01*
X127663Y196849D01*
X127023Y196849D01*
X126961Y196886D01*
X126889Y196938D01*
X126856Y196948D01*
X126826Y196965D01*
X126664Y197009D01*
X124484Y197338D01*
X124450Y197337D01*
X124416Y197345D01*
X124327Y197336D01*
X124238Y197335D01*
X124205Y197323D01*
X124171Y197320D01*
X124097Y197291D01*
X123482Y197481D01*
X123450Y197485D01*
X123371Y197506D01*
X122738Y197602D01*
X122683Y197647D01*
X122619Y197709D01*
X122588Y197724D01*
X122561Y197746D01*
X122407Y197813D01*
X120301Y198463D01*
X120266Y198468D01*
X120234Y198480D01*
X120145Y198485D01*
X120057Y198497D01*
X120023Y198490D01*
X119988Y198492D01*
X119911Y198474D01*
X119331Y198754D01*
X119300Y198763D01*
X119225Y198795D01*
X118613Y198984D01*
X118565Y199037D01*
X118511Y199108D01*
X118483Y199128D01*
X118459Y199153D01*
X118317Y199242D01*
X116332Y200199D01*
X116299Y200209D01*
X116268Y200226D01*
X116181Y200244D01*
X116096Y200269D01*
X116061Y200267D01*
X116027Y200274D01*
X115948Y200268D01*
X115416Y200631D01*
X115386Y200645D01*
X115318Y200688D01*
X114741Y200966D01*
X114701Y201026D01*
X114659Y201104D01*
X114633Y201127D01*
X114614Y201156D01*
X114487Y201265D01*
X112666Y202508D01*
X112634Y202522D01*
X112607Y202544D01*
X112524Y202574D01*
X112443Y202611D01*
X112408Y202615D01*
X112376Y202627D01*
X112297Y202633D01*
X111825Y203071D01*
X111797Y203089D01*
X111736Y203142D01*
X111207Y203503D01*
X111177Y203568D01*
X111146Y203651D01*
X111125Y203678D01*
X111110Y203710D01*
X111000Y203837D01*
X109385Y205336D01*
X109356Y205356D01*
X109332Y205381D01*
X109254Y205423D01*
X109180Y205472D01*
X109147Y205481D01*
X109116Y205498D01*
X109039Y205515D01*
X108637Y206019D01*
X108613Y206041D01*
X108560Y206102D01*
X108091Y206538D01*
X108070Y206607D01*
X108053Y206694D01*
X108035Y206724D01*
X108025Y206757D01*
X107936Y206899D01*
X106562Y208623D01*
X106537Y208646D01*
X106517Y208675D01*
X106446Y208728D01*
X106380Y208788D01*
X106348Y208802D01*
X106320Y208822D01*
X106246Y208851D01*
X105925Y209409D01*
X105904Y209434D01*
X105861Y209503D01*
X105462Y210004D01*
X105452Y210075D01*
X105447Y210164D01*
X105435Y210196D01*
X105430Y210230D01*
X105362Y210384D01*
X104261Y212293D01*
X104239Y212320D01*
X104224Y212351D01*
X104161Y212415D01*
X104105Y212483D01*
X104076Y212502D01*
X104052Y212527D01*
X103983Y212566D01*
X103748Y213165D01*
X103731Y213194D01*
X103730Y213197D01*
X103729Y213198D01*
X103728Y213200D01*
X103698Y213268D01*
X103378Y213823D01*
X103379Y213895D01*
X103388Y213983D01*
X103380Y214017D01*
X103381Y214051D01*
X103337Y214213D01*
X102532Y216265D01*
X102515Y216295D01*
X102504Y216328D01*
X102452Y216400D01*
X102407Y216477D01*
X102380Y216500D01*
X102360Y216528D01*
X102298Y216577D01*
X102155Y217204D01*
X102143Y217235D01*
X102121Y217313D01*
X101888Y217909D01*
X101899Y217980D01*
X101921Y218066D01*
X101918Y218101D01*
X101924Y218135D01*
X101905Y218302D01*
X101415Y220451D01*
X101402Y220483D01*
X101397Y220517D01*
X101356Y220596D01*
X101322Y220679D01*
X101300Y220705D01*
X101284Y220736D01*
X101230Y220794D01*
X101182Y221436D01*
X101174Y221468D01*
X101165Y221548D01*
X101023Y222173D01*
X101044Y222241D01*
X101079Y222323D01*
X101082Y222358D01*
X101092Y222391D01*
X101098Y222558D01*
X101084Y222745D01*
X101074Y222787D01*
X101073Y222830D01*
X101045Y222906D01*
X101027Y222984D01*
X101003Y223020D01*
X100988Y223061D01*
X100938Y223124D01*
X100896Y223192D01*
X100862Y223219D01*
X100835Y223253D01*
X100767Y223297D01*
X100705Y223347D01*
X100664Y223363D01*
X100628Y223386D01*
X100550Y223406D01*
X100475Y223434D01*
X100431Y223436D01*
X100389Y223446D01*
X100309Y223440D01*
X100229Y223443D01*
X100187Y223431D01*
X100144Y223427D01*
X100070Y223396D01*
X99993Y223373D01*
X99958Y223348D01*
X99918Y223331D01*
X99914Y223328D01*
X98996Y223328D01*
X98977Y223325D01*
X98957Y223327D01*
X98856Y223305D01*
X98754Y223288D01*
X98736Y223279D01*
X98717Y223274D01*
X98628Y223221D01*
X98536Y223173D01*
X98523Y223159D01*
X98506Y223148D01*
X98438Y223070D01*
X98367Y222995D01*
X98359Y222977D01*
X98346Y222961D01*
X98307Y222865D01*
X98263Y222772D01*
X98261Y222752D01*
X98254Y222733D01*
X98235Y222567D01*
X98235Y164515D01*
X96572Y160500D01*
X82387Y146315D01*
X80820Y145666D01*
X80781Y145642D01*
X80738Y145626D01*
X80677Y145577D01*
X80611Y145536D01*
X80581Y145501D01*
X80546Y145472D01*
X80504Y145407D01*
X80454Y145347D01*
X80437Y145304D01*
X80413Y145265D01*
X80394Y145190D01*
X80366Y145117D01*
X80364Y145071D01*
X80353Y145027D01*
X80359Y144949D01*
X80355Y144871D01*
X80368Y144827D01*
X80372Y144782D01*
X80402Y144710D01*
X80424Y144635D01*
X80450Y144597D01*
X80468Y144555D01*
X80553Y144449D01*
X80564Y144433D01*
X80568Y144430D01*
X80573Y144424D01*
X87047Y137950D01*
X88710Y133935D01*
X88710Y92846D01*
X88722Y92775D01*
X88724Y92703D01*
X88742Y92654D01*
X88750Y92603D01*
X88784Y92540D01*
X88808Y92472D01*
X88841Y92432D01*
X88865Y92386D01*
X88917Y92336D01*
X88962Y92280D01*
X89006Y92252D01*
X89043Y92216D01*
X89108Y92186D01*
X89169Y92147D01*
X89219Y92135D01*
X89266Y92113D01*
X89338Y92105D01*
X89407Y92087D01*
X89459Y92091D01*
X89511Y92086D01*
X89581Y92101D01*
G37*
G36*
X76290Y154829D02*
X76290Y154829D01*
X76381Y154836D01*
X76411Y154848D01*
X76443Y154854D01*
X76523Y154896D01*
X76607Y154932D01*
X76639Y154958D01*
X76660Y154969D01*
X76682Y154992D01*
X76738Y155037D01*
X87851Y166149D01*
X87904Y166223D01*
X87963Y166293D01*
X87976Y166323D01*
X87994Y166349D01*
X88021Y166436D01*
X88055Y166521D01*
X88060Y166562D01*
X88067Y166584D01*
X88066Y166616D01*
X88074Y166688D01*
X88074Y170778D01*
X88063Y170843D01*
X88063Y170909D01*
X88039Y170989D01*
X88034Y171021D01*
X88025Y171038D01*
X88016Y171070D01*
X87689Y171858D01*
X87689Y177392D01*
X88016Y178180D01*
X88031Y178244D01*
X88055Y178305D01*
X88064Y178388D01*
X88072Y178420D01*
X88070Y178439D01*
X88074Y178472D01*
X88074Y201926D01*
X88059Y202017D01*
X88052Y202107D01*
X88039Y202137D01*
X88034Y202169D01*
X87991Y202250D01*
X87956Y202334D01*
X87930Y202366D01*
X87919Y202387D01*
X87896Y202409D01*
X87851Y202465D01*
X83387Y206929D01*
X79564Y210751D01*
X77553Y215606D01*
X77553Y233297D01*
X79564Y238152D01*
X83387Y241974D01*
X86581Y245168D01*
X86634Y245242D01*
X86693Y245312D01*
X86705Y245342D01*
X86724Y245368D01*
X86751Y245455D01*
X86785Y245540D01*
X86790Y245581D01*
X86797Y245603D01*
X86796Y245635D01*
X86804Y245707D01*
X86804Y249600D01*
X86793Y249667D01*
X86792Y249734D01*
X86769Y249811D01*
X86764Y249843D01*
X86754Y249861D01*
X86744Y249895D01*
X77409Y272145D01*
X77402Y272156D01*
X77399Y272168D01*
X77337Y272259D01*
X77278Y272353D01*
X77269Y272361D01*
X77261Y272372D01*
X77134Y272481D01*
X76424Y272962D01*
X76420Y272963D01*
X76417Y272966D01*
X76268Y273043D01*
X75891Y273186D01*
X75887Y273187D01*
X75884Y273189D01*
X75721Y273229D01*
X74936Y273334D01*
X73898Y273934D01*
X73867Y273946D01*
X73788Y273987D01*
X72668Y274413D01*
X72092Y274956D01*
X72088Y274959D01*
X72086Y274962D01*
X71951Y275062D01*
X71602Y275263D01*
X71598Y275265D01*
X71595Y275268D01*
X71441Y275333D01*
X70682Y275562D01*
X69755Y276321D01*
X69727Y276338D01*
X69654Y276391D01*
X68617Y276992D01*
X68136Y277620D01*
X68133Y277623D01*
X68131Y277627D01*
X68013Y277747D01*
X67702Y278002D01*
X67698Y278004D01*
X67695Y278007D01*
X67554Y278097D01*
X66842Y278444D01*
X66048Y279342D01*
X66023Y279363D01*
X65960Y279427D01*
X65033Y280187D01*
X64658Y280885D01*
X64656Y280888D01*
X64654Y280892D01*
X64558Y281029D01*
X64291Y281331D01*
X64288Y281333D01*
X64286Y281337D01*
X64160Y281448D01*
X63514Y281905D01*
X62874Y282919D01*
X62853Y282944D01*
X62801Y283017D01*
X62007Y283915D01*
X61750Y284664D01*
X61748Y284668D01*
X61747Y284672D01*
X61674Y284823D01*
X61459Y285163D01*
X61456Y285166D01*
X61454Y285170D01*
X61348Y285300D01*
X60783Y285855D01*
X60315Y286958D01*
X60297Y286986D01*
X60258Y287067D01*
X59619Y288081D01*
X59485Y288861D01*
X59484Y288865D01*
X59483Y288869D01*
X59435Y289030D01*
X59278Y289401D01*
X59276Y289404D01*
X59275Y289408D01*
X59191Y289554D01*
X58722Y290192D01*
X58437Y291356D01*
X58424Y291386D01*
X58398Y291472D01*
X57930Y292575D01*
X57923Y293367D01*
X57922Y293371D01*
X57923Y293376D01*
X57921Y293391D01*
X57922Y293401D01*
X57916Y293427D01*
X57901Y293542D01*
X57805Y293933D01*
X57803Y293937D01*
X57803Y293941D01*
X57744Y294098D01*
X57383Y294803D01*
X57288Y295998D01*
X57281Y296030D01*
X57269Y296119D01*
X56984Y297283D01*
X57084Y297935D01*
X57083Y298013D01*
X57091Y298090D01*
X57082Y298135D01*
X57081Y298181D01*
X57056Y298254D01*
X57039Y298330D01*
X57016Y298370D01*
X57000Y298413D01*
X56953Y298475D01*
X56913Y298541D01*
X56878Y298571D01*
X56850Y298608D01*
X56785Y298651D01*
X56726Y298701D01*
X56683Y298719D01*
X56645Y298744D01*
X56570Y298764D01*
X56498Y298793D01*
X56437Y298800D01*
X56407Y298808D01*
X56381Y298806D01*
X56331Y298812D01*
X38100Y298812D01*
X38080Y298809D01*
X38061Y298811D01*
X37959Y298789D01*
X37857Y298772D01*
X37840Y298763D01*
X37820Y298758D01*
X37731Y298705D01*
X37640Y298657D01*
X37626Y298643D01*
X37609Y298632D01*
X37542Y298554D01*
X37470Y298479D01*
X37462Y298461D01*
X37449Y298445D01*
X37410Y298349D01*
X37367Y298256D01*
X37365Y298236D01*
X37357Y298217D01*
X37339Y298051D01*
X37339Y271178D01*
X37343Y271152D01*
X37342Y271103D01*
X47718Y165763D01*
X47732Y165710D01*
X47736Y165656D01*
X47763Y165592D01*
X47781Y165525D01*
X47811Y165480D01*
X47832Y165430D01*
X47900Y165345D01*
X47917Y165320D01*
X47926Y165313D01*
X47937Y165299D01*
X58199Y155037D01*
X58273Y154984D01*
X58343Y154924D01*
X58373Y154912D01*
X58399Y154893D01*
X58486Y154866D01*
X58571Y154832D01*
X58612Y154828D01*
X58634Y154821D01*
X58666Y154822D01*
X58738Y154814D01*
X76200Y154814D01*
X76290Y154829D01*
G37*
G36*
X131941Y198380D02*
X131941Y198380D01*
X131984Y198379D01*
X135977Y198979D01*
X136007Y198990D01*
X136050Y198996D01*
X139909Y200185D01*
X139937Y200200D01*
X139978Y200212D01*
X143616Y201963D01*
X143638Y201979D01*
X143664Y201989D01*
X143717Y202039D01*
X143775Y202083D01*
X143788Y202106D01*
X143808Y202125D01*
X143838Y202192D01*
X143874Y202255D01*
X143877Y202282D01*
X143888Y202307D01*
X143889Y202380D01*
X143898Y202453D01*
X143890Y202479D01*
X143890Y202506D01*
X143854Y202605D01*
X143842Y202644D01*
X143836Y202651D01*
X143832Y202662D01*
X116832Y249462D01*
X116814Y249482D01*
X116803Y249507D01*
X116749Y249556D01*
X116701Y249611D01*
X116676Y249623D01*
X116656Y249641D01*
X116587Y249665D01*
X116521Y249697D01*
X116494Y249698D01*
X116469Y249707D01*
X116396Y249702D01*
X116323Y249706D01*
X116297Y249696D01*
X116270Y249695D01*
X116174Y249651D01*
X116136Y249636D01*
X116129Y249630D01*
X116119Y249625D01*
X112782Y247352D01*
X112760Y247329D01*
X112724Y247305D01*
X109763Y244560D01*
X109744Y244534D01*
X109712Y244505D01*
X107194Y241349D01*
X107179Y241321D01*
X107152Y241288D01*
X105132Y237791D01*
X105122Y237761D01*
X105099Y237724D01*
X103623Y233966D01*
X103618Y233935D01*
X103601Y233895D01*
X102701Y229959D01*
X102701Y229927D01*
X102690Y229885D01*
X102387Y225859D01*
X102390Y225835D01*
X102387Y225815D01*
X102389Y225806D01*
X102387Y225784D01*
X102688Y221758D01*
X102696Y221727D01*
X102699Y221684D01*
X103596Y217747D01*
X103609Y217718D01*
X103618Y217676D01*
X105092Y213917D01*
X105109Y213890D01*
X105124Y213849D01*
X107142Y210352D01*
X107163Y210328D01*
X107184Y210290D01*
X109700Y207133D01*
X109725Y207112D01*
X109751Y207078D01*
X112710Y204331D01*
X112737Y204314D01*
X112768Y204284D01*
X116104Y202009D01*
X116133Y201996D01*
X116168Y201971D01*
X119806Y200218D01*
X119836Y200211D01*
X119875Y200191D01*
X123733Y199000D01*
X123765Y198997D01*
X123806Y198983D01*
X127798Y198380D01*
X127830Y198382D01*
X127872Y198374D01*
X131910Y198373D01*
X131941Y198380D01*
G37*
G36*
X-127872Y198374D02*
X-127872Y198374D01*
X-127841Y198381D01*
X-127798Y198380D01*
X-123806Y198983D01*
X-123776Y198994D01*
X-123733Y199000D01*
X-119875Y200191D01*
X-119847Y200206D01*
X-119806Y200218D01*
X-116168Y201971D01*
X-116143Y201991D01*
X-116104Y202009D01*
X-112768Y204284D01*
X-112746Y204307D01*
X-112710Y204331D01*
X-109751Y207078D01*
X-109732Y207104D01*
X-109700Y207133D01*
X-107184Y210290D01*
X-107169Y210319D01*
X-107142Y210352D01*
X-105124Y213849D01*
X-105114Y213880D01*
X-105092Y213917D01*
X-103618Y217676D01*
X-103612Y217707D01*
X-103596Y217747D01*
X-102699Y221684D01*
X-102698Y221716D01*
X-102688Y221758D01*
X-102387Y225784D01*
X-102391Y225816D01*
X-102390Y225832D01*
X-102387Y225848D01*
X-102388Y225852D01*
X-102387Y225859D01*
X-102690Y229885D01*
X-102699Y229916D01*
X-102701Y229959D01*
X-103601Y233895D01*
X-103614Y233924D01*
X-103623Y233966D01*
X-105099Y237724D01*
X-105117Y237751D01*
X-105132Y237791D01*
X-107152Y241288D01*
X-107173Y241311D01*
X-107194Y241349D01*
X-109712Y244505D01*
X-109737Y244526D01*
X-109763Y244560D01*
X-112724Y247305D01*
X-112751Y247322D01*
X-112782Y247352D01*
X-116119Y249625D01*
X-116144Y249636D01*
X-116165Y249653D01*
X-116235Y249674D01*
X-116302Y249702D01*
X-116330Y249702D01*
X-116356Y249710D01*
X-116428Y249702D01*
X-116501Y249701D01*
X-116526Y249691D01*
X-116553Y249688D01*
X-116617Y249652D01*
X-116684Y249623D01*
X-116703Y249604D01*
X-116726Y249590D01*
X-116794Y249509D01*
X-116822Y249480D01*
X-116825Y249471D01*
X-116832Y249462D01*
X-143832Y202662D01*
X-143841Y202636D01*
X-143857Y202614D01*
X-143872Y202543D01*
X-143896Y202473D01*
X-143893Y202446D01*
X-143899Y202420D01*
X-143886Y202348D01*
X-143880Y202275D01*
X-143867Y202251D01*
X-143862Y202224D01*
X-143822Y202164D01*
X-143788Y202099D01*
X-143767Y202081D01*
X-143752Y202059D01*
X-143666Y201998D01*
X-143635Y201972D01*
X-143626Y201969D01*
X-143616Y201963D01*
X-139978Y200212D01*
X-139947Y200204D01*
X-139909Y200185D01*
X-136050Y198996D01*
X-136018Y198993D01*
X-135977Y198979D01*
X-131984Y198379D01*
X-131953Y198380D01*
X-131910Y198373D01*
X-127872Y198374D01*
G37*
G36*
X116428Y51923D02*
X116428Y51923D01*
X116501Y51924D01*
X116526Y51934D01*
X116553Y51937D01*
X116617Y51973D01*
X116684Y52002D01*
X116703Y52021D01*
X116726Y52035D01*
X116794Y52116D01*
X116822Y52145D01*
X116825Y52154D01*
X116832Y52163D01*
X143832Y98963D01*
X143841Y98989D01*
X143857Y99011D01*
X143872Y99082D01*
X143896Y99152D01*
X143893Y99179D01*
X143899Y99205D01*
X143886Y99277D01*
X143880Y99350D01*
X143867Y99374D01*
X143862Y99401D01*
X143822Y99462D01*
X143788Y99526D01*
X143767Y99544D01*
X143752Y99566D01*
X143666Y99627D01*
X143635Y99653D01*
X143626Y99656D01*
X143616Y99662D01*
X139978Y101413D01*
X139947Y101421D01*
X139909Y101440D01*
X136050Y102629D01*
X136018Y102632D01*
X135977Y102646D01*
X131984Y103246D01*
X131953Y103245D01*
X131910Y103252D01*
X127872Y103251D01*
X127841Y103244D01*
X127798Y103245D01*
X123806Y102642D01*
X123776Y102631D01*
X123733Y102625D01*
X119875Y101434D01*
X119847Y101419D01*
X119806Y101407D01*
X116168Y99654D01*
X116143Y99634D01*
X116104Y99616D01*
X112768Y97341D01*
X112746Y97318D01*
X112710Y97294D01*
X109751Y94547D01*
X109732Y94521D01*
X109700Y94492D01*
X107184Y91335D01*
X107169Y91306D01*
X107142Y91273D01*
X105124Y87776D01*
X105114Y87745D01*
X105092Y87708D01*
X103618Y83949D01*
X103612Y83918D01*
X103596Y83878D01*
X102699Y79941D01*
X102698Y79909D01*
X102688Y79867D01*
X102387Y75841D01*
X102391Y75809D01*
X102387Y75766D01*
X102690Y71740D01*
X102699Y71709D01*
X102701Y71666D01*
X103601Y67730D01*
X103614Y67701D01*
X103623Y67659D01*
X105099Y63901D01*
X105117Y63874D01*
X105132Y63834D01*
X107152Y60338D01*
X107173Y60314D01*
X107194Y60276D01*
X109712Y57120D01*
X109737Y57100D01*
X109763Y57065D01*
X112724Y54320D01*
X112751Y54303D01*
X112782Y54273D01*
X116119Y52000D01*
X116144Y51989D01*
X116165Y51972D01*
X116235Y51951D01*
X116302Y51923D01*
X116330Y51923D01*
X116356Y51915D01*
X116428Y51923D01*
G37*
G36*
X-116396Y51923D02*
X-116396Y51923D01*
X-116323Y51919D01*
X-116297Y51929D01*
X-116270Y51930D01*
X-116174Y51974D01*
X-116136Y51989D01*
X-116129Y51995D01*
X-116119Y52000D01*
X-112782Y54273D01*
X-112760Y54296D01*
X-112724Y54320D01*
X-109763Y57065D01*
X-109744Y57091D01*
X-109712Y57120D01*
X-107194Y60276D01*
X-107179Y60304D01*
X-107152Y60338D01*
X-105132Y63834D01*
X-105122Y63864D01*
X-105099Y63901D01*
X-103623Y67659D01*
X-103618Y67690D01*
X-103601Y67730D01*
X-102701Y71666D01*
X-102701Y71698D01*
X-102690Y71740D01*
X-102387Y75766D01*
X-102391Y75798D01*
X-102387Y75841D01*
X-102688Y79867D01*
X-102696Y79898D01*
X-102699Y79941D01*
X-103596Y83878D01*
X-103609Y83907D01*
X-103618Y83949D01*
X-105092Y87708D01*
X-105109Y87735D01*
X-105124Y87776D01*
X-107142Y91273D01*
X-107163Y91297D01*
X-107184Y91335D01*
X-109700Y94492D01*
X-109725Y94513D01*
X-109751Y94547D01*
X-112710Y97294D01*
X-112737Y97311D01*
X-112768Y97341D01*
X-116104Y99616D01*
X-116133Y99629D01*
X-116168Y99654D01*
X-119806Y101407D01*
X-119836Y101414D01*
X-119875Y101434D01*
X-123733Y102625D01*
X-123765Y102628D01*
X-123806Y102642D01*
X-127798Y103245D01*
X-127830Y103243D01*
X-127872Y103251D01*
X-131910Y103252D01*
X-131941Y103246D01*
X-131984Y103246D01*
X-135977Y102646D01*
X-136007Y102635D01*
X-136050Y102629D01*
X-139909Y101440D01*
X-139937Y101425D01*
X-139978Y101413D01*
X-143616Y99662D01*
X-143638Y99646D01*
X-143664Y99636D01*
X-143717Y99586D01*
X-143775Y99542D01*
X-143788Y99519D01*
X-143808Y99500D01*
X-143838Y99433D01*
X-143874Y99370D01*
X-143877Y99343D01*
X-143888Y99318D01*
X-143889Y99245D01*
X-143898Y99172D01*
X-143890Y99146D01*
X-143890Y99119D01*
X-143854Y99020D01*
X-143842Y98981D01*
X-143836Y98974D01*
X-143832Y98963D01*
X-116832Y52163D01*
X-116814Y52143D01*
X-116803Y52118D01*
X-116749Y52069D01*
X-116701Y52014D01*
X-116676Y52002D01*
X-116656Y51984D01*
X-116587Y51960D01*
X-116521Y51928D01*
X-116494Y51927D01*
X-116469Y51918D01*
X-116396Y51923D01*
G37*
G36*
X27027Y319D02*
X27027Y319D01*
X27054Y316D01*
X27123Y338D01*
X27195Y353D01*
X27217Y368D01*
X27243Y377D01*
X27299Y424D01*
X27359Y465D01*
X27373Y488D01*
X27394Y506D01*
X27427Y571D01*
X27466Y633D01*
X27470Y660D01*
X27482Y684D01*
X27492Y789D01*
X27499Y829D01*
X27497Y838D01*
X27498Y850D01*
X27196Y4874D01*
X27188Y4905D01*
X27185Y4948D01*
X26287Y8882D01*
X26274Y8911D01*
X26265Y8953D01*
X24791Y12710D01*
X24774Y12737D01*
X24759Y12777D01*
X22741Y16272D01*
X22720Y16296D01*
X22699Y16333D01*
X20183Y19488D01*
X20158Y19509D01*
X20132Y19543D01*
X17174Y22288D01*
X17147Y22304D01*
X17115Y22334D01*
X13781Y24608D01*
X13752Y24620D01*
X13717Y24645D01*
X10081Y26396D01*
X10050Y26404D01*
X10011Y26423D01*
X6155Y27613D01*
X6124Y27616D01*
X6082Y27629D01*
X2092Y28231D01*
X2060Y28229D01*
X2018Y28236D01*
X-2018Y28236D01*
X-2049Y28230D01*
X-2092Y28231D01*
X-6082Y27629D01*
X-6112Y27618D01*
X-6155Y27613D01*
X-10011Y26423D01*
X-10039Y26408D01*
X-10081Y26396D01*
X-13717Y24645D01*
X-13742Y24626D01*
X-13781Y24608D01*
X-17115Y22334D01*
X-17138Y22312D01*
X-17174Y22288D01*
X-20132Y19543D01*
X-20151Y19517D01*
X-20183Y19488D01*
X-22699Y16333D01*
X-22713Y16305D01*
X-22741Y16272D01*
X-24759Y12777D01*
X-24769Y12747D01*
X-24791Y12710D01*
X-26265Y8953D01*
X-26271Y8922D01*
X-26287Y8882D01*
X-27185Y4948D01*
X-27186Y4916D01*
X-27196Y4874D01*
X-27498Y850D01*
X-27494Y823D01*
X-27499Y796D01*
X-27482Y725D01*
X-27473Y653D01*
X-27459Y629D01*
X-27453Y603D01*
X-27410Y544D01*
X-27373Y481D01*
X-27351Y464D01*
X-27335Y442D01*
X-27272Y405D01*
X-27214Y361D01*
X-27187Y355D01*
X-27164Y341D01*
X-27060Y323D01*
X-27021Y314D01*
X-27011Y315D01*
X-27000Y313D01*
X27000Y313D01*
X27027Y319D01*
G37*
%LPC*%
G36*
X-127231Y144843D02*
X-127231Y144843D01*
X-130593Y146235D01*
X-133165Y148807D01*
X-134557Y152169D01*
X-134557Y155806D01*
X-133165Y159168D01*
X-130593Y161740D01*
X-129439Y162218D01*
X-129339Y162280D01*
X-129240Y162339D01*
X-129236Y162344D01*
X-129230Y162347D01*
X-129155Y162438D01*
X-129080Y162526D01*
X-129077Y162532D01*
X-129073Y162537D01*
X-129032Y162645D01*
X-128988Y162754D01*
X-128987Y162762D01*
X-128985Y162766D01*
X-128984Y162785D01*
X-128969Y162921D01*
X-128969Y170454D01*
X-128988Y170568D01*
X-129005Y170685D01*
X-129008Y170690D01*
X-129009Y170697D01*
X-129063Y170799D01*
X-129117Y170904D01*
X-129121Y170909D01*
X-129124Y170914D01*
X-129208Y170994D01*
X-129292Y171076D01*
X-129299Y171080D01*
X-129302Y171083D01*
X-129319Y171091D01*
X-129439Y171157D01*
X-130593Y171635D01*
X-133165Y174207D01*
X-134557Y177569D01*
X-134557Y181206D01*
X-133165Y184568D01*
X-130593Y187140D01*
X-127231Y188532D01*
X-123594Y188532D01*
X-120232Y187140D01*
X-117660Y184568D01*
X-116268Y181206D01*
X-116268Y177569D01*
X-117660Y174207D01*
X-120232Y171635D01*
X-121386Y171157D01*
X-121486Y171095D01*
X-121585Y171036D01*
X-121589Y171031D01*
X-121595Y171028D01*
X-121670Y170937D01*
X-121745Y170849D01*
X-121748Y170843D01*
X-121752Y170838D01*
X-121793Y170730D01*
X-121837Y170621D01*
X-121838Y170613D01*
X-121840Y170609D01*
X-121841Y170590D01*
X-121856Y170454D01*
X-121856Y162921D01*
X-121837Y162806D01*
X-121820Y162690D01*
X-121817Y162685D01*
X-121816Y162678D01*
X-121762Y162576D01*
X-121708Y162471D01*
X-121704Y162466D01*
X-121701Y162461D01*
X-121617Y162381D01*
X-121533Y162299D01*
X-121526Y162295D01*
X-121523Y162292D01*
X-121506Y162284D01*
X-121386Y162218D01*
X-120232Y161740D01*
X-117660Y159168D01*
X-116268Y155806D01*
X-116268Y152169D01*
X-117660Y148807D01*
X-120232Y146235D01*
X-123594Y144843D01*
X-127231Y144843D01*
G37*
%LPD*%
G36*
X87369Y281298D02*
X87369Y281298D01*
X87416Y281295D01*
X90454Y281661D01*
X90486Y281671D01*
X90532Y281677D01*
X93472Y282524D01*
X93502Y282540D01*
X93548Y282553D01*
X96314Y283861D01*
X96336Y283878D01*
X96363Y283888D01*
X96415Y283937D01*
X96473Y283980D01*
X96487Y284005D01*
X96508Y284025D01*
X96537Y284090D01*
X96573Y284152D01*
X96576Y284181D01*
X96588Y284207D01*
X96589Y284279D01*
X96598Y284349D01*
X96590Y284377D01*
X96591Y284406D01*
X96555Y284500D01*
X96544Y284541D01*
X96537Y284549D01*
X96533Y284562D01*
X87033Y301062D01*
X86981Y301120D01*
X86935Y301183D01*
X86916Y301194D01*
X86901Y301211D01*
X86831Y301244D01*
X86764Y301284D01*
X86740Y301288D01*
X86722Y301297D01*
X86677Y301299D01*
X86600Y301312D01*
X67600Y301312D01*
X67572Y301306D01*
X67544Y301309D01*
X67476Y301286D01*
X67405Y301272D01*
X67382Y301256D01*
X67355Y301247D01*
X67300Y301200D01*
X67241Y301160D01*
X67226Y301136D01*
X67205Y301117D01*
X67173Y301053D01*
X67134Y300992D01*
X67129Y300964D01*
X67117Y300939D01*
X67108Y300837D01*
X67101Y300796D01*
X67103Y300786D01*
X67102Y300773D01*
X67345Y297723D01*
X67354Y297690D01*
X67358Y297643D01*
X68086Y294672D01*
X68101Y294641D01*
X68112Y294595D01*
X69308Y291779D01*
X69327Y291751D01*
X69345Y291708D01*
X70977Y289120D01*
X71001Y289095D01*
X71025Y289055D01*
X73052Y286763D01*
X73079Y286742D01*
X73110Y286707D01*
X75478Y284769D01*
X75508Y284753D01*
X75544Y284723D01*
X78192Y283190D01*
X78224Y283179D01*
X78264Y283155D01*
X81124Y282067D01*
X81157Y282061D01*
X81201Y282045D01*
X84198Y281429D01*
X84232Y281429D01*
X84278Y281419D01*
X87335Y281292D01*
X87369Y281298D01*
G37*
G36*
X100841Y231304D02*
X100841Y231304D01*
X100950Y231303D01*
X100963Y231307D01*
X100977Y231308D01*
X101080Y231345D01*
X101184Y231379D01*
X101195Y231387D01*
X101208Y231392D01*
X101294Y231460D01*
X101381Y231525D01*
X101389Y231537D01*
X101400Y231546D01*
X101460Y231638D01*
X101522Y231727D01*
X101527Y231743D01*
X101533Y231753D01*
X101540Y231781D01*
X101577Y231886D01*
X101910Y233341D01*
X101912Y233376D01*
X101922Y233409D01*
X101919Y233498D01*
X101925Y233587D01*
X101916Y233620D01*
X101915Y233655D01*
X101892Y233731D01*
X102127Y234330D01*
X102134Y234362D01*
X102160Y234438D01*
X102303Y235063D01*
X102352Y235115D01*
X102419Y235174D01*
X102436Y235204D01*
X102460Y235229D01*
X102538Y235377D01*
X103344Y237429D01*
X103352Y237463D01*
X103367Y237494D01*
X103377Y237582D01*
X103396Y237669D01*
X103392Y237704D01*
X103396Y237738D01*
X103385Y237817D01*
X103707Y238374D01*
X103718Y238405D01*
X103756Y238476D01*
X103990Y239072D01*
X104047Y239117D01*
X104121Y239165D01*
X104143Y239192D01*
X104170Y239213D01*
X104270Y239348D01*
X105372Y241257D01*
X105385Y241289D01*
X105404Y241318D01*
X105428Y241404D01*
X105459Y241487D01*
X105461Y241522D01*
X105470Y241555D01*
X105470Y241634D01*
X105871Y242137D01*
X105884Y242161D01*
X105901Y242179D01*
X105910Y242197D01*
X105935Y242232D01*
X106256Y242786D01*
X106318Y242821D01*
X106399Y242858D01*
X106425Y242881D01*
X106455Y242898D01*
X106573Y243017D01*
X107948Y244740D01*
X107965Y244770D01*
X107989Y244796D01*
X108025Y244877D01*
X108068Y244955D01*
X108075Y244989D01*
X108089Y245020D01*
X108101Y245099D01*
X108573Y245536D01*
X108593Y245562D01*
X108650Y245620D01*
X109050Y246120D01*
X109116Y246146D01*
X109202Y246170D01*
X109231Y246190D01*
X109263Y246202D01*
X109398Y246302D01*
X111014Y247800D01*
X111036Y247828D01*
X111063Y247849D01*
X111111Y247924D01*
X111165Y247995D01*
X111177Y248027D01*
X111195Y248057D01*
X111219Y248132D01*
X111751Y248495D01*
X111775Y248518D01*
X111840Y248566D01*
X112309Y249001D01*
X112379Y249016D01*
X112467Y249027D01*
X112499Y249042D01*
X112533Y249050D01*
X112681Y249129D01*
X113136Y249439D01*
X113219Y249518D01*
X113304Y249595D01*
X113308Y249602D01*
X113314Y249608D01*
X113368Y249709D01*
X113423Y249809D01*
X113425Y249818D01*
X113429Y249826D01*
X113447Y249939D01*
X113468Y250051D01*
X113467Y250060D01*
X113469Y250068D01*
X113450Y250181D01*
X113434Y250295D01*
X113430Y250304D01*
X113429Y250311D01*
X113418Y250331D01*
X113367Y250448D01*
X99612Y274273D01*
X99565Y274330D01*
X99526Y274393D01*
X99488Y274425D01*
X99456Y274463D01*
X99394Y274503D01*
X99337Y274550D01*
X99290Y274567D01*
X99248Y274594D01*
X99176Y274611D01*
X99107Y274638D01*
X99057Y274640D01*
X99009Y274652D01*
X98935Y274645D01*
X98861Y274648D01*
X98813Y274634D01*
X98764Y274630D01*
X98696Y274600D01*
X98625Y274580D01*
X98584Y274551D01*
X98538Y274531D01*
X98484Y274481D01*
X98423Y274439D01*
X98393Y274399D01*
X98356Y274366D01*
X98320Y274301D01*
X98276Y274242D01*
X98261Y274194D01*
X98237Y274151D01*
X98223Y274078D01*
X98200Y274008D01*
X98201Y273958D01*
X98192Y273909D01*
X98202Y273836D01*
X98203Y273762D01*
X98222Y273697D01*
X98226Y273665D01*
X98235Y273644D01*
X98235Y232686D01*
X98237Y232677D01*
X98236Y232671D01*
X98238Y232663D01*
X98236Y232647D01*
X98258Y232546D01*
X98275Y232444D01*
X98284Y232426D01*
X98289Y232407D01*
X98342Y232318D01*
X98390Y232226D01*
X98404Y232213D01*
X98415Y232196D01*
X98493Y232128D01*
X98568Y232057D01*
X98586Y232049D01*
X98602Y232036D01*
X98698Y231997D01*
X98791Y231953D01*
X98811Y231951D01*
X98830Y231944D01*
X98996Y231925D01*
X99888Y231925D01*
X100297Y231517D01*
X100385Y231454D01*
X100472Y231386D01*
X100485Y231382D01*
X100496Y231374D01*
X100601Y231341D01*
X100704Y231305D01*
X100718Y231305D01*
X100731Y231301D01*
X100841Y231304D01*
G37*
%LPC*%
G36*
X123212Y124205D02*
X123212Y124205D01*
X117855Y129562D01*
X117855Y137138D01*
X123212Y142495D01*
X130788Y142495D01*
X136145Y137138D01*
X136145Y129562D01*
X130788Y124205D01*
X123212Y124205D01*
G37*
%LPD*%
%LPC*%
G36*
X-127231Y119443D02*
X-127231Y119443D01*
X-130593Y120835D01*
X-133165Y123407D01*
X-134557Y126769D01*
X-134557Y130406D01*
X-133165Y133768D01*
X-130593Y136340D01*
X-127231Y137732D01*
X-123594Y137732D01*
X-120232Y136340D01*
X-117660Y133768D01*
X-116268Y130406D01*
X-116268Y126769D01*
X-117660Y123407D01*
X-120232Y120835D01*
X-123594Y119443D01*
X-127231Y119443D01*
G37*
%LPD*%
%LPC*%
G36*
X-77221Y57086D02*
X-77221Y57086D01*
X-76951Y58792D01*
X-76280Y60856D01*
X-75295Y62790D01*
X-74019Y64547D01*
X-72484Y66081D01*
X-70728Y67357D01*
X-68794Y68343D01*
X-66729Y69014D01*
X-65023Y69284D01*
X-65023Y57086D01*
X-77221Y57086D01*
G37*
%LPD*%
%LPC*%
G36*
X-61977Y57086D02*
X-61977Y57086D01*
X-61977Y69284D01*
X-60271Y69014D01*
X-58206Y68343D01*
X-56272Y67357D01*
X-54516Y66081D01*
X-52981Y64547D01*
X-51705Y62790D01*
X-50720Y60856D01*
X-50049Y58792D01*
X-49779Y57086D01*
X-61977Y57086D01*
G37*
%LPD*%
%LPC*%
G36*
X-66729Y42111D02*
X-66729Y42111D01*
X-68794Y42782D01*
X-70728Y43768D01*
X-72484Y45044D01*
X-74019Y46578D01*
X-75295Y48335D01*
X-76280Y50269D01*
X-76951Y52333D01*
X-77221Y54039D01*
X-65023Y54039D01*
X-65023Y41841D01*
X-66729Y42111D01*
G37*
%LPD*%
%LPC*%
G36*
X-61977Y54039D02*
X-61977Y54039D01*
X-49779Y54039D01*
X-50049Y52333D01*
X-50720Y50269D01*
X-51705Y48335D01*
X-52981Y46578D01*
X-54516Y45044D01*
X-56272Y43768D01*
X-58206Y42782D01*
X-60271Y42111D01*
X-61977Y41841D01*
X-61977Y54039D01*
G37*
%LPD*%
%LPC*%
G36*
X-69049Y9236D02*
X-69049Y9236D01*
X-69308Y9846D01*
X-69327Y9874D01*
X-69345Y9917D01*
X-70977Y12505D01*
X-71001Y12530D01*
X-71025Y12570D01*
X-73052Y14862D01*
X-73079Y14883D01*
X-73110Y14918D01*
X-75478Y16856D01*
X-75508Y16872D01*
X-75544Y16902D01*
X-78192Y18435D01*
X-78224Y18446D01*
X-78264Y18470D01*
X-81077Y19540D01*
X-81077Y22184D01*
X-79484Y21755D01*
X-77824Y21065D01*
X-76814Y20645D01*
X-75127Y19669D01*
X-74312Y19197D01*
X-72021Y17434D01*
X-69979Y15388D01*
X-68222Y13092D01*
X-66779Y10587D01*
X-66222Y9236D01*
X-69049Y9236D01*
G37*
%LPD*%
%LPC*%
G36*
X66222Y9236D02*
X66222Y9236D01*
X66779Y10587D01*
X67956Y12629D01*
X68222Y13092D01*
X69698Y15020D01*
X69979Y15387D01*
X72021Y17434D01*
X74312Y19197D01*
X76814Y20645D01*
X79484Y21755D01*
X81077Y22184D01*
X81077Y19540D01*
X78264Y18470D01*
X78236Y18451D01*
X78192Y18435D01*
X75544Y16902D01*
X75518Y16879D01*
X75478Y16856D01*
X73110Y14918D01*
X73088Y14892D01*
X73052Y14862D01*
X71025Y12570D01*
X71009Y12540D01*
X70977Y12505D01*
X69345Y9917D01*
X69333Y9886D01*
X69308Y9846D01*
X69049Y9236D01*
X66222Y9236D01*
G37*
%LPD*%
%LPC*%
G36*
X-98616Y253498D02*
X-98616Y253498D01*
X-98616Y256309D01*
X-98443Y256956D01*
X-98108Y257535D01*
X-97635Y258008D01*
X-97056Y258343D01*
X-96409Y258516D01*
X-93598Y258516D01*
X-93598Y253498D01*
X-98616Y253498D01*
G37*
%LPD*%
%LPC*%
G36*
X-90552Y253498D02*
X-90552Y253498D01*
X-90552Y258516D01*
X-87741Y258516D01*
X-87094Y258343D01*
X-86515Y258008D01*
X-86042Y257535D01*
X-85707Y256956D01*
X-85534Y256309D01*
X-85534Y253498D01*
X-90552Y253498D01*
G37*
%LPD*%
%LPC*%
G36*
X-96409Y245434D02*
X-96409Y245434D01*
X-97056Y245607D01*
X-97635Y245942D01*
X-98108Y246415D01*
X-98443Y246994D01*
X-98616Y247641D01*
X-98616Y250452D01*
X-93598Y250452D01*
X-93598Y245434D01*
X-96409Y245434D01*
G37*
%LPD*%
%LPC*%
G36*
X-90552Y245434D02*
X-90552Y245434D01*
X-90552Y250452D01*
X-85534Y250452D01*
X-85534Y247641D01*
X-85707Y246994D01*
X-86042Y246415D01*
X-86515Y245942D01*
X-87094Y245607D01*
X-87741Y245434D01*
X-90552Y245434D01*
G37*
%LPD*%
%LPC*%
G36*
X-63501Y55562D02*
X-63501Y55562D01*
X-63501Y55563D01*
X-63499Y55563D01*
X-63499Y55562D01*
X-63501Y55562D01*
G37*
%LPD*%
%LPC*%
G36*
X-92076Y251974D02*
X-92076Y251974D01*
X-92076Y251976D01*
X-92074Y251976D01*
X-92074Y251974D01*
X-92076Y251974D01*
G37*
%LPD*%
D10*
X82600Y293913D03*
X165200Y150813D03*
X82600Y7713D03*
X-82600Y7713D03*
X-165200Y150813D03*
X-82600Y293913D03*
X123900Y222313D03*
X123900Y79313D03*
X0Y7713D03*
X-123900Y79313D03*
X-123900Y222313D03*
D11*
X-83500Y115563D03*
X-63500Y55563D03*
X58500Y55563D03*
X58500Y175563D03*
X-63500Y175563D03*
D12*
X-92075Y251975D03*
X-92075Y236975D03*
X41713Y25400D03*
X56713Y25400D03*
D13*
X127000Y133350D03*
D14*
X-125413Y179388D03*
X-125413Y153988D03*
X-125413Y128588D03*
D15*
X50038Y253619D02*
X50038Y273431D01*
X0Y273431D02*
X0Y253619D01*
X-50038Y253619D02*
X-50038Y273431D01*
D16*
X-73819Y234156D03*
D17*
X-73819Y215106D01*
X-73025Y214313D01*
D16*
X-73025Y214313D03*
X-95250Y80963D03*
D17*
X-90488Y76200D01*
X-90488Y61913D01*
D16*
X-90488Y61913D03*
X-19050Y46038D03*
D17*
X-17463Y47625D01*
X0Y47625D01*
D16*
X0Y47625D03*
X98353Y66647D03*
X99949Y92112D03*
D17*
X90006Y85837D02*
X90006Y79752D01*
X90006Y85837D02*
X95897Y91728D01*
X99565Y91728D01*
X99949Y92112D01*
X96766Y68234D02*
X98353Y66647D01*
X96766Y68234D02*
X96766Y72992D01*
X90006Y79752D01*
D18*
X68263Y25400D02*
X56713Y25400D01*
D19*
X68263Y25400D03*
D20*
X-19050Y46038D02*
X-19050Y92075D01*
X-22225Y95250D01*
D16*
X-22225Y95250D03*
D17*
X100013Y239920D02*
X100013Y252413D01*
X100013Y239920D02*
X90762Y230669D01*
X132321Y183691D02*
X165200Y150813D01*
X132321Y183691D02*
X125304Y183691D01*
X90762Y218234D01*
X90762Y230669D01*
X100013Y252413D02*
X82600Y293913D01*
X165200Y150813D02*
X165200Y146050D01*
X128688Y109538D01*
X92075Y20392D02*
X87698Y12810D01*
X82600Y7713D01*
X111125Y109538D02*
X128688Y109538D01*
X-42863Y34925D02*
X-63500Y55563D01*
X-63500Y26813D01*
X-82600Y7713D01*
X-63500Y55563D02*
X-63500Y57150D01*
X-122746Y116396D02*
X-130463Y116396D01*
X-164880Y150813D02*
X-165200Y150813D01*
X-164880Y150813D02*
X-130463Y116396D01*
X-165200Y150813D02*
X-141288Y174725D01*
X-141288Y188913D01*
X-136525Y193675D01*
X-114300Y193675D01*
X-107950Y193675D01*
X-82600Y219025D01*
X-82600Y293913D01*
X-42863Y34925D02*
X-23813Y34925D01*
X469Y34925D02*
X17722Y34925D01*
X469Y34925D02*
X-3839Y39233D01*
X-86928Y84410D02*
X-91803Y89285D01*
X-95635Y89285D01*
X-122746Y116396D01*
X-82868Y76518D02*
X-63500Y57150D01*
X-82868Y76518D02*
X-82868Y79356D01*
X-86928Y83417D01*
X-86928Y84410D01*
X88444Y64787D02*
X92075Y61156D01*
X92075Y20392D01*
X102021Y100434D02*
X111125Y109538D01*
X102021Y100434D02*
X93827Y100434D01*
X82386Y88994D01*
X82386Y75008D01*
X88444Y68950D01*
X88444Y64787D01*
D16*
X-112713Y185353D03*
D21*
X-112713Y192088D01*
X-114300Y193675D01*
D16*
X101600Y174625D03*
D17*
X82600Y7713D02*
X47850Y7713D01*
X38735Y16828D01*
X35819Y16828D01*
X17722Y34925D01*
X-3839Y39233D02*
X-9925Y39233D01*
X-14233Y34925D02*
X-23813Y34925D01*
X-14233Y34925D02*
X-9925Y39233D01*
D19*
X-99491Y66422D03*
D22*
X-112381Y79313D01*
X-123900Y79313D01*
D19*
X97352Y82794D03*
D22*
X100834Y79313D01*
X123900Y79313D01*
D18*
X-63500Y175563D02*
X-82638Y194700D01*
X-92075Y194700D01*
D19*
X-92075Y194700D03*
X-92075Y220663D03*
D18*
X-92075Y236975D01*
D21*
X-125413Y179388D02*
X-125413Y153988D01*
D19*
X98108Y227627D03*
D22*
X118586Y227627D01*
X123900Y222313D01*
X-121339Y224874D02*
X-123900Y222313D01*
X-121339Y224874D02*
X-98002Y224874D01*
D19*
X-98002Y224874D03*
X-6882Y31887D03*
D22*
X-6882Y14594D01*
X0Y7713D01*
D19*
X41713Y25400D03*
M02*
