G04 EAGLE Gerber RS-274X export*
G75*
%MOMM*%
%FSLAX34Y34*%
%LPD*%
%INSilkscreen Bottom*%
%IPPOS*%
%AMOC8*
5,1,8,0,0,1.08239X$1,22.5*%
G01*
%ADD10C,0.101600*%
%ADD11C,0.152400*%
%ADD12C,0.076200*%
%ADD13C,0.254000*%
%ADD14C,0.304800*%
%ADD15C,0.150000*%
%ADD16C,0.127000*%

G36*
X-15359Y157482D02*
X-15359Y157482D01*
X-15356Y157481D01*
X-15313Y157501D01*
X-15270Y157519D01*
X-15269Y157521D01*
X-15267Y157522D01*
X-15234Y157607D01*
X-15234Y160147D01*
X-15235Y160149D01*
X-15234Y160151D01*
X-15254Y160194D01*
X-15273Y160238D01*
X-15275Y160238D01*
X-15276Y160240D01*
X-15361Y160273D01*
X-19171Y160273D01*
X-19173Y160272D01*
X-19175Y160273D01*
X-19218Y160253D01*
X-19261Y160235D01*
X-19262Y160233D01*
X-19264Y160232D01*
X-19297Y160147D01*
X-19297Y157607D01*
X-19296Y157605D01*
X-19297Y157603D01*
X-19277Y157560D01*
X-19258Y157516D01*
X-19256Y157516D01*
X-19255Y157514D01*
X-19171Y157481D01*
X-15361Y157481D01*
X-15359Y157482D01*
G37*
G36*
X-44893Y112944D02*
X-44893Y112944D01*
X-44890Y112943D01*
X-44847Y112963D01*
X-44804Y112981D01*
X-44803Y112983D01*
X-44801Y112984D01*
X-44768Y113069D01*
X-44768Y116879D01*
X-44769Y116881D01*
X-44768Y116883D01*
X-44788Y116926D01*
X-44807Y116970D01*
X-44809Y116970D01*
X-44810Y116972D01*
X-44895Y117005D01*
X-47435Y117005D01*
X-47437Y117004D01*
X-47439Y117005D01*
X-47482Y116985D01*
X-47525Y116967D01*
X-47526Y116965D01*
X-47528Y116964D01*
X-47561Y116879D01*
X-47561Y113069D01*
X-47560Y113067D01*
X-47561Y113065D01*
X-47541Y113022D01*
X-47522Y112978D01*
X-47520Y112978D01*
X-47519Y112976D01*
X-47435Y112943D01*
X-44895Y112943D01*
X-44893Y112944D01*
G37*
G36*
X37912Y97941D02*
X37912Y97941D01*
X37914Y97940D01*
X37957Y97960D01*
X38000Y97978D01*
X38001Y97980D01*
X38003Y97981D01*
X38036Y98066D01*
X38036Y101876D01*
X38035Y101878D01*
X38036Y101880D01*
X38016Y101923D01*
X37997Y101967D01*
X37995Y101967D01*
X37994Y101969D01*
X37910Y102002D01*
X35370Y102002D01*
X35368Y102001D01*
X35365Y102002D01*
X35322Y101982D01*
X35279Y101964D01*
X35278Y101962D01*
X35276Y101961D01*
X35243Y101876D01*
X35243Y98066D01*
X35244Y98064D01*
X35243Y98062D01*
X35263Y98019D01*
X35282Y97975D01*
X35284Y97975D01*
X35285Y97973D01*
X35370Y97940D01*
X37910Y97940D01*
X37912Y97941D01*
G37*
G36*
X-10358Y74678D02*
X-10358Y74678D01*
X-10355Y74677D01*
X-10312Y74697D01*
X-10269Y74715D01*
X-10268Y74717D01*
X-10266Y74718D01*
X-10233Y74803D01*
X-10233Y77343D01*
X-10234Y77345D01*
X-10233Y77347D01*
X-10253Y77390D01*
X-10272Y77434D01*
X-10274Y77434D01*
X-10275Y77436D01*
X-10360Y77469D01*
X-14170Y77469D01*
X-14172Y77468D01*
X-14174Y77469D01*
X-14217Y77449D01*
X-14260Y77431D01*
X-14261Y77429D01*
X-14263Y77428D01*
X-14296Y77343D01*
X-14296Y74803D01*
X-14295Y74801D01*
X-14296Y74799D01*
X-14276Y74756D01*
X-14257Y74712D01*
X-14255Y74712D01*
X-14254Y74710D01*
X-14170Y74677D01*
X-10360Y74677D01*
X-10358Y74678D01*
G37*
D10*
X148287Y138331D02*
X148287Y140279D01*
X141796Y140279D01*
X141796Y136384D01*
X141798Y136285D01*
X141804Y136185D01*
X141813Y136086D01*
X141826Y135988D01*
X141843Y135890D01*
X141864Y135792D01*
X141889Y135696D01*
X141917Y135601D01*
X141949Y135507D01*
X141984Y135414D01*
X142023Y135322D01*
X142066Y135232D01*
X142111Y135144D01*
X142161Y135057D01*
X142213Y134973D01*
X142269Y134890D01*
X142327Y134810D01*
X142389Y134732D01*
X142454Y134657D01*
X142522Y134584D01*
X142592Y134514D01*
X142665Y134446D01*
X142740Y134381D01*
X142818Y134319D01*
X142898Y134261D01*
X142981Y134205D01*
X143065Y134153D01*
X143152Y134103D01*
X143240Y134058D01*
X143330Y134015D01*
X143422Y133976D01*
X143515Y133941D01*
X143609Y133909D01*
X143704Y133881D01*
X143800Y133856D01*
X143898Y133835D01*
X143996Y133818D01*
X144094Y133805D01*
X144193Y133796D01*
X144293Y133790D01*
X144392Y133788D01*
X150883Y133788D01*
X150982Y133790D01*
X151082Y133796D01*
X151181Y133805D01*
X151279Y133818D01*
X151377Y133835D01*
X151475Y133856D01*
X151571Y133881D01*
X151666Y133909D01*
X151760Y133941D01*
X151853Y133976D01*
X151945Y134015D01*
X152035Y134058D01*
X152123Y134103D01*
X152210Y134153D01*
X152294Y134205D01*
X152377Y134261D01*
X152457Y134319D01*
X152535Y134381D01*
X152610Y134446D01*
X152683Y134514D01*
X152753Y134584D01*
X152821Y134657D01*
X152886Y134732D01*
X152948Y134810D01*
X153006Y134890D01*
X153062Y134973D01*
X153114Y135057D01*
X153164Y135144D01*
X153209Y135232D01*
X153252Y135322D01*
X153291Y135414D01*
X153326Y135506D01*
X153358Y135601D01*
X153386Y135696D01*
X153411Y135792D01*
X153432Y135890D01*
X153449Y135988D01*
X153462Y136086D01*
X153471Y136185D01*
X153477Y136285D01*
X153479Y136384D01*
X153480Y136384D02*
X153480Y140279D01*
X153480Y145979D02*
X141796Y145979D01*
X141796Y152471D02*
X153480Y145979D01*
X153480Y152471D02*
X141796Y152471D01*
X141796Y158171D02*
X153480Y158171D01*
X153480Y161417D01*
X153478Y161530D01*
X153472Y161643D01*
X153462Y161756D01*
X153448Y161869D01*
X153431Y161981D01*
X153409Y162092D01*
X153384Y162202D01*
X153354Y162312D01*
X153321Y162420D01*
X153284Y162527D01*
X153244Y162633D01*
X153199Y162737D01*
X153151Y162840D01*
X153100Y162941D01*
X153045Y163040D01*
X152987Y163137D01*
X152925Y163232D01*
X152860Y163325D01*
X152792Y163415D01*
X152721Y163503D01*
X152646Y163589D01*
X152569Y163672D01*
X152489Y163752D01*
X152406Y163829D01*
X152320Y163904D01*
X152232Y163975D01*
X152142Y164043D01*
X152049Y164108D01*
X151954Y164170D01*
X151857Y164228D01*
X151758Y164283D01*
X151657Y164334D01*
X151554Y164382D01*
X151450Y164427D01*
X151344Y164467D01*
X151237Y164504D01*
X151129Y164537D01*
X151019Y164567D01*
X150909Y164592D01*
X150798Y164614D01*
X150686Y164631D01*
X150573Y164645D01*
X150460Y164655D01*
X150347Y164661D01*
X150234Y164663D01*
X145041Y164663D01*
X144928Y164661D01*
X144815Y164655D01*
X144702Y164645D01*
X144589Y164631D01*
X144477Y164614D01*
X144366Y164592D01*
X144256Y164567D01*
X144146Y164537D01*
X144038Y164504D01*
X143931Y164467D01*
X143825Y164427D01*
X143721Y164382D01*
X143618Y164334D01*
X143517Y164283D01*
X143418Y164228D01*
X143321Y164170D01*
X143226Y164108D01*
X143133Y164043D01*
X143043Y163975D01*
X142955Y163904D01*
X142869Y163829D01*
X142786Y163752D01*
X142706Y163672D01*
X142629Y163589D01*
X142554Y163503D01*
X142483Y163415D01*
X142415Y163325D01*
X142350Y163232D01*
X142288Y163137D01*
X142230Y163040D01*
X142175Y162941D01*
X142124Y162840D01*
X142076Y162737D01*
X142031Y162633D01*
X141991Y162527D01*
X141954Y162420D01*
X141921Y162312D01*
X141891Y162202D01*
X141866Y162092D01*
X141844Y161981D01*
X141827Y161869D01*
X141813Y161756D01*
X141803Y161643D01*
X141797Y161530D01*
X141795Y161417D01*
X141796Y161417D02*
X141796Y158171D01*
X86339Y36943D02*
X84744Y35826D01*
X88467Y30508D01*
X91657Y32742D01*
X91737Y32801D01*
X91815Y32863D01*
X91891Y32927D01*
X91964Y32995D01*
X92035Y33065D01*
X92102Y33138D01*
X92167Y33213D01*
X92229Y33291D01*
X92288Y33371D01*
X92344Y33453D01*
X92397Y33538D01*
X92446Y33624D01*
X92492Y33712D01*
X92535Y33802D01*
X92574Y33893D01*
X92609Y33986D01*
X92641Y34080D01*
X92670Y34176D01*
X92694Y34272D01*
X92715Y34369D01*
X92733Y34467D01*
X92746Y34566D01*
X92756Y34665D01*
X92762Y34764D01*
X92764Y34863D01*
X92762Y34963D01*
X92757Y35062D01*
X92747Y35161D01*
X92734Y35260D01*
X92718Y35358D01*
X92697Y35455D01*
X92673Y35552D01*
X92645Y35647D01*
X92613Y35741D01*
X92578Y35834D01*
X92539Y35926D01*
X92497Y36016D01*
X92451Y36104D01*
X92402Y36191D01*
X92350Y36275D01*
X92295Y36358D01*
X88572Y41676D01*
X88572Y41675D02*
X88513Y41755D01*
X88451Y41833D01*
X88387Y41909D01*
X88319Y41982D01*
X88249Y42053D01*
X88176Y42120D01*
X88101Y42185D01*
X88023Y42247D01*
X87943Y42306D01*
X87861Y42362D01*
X87776Y42415D01*
X87690Y42464D01*
X87602Y42510D01*
X87512Y42553D01*
X87421Y42592D01*
X87328Y42627D01*
X87234Y42659D01*
X87138Y42688D01*
X87042Y42712D01*
X86945Y42733D01*
X86847Y42751D01*
X86748Y42764D01*
X86649Y42774D01*
X86550Y42780D01*
X86451Y42782D01*
X86351Y42780D01*
X86252Y42775D01*
X86153Y42766D01*
X86054Y42752D01*
X85956Y42736D01*
X85859Y42715D01*
X85762Y42691D01*
X85667Y42663D01*
X85573Y42631D01*
X85480Y42596D01*
X85388Y42557D01*
X85298Y42515D01*
X85210Y42469D01*
X85123Y42420D01*
X85039Y42368D01*
X84956Y42313D01*
X84955Y42313D02*
X81765Y40079D01*
X77095Y36809D02*
X83797Y27239D01*
X78480Y23515D02*
X77095Y36809D01*
X71778Y33086D02*
X78480Y23515D01*
X73810Y20245D02*
X67108Y29816D01*
X64450Y27955D01*
X64449Y27955D02*
X64358Y27888D01*
X64268Y27819D01*
X64181Y27746D01*
X64097Y27670D01*
X64016Y27591D01*
X63937Y27510D01*
X63861Y27426D01*
X63788Y27339D01*
X63719Y27250D01*
X63652Y27158D01*
X63589Y27064D01*
X63529Y26968D01*
X63472Y26870D01*
X63419Y26770D01*
X63369Y26668D01*
X63323Y26564D01*
X63281Y26459D01*
X63242Y26353D01*
X63207Y26245D01*
X63176Y26136D01*
X63148Y26026D01*
X63125Y25915D01*
X63105Y25804D01*
X63089Y25692D01*
X63077Y25579D01*
X63069Y25466D01*
X63065Y25353D01*
X63065Y25239D01*
X63069Y25126D01*
X63077Y25013D01*
X63089Y24900D01*
X63105Y24788D01*
X63125Y24677D01*
X63148Y24566D01*
X63176Y24456D01*
X63207Y24347D01*
X63242Y24239D01*
X63281Y24133D01*
X63323Y24028D01*
X63369Y23924D01*
X63419Y23822D01*
X63472Y23722D01*
X63529Y23624D01*
X63589Y23528D01*
X63652Y23434D01*
X63653Y23435D02*
X66631Y19181D01*
X66631Y19180D02*
X66698Y19089D01*
X66767Y18999D01*
X66840Y18912D01*
X66916Y18828D01*
X66995Y18747D01*
X67076Y18668D01*
X67160Y18592D01*
X67247Y18519D01*
X67337Y18450D01*
X67428Y18383D01*
X67522Y18320D01*
X67618Y18260D01*
X67716Y18203D01*
X67816Y18150D01*
X67918Y18100D01*
X68022Y18054D01*
X68127Y18012D01*
X68233Y17973D01*
X68341Y17938D01*
X68450Y17907D01*
X68560Y17879D01*
X68671Y17856D01*
X68782Y17836D01*
X68894Y17820D01*
X69007Y17808D01*
X69120Y17800D01*
X69233Y17796D01*
X69347Y17796D01*
X69460Y17800D01*
X69573Y17808D01*
X69686Y17820D01*
X69798Y17836D01*
X69909Y17856D01*
X70020Y17879D01*
X70130Y17907D01*
X70239Y17938D01*
X70347Y17973D01*
X70453Y18012D01*
X70558Y18054D01*
X70662Y18100D01*
X70764Y18150D01*
X70864Y18203D01*
X70962Y18260D01*
X71058Y18320D01*
X71152Y18383D01*
X71151Y18384D02*
X73810Y20245D01*
X-63729Y19683D02*
X-65324Y20800D01*
X-69047Y15483D01*
X-65857Y13249D01*
X-65774Y13194D01*
X-65690Y13142D01*
X-65603Y13093D01*
X-65515Y13047D01*
X-65425Y13005D01*
X-65333Y12966D01*
X-65240Y12931D01*
X-65146Y12899D01*
X-65051Y12871D01*
X-64954Y12847D01*
X-64857Y12826D01*
X-64759Y12810D01*
X-64660Y12797D01*
X-64561Y12787D01*
X-64462Y12782D01*
X-64362Y12780D01*
X-64263Y12782D01*
X-64164Y12788D01*
X-64065Y12798D01*
X-63966Y12811D01*
X-63868Y12829D01*
X-63771Y12850D01*
X-63675Y12874D01*
X-63579Y12903D01*
X-63485Y12935D01*
X-63392Y12970D01*
X-63301Y13009D01*
X-63211Y13052D01*
X-63123Y13098D01*
X-63037Y13147D01*
X-62952Y13200D01*
X-62870Y13256D01*
X-62790Y13315D01*
X-62712Y13377D01*
X-62637Y13442D01*
X-62564Y13509D01*
X-62494Y13580D01*
X-62426Y13653D01*
X-62362Y13729D01*
X-62300Y13807D01*
X-62241Y13887D01*
X-58518Y19204D01*
X-58463Y19287D01*
X-58411Y19371D01*
X-58362Y19458D01*
X-58316Y19546D01*
X-58274Y19636D01*
X-58235Y19728D01*
X-58200Y19821D01*
X-58168Y19915D01*
X-58140Y20010D01*
X-58116Y20107D01*
X-58095Y20204D01*
X-58079Y20302D01*
X-58066Y20401D01*
X-58056Y20500D01*
X-58051Y20599D01*
X-58049Y20699D01*
X-58051Y20798D01*
X-58057Y20897D01*
X-58067Y20996D01*
X-58080Y21095D01*
X-58098Y21193D01*
X-58119Y21290D01*
X-58143Y21386D01*
X-58172Y21482D01*
X-58204Y21576D01*
X-58239Y21669D01*
X-58278Y21760D01*
X-58321Y21850D01*
X-58367Y21938D01*
X-58416Y22024D01*
X-58469Y22109D01*
X-58525Y22191D01*
X-58584Y22271D01*
X-58646Y22349D01*
X-58711Y22424D01*
X-58778Y22497D01*
X-58849Y22567D01*
X-58922Y22635D01*
X-58998Y22699D01*
X-59076Y22761D01*
X-59156Y22820D01*
X-59155Y22820D02*
X-62346Y25054D01*
X-67016Y28324D02*
X-73717Y18753D01*
X-79035Y22476D02*
X-67016Y28324D01*
X-72333Y32047D02*
X-79035Y22476D01*
X-83704Y25746D02*
X-77003Y35317D01*
X-79661Y37178D01*
X-79661Y37179D02*
X-79755Y37242D01*
X-79851Y37302D01*
X-79949Y37359D01*
X-80049Y37412D01*
X-80151Y37462D01*
X-80255Y37508D01*
X-80360Y37550D01*
X-80466Y37589D01*
X-80574Y37624D01*
X-80683Y37655D01*
X-80793Y37683D01*
X-80904Y37706D01*
X-81015Y37726D01*
X-81127Y37742D01*
X-81240Y37754D01*
X-81353Y37762D01*
X-81466Y37766D01*
X-81580Y37766D01*
X-81693Y37762D01*
X-81806Y37754D01*
X-81919Y37742D01*
X-82031Y37726D01*
X-82142Y37706D01*
X-82253Y37683D01*
X-82363Y37655D01*
X-82472Y37624D01*
X-82580Y37589D01*
X-82686Y37550D01*
X-82791Y37508D01*
X-82895Y37462D01*
X-82997Y37412D01*
X-83097Y37359D01*
X-83195Y37302D01*
X-83291Y37242D01*
X-83385Y37179D01*
X-83476Y37112D01*
X-83566Y37043D01*
X-83653Y36970D01*
X-83737Y36894D01*
X-83818Y36815D01*
X-83897Y36734D01*
X-83973Y36650D01*
X-84046Y36563D01*
X-84115Y36474D01*
X-84182Y36382D01*
X-84182Y36381D02*
X-87160Y32128D01*
X-87161Y32128D02*
X-87224Y32034D01*
X-87284Y31938D01*
X-87341Y31840D01*
X-87394Y31740D01*
X-87444Y31638D01*
X-87490Y31534D01*
X-87532Y31429D01*
X-87571Y31323D01*
X-87606Y31215D01*
X-87637Y31106D01*
X-87665Y30996D01*
X-87688Y30885D01*
X-87708Y30774D01*
X-87724Y30662D01*
X-87736Y30549D01*
X-87744Y30436D01*
X-87748Y30323D01*
X-87748Y30209D01*
X-87744Y30096D01*
X-87736Y29983D01*
X-87724Y29870D01*
X-87708Y29758D01*
X-87688Y29647D01*
X-87665Y29536D01*
X-87637Y29426D01*
X-87606Y29317D01*
X-87571Y29209D01*
X-87532Y29103D01*
X-87490Y28998D01*
X-87444Y28894D01*
X-87394Y28792D01*
X-87341Y28692D01*
X-87284Y28594D01*
X-87224Y28498D01*
X-87161Y28404D01*
X-87094Y28312D01*
X-87025Y28223D01*
X-86952Y28136D01*
X-86876Y28052D01*
X-86797Y27971D01*
X-86716Y27892D01*
X-86632Y27816D01*
X-86545Y27743D01*
X-86455Y27674D01*
X-86364Y27607D01*
X-86363Y27607D02*
X-83704Y25746D01*
X-144308Y185291D02*
X-143334Y186978D01*
X-144308Y185291D02*
X-138686Y182046D01*
X-136739Y185419D01*
X-136691Y185506D01*
X-136646Y185595D01*
X-136605Y185685D01*
X-136567Y185777D01*
X-136533Y185871D01*
X-136502Y185965D01*
X-136475Y186061D01*
X-136452Y186158D01*
X-136432Y186255D01*
X-136417Y186354D01*
X-136405Y186452D01*
X-136396Y186551D01*
X-136392Y186651D01*
X-136391Y186750D01*
X-136394Y186850D01*
X-136401Y186949D01*
X-136412Y187048D01*
X-136427Y187146D01*
X-136445Y187244D01*
X-136467Y187341D01*
X-136493Y187437D01*
X-136522Y187532D01*
X-136555Y187626D01*
X-136592Y187718D01*
X-136632Y187809D01*
X-136675Y187899D01*
X-136722Y187986D01*
X-136773Y188072D01*
X-136826Y188156D01*
X-136883Y188238D01*
X-136943Y188317D01*
X-137005Y188394D01*
X-137071Y188469D01*
X-137140Y188541D01*
X-137211Y188610D01*
X-137285Y188677D01*
X-137361Y188741D01*
X-137440Y188802D01*
X-137521Y188859D01*
X-137604Y188914D01*
X-137689Y188965D01*
X-143311Y192211D01*
X-143311Y192210D02*
X-143398Y192258D01*
X-143487Y192303D01*
X-143577Y192344D01*
X-143669Y192382D01*
X-143763Y192416D01*
X-143857Y192447D01*
X-143953Y192474D01*
X-144050Y192497D01*
X-144147Y192517D01*
X-144246Y192532D01*
X-144344Y192544D01*
X-144443Y192553D01*
X-144543Y192557D01*
X-144642Y192558D01*
X-144742Y192555D01*
X-144841Y192548D01*
X-144940Y192537D01*
X-145038Y192522D01*
X-145136Y192504D01*
X-145233Y192482D01*
X-145329Y192456D01*
X-145424Y192427D01*
X-145518Y192394D01*
X-145610Y192357D01*
X-145701Y192317D01*
X-145790Y192274D01*
X-145878Y192227D01*
X-145964Y192176D01*
X-146048Y192123D01*
X-146129Y192066D01*
X-146209Y192006D01*
X-146286Y191944D01*
X-146361Y191878D01*
X-146433Y191809D01*
X-146502Y191738D01*
X-146569Y191664D01*
X-146633Y191588D01*
X-146693Y191509D01*
X-146751Y191428D01*
X-146806Y191345D01*
X-146857Y191260D01*
X-146857Y191261D02*
X-148805Y187888D01*
X-151655Y182951D02*
X-141537Y177109D01*
X-144782Y171487D02*
X-151655Y182951D01*
X-154901Y177329D02*
X-144782Y171487D01*
X-147633Y166550D02*
X-157751Y172392D01*
X-159374Y169581D01*
X-159429Y169482D01*
X-159480Y169381D01*
X-159528Y169278D01*
X-159573Y169174D01*
X-159613Y169068D01*
X-159650Y168961D01*
X-159683Y168853D01*
X-159713Y168743D01*
X-159738Y168633D01*
X-159760Y168522D01*
X-159777Y168410D01*
X-159791Y168297D01*
X-159801Y168184D01*
X-159807Y168071D01*
X-159809Y167958D01*
X-159807Y167845D01*
X-159801Y167732D01*
X-159791Y167619D01*
X-159777Y167506D01*
X-159760Y167394D01*
X-159738Y167283D01*
X-159713Y167173D01*
X-159683Y167063D01*
X-159650Y166955D01*
X-159613Y166848D01*
X-159573Y166742D01*
X-159528Y166638D01*
X-159480Y166535D01*
X-159429Y166434D01*
X-159374Y166335D01*
X-159316Y166238D01*
X-159254Y166143D01*
X-159189Y166050D01*
X-159121Y165960D01*
X-159050Y165872D01*
X-158975Y165786D01*
X-158898Y165703D01*
X-158818Y165623D01*
X-158735Y165546D01*
X-158649Y165471D01*
X-158561Y165400D01*
X-158471Y165332D01*
X-158378Y165267D01*
X-158283Y165205D01*
X-158186Y165147D01*
X-158186Y165148D02*
X-153689Y162551D01*
X-153590Y162496D01*
X-153489Y162445D01*
X-153386Y162397D01*
X-153282Y162352D01*
X-153176Y162312D01*
X-153069Y162275D01*
X-152961Y162242D01*
X-152851Y162212D01*
X-152741Y162187D01*
X-152630Y162165D01*
X-152518Y162148D01*
X-152405Y162134D01*
X-152292Y162124D01*
X-152179Y162118D01*
X-152066Y162116D01*
X-151953Y162118D01*
X-151840Y162124D01*
X-151727Y162134D01*
X-151614Y162148D01*
X-151502Y162165D01*
X-151391Y162187D01*
X-151281Y162212D01*
X-151171Y162242D01*
X-151063Y162275D01*
X-150956Y162312D01*
X-150850Y162352D01*
X-150746Y162397D01*
X-150643Y162445D01*
X-150542Y162496D01*
X-150443Y162551D01*
X-150346Y162609D01*
X-150251Y162671D01*
X-150158Y162736D01*
X-150068Y162804D01*
X-149979Y162875D01*
X-149894Y162950D01*
X-149811Y163027D01*
X-149731Y163107D01*
X-149654Y163190D01*
X-149579Y163276D01*
X-149508Y163364D01*
X-149440Y163454D01*
X-149375Y163547D01*
X-149313Y163642D01*
X-149255Y163739D01*
X-147633Y166550D01*
D11*
X109774Y205423D02*
X109774Y223203D01*
X104835Y223203D01*
X104695Y223201D01*
X104556Y223195D01*
X104416Y223185D01*
X104277Y223171D01*
X104138Y223154D01*
X104000Y223132D01*
X103863Y223106D01*
X103726Y223077D01*
X103590Y223044D01*
X103456Y223007D01*
X103322Y222966D01*
X103190Y222921D01*
X103058Y222872D01*
X102929Y222820D01*
X102801Y222765D01*
X102674Y222705D01*
X102549Y222642D01*
X102426Y222576D01*
X102305Y222506D01*
X102186Y222433D01*
X102069Y222356D01*
X101955Y222276D01*
X101842Y222193D01*
X101732Y222107D01*
X101625Y222017D01*
X101520Y221925D01*
X101418Y221830D01*
X101318Y221732D01*
X101221Y221631D01*
X101127Y221527D01*
X101037Y221421D01*
X100949Y221312D01*
X100864Y221201D01*
X100783Y221087D01*
X100704Y220972D01*
X100629Y220854D01*
X100558Y220734D01*
X100490Y220611D01*
X100425Y220488D01*
X100364Y220362D01*
X100306Y220234D01*
X100252Y220106D01*
X100202Y219975D01*
X100155Y219843D01*
X100112Y219710D01*
X100073Y219576D01*
X100038Y219441D01*
X100007Y219305D01*
X99979Y219167D01*
X99956Y219030D01*
X99936Y218891D01*
X99920Y218752D01*
X99908Y218613D01*
X99900Y218474D01*
X99896Y218334D01*
X99896Y218194D01*
X99900Y218054D01*
X99908Y217915D01*
X99920Y217776D01*
X99936Y217637D01*
X99956Y217498D01*
X99979Y217361D01*
X100007Y217223D01*
X100038Y217087D01*
X100073Y216952D01*
X100112Y216818D01*
X100155Y216685D01*
X100202Y216553D01*
X100252Y216422D01*
X100306Y216294D01*
X100364Y216166D01*
X100425Y216040D01*
X100490Y215917D01*
X100558Y215794D01*
X100629Y215674D01*
X100704Y215556D01*
X100783Y215441D01*
X100864Y215327D01*
X100949Y215216D01*
X101037Y215107D01*
X101127Y215001D01*
X101221Y214897D01*
X101318Y214796D01*
X101418Y214698D01*
X101520Y214603D01*
X101625Y214511D01*
X101732Y214421D01*
X101842Y214335D01*
X101955Y214252D01*
X102069Y214172D01*
X102186Y214095D01*
X102305Y214022D01*
X102426Y213952D01*
X102549Y213886D01*
X102674Y213823D01*
X102801Y213763D01*
X102929Y213708D01*
X103058Y213656D01*
X103190Y213607D01*
X103322Y213562D01*
X103456Y213521D01*
X103590Y213484D01*
X103726Y213451D01*
X103863Y213422D01*
X104000Y213396D01*
X104138Y213374D01*
X104277Y213357D01*
X104416Y213343D01*
X104556Y213333D01*
X104695Y213327D01*
X104835Y213325D01*
X109774Y213325D01*
X93779Y219251D02*
X88840Y223203D01*
X88840Y205423D01*
X93779Y205423D02*
X83901Y205423D01*
X101645Y104319D02*
X117043Y95429D01*
X101645Y104319D02*
X99176Y100042D01*
X99176Y100043D02*
X99108Y99920D01*
X99043Y99797D01*
X98982Y99671D01*
X98924Y99543D01*
X98870Y99415D01*
X98820Y99284D01*
X98773Y99152D01*
X98730Y99019D01*
X98691Y98885D01*
X98656Y98750D01*
X98625Y98614D01*
X98597Y98476D01*
X98574Y98339D01*
X98554Y98200D01*
X98538Y98061D01*
X98526Y97922D01*
X98518Y97783D01*
X98514Y97643D01*
X98514Y97503D01*
X98518Y97363D01*
X98526Y97224D01*
X98538Y97085D01*
X98554Y96946D01*
X98574Y96807D01*
X98597Y96670D01*
X98625Y96532D01*
X98656Y96396D01*
X98691Y96261D01*
X98730Y96127D01*
X98773Y95994D01*
X98820Y95862D01*
X98870Y95731D01*
X98924Y95603D01*
X98982Y95475D01*
X99043Y95349D01*
X99108Y95226D01*
X99176Y95103D01*
X99247Y94983D01*
X99322Y94865D01*
X99401Y94750D01*
X99482Y94636D01*
X99567Y94525D01*
X99655Y94416D01*
X99745Y94310D01*
X99839Y94206D01*
X99936Y94105D01*
X100036Y94007D01*
X100138Y93912D01*
X100243Y93820D01*
X100350Y93730D01*
X100460Y93644D01*
X100573Y93561D01*
X100687Y93481D01*
X100804Y93404D01*
X100923Y93331D01*
X101044Y93261D01*
X101167Y93195D01*
X101292Y93132D01*
X101419Y93072D01*
X101547Y93017D01*
X101677Y92965D01*
X101808Y92916D01*
X101940Y92871D01*
X102074Y92830D01*
X102208Y92793D01*
X102344Y92760D01*
X102481Y92731D01*
X102618Y92705D01*
X102756Y92683D01*
X102895Y92666D01*
X103034Y92652D01*
X103174Y92642D01*
X103313Y92636D01*
X103453Y92634D01*
X103593Y92636D01*
X103732Y92642D01*
X103872Y92652D01*
X104011Y92666D01*
X104150Y92683D01*
X104288Y92705D01*
X104425Y92731D01*
X104562Y92760D01*
X104698Y92793D01*
X104832Y92831D01*
X104966Y92871D01*
X105098Y92916D01*
X105230Y92965D01*
X105359Y93017D01*
X105487Y93072D01*
X105614Y93132D01*
X105739Y93195D01*
X105862Y93261D01*
X105983Y93331D01*
X106102Y93404D01*
X106219Y93481D01*
X106333Y93561D01*
X106446Y93644D01*
X106556Y93730D01*
X106663Y93820D01*
X106768Y93912D01*
X106870Y94007D01*
X106970Y94105D01*
X107067Y94206D01*
X107161Y94310D01*
X107251Y94416D01*
X107339Y94525D01*
X107424Y94636D01*
X107505Y94750D01*
X107584Y94865D01*
X107659Y94983D01*
X107730Y95104D01*
X107730Y95103D02*
X110199Y99381D01*
X90932Y85763D02*
X90867Y85647D01*
X90807Y85531D01*
X90749Y85412D01*
X90696Y85292D01*
X90646Y85170D01*
X90599Y85047D01*
X90556Y84922D01*
X90517Y84796D01*
X90482Y84669D01*
X90450Y84541D01*
X90422Y84413D01*
X90399Y84283D01*
X90378Y84153D01*
X90362Y84022D01*
X90350Y83891D01*
X90341Y83760D01*
X90337Y83628D01*
X90336Y83496D01*
X90339Y83364D01*
X90347Y83233D01*
X90358Y83102D01*
X90373Y82971D01*
X90391Y82840D01*
X90414Y82711D01*
X90441Y82582D01*
X90471Y82453D01*
X90505Y82326D01*
X90543Y82200D01*
X90584Y82075D01*
X90630Y81951D01*
X90679Y81829D01*
X90731Y81708D01*
X90787Y81589D01*
X90847Y81471D01*
X90910Y81356D01*
X90976Y81242D01*
X91046Y81130D01*
X91119Y81021D01*
X91195Y80913D01*
X91275Y80808D01*
X91357Y80705D01*
X91443Y80605D01*
X91531Y80507D01*
X91622Y80412D01*
X91716Y80320D01*
X91813Y80231D01*
X91913Y80144D01*
X92015Y80061D01*
X92119Y79980D01*
X92225Y79903D01*
X92334Y79829D01*
X92445Y79758D01*
X92559Y79691D01*
X90931Y85763D02*
X91008Y85891D01*
X91088Y86018D01*
X91171Y86142D01*
X91257Y86264D01*
X91347Y86384D01*
X91439Y86502D01*
X91535Y86617D01*
X91634Y86729D01*
X91735Y86839D01*
X91840Y86946D01*
X91947Y87051D01*
X92057Y87152D01*
X92169Y87251D01*
X92284Y87346D01*
X92402Y87439D01*
X92522Y87528D01*
X92644Y87615D01*
X92768Y87698D01*
X92895Y87778D01*
X93024Y87854D01*
X93154Y87927D01*
X93287Y87997D01*
X93421Y88063D01*
X93557Y88125D01*
X93694Y88184D01*
X93833Y88240D01*
X93974Y88291D01*
X94115Y88339D01*
X94258Y88384D01*
X94402Y88424D01*
X94547Y88461D01*
X94693Y88494D01*
X94840Y88523D01*
X94987Y88548D01*
X95136Y88570D01*
X95284Y88587D01*
X95433Y88601D01*
X95582Y88610D01*
X95732Y88616D01*
X95882Y88618D01*
X96031Y88616D01*
X96181Y88610D01*
X96330Y88600D01*
X96479Y88586D01*
X96627Y88568D01*
X96776Y88547D01*
X96923Y88521D01*
X97070Y88492D01*
X96293Y79245D02*
X96164Y79209D01*
X96035Y79177D01*
X95905Y79148D01*
X95774Y79123D01*
X95642Y79102D01*
X95510Y79085D01*
X95377Y79071D01*
X95245Y79060D01*
X95111Y79054D01*
X94978Y79051D01*
X94845Y79052D01*
X94712Y79057D01*
X94579Y79065D01*
X94446Y79077D01*
X94313Y79093D01*
X94182Y79112D01*
X94050Y79136D01*
X93920Y79162D01*
X93790Y79193D01*
X93661Y79227D01*
X93533Y79265D01*
X93406Y79306D01*
X93281Y79350D01*
X93157Y79399D01*
X93034Y79450D01*
X92912Y79505D01*
X92792Y79564D01*
X92674Y79626D01*
X92558Y79691D01*
X96293Y79245D02*
X109045Y81577D01*
X104106Y73023D01*
X91933Y65768D02*
X86801Y68731D01*
X91933Y65768D02*
X94054Y60551D01*
X91933Y65768D02*
X97512Y66539D01*
X91933Y65768D02*
X87506Y62050D01*
X91933Y65768D02*
X92939Y71460D01*
X12936Y39053D02*
X12936Y21273D01*
X12936Y39053D02*
X7998Y39053D01*
X7858Y39051D01*
X7719Y39045D01*
X7579Y39035D01*
X7440Y39021D01*
X7301Y39004D01*
X7163Y38982D01*
X7026Y38956D01*
X6889Y38927D01*
X6753Y38894D01*
X6619Y38857D01*
X6485Y38816D01*
X6353Y38771D01*
X6221Y38722D01*
X6092Y38670D01*
X5964Y38615D01*
X5837Y38555D01*
X5712Y38492D01*
X5589Y38426D01*
X5468Y38356D01*
X5349Y38283D01*
X5232Y38206D01*
X5118Y38126D01*
X5005Y38043D01*
X4895Y37957D01*
X4788Y37867D01*
X4683Y37775D01*
X4581Y37680D01*
X4481Y37582D01*
X4384Y37481D01*
X4290Y37377D01*
X4200Y37271D01*
X4112Y37162D01*
X4027Y37051D01*
X3946Y36937D01*
X3867Y36822D01*
X3792Y36704D01*
X3721Y36583D01*
X3653Y36461D01*
X3588Y36338D01*
X3527Y36212D01*
X3469Y36084D01*
X3415Y35956D01*
X3365Y35825D01*
X3318Y35693D01*
X3275Y35560D01*
X3236Y35426D01*
X3201Y35291D01*
X3170Y35155D01*
X3142Y35017D01*
X3119Y34880D01*
X3099Y34741D01*
X3083Y34602D01*
X3071Y34463D01*
X3063Y34324D01*
X3059Y34184D01*
X3059Y34044D01*
X3063Y33904D01*
X3071Y33765D01*
X3083Y33626D01*
X3099Y33487D01*
X3119Y33348D01*
X3142Y33211D01*
X3170Y33073D01*
X3201Y32937D01*
X3236Y32802D01*
X3275Y32668D01*
X3318Y32535D01*
X3365Y32403D01*
X3415Y32272D01*
X3469Y32144D01*
X3527Y32016D01*
X3588Y31890D01*
X3653Y31767D01*
X3721Y31644D01*
X3792Y31524D01*
X3867Y31406D01*
X3946Y31291D01*
X4027Y31177D01*
X4112Y31066D01*
X4200Y30957D01*
X4290Y30851D01*
X4384Y30747D01*
X4481Y30646D01*
X4581Y30548D01*
X4683Y30453D01*
X4788Y30361D01*
X4895Y30271D01*
X5005Y30185D01*
X5118Y30102D01*
X5232Y30022D01*
X5349Y29945D01*
X5468Y29872D01*
X5589Y29802D01*
X5712Y29736D01*
X5837Y29673D01*
X5964Y29613D01*
X6092Y29558D01*
X6221Y29506D01*
X6353Y29457D01*
X6485Y29412D01*
X6619Y29371D01*
X6753Y29334D01*
X6889Y29301D01*
X7026Y29272D01*
X7163Y29246D01*
X7301Y29224D01*
X7440Y29207D01*
X7579Y29193D01*
X7719Y29183D01*
X7858Y29177D01*
X7998Y29175D01*
X12936Y29175D01*
X-3059Y21273D02*
X-7998Y21273D01*
X-7998Y21272D02*
X-8138Y21274D01*
X-8277Y21280D01*
X-8417Y21290D01*
X-8556Y21304D01*
X-8695Y21321D01*
X-8833Y21343D01*
X-8970Y21369D01*
X-9107Y21398D01*
X-9243Y21431D01*
X-9377Y21468D01*
X-9511Y21509D01*
X-9643Y21554D01*
X-9775Y21603D01*
X-9904Y21655D01*
X-10032Y21710D01*
X-10159Y21770D01*
X-10284Y21833D01*
X-10407Y21899D01*
X-10528Y21969D01*
X-10647Y22042D01*
X-10764Y22119D01*
X-10878Y22199D01*
X-10991Y22282D01*
X-11101Y22368D01*
X-11208Y22458D01*
X-11313Y22550D01*
X-11415Y22645D01*
X-11515Y22743D01*
X-11612Y22844D01*
X-11706Y22948D01*
X-11796Y23054D01*
X-11884Y23163D01*
X-11969Y23274D01*
X-12050Y23388D01*
X-12129Y23503D01*
X-12204Y23621D01*
X-12275Y23741D01*
X-12343Y23864D01*
X-12408Y23987D01*
X-12469Y24113D01*
X-12527Y24241D01*
X-12581Y24369D01*
X-12631Y24500D01*
X-12678Y24632D01*
X-12721Y24765D01*
X-12760Y24899D01*
X-12795Y25034D01*
X-12826Y25170D01*
X-12854Y25308D01*
X-12877Y25445D01*
X-12897Y25584D01*
X-12913Y25723D01*
X-12925Y25862D01*
X-12933Y26001D01*
X-12937Y26141D01*
X-12937Y26281D01*
X-12933Y26421D01*
X-12925Y26560D01*
X-12913Y26699D01*
X-12897Y26838D01*
X-12877Y26977D01*
X-12854Y27114D01*
X-12826Y27252D01*
X-12795Y27388D01*
X-12760Y27523D01*
X-12721Y27657D01*
X-12678Y27790D01*
X-12631Y27922D01*
X-12581Y28053D01*
X-12527Y28181D01*
X-12469Y28309D01*
X-12408Y28435D01*
X-12343Y28558D01*
X-12275Y28680D01*
X-12204Y28801D01*
X-12129Y28919D01*
X-12050Y29034D01*
X-11969Y29148D01*
X-11884Y29259D01*
X-11796Y29368D01*
X-11706Y29474D01*
X-11612Y29578D01*
X-11515Y29679D01*
X-11415Y29777D01*
X-11313Y29872D01*
X-11208Y29964D01*
X-11101Y30054D01*
X-10991Y30140D01*
X-10878Y30223D01*
X-10764Y30303D01*
X-10647Y30380D01*
X-10528Y30453D01*
X-10407Y30523D01*
X-10284Y30589D01*
X-10159Y30652D01*
X-10032Y30712D01*
X-9904Y30767D01*
X-9775Y30819D01*
X-9643Y30868D01*
X-9511Y30913D01*
X-9377Y30954D01*
X-9243Y30991D01*
X-9107Y31024D01*
X-8970Y31053D01*
X-8833Y31079D01*
X-8695Y31101D01*
X-8556Y31118D01*
X-8417Y31132D01*
X-8277Y31142D01*
X-8138Y31148D01*
X-7998Y31150D01*
X-8985Y39053D02*
X-3059Y39053D01*
X-8985Y39052D02*
X-9109Y39050D01*
X-9233Y39044D01*
X-9357Y39034D01*
X-9480Y39021D01*
X-9603Y39003D01*
X-9725Y38982D01*
X-9847Y38957D01*
X-9968Y38928D01*
X-10087Y38895D01*
X-10206Y38859D01*
X-10323Y38818D01*
X-10439Y38775D01*
X-10554Y38727D01*
X-10667Y38676D01*
X-10779Y38621D01*
X-10888Y38563D01*
X-10996Y38502D01*
X-11102Y38437D01*
X-11206Y38369D01*
X-11307Y38297D01*
X-11407Y38223D01*
X-11503Y38145D01*
X-11598Y38065D01*
X-11690Y37981D01*
X-11779Y37895D01*
X-11865Y37806D01*
X-11949Y37714D01*
X-12029Y37619D01*
X-12107Y37523D01*
X-12181Y37423D01*
X-12253Y37322D01*
X-12321Y37218D01*
X-12386Y37112D01*
X-12447Y37004D01*
X-12505Y36895D01*
X-12560Y36783D01*
X-12611Y36670D01*
X-12659Y36555D01*
X-12702Y36439D01*
X-12743Y36322D01*
X-12779Y36203D01*
X-12812Y36084D01*
X-12841Y35963D01*
X-12866Y35841D01*
X-12887Y35719D01*
X-12905Y35596D01*
X-12918Y35473D01*
X-12928Y35349D01*
X-12934Y35225D01*
X-12936Y35101D01*
X-12934Y34977D01*
X-12928Y34853D01*
X-12918Y34729D01*
X-12905Y34606D01*
X-12887Y34483D01*
X-12866Y34361D01*
X-12841Y34239D01*
X-12812Y34118D01*
X-12779Y33999D01*
X-12743Y33880D01*
X-12702Y33763D01*
X-12659Y33647D01*
X-12611Y33532D01*
X-12560Y33419D01*
X-12505Y33307D01*
X-12447Y33198D01*
X-12386Y33090D01*
X-12321Y32984D01*
X-12253Y32880D01*
X-12181Y32779D01*
X-12107Y32679D01*
X-12029Y32583D01*
X-11949Y32488D01*
X-11865Y32396D01*
X-11779Y32307D01*
X-11690Y32221D01*
X-11598Y32137D01*
X-11503Y32057D01*
X-11407Y31979D01*
X-11307Y31905D01*
X-11206Y31833D01*
X-11102Y31765D01*
X-10996Y31700D01*
X-10888Y31639D01*
X-10779Y31581D01*
X-10667Y31526D01*
X-10554Y31475D01*
X-10439Y31427D01*
X-10323Y31384D01*
X-10206Y31343D01*
X-10087Y31307D01*
X-9968Y31274D01*
X-9847Y31245D01*
X-9725Y31220D01*
X-9603Y31199D01*
X-9480Y31181D01*
X-9357Y31168D01*
X-9233Y31158D01*
X-9109Y31152D01*
X-8985Y31150D01*
X-5034Y31150D01*
X-90608Y80554D02*
X-106006Y71664D01*
X-90608Y80554D02*
X-93077Y84831D01*
X-93078Y84832D02*
X-93149Y84952D01*
X-93224Y85070D01*
X-93303Y85185D01*
X-93384Y85299D01*
X-93469Y85410D01*
X-93557Y85519D01*
X-93647Y85625D01*
X-93741Y85729D01*
X-93838Y85830D01*
X-93938Y85928D01*
X-94040Y86023D01*
X-94145Y86115D01*
X-94252Y86205D01*
X-94362Y86291D01*
X-94475Y86374D01*
X-94589Y86454D01*
X-94706Y86531D01*
X-94825Y86604D01*
X-94946Y86674D01*
X-95069Y86740D01*
X-95194Y86803D01*
X-95321Y86863D01*
X-95449Y86918D01*
X-95579Y86970D01*
X-95710Y87019D01*
X-95842Y87064D01*
X-95976Y87105D01*
X-96110Y87142D01*
X-96246Y87175D01*
X-96383Y87204D01*
X-96520Y87230D01*
X-96658Y87252D01*
X-96797Y87269D01*
X-96936Y87283D01*
X-97076Y87293D01*
X-97215Y87299D01*
X-97355Y87301D01*
X-97495Y87299D01*
X-97634Y87293D01*
X-97774Y87283D01*
X-97913Y87269D01*
X-98052Y87252D01*
X-98190Y87230D01*
X-98327Y87204D01*
X-98464Y87175D01*
X-98600Y87142D01*
X-98734Y87104D01*
X-98868Y87064D01*
X-99000Y87019D01*
X-99132Y86970D01*
X-99261Y86918D01*
X-99389Y86863D01*
X-99516Y86803D01*
X-99641Y86740D01*
X-99764Y86674D01*
X-99885Y86604D01*
X-100004Y86531D01*
X-100121Y86454D01*
X-100235Y86374D01*
X-100348Y86291D01*
X-100458Y86205D01*
X-100565Y86115D01*
X-100670Y86023D01*
X-100772Y85928D01*
X-100872Y85830D01*
X-100969Y85729D01*
X-101063Y85625D01*
X-101153Y85519D01*
X-101241Y85410D01*
X-101326Y85299D01*
X-101407Y85185D01*
X-101486Y85070D01*
X-101561Y84952D01*
X-101632Y84831D01*
X-101700Y84709D01*
X-101765Y84586D01*
X-101826Y84460D01*
X-101884Y84332D01*
X-101938Y84204D01*
X-101988Y84073D01*
X-102035Y83941D01*
X-102078Y83808D01*
X-102117Y83674D01*
X-102152Y83539D01*
X-102183Y83403D01*
X-102211Y83265D01*
X-102234Y83128D01*
X-102254Y82989D01*
X-102270Y82850D01*
X-102282Y82711D01*
X-102290Y82572D01*
X-102294Y82432D01*
X-102294Y82292D01*
X-102290Y82152D01*
X-102282Y82013D01*
X-102270Y81874D01*
X-102254Y81735D01*
X-102234Y81596D01*
X-102211Y81458D01*
X-102183Y81321D01*
X-102152Y81185D01*
X-102117Y81050D01*
X-102078Y80916D01*
X-102035Y80783D01*
X-101988Y80651D01*
X-101938Y80520D01*
X-101884Y80391D01*
X-101826Y80264D01*
X-101765Y80138D01*
X-101700Y80015D01*
X-101632Y79892D01*
X-101632Y79893D02*
X-99162Y75615D01*
X-110582Y87492D02*
X-100581Y97828D01*
X-110582Y87492D02*
X-115521Y96046D01*
X-117461Y91504D02*
X-110617Y95456D01*
X-101364Y189548D02*
X-101364Y207328D01*
X-106302Y207328D01*
X-106442Y207326D01*
X-106581Y207320D01*
X-106721Y207310D01*
X-106860Y207296D01*
X-106999Y207279D01*
X-107137Y207257D01*
X-107274Y207231D01*
X-107411Y207202D01*
X-107547Y207169D01*
X-107681Y207132D01*
X-107815Y207091D01*
X-107947Y207046D01*
X-108079Y206997D01*
X-108208Y206945D01*
X-108336Y206890D01*
X-108463Y206830D01*
X-108588Y206767D01*
X-108711Y206701D01*
X-108832Y206631D01*
X-108951Y206558D01*
X-109068Y206481D01*
X-109182Y206401D01*
X-109295Y206318D01*
X-109405Y206232D01*
X-109512Y206142D01*
X-109617Y206050D01*
X-109719Y205955D01*
X-109819Y205857D01*
X-109916Y205756D01*
X-110010Y205652D01*
X-110100Y205546D01*
X-110188Y205437D01*
X-110273Y205326D01*
X-110354Y205212D01*
X-110433Y205097D01*
X-110508Y204979D01*
X-110579Y204859D01*
X-110647Y204736D01*
X-110712Y204613D01*
X-110773Y204487D01*
X-110831Y204359D01*
X-110885Y204231D01*
X-110935Y204100D01*
X-110982Y203968D01*
X-111025Y203835D01*
X-111064Y203701D01*
X-111099Y203566D01*
X-111130Y203430D01*
X-111158Y203292D01*
X-111181Y203155D01*
X-111201Y203016D01*
X-111217Y202877D01*
X-111229Y202738D01*
X-111237Y202599D01*
X-111241Y202459D01*
X-111241Y202319D01*
X-111237Y202179D01*
X-111229Y202040D01*
X-111217Y201901D01*
X-111201Y201762D01*
X-111181Y201623D01*
X-111158Y201486D01*
X-111130Y201348D01*
X-111099Y201212D01*
X-111064Y201077D01*
X-111025Y200943D01*
X-110982Y200810D01*
X-110935Y200678D01*
X-110885Y200547D01*
X-110831Y200419D01*
X-110773Y200291D01*
X-110712Y200165D01*
X-110647Y200042D01*
X-110579Y199919D01*
X-110508Y199799D01*
X-110433Y199681D01*
X-110354Y199566D01*
X-110273Y199452D01*
X-110188Y199341D01*
X-110100Y199232D01*
X-110010Y199126D01*
X-109916Y199022D01*
X-109819Y198921D01*
X-109719Y198823D01*
X-109617Y198728D01*
X-109512Y198636D01*
X-109405Y198546D01*
X-109295Y198460D01*
X-109182Y198377D01*
X-109068Y198297D01*
X-108951Y198220D01*
X-108832Y198147D01*
X-108711Y198077D01*
X-108588Y198011D01*
X-108463Y197948D01*
X-108336Y197888D01*
X-108208Y197833D01*
X-108079Y197781D01*
X-107947Y197732D01*
X-107815Y197687D01*
X-107681Y197646D01*
X-107547Y197609D01*
X-107411Y197576D01*
X-107274Y197547D01*
X-107137Y197521D01*
X-106999Y197499D01*
X-106860Y197482D01*
X-106721Y197468D01*
X-106581Y197458D01*
X-106442Y197452D01*
X-106302Y197450D01*
X-101364Y197450D01*
X-117359Y189548D02*
X-123285Y189548D01*
X-123409Y189550D01*
X-123533Y189556D01*
X-123657Y189566D01*
X-123780Y189579D01*
X-123903Y189597D01*
X-124025Y189618D01*
X-124147Y189643D01*
X-124268Y189672D01*
X-124387Y189705D01*
X-124506Y189741D01*
X-124623Y189782D01*
X-124739Y189825D01*
X-124854Y189873D01*
X-124967Y189924D01*
X-125079Y189979D01*
X-125188Y190037D01*
X-125296Y190098D01*
X-125402Y190163D01*
X-125506Y190231D01*
X-125607Y190303D01*
X-125707Y190377D01*
X-125803Y190455D01*
X-125898Y190535D01*
X-125990Y190619D01*
X-126079Y190705D01*
X-126165Y190794D01*
X-126249Y190886D01*
X-126329Y190981D01*
X-126407Y191077D01*
X-126481Y191177D01*
X-126553Y191278D01*
X-126621Y191382D01*
X-126686Y191488D01*
X-126747Y191596D01*
X-126805Y191705D01*
X-126860Y191817D01*
X-126911Y191930D01*
X-126959Y192045D01*
X-127002Y192161D01*
X-127043Y192278D01*
X-127079Y192397D01*
X-127112Y192516D01*
X-127141Y192637D01*
X-127166Y192759D01*
X-127187Y192881D01*
X-127205Y193004D01*
X-127218Y193127D01*
X-127228Y193251D01*
X-127234Y193375D01*
X-127236Y193499D01*
X-127236Y195474D01*
X-127234Y195598D01*
X-127228Y195722D01*
X-127218Y195846D01*
X-127205Y195969D01*
X-127187Y196092D01*
X-127166Y196214D01*
X-127141Y196336D01*
X-127112Y196457D01*
X-127079Y196576D01*
X-127043Y196695D01*
X-127002Y196812D01*
X-126959Y196928D01*
X-126911Y197043D01*
X-126860Y197156D01*
X-126805Y197268D01*
X-126747Y197377D01*
X-126686Y197485D01*
X-126621Y197591D01*
X-126553Y197695D01*
X-126481Y197796D01*
X-126407Y197896D01*
X-126329Y197992D01*
X-126249Y198087D01*
X-126165Y198179D01*
X-126079Y198268D01*
X-125990Y198354D01*
X-125898Y198438D01*
X-125803Y198518D01*
X-125707Y198596D01*
X-125607Y198670D01*
X-125506Y198742D01*
X-125402Y198810D01*
X-125296Y198875D01*
X-125188Y198936D01*
X-125079Y198994D01*
X-124967Y199049D01*
X-124854Y199100D01*
X-124739Y199148D01*
X-124623Y199191D01*
X-124506Y199232D01*
X-124387Y199268D01*
X-124268Y199301D01*
X-124147Y199330D01*
X-124025Y199355D01*
X-123903Y199376D01*
X-123780Y199394D01*
X-123657Y199407D01*
X-123533Y199417D01*
X-123409Y199423D01*
X-123285Y199425D01*
X-117359Y199425D01*
X-117359Y207328D01*
X-127236Y207328D01*
X43082Y64453D02*
X43082Y46673D01*
X43082Y56550D02*
X33204Y56550D01*
X33204Y64453D02*
X33204Y46673D01*
X25773Y55563D02*
X25769Y55913D01*
X25756Y56262D01*
X25735Y56611D01*
X25706Y56960D01*
X25669Y57308D01*
X25623Y57655D01*
X25569Y58000D01*
X25507Y58344D01*
X25436Y58687D01*
X25357Y59028D01*
X25271Y59367D01*
X25176Y59703D01*
X25073Y60038D01*
X24962Y60369D01*
X24844Y60699D01*
X24717Y61025D01*
X24583Y61348D01*
X24441Y61667D01*
X24291Y61984D01*
X24291Y61983D02*
X24251Y62096D01*
X24207Y62206D01*
X24159Y62316D01*
X24108Y62423D01*
X24053Y62529D01*
X23995Y62634D01*
X23933Y62736D01*
X23868Y62836D01*
X23800Y62934D01*
X23729Y63030D01*
X23654Y63123D01*
X23577Y63214D01*
X23497Y63302D01*
X23414Y63387D01*
X23328Y63470D01*
X23239Y63550D01*
X23148Y63627D01*
X23054Y63701D01*
X22958Y63772D01*
X22860Y63840D01*
X22760Y63904D01*
X22657Y63966D01*
X22553Y64023D01*
X22447Y64078D01*
X22339Y64129D01*
X22229Y64176D01*
X22118Y64220D01*
X22006Y64260D01*
X21892Y64296D01*
X21778Y64329D01*
X21662Y64358D01*
X21545Y64383D01*
X21428Y64404D01*
X21310Y64422D01*
X21191Y64435D01*
X21072Y64445D01*
X20953Y64451D01*
X20834Y64453D01*
X20715Y64451D01*
X20596Y64445D01*
X20477Y64435D01*
X20358Y64422D01*
X20240Y64404D01*
X20123Y64383D01*
X20006Y64358D01*
X19890Y64329D01*
X19776Y64296D01*
X19662Y64260D01*
X19550Y64220D01*
X19439Y64176D01*
X19329Y64129D01*
X19221Y64078D01*
X19115Y64023D01*
X19011Y63966D01*
X18908Y63904D01*
X18808Y63840D01*
X18710Y63772D01*
X18614Y63701D01*
X18520Y63627D01*
X18429Y63550D01*
X18340Y63470D01*
X18255Y63387D01*
X18171Y63302D01*
X18091Y63214D01*
X18014Y63123D01*
X17939Y63030D01*
X17868Y62934D01*
X17800Y62836D01*
X17735Y62736D01*
X17673Y62634D01*
X17615Y62529D01*
X17560Y62424D01*
X17509Y62316D01*
X17461Y62206D01*
X17417Y62096D01*
X17377Y61983D01*
X17377Y61984D02*
X17227Y61667D01*
X17085Y61348D01*
X16951Y61025D01*
X16824Y60699D01*
X16706Y60369D01*
X16595Y60038D01*
X16492Y59703D01*
X16397Y59367D01*
X16311Y59028D01*
X16232Y58687D01*
X16161Y58344D01*
X16099Y58000D01*
X16045Y57655D01*
X15999Y57308D01*
X15962Y56960D01*
X15933Y56611D01*
X15912Y56262D01*
X15899Y55913D01*
X15895Y55563D01*
X25773Y55563D02*
X25769Y55213D01*
X25756Y54864D01*
X25735Y54515D01*
X25706Y54166D01*
X25669Y53818D01*
X25623Y53471D01*
X25569Y53126D01*
X25507Y52782D01*
X25436Y52439D01*
X25357Y52098D01*
X25271Y51759D01*
X25176Y51423D01*
X25073Y51088D01*
X24962Y50757D01*
X24844Y50428D01*
X24717Y50101D01*
X24583Y49778D01*
X24441Y49459D01*
X24291Y49143D01*
X24291Y49142D02*
X24251Y49029D01*
X24207Y48919D01*
X24159Y48809D01*
X24108Y48702D01*
X24053Y48596D01*
X23995Y48491D01*
X23933Y48389D01*
X23868Y48289D01*
X23800Y48191D01*
X23729Y48095D01*
X23654Y48002D01*
X23577Y47911D01*
X23497Y47823D01*
X23414Y47738D01*
X23328Y47655D01*
X23239Y47575D01*
X23148Y47498D01*
X23054Y47424D01*
X22958Y47353D01*
X22860Y47285D01*
X22760Y47221D01*
X22657Y47159D01*
X22553Y47102D01*
X22447Y47047D01*
X22339Y46996D01*
X22229Y46949D01*
X22118Y46905D01*
X22006Y46865D01*
X21892Y46829D01*
X21778Y46796D01*
X21662Y46767D01*
X21545Y46742D01*
X21428Y46721D01*
X21310Y46703D01*
X21191Y46690D01*
X21072Y46680D01*
X20953Y46674D01*
X20834Y46672D01*
X17377Y49143D02*
X17227Y49459D01*
X17085Y49778D01*
X16951Y50101D01*
X16824Y50428D01*
X16706Y50757D01*
X16595Y51088D01*
X16492Y51423D01*
X16397Y51759D01*
X16311Y52098D01*
X16232Y52439D01*
X16161Y52782D01*
X16099Y53126D01*
X16045Y53471D01*
X15999Y53818D01*
X15962Y54166D01*
X15933Y54515D01*
X15912Y54864D01*
X15899Y55213D01*
X15895Y55563D01*
X17377Y49142D02*
X17417Y49029D01*
X17461Y48919D01*
X17509Y48809D01*
X17560Y48701D01*
X17615Y48595D01*
X17673Y48491D01*
X17735Y48389D01*
X17800Y48289D01*
X17868Y48191D01*
X17939Y48095D01*
X18014Y48002D01*
X18091Y47911D01*
X18171Y47823D01*
X18255Y47738D01*
X18340Y47655D01*
X18429Y47575D01*
X18520Y47498D01*
X18614Y47424D01*
X18710Y47353D01*
X18808Y47285D01*
X18908Y47221D01*
X19011Y47159D01*
X19115Y47101D01*
X19221Y47047D01*
X19329Y46996D01*
X19439Y46949D01*
X19550Y46905D01*
X19662Y46865D01*
X19776Y46829D01*
X19890Y46796D01*
X20006Y46767D01*
X20123Y46742D01*
X20240Y46721D01*
X20358Y46703D01*
X20477Y46690D01*
X20596Y46680D01*
X20715Y46674D01*
X20834Y46672D01*
X24785Y50624D02*
X16883Y60501D01*
X8435Y64453D02*
X8435Y46673D01*
X8435Y64453D02*
X533Y64453D01*
X533Y56550D02*
X8435Y56550D01*
X-6138Y64453D02*
X-6138Y46673D01*
X-6138Y64453D02*
X-11077Y64453D01*
X-11217Y64451D01*
X-11356Y64445D01*
X-11496Y64435D01*
X-11635Y64421D01*
X-11774Y64404D01*
X-11912Y64382D01*
X-12049Y64356D01*
X-12186Y64327D01*
X-12322Y64294D01*
X-12456Y64257D01*
X-12590Y64216D01*
X-12722Y64171D01*
X-12854Y64122D01*
X-12983Y64070D01*
X-13111Y64015D01*
X-13238Y63955D01*
X-13363Y63892D01*
X-13486Y63826D01*
X-13607Y63756D01*
X-13726Y63683D01*
X-13843Y63606D01*
X-13957Y63526D01*
X-14070Y63443D01*
X-14180Y63357D01*
X-14287Y63267D01*
X-14392Y63175D01*
X-14494Y63080D01*
X-14594Y62982D01*
X-14691Y62881D01*
X-14785Y62777D01*
X-14875Y62671D01*
X-14963Y62562D01*
X-15048Y62451D01*
X-15129Y62337D01*
X-15208Y62222D01*
X-15283Y62104D01*
X-15354Y61983D01*
X-15422Y61861D01*
X-15487Y61738D01*
X-15548Y61612D01*
X-15606Y61484D01*
X-15660Y61356D01*
X-15710Y61225D01*
X-15757Y61093D01*
X-15800Y60960D01*
X-15839Y60826D01*
X-15874Y60691D01*
X-15905Y60555D01*
X-15933Y60417D01*
X-15956Y60280D01*
X-15976Y60141D01*
X-15992Y60002D01*
X-16004Y59863D01*
X-16012Y59724D01*
X-16016Y59584D01*
X-16016Y59444D01*
X-16012Y59304D01*
X-16004Y59165D01*
X-15992Y59026D01*
X-15976Y58887D01*
X-15956Y58748D01*
X-15933Y58611D01*
X-15905Y58473D01*
X-15874Y58337D01*
X-15839Y58202D01*
X-15800Y58068D01*
X-15757Y57935D01*
X-15710Y57803D01*
X-15660Y57672D01*
X-15606Y57544D01*
X-15548Y57416D01*
X-15487Y57290D01*
X-15422Y57167D01*
X-15354Y57044D01*
X-15283Y56924D01*
X-15208Y56806D01*
X-15129Y56691D01*
X-15048Y56577D01*
X-14963Y56466D01*
X-14875Y56357D01*
X-14785Y56251D01*
X-14691Y56147D01*
X-14594Y56046D01*
X-14494Y55948D01*
X-14392Y55853D01*
X-14287Y55761D01*
X-14180Y55671D01*
X-14070Y55585D01*
X-13957Y55502D01*
X-13843Y55422D01*
X-13726Y55345D01*
X-13607Y55272D01*
X-13486Y55202D01*
X-13363Y55136D01*
X-13238Y55073D01*
X-13111Y55013D01*
X-12983Y54958D01*
X-12854Y54906D01*
X-12722Y54857D01*
X-12590Y54812D01*
X-12456Y54771D01*
X-12322Y54734D01*
X-12186Y54701D01*
X-12049Y54672D01*
X-11912Y54646D01*
X-11774Y54624D01*
X-11635Y54607D01*
X-11496Y54593D01*
X-11356Y54583D01*
X-11217Y54577D01*
X-11077Y54575D01*
X-6138Y54575D01*
X-12065Y54575D02*
X-16016Y46673D01*
X-22803Y60501D02*
X-27742Y64453D01*
X-27742Y46673D01*
X-22803Y46673D02*
X-32681Y46673D01*
X-39554Y60501D02*
X-44493Y64453D01*
X-44493Y46673D01*
X-39554Y46673D02*
X-49432Y46673D01*
D10*
X-94508Y269871D02*
X-93534Y271558D01*
X-94508Y269871D02*
X-88886Y266626D01*
X-86939Y269999D01*
X-86940Y269999D02*
X-86892Y270086D01*
X-86847Y270175D01*
X-86806Y270265D01*
X-86768Y270357D01*
X-86734Y270451D01*
X-86703Y270545D01*
X-86676Y270641D01*
X-86653Y270738D01*
X-86633Y270835D01*
X-86618Y270934D01*
X-86606Y271032D01*
X-86597Y271131D01*
X-86593Y271231D01*
X-86592Y271330D01*
X-86595Y271430D01*
X-86602Y271529D01*
X-86613Y271628D01*
X-86628Y271726D01*
X-86646Y271824D01*
X-86668Y271921D01*
X-86694Y272017D01*
X-86723Y272112D01*
X-86756Y272206D01*
X-86793Y272298D01*
X-86833Y272389D01*
X-86876Y272479D01*
X-86923Y272566D01*
X-86974Y272652D01*
X-87027Y272736D01*
X-87084Y272818D01*
X-87144Y272897D01*
X-87206Y272974D01*
X-87272Y273049D01*
X-87341Y273121D01*
X-87412Y273190D01*
X-87486Y273257D01*
X-87562Y273321D01*
X-87641Y273382D01*
X-87722Y273439D01*
X-87805Y273494D01*
X-87890Y273545D01*
X-87890Y273546D02*
X-93511Y276791D01*
X-93511Y276790D02*
X-93598Y276838D01*
X-93687Y276883D01*
X-93777Y276924D01*
X-93869Y276962D01*
X-93963Y276996D01*
X-94057Y277027D01*
X-94153Y277054D01*
X-94250Y277077D01*
X-94347Y277097D01*
X-94446Y277112D01*
X-94544Y277124D01*
X-94643Y277133D01*
X-94743Y277137D01*
X-94842Y277138D01*
X-94942Y277135D01*
X-95041Y277128D01*
X-95140Y277117D01*
X-95238Y277102D01*
X-95336Y277084D01*
X-95433Y277062D01*
X-95529Y277036D01*
X-95624Y277007D01*
X-95718Y276974D01*
X-95810Y276937D01*
X-95901Y276897D01*
X-95990Y276854D01*
X-96078Y276807D01*
X-96164Y276756D01*
X-96248Y276703D01*
X-96329Y276646D01*
X-96409Y276586D01*
X-96486Y276524D01*
X-96561Y276458D01*
X-96633Y276389D01*
X-96702Y276318D01*
X-96769Y276244D01*
X-96833Y276168D01*
X-96893Y276089D01*
X-96951Y276008D01*
X-97006Y275925D01*
X-97057Y275840D01*
X-97058Y275841D02*
X-99005Y272468D01*
X-101856Y267531D02*
X-91737Y261689D01*
X-94982Y256067D02*
X-101856Y267531D01*
X-105101Y261909D02*
X-94982Y256067D01*
X-97833Y251130D02*
X-107952Y256972D01*
X-109574Y254161D01*
X-109575Y254162D02*
X-109630Y254063D01*
X-109681Y253962D01*
X-109729Y253859D01*
X-109774Y253755D01*
X-109814Y253649D01*
X-109851Y253542D01*
X-109884Y253434D01*
X-109914Y253324D01*
X-109939Y253214D01*
X-109961Y253103D01*
X-109978Y252991D01*
X-109992Y252878D01*
X-110002Y252765D01*
X-110008Y252652D01*
X-110010Y252539D01*
X-110008Y252426D01*
X-110002Y252313D01*
X-109992Y252200D01*
X-109978Y252087D01*
X-109961Y251975D01*
X-109939Y251864D01*
X-109914Y251754D01*
X-109884Y251644D01*
X-109851Y251536D01*
X-109814Y251429D01*
X-109774Y251323D01*
X-109729Y251219D01*
X-109681Y251116D01*
X-109630Y251015D01*
X-109575Y250916D01*
X-109517Y250819D01*
X-109455Y250724D01*
X-109390Y250631D01*
X-109322Y250541D01*
X-109251Y250453D01*
X-109176Y250367D01*
X-109099Y250284D01*
X-109019Y250204D01*
X-108936Y250127D01*
X-108850Y250052D01*
X-108762Y249981D01*
X-108672Y249913D01*
X-108579Y249848D01*
X-108484Y249786D01*
X-108387Y249728D01*
X-108386Y249728D02*
X-103889Y247131D01*
X-103790Y247076D01*
X-103689Y247025D01*
X-103586Y246977D01*
X-103482Y246932D01*
X-103376Y246892D01*
X-103269Y246855D01*
X-103161Y246822D01*
X-103051Y246792D01*
X-102941Y246767D01*
X-102830Y246745D01*
X-102718Y246728D01*
X-102605Y246714D01*
X-102492Y246704D01*
X-102379Y246698D01*
X-102266Y246696D01*
X-102153Y246698D01*
X-102040Y246704D01*
X-101927Y246714D01*
X-101814Y246728D01*
X-101702Y246745D01*
X-101591Y246767D01*
X-101481Y246792D01*
X-101371Y246822D01*
X-101263Y246855D01*
X-101156Y246892D01*
X-101050Y246932D01*
X-100946Y246977D01*
X-100843Y247025D01*
X-100742Y247076D01*
X-100643Y247131D01*
X-100546Y247189D01*
X-100451Y247251D01*
X-100358Y247316D01*
X-100268Y247384D01*
X-100179Y247455D01*
X-100094Y247530D01*
X-100011Y247607D01*
X-99931Y247687D01*
X-99854Y247770D01*
X-99779Y247856D01*
X-99708Y247944D01*
X-99640Y248034D01*
X-99575Y248127D01*
X-99513Y248222D01*
X-99455Y248319D01*
X-99456Y248319D02*
X-97833Y251130D01*
X101867Y254653D02*
X102841Y252966D01*
X101867Y254653D02*
X96245Y251407D01*
X98193Y248034D01*
X98244Y247949D01*
X98299Y247866D01*
X98356Y247785D01*
X98417Y247706D01*
X98481Y247630D01*
X98548Y247556D01*
X98617Y247485D01*
X98689Y247416D01*
X98764Y247350D01*
X98841Y247288D01*
X98920Y247228D01*
X99002Y247171D01*
X99086Y247118D01*
X99172Y247067D01*
X99259Y247020D01*
X99349Y246977D01*
X99440Y246937D01*
X99532Y246900D01*
X99626Y246867D01*
X99721Y246838D01*
X99817Y246812D01*
X99914Y246790D01*
X100012Y246772D01*
X100110Y246757D01*
X100209Y246746D01*
X100308Y246739D01*
X100408Y246736D01*
X100507Y246737D01*
X100607Y246741D01*
X100706Y246750D01*
X100805Y246762D01*
X100903Y246777D01*
X101000Y246797D01*
X101097Y246820D01*
X101193Y246847D01*
X101287Y246878D01*
X101381Y246912D01*
X101473Y246950D01*
X101563Y246991D01*
X101652Y247036D01*
X101739Y247084D01*
X101740Y247084D02*
X107361Y250329D01*
X107361Y250330D02*
X107446Y250381D01*
X107529Y250436D01*
X107610Y250493D01*
X107689Y250554D01*
X107765Y250618D01*
X107839Y250685D01*
X107910Y250754D01*
X107979Y250826D01*
X108045Y250901D01*
X108107Y250978D01*
X108167Y251057D01*
X108224Y251139D01*
X108277Y251223D01*
X108328Y251309D01*
X108375Y251396D01*
X108418Y251486D01*
X108458Y251577D01*
X108495Y251669D01*
X108528Y251763D01*
X108557Y251858D01*
X108583Y251954D01*
X108605Y252051D01*
X108623Y252149D01*
X108638Y252247D01*
X108649Y252346D01*
X108656Y252445D01*
X108659Y252545D01*
X108658Y252644D01*
X108654Y252744D01*
X108645Y252843D01*
X108633Y252941D01*
X108618Y253040D01*
X108598Y253137D01*
X108575Y253234D01*
X108548Y253330D01*
X108517Y253424D01*
X108483Y253518D01*
X108445Y253610D01*
X108404Y253700D01*
X108359Y253789D01*
X108311Y253876D01*
X106364Y257249D01*
X103514Y262186D02*
X93395Y256344D01*
X90149Y261966D02*
X103514Y262186D01*
X100268Y267808D02*
X90149Y261966D01*
X87299Y266903D02*
X97418Y272745D01*
X95795Y275555D01*
X95795Y275556D02*
X95737Y275653D01*
X95675Y275748D01*
X95610Y275841D01*
X95542Y275931D01*
X95471Y276019D01*
X95396Y276105D01*
X95319Y276188D01*
X95239Y276268D01*
X95156Y276345D01*
X95070Y276420D01*
X94982Y276491D01*
X94892Y276559D01*
X94799Y276624D01*
X94704Y276686D01*
X94607Y276744D01*
X94508Y276799D01*
X94407Y276850D01*
X94304Y276898D01*
X94200Y276943D01*
X94094Y276983D01*
X93987Y277020D01*
X93879Y277053D01*
X93769Y277083D01*
X93659Y277108D01*
X93548Y277130D01*
X93436Y277147D01*
X93323Y277161D01*
X93210Y277171D01*
X93097Y277177D01*
X92984Y277179D01*
X92871Y277177D01*
X92758Y277171D01*
X92645Y277161D01*
X92532Y277147D01*
X92420Y277130D01*
X92309Y277108D01*
X92199Y277083D01*
X92089Y277053D01*
X91981Y277020D01*
X91874Y276983D01*
X91768Y276943D01*
X91664Y276898D01*
X91561Y276850D01*
X91460Y276799D01*
X91361Y276744D01*
X91361Y276743D02*
X86864Y274147D01*
X86767Y274089D01*
X86672Y274027D01*
X86579Y273962D01*
X86489Y273894D01*
X86401Y273823D01*
X86315Y273748D01*
X86232Y273671D01*
X86152Y273591D01*
X86075Y273508D01*
X86000Y273422D01*
X85929Y273334D01*
X85861Y273244D01*
X85796Y273151D01*
X85734Y273056D01*
X85676Y272959D01*
X85621Y272860D01*
X85570Y272759D01*
X85522Y272656D01*
X85477Y272552D01*
X85437Y272446D01*
X85400Y272339D01*
X85367Y272231D01*
X85337Y272121D01*
X85312Y272011D01*
X85290Y271900D01*
X85273Y271788D01*
X85259Y271675D01*
X85249Y271562D01*
X85243Y271449D01*
X85241Y271336D01*
X85243Y271223D01*
X85249Y271110D01*
X85259Y270997D01*
X85273Y270884D01*
X85290Y270772D01*
X85312Y270661D01*
X85337Y270551D01*
X85367Y270441D01*
X85400Y270333D01*
X85437Y270226D01*
X85477Y270120D01*
X85522Y270016D01*
X85570Y269913D01*
X85621Y269812D01*
X85676Y269713D01*
X87299Y266903D01*
D12*
X26987Y150813D02*
X26989Y150892D01*
X26995Y150971D01*
X27005Y151050D01*
X27018Y151128D01*
X27036Y151205D01*
X27058Y151281D01*
X27083Y151356D01*
X27112Y151430D01*
X27144Y151502D01*
X27180Y151572D01*
X27220Y151641D01*
X27263Y151708D01*
X27309Y151772D01*
X27359Y151834D01*
X27411Y151893D01*
X27466Y151950D01*
X27524Y152004D01*
X27585Y152055D01*
X27648Y152102D01*
X27713Y152147D01*
X27781Y152188D01*
X27851Y152226D01*
X27922Y152260D01*
X27995Y152291D01*
X28069Y152318D01*
X28145Y152342D01*
X28222Y152361D01*
X28299Y152377D01*
X28378Y152389D01*
X28456Y152397D01*
X28535Y152401D01*
X28615Y152401D01*
X28694Y152397D01*
X28772Y152389D01*
X28851Y152377D01*
X28928Y152361D01*
X29005Y152342D01*
X29081Y152318D01*
X29155Y152291D01*
X29228Y152260D01*
X29299Y152226D01*
X29369Y152188D01*
X29437Y152147D01*
X29502Y152102D01*
X29565Y152055D01*
X29626Y152004D01*
X29684Y151950D01*
X29739Y151893D01*
X29791Y151834D01*
X29841Y151772D01*
X29887Y151708D01*
X29930Y151641D01*
X29970Y151572D01*
X30006Y151502D01*
X30038Y151430D01*
X30067Y151356D01*
X30092Y151281D01*
X30114Y151205D01*
X30132Y151128D01*
X30145Y151050D01*
X30155Y150971D01*
X30161Y150892D01*
X30163Y150813D01*
X30161Y150734D01*
X30155Y150655D01*
X30145Y150576D01*
X30132Y150498D01*
X30114Y150421D01*
X30092Y150345D01*
X30067Y150270D01*
X30038Y150196D01*
X30006Y150124D01*
X29970Y150054D01*
X29930Y149985D01*
X29887Y149918D01*
X29841Y149854D01*
X29791Y149792D01*
X29739Y149733D01*
X29684Y149676D01*
X29626Y149622D01*
X29565Y149571D01*
X29502Y149524D01*
X29437Y149479D01*
X29369Y149438D01*
X29299Y149400D01*
X29228Y149366D01*
X29155Y149335D01*
X29081Y149308D01*
X29005Y149284D01*
X28928Y149265D01*
X28851Y149249D01*
X28772Y149237D01*
X28694Y149229D01*
X28615Y149225D01*
X28535Y149225D01*
X28456Y149229D01*
X28378Y149237D01*
X28299Y149249D01*
X28222Y149265D01*
X28145Y149284D01*
X28069Y149308D01*
X27995Y149335D01*
X27922Y149366D01*
X27851Y149400D01*
X27781Y149438D01*
X27713Y149479D01*
X27648Y149524D01*
X27585Y149571D01*
X27524Y149622D01*
X27466Y149676D01*
X27411Y149733D01*
X27359Y149792D01*
X27309Y149854D01*
X27263Y149918D01*
X27220Y149985D01*
X27180Y150054D01*
X27144Y150124D01*
X27112Y150196D01*
X27083Y150270D01*
X27058Y150345D01*
X27036Y150421D01*
X27018Y150498D01*
X27005Y150576D01*
X26995Y150655D01*
X26989Y150734D01*
X26987Y150813D01*
D10*
X56642Y286258D02*
X56642Y297942D01*
X50151Y286258D01*
X50151Y297942D01*
X42268Y286258D02*
X39671Y286258D01*
X42268Y286258D02*
X42367Y286260D01*
X42467Y286266D01*
X42566Y286275D01*
X42664Y286288D01*
X42762Y286305D01*
X42860Y286326D01*
X42956Y286351D01*
X43051Y286379D01*
X43145Y286411D01*
X43238Y286446D01*
X43330Y286485D01*
X43420Y286528D01*
X43508Y286573D01*
X43595Y286623D01*
X43679Y286675D01*
X43762Y286731D01*
X43842Y286789D01*
X43920Y286851D01*
X43995Y286916D01*
X44068Y286984D01*
X44138Y287054D01*
X44206Y287127D01*
X44271Y287202D01*
X44333Y287280D01*
X44391Y287360D01*
X44447Y287443D01*
X44499Y287527D01*
X44549Y287614D01*
X44594Y287702D01*
X44637Y287792D01*
X44676Y287884D01*
X44711Y287977D01*
X44743Y288071D01*
X44771Y288166D01*
X44796Y288262D01*
X44817Y288360D01*
X44834Y288458D01*
X44847Y288556D01*
X44856Y288655D01*
X44862Y288755D01*
X44864Y288854D01*
X44864Y295346D01*
X44862Y295445D01*
X44856Y295545D01*
X44847Y295644D01*
X44834Y295742D01*
X44817Y295840D01*
X44796Y295938D01*
X44771Y296034D01*
X44743Y296129D01*
X44711Y296223D01*
X44676Y296316D01*
X44637Y296408D01*
X44594Y296498D01*
X44549Y296586D01*
X44499Y296673D01*
X44447Y296757D01*
X44391Y296840D01*
X44333Y296920D01*
X44271Y296998D01*
X44206Y297073D01*
X44138Y297146D01*
X44068Y297216D01*
X43995Y297284D01*
X43920Y297349D01*
X43842Y297411D01*
X43762Y297469D01*
X43679Y297525D01*
X43595Y297577D01*
X43508Y297627D01*
X43420Y297672D01*
X43330Y297715D01*
X43238Y297754D01*
X43145Y297789D01*
X43051Y297821D01*
X42956Y297849D01*
X42860Y297874D01*
X42762Y297895D01*
X42664Y297912D01*
X42566Y297925D01*
X42467Y297934D01*
X42367Y297940D01*
X42268Y297942D01*
X39671Y297942D01*
X7430Y297942D02*
X7430Y286258D01*
X938Y286258D02*
X7430Y297942D01*
X938Y297942D02*
X938Y286258D01*
X-4381Y289504D02*
X-4381Y294696D01*
X-4383Y294809D01*
X-4389Y294922D01*
X-4399Y295035D01*
X-4413Y295148D01*
X-4430Y295260D01*
X-4452Y295371D01*
X-4477Y295481D01*
X-4507Y295591D01*
X-4540Y295699D01*
X-4577Y295806D01*
X-4617Y295912D01*
X-4662Y296016D01*
X-4710Y296119D01*
X-4761Y296220D01*
X-4816Y296319D01*
X-4874Y296416D01*
X-4936Y296511D01*
X-5001Y296604D01*
X-5069Y296694D01*
X-5140Y296782D01*
X-5215Y296868D01*
X-5292Y296951D01*
X-5372Y297031D01*
X-5455Y297108D01*
X-5541Y297183D01*
X-5629Y297254D01*
X-5719Y297322D01*
X-5812Y297387D01*
X-5907Y297449D01*
X-6004Y297507D01*
X-6103Y297562D01*
X-6204Y297613D01*
X-6307Y297661D01*
X-6411Y297706D01*
X-6517Y297746D01*
X-6624Y297783D01*
X-6732Y297816D01*
X-6842Y297846D01*
X-6952Y297871D01*
X-7063Y297893D01*
X-7175Y297910D01*
X-7288Y297924D01*
X-7401Y297934D01*
X-7514Y297940D01*
X-7627Y297942D01*
X-7740Y297940D01*
X-7853Y297934D01*
X-7966Y297924D01*
X-8079Y297910D01*
X-8191Y297893D01*
X-8302Y297871D01*
X-8412Y297846D01*
X-8522Y297816D01*
X-8630Y297783D01*
X-8737Y297746D01*
X-8843Y297706D01*
X-8947Y297661D01*
X-9050Y297613D01*
X-9151Y297562D01*
X-9250Y297507D01*
X-9347Y297449D01*
X-9442Y297387D01*
X-9535Y297322D01*
X-9625Y297254D01*
X-9713Y297183D01*
X-9799Y297108D01*
X-9882Y297031D01*
X-9962Y296951D01*
X-10039Y296868D01*
X-10114Y296782D01*
X-10185Y296694D01*
X-10253Y296604D01*
X-10318Y296511D01*
X-10380Y296416D01*
X-10438Y296319D01*
X-10493Y296220D01*
X-10544Y296119D01*
X-10592Y296016D01*
X-10637Y295912D01*
X-10677Y295806D01*
X-10714Y295699D01*
X-10747Y295591D01*
X-10777Y295481D01*
X-10802Y295371D01*
X-10824Y295260D01*
X-10841Y295148D01*
X-10855Y295035D01*
X-10865Y294922D01*
X-10871Y294809D01*
X-10873Y294696D01*
X-10873Y289504D01*
X-10871Y289391D01*
X-10865Y289278D01*
X-10855Y289165D01*
X-10841Y289052D01*
X-10824Y288940D01*
X-10802Y288829D01*
X-10777Y288719D01*
X-10747Y288609D01*
X-10714Y288501D01*
X-10677Y288394D01*
X-10637Y288288D01*
X-10592Y288184D01*
X-10544Y288081D01*
X-10493Y287980D01*
X-10438Y287881D01*
X-10380Y287784D01*
X-10318Y287689D01*
X-10253Y287596D01*
X-10185Y287506D01*
X-10114Y287418D01*
X-10039Y287332D01*
X-9962Y287249D01*
X-9882Y287169D01*
X-9799Y287092D01*
X-9713Y287017D01*
X-9625Y286946D01*
X-9535Y286878D01*
X-9442Y286813D01*
X-9347Y286751D01*
X-9250Y286693D01*
X-9151Y286638D01*
X-9050Y286587D01*
X-8947Y286539D01*
X-8843Y286494D01*
X-8737Y286454D01*
X-8630Y286417D01*
X-8522Y286384D01*
X-8412Y286354D01*
X-8302Y286329D01*
X-8191Y286307D01*
X-8079Y286290D01*
X-7966Y286276D01*
X-7853Y286266D01*
X-7740Y286260D01*
X-7627Y286258D01*
X-7514Y286260D01*
X-7401Y286266D01*
X-7288Y286276D01*
X-7175Y286290D01*
X-7063Y286307D01*
X-6952Y286329D01*
X-6842Y286354D01*
X-6732Y286384D01*
X-6624Y286417D01*
X-6517Y286454D01*
X-6411Y286494D01*
X-6307Y286539D01*
X-6204Y286587D01*
X-6103Y286638D01*
X-6004Y286693D01*
X-5907Y286751D01*
X-5812Y286813D01*
X-5719Y286878D01*
X-5629Y286946D01*
X-5541Y287017D01*
X-5455Y287092D01*
X-5372Y287169D01*
X-5292Y287249D01*
X-5215Y287332D01*
X-5140Y287418D01*
X-5069Y287506D01*
X-5001Y287596D01*
X-4936Y287689D01*
X-4874Y287784D01*
X-4816Y287881D01*
X-4761Y287980D01*
X-4710Y288081D01*
X-4662Y288184D01*
X-4617Y288288D01*
X-4577Y288394D01*
X-4540Y288501D01*
X-4507Y288609D01*
X-4477Y288719D01*
X-4452Y288829D01*
X-4430Y288940D01*
X-4413Y289052D01*
X-4399Y289165D01*
X-4389Y289278D01*
X-4383Y289391D01*
X-4381Y289504D01*
X-36442Y286258D02*
X-39038Y286258D01*
X-36442Y286258D02*
X-36343Y286260D01*
X-36243Y286266D01*
X-36144Y286275D01*
X-36046Y286288D01*
X-35948Y286305D01*
X-35850Y286326D01*
X-35754Y286351D01*
X-35659Y286379D01*
X-35565Y286411D01*
X-35472Y286446D01*
X-35380Y286485D01*
X-35290Y286528D01*
X-35202Y286573D01*
X-35115Y286623D01*
X-35031Y286675D01*
X-34948Y286731D01*
X-34868Y286789D01*
X-34790Y286851D01*
X-34715Y286916D01*
X-34642Y286984D01*
X-34572Y287054D01*
X-34504Y287127D01*
X-34439Y287202D01*
X-34377Y287280D01*
X-34319Y287360D01*
X-34263Y287443D01*
X-34211Y287527D01*
X-34161Y287614D01*
X-34116Y287702D01*
X-34073Y287792D01*
X-34034Y287884D01*
X-33999Y287977D01*
X-33967Y288071D01*
X-33939Y288166D01*
X-33914Y288262D01*
X-33893Y288360D01*
X-33876Y288458D01*
X-33863Y288556D01*
X-33854Y288655D01*
X-33848Y288755D01*
X-33846Y288854D01*
X-33846Y295346D01*
X-33848Y295445D01*
X-33854Y295545D01*
X-33863Y295644D01*
X-33876Y295742D01*
X-33893Y295840D01*
X-33914Y295938D01*
X-33939Y296034D01*
X-33967Y296129D01*
X-33999Y296223D01*
X-34034Y296316D01*
X-34073Y296408D01*
X-34116Y296498D01*
X-34161Y296586D01*
X-34211Y296673D01*
X-34263Y296757D01*
X-34319Y296840D01*
X-34377Y296920D01*
X-34439Y296998D01*
X-34504Y297073D01*
X-34572Y297146D01*
X-34642Y297216D01*
X-34715Y297284D01*
X-34790Y297349D01*
X-34868Y297411D01*
X-34948Y297469D01*
X-35031Y297525D01*
X-35115Y297577D01*
X-35202Y297627D01*
X-35290Y297672D01*
X-35380Y297715D01*
X-35472Y297754D01*
X-35564Y297789D01*
X-35659Y297821D01*
X-35754Y297849D01*
X-35850Y297874D01*
X-35948Y297895D01*
X-36046Y297912D01*
X-36144Y297925D01*
X-36243Y297934D01*
X-36343Y297940D01*
X-36442Y297942D01*
X-39038Y297942D01*
X-43404Y294696D02*
X-43404Y289504D01*
X-43403Y294696D02*
X-43405Y294809D01*
X-43411Y294922D01*
X-43421Y295035D01*
X-43435Y295148D01*
X-43452Y295260D01*
X-43474Y295371D01*
X-43499Y295481D01*
X-43529Y295591D01*
X-43562Y295699D01*
X-43599Y295806D01*
X-43639Y295912D01*
X-43684Y296016D01*
X-43732Y296119D01*
X-43783Y296220D01*
X-43838Y296319D01*
X-43896Y296416D01*
X-43958Y296511D01*
X-44023Y296604D01*
X-44091Y296694D01*
X-44162Y296782D01*
X-44237Y296868D01*
X-44314Y296951D01*
X-44394Y297031D01*
X-44477Y297108D01*
X-44563Y297183D01*
X-44651Y297254D01*
X-44741Y297322D01*
X-44834Y297387D01*
X-44929Y297449D01*
X-45026Y297507D01*
X-45125Y297562D01*
X-45226Y297613D01*
X-45329Y297661D01*
X-45433Y297706D01*
X-45539Y297746D01*
X-45646Y297783D01*
X-45754Y297816D01*
X-45864Y297846D01*
X-45974Y297871D01*
X-46085Y297893D01*
X-46197Y297910D01*
X-46310Y297924D01*
X-46423Y297934D01*
X-46536Y297940D01*
X-46649Y297942D01*
X-46762Y297940D01*
X-46875Y297934D01*
X-46988Y297924D01*
X-47101Y297910D01*
X-47213Y297893D01*
X-47324Y297871D01*
X-47434Y297846D01*
X-47544Y297816D01*
X-47652Y297783D01*
X-47759Y297746D01*
X-47865Y297706D01*
X-47969Y297661D01*
X-48072Y297613D01*
X-48173Y297562D01*
X-48272Y297507D01*
X-48369Y297449D01*
X-48464Y297387D01*
X-48557Y297322D01*
X-48647Y297254D01*
X-48735Y297183D01*
X-48821Y297108D01*
X-48904Y297031D01*
X-48984Y296951D01*
X-49061Y296868D01*
X-49136Y296782D01*
X-49207Y296694D01*
X-49275Y296604D01*
X-49340Y296511D01*
X-49402Y296416D01*
X-49460Y296319D01*
X-49515Y296220D01*
X-49566Y296119D01*
X-49614Y296016D01*
X-49659Y295912D01*
X-49699Y295806D01*
X-49736Y295699D01*
X-49769Y295591D01*
X-49799Y295481D01*
X-49824Y295371D01*
X-49846Y295260D01*
X-49863Y295148D01*
X-49877Y295035D01*
X-49887Y294922D01*
X-49893Y294809D01*
X-49895Y294696D01*
X-49895Y289504D01*
X-49893Y289391D01*
X-49887Y289278D01*
X-49877Y289165D01*
X-49863Y289052D01*
X-49846Y288940D01*
X-49824Y288829D01*
X-49799Y288719D01*
X-49769Y288609D01*
X-49736Y288501D01*
X-49699Y288394D01*
X-49659Y288288D01*
X-49614Y288184D01*
X-49566Y288081D01*
X-49515Y287980D01*
X-49460Y287881D01*
X-49402Y287784D01*
X-49340Y287689D01*
X-49275Y287596D01*
X-49207Y287506D01*
X-49136Y287418D01*
X-49061Y287332D01*
X-48984Y287249D01*
X-48904Y287169D01*
X-48821Y287092D01*
X-48735Y287017D01*
X-48647Y286946D01*
X-48557Y286878D01*
X-48464Y286813D01*
X-48369Y286751D01*
X-48272Y286693D01*
X-48173Y286638D01*
X-48072Y286587D01*
X-47969Y286539D01*
X-47865Y286494D01*
X-47759Y286454D01*
X-47652Y286417D01*
X-47544Y286384D01*
X-47434Y286354D01*
X-47324Y286329D01*
X-47213Y286307D01*
X-47101Y286290D01*
X-46988Y286276D01*
X-46875Y286266D01*
X-46762Y286260D01*
X-46649Y286258D01*
X-46536Y286260D01*
X-46423Y286266D01*
X-46310Y286276D01*
X-46197Y286290D01*
X-46085Y286307D01*
X-45974Y286329D01*
X-45864Y286354D01*
X-45754Y286384D01*
X-45646Y286417D01*
X-45539Y286454D01*
X-45433Y286494D01*
X-45329Y286539D01*
X-45226Y286587D01*
X-45125Y286638D01*
X-45026Y286693D01*
X-44929Y286751D01*
X-44834Y286813D01*
X-44741Y286878D01*
X-44651Y286946D01*
X-44563Y287017D01*
X-44477Y287092D01*
X-44394Y287169D01*
X-44314Y287249D01*
X-44237Y287332D01*
X-44162Y287418D01*
X-44091Y287506D01*
X-44023Y287596D01*
X-43958Y287689D01*
X-43896Y287784D01*
X-43838Y287881D01*
X-43783Y287980D01*
X-43732Y288081D01*
X-43684Y288184D01*
X-43639Y288288D01*
X-43599Y288394D01*
X-43562Y288501D01*
X-43529Y288609D01*
X-43499Y288719D01*
X-43474Y288829D01*
X-43452Y288940D01*
X-43435Y289052D01*
X-43421Y289165D01*
X-43411Y289278D01*
X-43405Y289391D01*
X-43403Y289504D01*
X-55328Y286258D02*
X-55328Y297942D01*
X-59222Y291451D01*
X-63117Y297942D01*
X-63117Y286258D01*
X62851Y234696D02*
X62853Y234803D01*
X62859Y234909D01*
X62869Y235015D01*
X62882Y235121D01*
X62900Y235227D01*
X62921Y235331D01*
X62946Y235435D01*
X62975Y235538D01*
X63007Y235639D01*
X63044Y235739D01*
X63084Y235838D01*
X63127Y235936D01*
X63174Y236032D01*
X63225Y236126D01*
X63279Y236218D01*
X63336Y236308D01*
X63396Y236396D01*
X63460Y236481D01*
X63527Y236564D01*
X63597Y236645D01*
X63669Y236723D01*
X63745Y236799D01*
X63823Y236871D01*
X63904Y236941D01*
X63987Y237008D01*
X64072Y237072D01*
X64160Y237132D01*
X64250Y237189D01*
X64342Y237243D01*
X64436Y237294D01*
X64532Y237341D01*
X64630Y237384D01*
X64729Y237424D01*
X64829Y237461D01*
X64930Y237493D01*
X65033Y237522D01*
X65137Y237547D01*
X65241Y237568D01*
X65347Y237586D01*
X65453Y237599D01*
X65559Y237609D01*
X65665Y237615D01*
X65772Y237617D01*
X65893Y237615D01*
X66014Y237609D01*
X66134Y237599D01*
X66255Y237586D01*
X66374Y237568D01*
X66494Y237547D01*
X66612Y237522D01*
X66729Y237493D01*
X66846Y237460D01*
X66961Y237424D01*
X67075Y237383D01*
X67188Y237340D01*
X67300Y237292D01*
X67409Y237241D01*
X67517Y237186D01*
X67624Y237128D01*
X67728Y237067D01*
X67830Y237002D01*
X67930Y236934D01*
X68028Y236863D01*
X68124Y236789D01*
X68217Y236712D01*
X68307Y236631D01*
X68395Y236548D01*
X68480Y236462D01*
X68563Y236373D01*
X68642Y236282D01*
X68719Y236188D01*
X68792Y236092D01*
X68862Y235994D01*
X68929Y235893D01*
X68993Y235790D01*
X69054Y235685D01*
X69111Y235578D01*
X69164Y235470D01*
X69214Y235360D01*
X69260Y235248D01*
X69303Y235135D01*
X69342Y235020D01*
X63825Y232424D02*
X63746Y232502D01*
X63670Y232582D01*
X63597Y232665D01*
X63527Y232751D01*
X63460Y232838D01*
X63396Y232929D01*
X63336Y233021D01*
X63278Y233115D01*
X63224Y233212D01*
X63174Y233310D01*
X63127Y233410D01*
X63083Y233511D01*
X63043Y233614D01*
X63007Y233719D01*
X62975Y233824D01*
X62946Y233931D01*
X62921Y234038D01*
X62899Y234147D01*
X62882Y234256D01*
X62868Y234365D01*
X62859Y234475D01*
X62853Y234586D01*
X62851Y234696D01*
X63825Y232424D02*
X69342Y225933D01*
X62851Y225933D01*
X57912Y225933D02*
X54667Y225933D01*
X54554Y225935D01*
X54441Y225941D01*
X54328Y225951D01*
X54215Y225965D01*
X54103Y225982D01*
X53992Y226004D01*
X53882Y226029D01*
X53772Y226059D01*
X53664Y226092D01*
X53557Y226129D01*
X53451Y226169D01*
X53347Y226214D01*
X53244Y226262D01*
X53143Y226313D01*
X53044Y226368D01*
X52947Y226426D01*
X52852Y226488D01*
X52759Y226553D01*
X52669Y226621D01*
X52581Y226692D01*
X52495Y226767D01*
X52412Y226844D01*
X52332Y226924D01*
X52255Y227007D01*
X52180Y227093D01*
X52109Y227181D01*
X52041Y227271D01*
X51976Y227364D01*
X51914Y227459D01*
X51856Y227556D01*
X51801Y227655D01*
X51750Y227756D01*
X51702Y227859D01*
X51657Y227963D01*
X51617Y228069D01*
X51580Y228176D01*
X51547Y228284D01*
X51517Y228394D01*
X51492Y228504D01*
X51470Y228615D01*
X51453Y228727D01*
X51439Y228840D01*
X51429Y228953D01*
X51423Y229066D01*
X51421Y229179D01*
X51423Y229292D01*
X51429Y229405D01*
X51439Y229518D01*
X51453Y229631D01*
X51470Y229743D01*
X51492Y229854D01*
X51517Y229964D01*
X51547Y230074D01*
X51580Y230182D01*
X51617Y230289D01*
X51657Y230395D01*
X51702Y230499D01*
X51750Y230602D01*
X51801Y230703D01*
X51856Y230802D01*
X51914Y230899D01*
X51976Y230994D01*
X52041Y231087D01*
X52109Y231177D01*
X52180Y231265D01*
X52255Y231351D01*
X52332Y231434D01*
X52412Y231514D01*
X52495Y231591D01*
X52581Y231666D01*
X52669Y231737D01*
X52759Y231805D01*
X52852Y231870D01*
X52947Y231932D01*
X53044Y231990D01*
X53143Y232045D01*
X53244Y232096D01*
X53347Y232144D01*
X53451Y232189D01*
X53557Y232229D01*
X53664Y232266D01*
X53772Y232299D01*
X53882Y232329D01*
X53992Y232354D01*
X54103Y232376D01*
X54215Y232393D01*
X54328Y232407D01*
X54441Y232417D01*
X54554Y232423D01*
X54667Y232425D01*
X54017Y237617D02*
X57912Y237617D01*
X54017Y237617D02*
X53916Y237615D01*
X53816Y237609D01*
X53716Y237599D01*
X53616Y237586D01*
X53517Y237568D01*
X53418Y237547D01*
X53321Y237522D01*
X53224Y237493D01*
X53129Y237460D01*
X53035Y237424D01*
X52943Y237384D01*
X52852Y237341D01*
X52763Y237294D01*
X52676Y237244D01*
X52590Y237190D01*
X52507Y237133D01*
X52427Y237073D01*
X52348Y237010D01*
X52272Y236943D01*
X52199Y236874D01*
X52129Y236802D01*
X52061Y236728D01*
X51996Y236651D01*
X51935Y236571D01*
X51876Y236489D01*
X51821Y236405D01*
X51769Y236319D01*
X51720Y236231D01*
X51675Y236141D01*
X51633Y236049D01*
X51595Y235956D01*
X51561Y235861D01*
X51530Y235766D01*
X51503Y235669D01*
X51480Y235571D01*
X51460Y235472D01*
X51445Y235372D01*
X51433Y235272D01*
X51425Y235172D01*
X51421Y235071D01*
X51421Y234971D01*
X51425Y234870D01*
X51433Y234770D01*
X51445Y234670D01*
X51460Y234570D01*
X51480Y234471D01*
X51503Y234373D01*
X51530Y234276D01*
X51561Y234181D01*
X51595Y234086D01*
X51633Y233993D01*
X51675Y233901D01*
X51720Y233811D01*
X51769Y233723D01*
X51821Y233637D01*
X51876Y233553D01*
X51935Y233471D01*
X51996Y233391D01*
X52061Y233314D01*
X52129Y233240D01*
X52199Y233168D01*
X52272Y233099D01*
X52348Y233032D01*
X52427Y232969D01*
X52507Y232909D01*
X52590Y232852D01*
X52676Y232798D01*
X52763Y232748D01*
X52852Y232701D01*
X52943Y232658D01*
X53035Y232618D01*
X53129Y232582D01*
X53224Y232549D01*
X53321Y232520D01*
X53418Y232495D01*
X53517Y232474D01*
X53616Y232456D01*
X53716Y232443D01*
X53816Y232433D01*
X53916Y232427D01*
X54017Y232425D01*
X54017Y232424D02*
X56614Y232424D01*
X46483Y231775D02*
X46480Y232005D01*
X46472Y232235D01*
X46458Y232464D01*
X46439Y232693D01*
X46414Y232922D01*
X46384Y233150D01*
X46349Y233377D01*
X46308Y233603D01*
X46262Y233828D01*
X46210Y234052D01*
X46153Y234275D01*
X46091Y234496D01*
X46023Y234716D01*
X45950Y234934D01*
X45872Y235150D01*
X45789Y235364D01*
X45701Y235577D01*
X45608Y235787D01*
X45509Y235994D01*
X45476Y236084D01*
X45440Y236173D01*
X45400Y236261D01*
X45356Y236346D01*
X45309Y236430D01*
X45259Y236512D01*
X45205Y236592D01*
X45149Y236669D01*
X45089Y236745D01*
X45026Y236818D01*
X44961Y236888D01*
X44892Y236956D01*
X44821Y237020D01*
X44748Y237082D01*
X44672Y237141D01*
X44594Y237197D01*
X44513Y237250D01*
X44431Y237299D01*
X44347Y237345D01*
X44260Y237388D01*
X44173Y237427D01*
X44083Y237463D01*
X43993Y237495D01*
X43901Y237523D01*
X43808Y237548D01*
X43714Y237569D01*
X43620Y237586D01*
X43525Y237600D01*
X43429Y237609D01*
X43333Y237615D01*
X43237Y237617D01*
X43141Y237615D01*
X43045Y237609D01*
X42949Y237600D01*
X42854Y237586D01*
X42760Y237569D01*
X42666Y237548D01*
X42573Y237523D01*
X42481Y237495D01*
X42391Y237463D01*
X42301Y237427D01*
X42214Y237388D01*
X42127Y237345D01*
X42043Y237299D01*
X41961Y237250D01*
X41880Y237197D01*
X41802Y237141D01*
X41726Y237082D01*
X41653Y237020D01*
X41582Y236956D01*
X41513Y236888D01*
X41448Y236818D01*
X41385Y236745D01*
X41325Y236670D01*
X41269Y236592D01*
X41215Y236512D01*
X41165Y236430D01*
X41118Y236346D01*
X41075Y236261D01*
X41034Y236173D01*
X40998Y236084D01*
X40965Y235994D01*
X40866Y235786D01*
X40773Y235576D01*
X40685Y235364D01*
X40602Y235150D01*
X40524Y234933D01*
X40451Y234715D01*
X40383Y234496D01*
X40321Y234274D01*
X40264Y234052D01*
X40212Y233828D01*
X40166Y233603D01*
X40125Y233377D01*
X40090Y233149D01*
X40060Y232922D01*
X40035Y232693D01*
X40016Y232464D01*
X40002Y232235D01*
X39994Y232005D01*
X39991Y231775D01*
X46482Y231775D02*
X46479Y231545D01*
X46471Y231315D01*
X46457Y231086D01*
X46438Y230857D01*
X46413Y230628D01*
X46383Y230400D01*
X46348Y230173D01*
X46307Y229947D01*
X46261Y229722D01*
X46209Y229498D01*
X46152Y229275D01*
X46090Y229054D01*
X46022Y228834D01*
X45949Y228616D01*
X45871Y228400D01*
X45788Y228186D01*
X45700Y227974D01*
X45607Y227763D01*
X45508Y227556D01*
X45509Y227556D02*
X45476Y227466D01*
X45440Y227377D01*
X45399Y227289D01*
X45356Y227204D01*
X45309Y227120D01*
X45259Y227038D01*
X45205Y226958D01*
X45149Y226881D01*
X45089Y226805D01*
X45026Y226732D01*
X44961Y226662D01*
X44892Y226594D01*
X44821Y226530D01*
X44748Y226468D01*
X44672Y226409D01*
X44594Y226353D01*
X44513Y226300D01*
X44431Y226251D01*
X44347Y226205D01*
X44260Y226162D01*
X44173Y226123D01*
X44083Y226087D01*
X43993Y226055D01*
X43901Y226027D01*
X43808Y226002D01*
X43714Y225981D01*
X43620Y225964D01*
X43525Y225950D01*
X43429Y225941D01*
X43333Y225935D01*
X43237Y225933D01*
X40965Y227556D02*
X40866Y227763D01*
X40773Y227974D01*
X40685Y228186D01*
X40602Y228400D01*
X40524Y228616D01*
X40451Y228834D01*
X40383Y229054D01*
X40321Y229275D01*
X40264Y229498D01*
X40212Y229722D01*
X40166Y229947D01*
X40125Y230173D01*
X40090Y230400D01*
X40060Y230628D01*
X40035Y230857D01*
X40016Y231086D01*
X40002Y231315D01*
X39994Y231545D01*
X39991Y231775D01*
X40965Y227556D02*
X40998Y227466D01*
X41034Y227377D01*
X41075Y227289D01*
X41118Y227204D01*
X41165Y227120D01*
X41215Y227038D01*
X41269Y226958D01*
X41325Y226880D01*
X41385Y226805D01*
X41448Y226732D01*
X41513Y226662D01*
X41582Y226594D01*
X41653Y226530D01*
X41726Y226468D01*
X41802Y226409D01*
X41880Y226353D01*
X41961Y226300D01*
X42043Y226251D01*
X42127Y226205D01*
X42214Y226162D01*
X42301Y226123D01*
X42391Y226087D01*
X42481Y226055D01*
X42573Y226027D01*
X42666Y226002D01*
X42760Y225981D01*
X42854Y225964D01*
X42949Y225950D01*
X43045Y225941D01*
X43141Y225935D01*
X43237Y225933D01*
X45833Y228529D02*
X40640Y235021D01*
X35701Y237617D02*
X31807Y225933D01*
X27912Y237617D01*
X18923Y238915D02*
X24116Y224635D01*
X14478Y235021D02*
X11233Y237617D01*
X11233Y225933D01*
X14478Y225933D02*
X7987Y225933D01*
X3049Y231775D02*
X3046Y232005D01*
X3038Y232235D01*
X3024Y232464D01*
X3005Y232693D01*
X2980Y232922D01*
X2950Y233150D01*
X2915Y233377D01*
X2874Y233603D01*
X2828Y233828D01*
X2776Y234052D01*
X2719Y234275D01*
X2657Y234496D01*
X2589Y234716D01*
X2516Y234934D01*
X2438Y235150D01*
X2355Y235364D01*
X2267Y235577D01*
X2174Y235787D01*
X2075Y235994D01*
X2042Y236084D01*
X2006Y236173D01*
X1966Y236261D01*
X1922Y236346D01*
X1875Y236430D01*
X1825Y236512D01*
X1771Y236592D01*
X1715Y236669D01*
X1655Y236745D01*
X1592Y236818D01*
X1527Y236888D01*
X1458Y236956D01*
X1387Y237020D01*
X1314Y237082D01*
X1238Y237141D01*
X1160Y237197D01*
X1079Y237250D01*
X997Y237299D01*
X913Y237345D01*
X826Y237388D01*
X739Y237427D01*
X649Y237463D01*
X559Y237495D01*
X467Y237523D01*
X374Y237548D01*
X280Y237569D01*
X186Y237586D01*
X91Y237600D01*
X-5Y237609D01*
X-101Y237615D01*
X-197Y237617D01*
X-293Y237615D01*
X-389Y237609D01*
X-485Y237600D01*
X-580Y237586D01*
X-674Y237569D01*
X-768Y237548D01*
X-861Y237523D01*
X-953Y237495D01*
X-1043Y237463D01*
X-1133Y237427D01*
X-1220Y237388D01*
X-1307Y237345D01*
X-1391Y237299D01*
X-1473Y237250D01*
X-1554Y237197D01*
X-1632Y237141D01*
X-1708Y237082D01*
X-1781Y237020D01*
X-1852Y236956D01*
X-1921Y236888D01*
X-1986Y236818D01*
X-2049Y236745D01*
X-2109Y236669D01*
X-2165Y236592D01*
X-2219Y236512D01*
X-2269Y236430D01*
X-2316Y236346D01*
X-2360Y236261D01*
X-2400Y236173D01*
X-2436Y236084D01*
X-2469Y235994D01*
X-2568Y235787D01*
X-2661Y235577D01*
X-2749Y235364D01*
X-2832Y235150D01*
X-2910Y234934D01*
X-2983Y234716D01*
X-3051Y234496D01*
X-3113Y234275D01*
X-3170Y234052D01*
X-3222Y233828D01*
X-3268Y233603D01*
X-3309Y233377D01*
X-3344Y233150D01*
X-3374Y232922D01*
X-3399Y232693D01*
X-3418Y232464D01*
X-3432Y232235D01*
X-3440Y232005D01*
X-3443Y231775D01*
X3048Y231775D02*
X3045Y231545D01*
X3037Y231315D01*
X3023Y231086D01*
X3004Y230857D01*
X2979Y230628D01*
X2949Y230400D01*
X2914Y230173D01*
X2873Y229947D01*
X2827Y229722D01*
X2775Y229498D01*
X2718Y229275D01*
X2656Y229054D01*
X2588Y228834D01*
X2515Y228616D01*
X2437Y228400D01*
X2354Y228186D01*
X2266Y227974D01*
X2173Y227763D01*
X2074Y227556D01*
X2075Y227556D02*
X2042Y227466D01*
X2006Y227377D01*
X1965Y227289D01*
X1922Y227204D01*
X1875Y227120D01*
X1825Y227038D01*
X1771Y226958D01*
X1715Y226881D01*
X1655Y226805D01*
X1592Y226732D01*
X1527Y226662D01*
X1458Y226594D01*
X1387Y226530D01*
X1314Y226468D01*
X1238Y226409D01*
X1160Y226353D01*
X1079Y226300D01*
X997Y226251D01*
X913Y226205D01*
X826Y226162D01*
X739Y226123D01*
X649Y226087D01*
X559Y226055D01*
X467Y226027D01*
X374Y226002D01*
X280Y225981D01*
X186Y225964D01*
X91Y225950D01*
X-5Y225941D01*
X-101Y225935D01*
X-197Y225933D01*
X-2469Y227556D02*
X-2568Y227763D01*
X-2661Y227974D01*
X-2749Y228186D01*
X-2832Y228400D01*
X-2910Y228616D01*
X-2983Y228834D01*
X-3051Y229054D01*
X-3113Y229275D01*
X-3170Y229498D01*
X-3222Y229722D01*
X-3268Y229947D01*
X-3309Y230173D01*
X-3344Y230400D01*
X-3374Y230628D01*
X-3399Y230857D01*
X-3418Y231086D01*
X-3432Y231315D01*
X-3440Y231545D01*
X-3443Y231775D01*
X-2469Y227556D02*
X-2436Y227466D01*
X-2400Y227377D01*
X-2360Y227289D01*
X-2316Y227204D01*
X-2269Y227120D01*
X-2219Y227038D01*
X-2165Y226958D01*
X-2109Y226881D01*
X-2049Y226805D01*
X-1986Y226732D01*
X-1921Y226662D01*
X-1852Y226594D01*
X-1781Y226530D01*
X-1708Y226468D01*
X-1632Y226409D01*
X-1554Y226353D01*
X-1473Y226300D01*
X-1391Y226251D01*
X-1307Y226205D01*
X-1220Y226162D01*
X-1133Y226123D01*
X-1043Y226087D01*
X-953Y226055D01*
X-861Y226027D01*
X-768Y226002D01*
X-674Y225981D01*
X-580Y225964D01*
X-485Y225950D01*
X-389Y225941D01*
X-293Y225935D01*
X-197Y225933D01*
X2399Y228529D02*
X-2794Y235021D01*
X-11627Y237617D02*
X-7733Y225933D01*
X-15522Y225933D02*
X-11627Y237617D01*
X-14548Y228854D02*
X-8706Y228854D01*
X-25980Y231775D02*
X-25983Y232042D01*
X-25993Y232310D01*
X-26009Y232576D01*
X-26031Y232843D01*
X-26060Y233109D01*
X-26096Y233374D01*
X-26137Y233638D01*
X-26185Y233901D01*
X-26239Y234163D01*
X-26300Y234423D01*
X-26367Y234682D01*
X-26440Y234939D01*
X-26519Y235195D01*
X-26604Y235448D01*
X-26696Y235699D01*
X-26793Y235948D01*
X-26896Y236195D01*
X-27006Y236439D01*
X-27121Y236680D01*
X-27242Y236919D01*
X-27368Y237154D01*
X-27500Y237387D01*
X-27638Y237616D01*
X-27781Y237841D01*
X-27930Y238064D01*
X-28084Y238282D01*
X-28243Y238497D01*
X-28407Y238708D01*
X-28576Y238915D01*
X-25980Y231775D02*
X-25983Y231508D01*
X-25993Y231240D01*
X-26009Y230974D01*
X-26031Y230707D01*
X-26060Y230441D01*
X-26096Y230176D01*
X-26137Y229912D01*
X-26185Y229649D01*
X-26239Y229387D01*
X-26300Y229127D01*
X-26367Y228868D01*
X-26440Y228611D01*
X-26519Y228356D01*
X-26604Y228102D01*
X-26696Y227851D01*
X-26793Y227602D01*
X-26896Y227355D01*
X-27006Y227111D01*
X-27121Y226870D01*
X-27242Y226631D01*
X-27368Y226396D01*
X-27500Y226163D01*
X-27638Y225934D01*
X-27781Y225709D01*
X-27930Y225486D01*
X-28084Y225268D01*
X-28243Y225053D01*
X-28407Y224842D01*
X-28576Y224635D01*
X-33601Y225933D02*
X-33601Y237617D01*
X-36847Y237617D01*
X-36960Y237615D01*
X-37073Y237609D01*
X-37186Y237599D01*
X-37299Y237585D01*
X-37411Y237568D01*
X-37522Y237546D01*
X-37632Y237521D01*
X-37742Y237491D01*
X-37850Y237458D01*
X-37957Y237421D01*
X-38063Y237381D01*
X-38167Y237336D01*
X-38270Y237288D01*
X-38371Y237237D01*
X-38470Y237182D01*
X-38567Y237124D01*
X-38662Y237062D01*
X-38755Y236997D01*
X-38845Y236929D01*
X-38933Y236858D01*
X-39019Y236783D01*
X-39102Y236706D01*
X-39182Y236626D01*
X-39259Y236543D01*
X-39334Y236457D01*
X-39405Y236369D01*
X-39473Y236279D01*
X-39538Y236186D01*
X-39600Y236091D01*
X-39658Y235994D01*
X-39713Y235895D01*
X-39764Y235794D01*
X-39812Y235691D01*
X-39857Y235587D01*
X-39897Y235481D01*
X-39934Y235374D01*
X-39967Y235266D01*
X-39997Y235156D01*
X-40022Y235046D01*
X-40044Y234935D01*
X-40061Y234823D01*
X-40075Y234710D01*
X-40085Y234597D01*
X-40091Y234484D01*
X-40093Y234371D01*
X-40091Y234258D01*
X-40085Y234145D01*
X-40075Y234032D01*
X-40061Y233919D01*
X-40044Y233807D01*
X-40022Y233696D01*
X-39997Y233586D01*
X-39967Y233476D01*
X-39934Y233368D01*
X-39897Y233261D01*
X-39857Y233155D01*
X-39812Y233051D01*
X-39764Y232948D01*
X-39713Y232847D01*
X-39658Y232748D01*
X-39600Y232651D01*
X-39538Y232556D01*
X-39473Y232463D01*
X-39405Y232373D01*
X-39334Y232285D01*
X-39259Y232199D01*
X-39182Y232116D01*
X-39102Y232036D01*
X-39019Y231959D01*
X-38933Y231884D01*
X-38845Y231813D01*
X-38755Y231745D01*
X-38662Y231680D01*
X-38567Y231618D01*
X-38470Y231560D01*
X-38371Y231505D01*
X-38270Y231454D01*
X-38167Y231406D01*
X-38063Y231361D01*
X-37957Y231321D01*
X-37850Y231284D01*
X-37742Y231251D01*
X-37632Y231221D01*
X-37522Y231196D01*
X-37411Y231174D01*
X-37299Y231157D01*
X-37186Y231143D01*
X-37073Y231133D01*
X-36960Y231127D01*
X-36847Y231125D01*
X-36847Y231126D02*
X-33601Y231126D01*
X-37496Y231126D02*
X-40093Y225933D01*
X-45452Y225933D02*
X-45452Y237617D01*
X-49346Y231126D01*
X-53241Y237617D01*
X-53241Y225933D01*
X-62187Y225933D02*
X-62286Y225935D01*
X-62386Y225941D01*
X-62485Y225950D01*
X-62583Y225963D01*
X-62681Y225980D01*
X-62779Y226001D01*
X-62875Y226026D01*
X-62970Y226054D01*
X-63064Y226086D01*
X-63157Y226121D01*
X-63249Y226160D01*
X-63339Y226203D01*
X-63427Y226248D01*
X-63514Y226298D01*
X-63598Y226350D01*
X-63681Y226406D01*
X-63761Y226464D01*
X-63839Y226526D01*
X-63914Y226591D01*
X-63987Y226659D01*
X-64057Y226729D01*
X-64125Y226802D01*
X-64190Y226877D01*
X-64252Y226955D01*
X-64310Y227035D01*
X-64366Y227118D01*
X-64418Y227202D01*
X-64468Y227289D01*
X-64513Y227377D01*
X-64556Y227467D01*
X-64595Y227559D01*
X-64630Y227652D01*
X-64662Y227746D01*
X-64690Y227841D01*
X-64715Y227937D01*
X-64736Y228035D01*
X-64753Y228133D01*
X-64766Y228231D01*
X-64775Y228330D01*
X-64781Y228430D01*
X-64783Y228529D01*
X-62187Y225933D02*
X-62043Y225935D01*
X-61898Y225941D01*
X-61754Y225950D01*
X-61611Y225963D01*
X-61467Y225980D01*
X-61324Y226001D01*
X-61182Y226026D01*
X-61041Y226054D01*
X-60900Y226086D01*
X-60760Y226122D01*
X-60621Y226161D01*
X-60483Y226204D01*
X-60347Y226251D01*
X-60211Y226301D01*
X-60077Y226355D01*
X-59945Y226412D01*
X-59814Y226473D01*
X-59685Y226537D01*
X-59557Y226605D01*
X-59431Y226675D01*
X-59307Y226750D01*
X-59186Y226827D01*
X-59066Y226908D01*
X-58948Y226991D01*
X-58833Y227078D01*
X-58720Y227168D01*
X-58609Y227261D01*
X-58501Y227356D01*
X-58395Y227455D01*
X-58292Y227556D01*
X-58618Y235021D02*
X-58620Y235120D01*
X-58626Y235220D01*
X-58635Y235319D01*
X-58648Y235417D01*
X-58665Y235515D01*
X-58686Y235613D01*
X-58711Y235709D01*
X-58739Y235804D01*
X-58771Y235898D01*
X-58806Y235991D01*
X-58845Y236083D01*
X-58888Y236173D01*
X-58933Y236261D01*
X-58983Y236348D01*
X-59035Y236432D01*
X-59091Y236515D01*
X-59149Y236595D01*
X-59211Y236673D01*
X-59276Y236748D01*
X-59344Y236821D01*
X-59414Y236891D01*
X-59487Y236959D01*
X-59562Y237024D01*
X-59640Y237086D01*
X-59720Y237144D01*
X-59803Y237200D01*
X-59887Y237252D01*
X-59974Y237302D01*
X-60062Y237347D01*
X-60152Y237390D01*
X-60244Y237429D01*
X-60337Y237464D01*
X-60431Y237496D01*
X-60526Y237524D01*
X-60623Y237549D01*
X-60720Y237570D01*
X-60818Y237587D01*
X-60916Y237600D01*
X-61015Y237609D01*
X-61115Y237615D01*
X-61214Y237617D01*
X-61350Y237615D01*
X-61486Y237609D01*
X-61622Y237600D01*
X-61758Y237587D01*
X-61893Y237569D01*
X-62027Y237549D01*
X-62161Y237524D01*
X-62295Y237496D01*
X-62427Y237463D01*
X-62558Y237428D01*
X-62689Y237388D01*
X-62818Y237345D01*
X-62946Y237299D01*
X-63072Y237248D01*
X-63198Y237195D01*
X-63321Y237137D01*
X-63443Y237077D01*
X-63563Y237013D01*
X-63682Y236945D01*
X-63798Y236875D01*
X-63912Y236801D01*
X-64025Y236724D01*
X-64135Y236643D01*
X-59915Y232749D02*
X-59829Y232802D01*
X-59745Y232859D01*
X-59663Y232918D01*
X-59583Y232981D01*
X-59506Y233047D01*
X-59431Y233115D01*
X-59359Y233187D01*
X-59290Y233261D01*
X-59224Y233338D01*
X-59161Y233417D01*
X-59101Y233499D01*
X-59044Y233583D01*
X-58990Y233669D01*
X-58940Y233757D01*
X-58893Y233847D01*
X-58849Y233938D01*
X-58810Y234032D01*
X-58773Y234126D01*
X-58741Y234222D01*
X-58712Y234320D01*
X-58687Y234418D01*
X-58666Y234517D01*
X-58648Y234617D01*
X-58635Y234717D01*
X-58625Y234818D01*
X-58619Y234920D01*
X-58617Y235021D01*
X-63486Y230801D02*
X-63572Y230748D01*
X-63656Y230691D01*
X-63738Y230632D01*
X-63818Y230569D01*
X-63895Y230503D01*
X-63970Y230435D01*
X-64042Y230363D01*
X-64111Y230289D01*
X-64177Y230212D01*
X-64240Y230133D01*
X-64300Y230051D01*
X-64357Y229967D01*
X-64411Y229881D01*
X-64461Y229793D01*
X-64508Y229703D01*
X-64552Y229612D01*
X-64591Y229518D01*
X-64628Y229424D01*
X-64660Y229328D01*
X-64689Y229230D01*
X-64714Y229132D01*
X-64735Y229033D01*
X-64753Y228933D01*
X-64766Y228833D01*
X-64776Y228732D01*
X-64782Y228630D01*
X-64784Y228529D01*
X-63486Y230801D02*
X-59916Y232749D01*
X-71570Y231775D02*
X-71567Y231508D01*
X-71557Y231240D01*
X-71541Y230974D01*
X-71519Y230707D01*
X-71490Y230441D01*
X-71454Y230176D01*
X-71413Y229912D01*
X-71365Y229649D01*
X-71311Y229387D01*
X-71250Y229127D01*
X-71183Y228868D01*
X-71110Y228611D01*
X-71031Y228356D01*
X-70946Y228102D01*
X-70854Y227851D01*
X-70757Y227602D01*
X-70654Y227355D01*
X-70544Y227111D01*
X-70429Y226870D01*
X-70308Y226631D01*
X-70182Y226396D01*
X-70050Y226163D01*
X-69912Y225934D01*
X-69769Y225709D01*
X-69620Y225486D01*
X-69466Y225268D01*
X-69307Y225053D01*
X-69143Y224842D01*
X-68974Y224635D01*
X-71570Y231775D02*
X-71567Y232042D01*
X-71557Y232310D01*
X-71541Y232576D01*
X-71519Y232843D01*
X-71490Y233109D01*
X-71454Y233374D01*
X-71413Y233638D01*
X-71365Y233901D01*
X-71311Y234163D01*
X-71250Y234423D01*
X-71183Y234682D01*
X-71110Y234939D01*
X-71031Y235195D01*
X-70946Y235448D01*
X-70854Y235699D01*
X-70757Y235948D01*
X-70654Y236195D01*
X-70544Y236439D01*
X-70429Y236680D01*
X-70308Y236919D01*
X-70182Y237154D01*
X-70050Y237387D01*
X-69912Y237616D01*
X-69769Y237841D01*
X-69620Y238064D01*
X-69466Y238282D01*
X-69307Y238497D01*
X-69143Y238708D01*
X-68974Y238915D01*
D13*
X-3175Y204915D02*
X-3175Y198565D01*
D12*
X-757Y171697D02*
X-8123Y171697D01*
X-757Y171697D02*
X-757Y173743D01*
X-759Y173832D01*
X-765Y173921D01*
X-775Y174010D01*
X-788Y174098D01*
X-805Y174186D01*
X-827Y174273D01*
X-852Y174358D01*
X-880Y174443D01*
X-913Y174526D01*
X-949Y174608D01*
X-988Y174688D01*
X-1031Y174766D01*
X-1077Y174842D01*
X-1127Y174917D01*
X-1180Y174989D01*
X-1236Y175058D01*
X-1295Y175125D01*
X-1356Y175190D01*
X-1421Y175251D01*
X-1488Y175310D01*
X-1557Y175366D01*
X-1629Y175419D01*
X-1704Y175469D01*
X-1780Y175515D01*
X-1858Y175558D01*
X-1938Y175597D01*
X-2020Y175633D01*
X-2103Y175666D01*
X-2188Y175694D01*
X-2273Y175719D01*
X-2360Y175741D01*
X-2448Y175758D01*
X-2536Y175771D01*
X-2625Y175781D01*
X-2714Y175787D01*
X-2803Y175789D01*
X-2892Y175787D01*
X-2981Y175781D01*
X-3070Y175771D01*
X-3158Y175758D01*
X-3246Y175741D01*
X-3333Y175719D01*
X-3418Y175694D01*
X-3503Y175666D01*
X-3586Y175633D01*
X-3668Y175597D01*
X-3748Y175558D01*
X-3826Y175515D01*
X-3902Y175469D01*
X-3977Y175419D01*
X-4049Y175366D01*
X-4118Y175310D01*
X-4185Y175251D01*
X-4250Y175190D01*
X-4311Y175125D01*
X-4370Y175058D01*
X-4426Y174989D01*
X-4479Y174917D01*
X-4529Y174842D01*
X-4575Y174766D01*
X-4618Y174688D01*
X-4657Y174608D01*
X-4693Y174526D01*
X-4726Y174443D01*
X-4754Y174358D01*
X-4779Y174273D01*
X-4801Y174186D01*
X-4818Y174098D01*
X-4831Y174010D01*
X-4841Y173921D01*
X-4847Y173832D01*
X-4849Y173743D01*
X-4849Y171697D01*
X-4849Y174152D02*
X-8123Y175789D01*
X-4849Y180597D02*
X-4849Y183053D01*
X-4849Y180597D02*
X-4847Y180519D01*
X-4842Y180441D01*
X-4832Y180364D01*
X-4819Y180287D01*
X-4803Y180211D01*
X-4783Y180136D01*
X-4759Y180062D01*
X-4732Y179989D01*
X-4701Y179917D01*
X-4667Y179847D01*
X-4630Y179779D01*
X-4589Y179712D01*
X-4545Y179647D01*
X-4499Y179585D01*
X-4449Y179525D01*
X-4397Y179467D01*
X-4342Y179412D01*
X-4284Y179360D01*
X-4224Y179310D01*
X-4162Y179264D01*
X-4097Y179220D01*
X-4031Y179179D01*
X-3962Y179142D01*
X-3892Y179108D01*
X-3820Y179077D01*
X-3747Y179050D01*
X-3673Y179026D01*
X-3598Y179006D01*
X-3522Y178990D01*
X-3445Y178977D01*
X-3368Y178967D01*
X-3290Y178962D01*
X-3212Y178960D01*
X-3212Y178961D02*
X-2803Y178961D01*
X-2714Y178963D01*
X-2625Y178969D01*
X-2536Y178979D01*
X-2448Y178992D01*
X-2360Y179009D01*
X-2273Y179031D01*
X-2188Y179056D01*
X-2103Y179084D01*
X-2020Y179117D01*
X-1938Y179153D01*
X-1858Y179192D01*
X-1780Y179235D01*
X-1704Y179281D01*
X-1629Y179331D01*
X-1557Y179384D01*
X-1488Y179440D01*
X-1421Y179499D01*
X-1356Y179560D01*
X-1295Y179625D01*
X-1236Y179692D01*
X-1180Y179761D01*
X-1127Y179833D01*
X-1077Y179908D01*
X-1031Y179984D01*
X-988Y180062D01*
X-949Y180142D01*
X-913Y180224D01*
X-880Y180307D01*
X-852Y180392D01*
X-827Y180477D01*
X-805Y180564D01*
X-788Y180652D01*
X-775Y180740D01*
X-765Y180829D01*
X-759Y180918D01*
X-757Y181007D01*
X-759Y181096D01*
X-765Y181185D01*
X-775Y181274D01*
X-788Y181362D01*
X-805Y181450D01*
X-827Y181537D01*
X-852Y181622D01*
X-880Y181707D01*
X-913Y181790D01*
X-949Y181872D01*
X-988Y181952D01*
X-1031Y182030D01*
X-1077Y182106D01*
X-1127Y182181D01*
X-1180Y182253D01*
X-1236Y182322D01*
X-1295Y182389D01*
X-1356Y182454D01*
X-1421Y182515D01*
X-1488Y182574D01*
X-1557Y182630D01*
X-1629Y182683D01*
X-1704Y182733D01*
X-1780Y182779D01*
X-1858Y182822D01*
X-1938Y182861D01*
X-2020Y182897D01*
X-2103Y182930D01*
X-2188Y182958D01*
X-2273Y182983D01*
X-2360Y183005D01*
X-2448Y183022D01*
X-2536Y183035D01*
X-2625Y183045D01*
X-2714Y183051D01*
X-2803Y183053D01*
X-4849Y183053D01*
X-4961Y183051D01*
X-5072Y183045D01*
X-5184Y183036D01*
X-5295Y183023D01*
X-5405Y183005D01*
X-5515Y182985D01*
X-5624Y182960D01*
X-5732Y182932D01*
X-5839Y182900D01*
X-5945Y182864D01*
X-6050Y182825D01*
X-6153Y182782D01*
X-6255Y182736D01*
X-6355Y182686D01*
X-6454Y182633D01*
X-6550Y182576D01*
X-6645Y182517D01*
X-6737Y182454D01*
X-6827Y182388D01*
X-6915Y182319D01*
X-7001Y182247D01*
X-7084Y182172D01*
X-7164Y182094D01*
X-7242Y182014D01*
X-7317Y181931D01*
X-7389Y181845D01*
X-7458Y181757D01*
X-7524Y181667D01*
X-7587Y181575D01*
X-7646Y181480D01*
X-7703Y181384D01*
X-7756Y181285D01*
X-7806Y181185D01*
X-7852Y181083D01*
X-7895Y180980D01*
X-7934Y180875D01*
X-7970Y180769D01*
X-8002Y180662D01*
X-8030Y180554D01*
X-8055Y180445D01*
X-8075Y180335D01*
X-8093Y180225D01*
X-8106Y180114D01*
X-8115Y180002D01*
X-8121Y179891D01*
X-8123Y179779D01*
D13*
X-92075Y200152D02*
X-92075Y206502D01*
D12*
X-82367Y196728D02*
X-75001Y196728D01*
X-75001Y198774D01*
X-75003Y198863D01*
X-75009Y198952D01*
X-75019Y199041D01*
X-75032Y199129D01*
X-75049Y199217D01*
X-75071Y199304D01*
X-75096Y199389D01*
X-75124Y199474D01*
X-75157Y199557D01*
X-75193Y199639D01*
X-75232Y199719D01*
X-75275Y199797D01*
X-75321Y199873D01*
X-75371Y199948D01*
X-75424Y200020D01*
X-75480Y200089D01*
X-75539Y200156D01*
X-75600Y200221D01*
X-75665Y200282D01*
X-75732Y200341D01*
X-75801Y200397D01*
X-75873Y200450D01*
X-75948Y200500D01*
X-76024Y200546D01*
X-76102Y200589D01*
X-76182Y200628D01*
X-76264Y200664D01*
X-76347Y200697D01*
X-76432Y200725D01*
X-76517Y200750D01*
X-76604Y200772D01*
X-76692Y200789D01*
X-76780Y200802D01*
X-76869Y200812D01*
X-76958Y200818D01*
X-77047Y200820D01*
X-77136Y200818D01*
X-77225Y200812D01*
X-77314Y200802D01*
X-77402Y200789D01*
X-77490Y200772D01*
X-77577Y200750D01*
X-77662Y200725D01*
X-77747Y200697D01*
X-77830Y200664D01*
X-77912Y200628D01*
X-77992Y200589D01*
X-78070Y200546D01*
X-78146Y200500D01*
X-78221Y200450D01*
X-78293Y200397D01*
X-78362Y200341D01*
X-78429Y200282D01*
X-78494Y200221D01*
X-78555Y200156D01*
X-78614Y200089D01*
X-78670Y200020D01*
X-78723Y199948D01*
X-78773Y199873D01*
X-78819Y199797D01*
X-78862Y199719D01*
X-78901Y199639D01*
X-78937Y199557D01*
X-78970Y199474D01*
X-78998Y199389D01*
X-79023Y199304D01*
X-79045Y199217D01*
X-79062Y199129D01*
X-79075Y199041D01*
X-79085Y198952D01*
X-79091Y198863D01*
X-79093Y198774D01*
X-79093Y196728D01*
X-79093Y199183D02*
X-82367Y200820D01*
X-76843Y208085D02*
X-76758Y208083D01*
X-76673Y208077D01*
X-76589Y208067D01*
X-76505Y208054D01*
X-76421Y208036D01*
X-76339Y208015D01*
X-76258Y207990D01*
X-76178Y207961D01*
X-76099Y207928D01*
X-76022Y207892D01*
X-75947Y207852D01*
X-75873Y207809D01*
X-75802Y207763D01*
X-75733Y207713D01*
X-75666Y207660D01*
X-75602Y207604D01*
X-75541Y207545D01*
X-75482Y207484D01*
X-75426Y207420D01*
X-75373Y207353D01*
X-75323Y207284D01*
X-75277Y207213D01*
X-75234Y207139D01*
X-75194Y207064D01*
X-75158Y206987D01*
X-75125Y206908D01*
X-75096Y206828D01*
X-75071Y206747D01*
X-75050Y206665D01*
X-75032Y206581D01*
X-75019Y206497D01*
X-75009Y206413D01*
X-75003Y206328D01*
X-75001Y206243D01*
X-75003Y206147D01*
X-75009Y206051D01*
X-75019Y205956D01*
X-75032Y205861D01*
X-75050Y205766D01*
X-75071Y205673D01*
X-75096Y205580D01*
X-75125Y205489D01*
X-75157Y205398D01*
X-75193Y205309D01*
X-75233Y205222D01*
X-75276Y205136D01*
X-75322Y205052D01*
X-75372Y204970D01*
X-75426Y204890D01*
X-75482Y204813D01*
X-75542Y204738D01*
X-75604Y204665D01*
X-75670Y204595D01*
X-75738Y204527D01*
X-75809Y204462D01*
X-75882Y204401D01*
X-75958Y204342D01*
X-76037Y204286D01*
X-76117Y204234D01*
X-76200Y204185D01*
X-76284Y204139D01*
X-76370Y204097D01*
X-76458Y204059D01*
X-76547Y204024D01*
X-76638Y203992D01*
X-78275Y207471D02*
X-78216Y207531D01*
X-78154Y207588D01*
X-78090Y207643D01*
X-78023Y207694D01*
X-77954Y207743D01*
X-77884Y207789D01*
X-77811Y207832D01*
X-77737Y207872D01*
X-77661Y207908D01*
X-77583Y207941D01*
X-77504Y207971D01*
X-77424Y207998D01*
X-77343Y208021D01*
X-77261Y208040D01*
X-77179Y208056D01*
X-77095Y208069D01*
X-77011Y208078D01*
X-76927Y208083D01*
X-76843Y208085D01*
X-78275Y207471D02*
X-82367Y203992D01*
X-82367Y208084D01*
D13*
X85471Y169736D02*
X85471Y162878D01*
D12*
X82931Y182944D02*
X90297Y182944D01*
X90297Y186217D01*
X87023Y186217D02*
X87023Y182944D01*
X87023Y189385D02*
X87023Y191431D01*
X87021Y191520D01*
X87015Y191609D01*
X87005Y191698D01*
X86992Y191786D01*
X86975Y191874D01*
X86953Y191961D01*
X86928Y192046D01*
X86900Y192131D01*
X86867Y192214D01*
X86831Y192296D01*
X86792Y192376D01*
X86749Y192454D01*
X86703Y192530D01*
X86653Y192605D01*
X86600Y192677D01*
X86544Y192746D01*
X86485Y192813D01*
X86424Y192878D01*
X86359Y192939D01*
X86292Y192998D01*
X86223Y193054D01*
X86151Y193107D01*
X86076Y193157D01*
X86000Y193203D01*
X85922Y193246D01*
X85842Y193285D01*
X85760Y193321D01*
X85677Y193354D01*
X85592Y193382D01*
X85507Y193407D01*
X85420Y193429D01*
X85332Y193446D01*
X85244Y193459D01*
X85155Y193469D01*
X85066Y193475D01*
X84977Y193477D01*
X84888Y193475D01*
X84799Y193469D01*
X84710Y193459D01*
X84622Y193446D01*
X84534Y193429D01*
X84447Y193407D01*
X84362Y193382D01*
X84277Y193354D01*
X84194Y193321D01*
X84112Y193285D01*
X84032Y193246D01*
X83954Y193203D01*
X83878Y193157D01*
X83803Y193107D01*
X83731Y193054D01*
X83662Y192998D01*
X83595Y192939D01*
X83530Y192878D01*
X83469Y192813D01*
X83410Y192746D01*
X83354Y192677D01*
X83301Y192605D01*
X83251Y192530D01*
X83205Y192454D01*
X83162Y192376D01*
X83123Y192296D01*
X83087Y192214D01*
X83054Y192131D01*
X83026Y192046D01*
X83001Y191961D01*
X82979Y191874D01*
X82962Y191786D01*
X82949Y191698D01*
X82939Y191609D01*
X82933Y191520D01*
X82931Y191431D01*
X82931Y189385D01*
X90297Y189385D01*
X90297Y191431D01*
X90295Y191510D01*
X90289Y191589D01*
X90280Y191668D01*
X90267Y191746D01*
X90249Y191823D01*
X90229Y191899D01*
X90204Y191974D01*
X90176Y192048D01*
X90145Y192121D01*
X90109Y192192D01*
X90071Y192261D01*
X90029Y192328D01*
X89984Y192393D01*
X89936Y192456D01*
X89885Y192517D01*
X89831Y192574D01*
X89775Y192630D01*
X89716Y192682D01*
X89654Y192732D01*
X89590Y192778D01*
X89524Y192822D01*
X89456Y192862D01*
X89386Y192898D01*
X89314Y192932D01*
X89240Y192962D01*
X89166Y192988D01*
X89090Y193011D01*
X89013Y193029D01*
X88936Y193045D01*
X88857Y193056D01*
X88779Y193064D01*
X88700Y193068D01*
X88620Y193068D01*
X88541Y193064D01*
X88463Y193056D01*
X88384Y193045D01*
X88307Y193029D01*
X88230Y193011D01*
X88154Y192988D01*
X88080Y192962D01*
X88006Y192932D01*
X87934Y192898D01*
X87864Y192862D01*
X87796Y192822D01*
X87730Y192778D01*
X87666Y192732D01*
X87604Y192682D01*
X87545Y192630D01*
X87489Y192574D01*
X87435Y192517D01*
X87384Y192456D01*
X87336Y192393D01*
X87291Y192328D01*
X87249Y192261D01*
X87211Y192192D01*
X87175Y192121D01*
X87144Y192048D01*
X87116Y191974D01*
X87091Y191899D01*
X87071Y191823D01*
X87053Y191746D01*
X87040Y191668D01*
X87031Y191589D01*
X87025Y191510D01*
X87023Y191431D01*
X88660Y196339D02*
X90297Y198385D01*
X82931Y198385D01*
X82931Y196339D02*
X82931Y200431D01*
D13*
X99886Y128588D02*
X106236Y128588D01*
D12*
X107937Y120358D02*
X107937Y112992D01*
X107937Y120358D02*
X105891Y120358D01*
X105802Y120356D01*
X105713Y120350D01*
X105624Y120340D01*
X105536Y120327D01*
X105448Y120310D01*
X105361Y120288D01*
X105276Y120263D01*
X105191Y120235D01*
X105108Y120202D01*
X105026Y120166D01*
X104946Y120127D01*
X104868Y120084D01*
X104792Y120038D01*
X104717Y119988D01*
X104645Y119935D01*
X104576Y119879D01*
X104509Y119820D01*
X104444Y119759D01*
X104383Y119694D01*
X104324Y119627D01*
X104268Y119558D01*
X104215Y119486D01*
X104165Y119411D01*
X104119Y119335D01*
X104076Y119257D01*
X104037Y119177D01*
X104001Y119095D01*
X103968Y119012D01*
X103940Y118927D01*
X103915Y118842D01*
X103893Y118755D01*
X103876Y118667D01*
X103863Y118579D01*
X103853Y118490D01*
X103847Y118401D01*
X103845Y118312D01*
X103847Y118223D01*
X103853Y118134D01*
X103863Y118045D01*
X103876Y117957D01*
X103893Y117869D01*
X103915Y117782D01*
X103940Y117697D01*
X103968Y117612D01*
X104001Y117529D01*
X104037Y117447D01*
X104076Y117367D01*
X104119Y117289D01*
X104165Y117213D01*
X104215Y117138D01*
X104268Y117066D01*
X104324Y116997D01*
X104383Y116930D01*
X104444Y116865D01*
X104509Y116804D01*
X104576Y116745D01*
X104645Y116689D01*
X104717Y116636D01*
X104792Y116586D01*
X104868Y116540D01*
X104946Y116497D01*
X105026Y116458D01*
X105108Y116422D01*
X105191Y116389D01*
X105276Y116361D01*
X105361Y116336D01*
X105448Y116314D01*
X105536Y116297D01*
X105624Y116284D01*
X105713Y116274D01*
X105802Y116268D01*
X105891Y116266D01*
X107937Y116266D01*
X105482Y116266D02*
X103845Y112992D01*
X100673Y119539D02*
X100673Y120358D01*
X96581Y120358D01*
X98627Y112992D01*
X49636Y85535D02*
X54547Y78169D01*
X49636Y78169D02*
X54547Y85535D01*
X46822Y83898D02*
X44776Y85535D01*
X44776Y78169D01*
X46822Y78169D02*
X42730Y78169D01*
X29230Y146919D02*
X29230Y150898D01*
X29230Y146919D02*
X26909Y143934D01*
X29230Y146919D02*
X31551Y143934D01*
X29230Y146919D02*
X25582Y148245D01*
X29230Y146919D02*
X32878Y148245D01*
D13*
X-141161Y152400D02*
X-147511Y152400D01*
D12*
X-137856Y144183D02*
X-137856Y136817D01*
X-137856Y144183D02*
X-139902Y144183D01*
X-139991Y144181D01*
X-140080Y144175D01*
X-140169Y144165D01*
X-140257Y144152D01*
X-140345Y144135D01*
X-140432Y144113D01*
X-140517Y144088D01*
X-140602Y144060D01*
X-140685Y144027D01*
X-140767Y143991D01*
X-140847Y143952D01*
X-140925Y143909D01*
X-141001Y143863D01*
X-141076Y143813D01*
X-141148Y143760D01*
X-141217Y143704D01*
X-141284Y143645D01*
X-141349Y143584D01*
X-141410Y143519D01*
X-141469Y143452D01*
X-141525Y143383D01*
X-141578Y143311D01*
X-141628Y143236D01*
X-141674Y143160D01*
X-141717Y143082D01*
X-141756Y143002D01*
X-141792Y142920D01*
X-141825Y142837D01*
X-141853Y142752D01*
X-141878Y142667D01*
X-141900Y142580D01*
X-141917Y142492D01*
X-141930Y142404D01*
X-141940Y142315D01*
X-141946Y142226D01*
X-141948Y142137D01*
X-141946Y142048D01*
X-141940Y141959D01*
X-141930Y141870D01*
X-141917Y141782D01*
X-141900Y141694D01*
X-141878Y141607D01*
X-141853Y141522D01*
X-141825Y141437D01*
X-141792Y141354D01*
X-141756Y141272D01*
X-141717Y141192D01*
X-141674Y141114D01*
X-141628Y141038D01*
X-141578Y140963D01*
X-141525Y140891D01*
X-141469Y140822D01*
X-141410Y140755D01*
X-141349Y140690D01*
X-141284Y140629D01*
X-141217Y140570D01*
X-141148Y140514D01*
X-141076Y140461D01*
X-141001Y140411D01*
X-140925Y140365D01*
X-140847Y140322D01*
X-140767Y140283D01*
X-140685Y140247D01*
X-140602Y140214D01*
X-140517Y140186D01*
X-140432Y140161D01*
X-140345Y140139D01*
X-140257Y140122D01*
X-140169Y140109D01*
X-140080Y140099D01*
X-139991Y140093D01*
X-139902Y140091D01*
X-137856Y140091D01*
X-140311Y140091D02*
X-141948Y136817D01*
X-145120Y136817D02*
X-147166Y136817D01*
X-147255Y136819D01*
X-147344Y136825D01*
X-147433Y136835D01*
X-147521Y136848D01*
X-147609Y136865D01*
X-147696Y136887D01*
X-147781Y136912D01*
X-147866Y136940D01*
X-147949Y136973D01*
X-148031Y137009D01*
X-148111Y137048D01*
X-148189Y137091D01*
X-148265Y137137D01*
X-148340Y137187D01*
X-148412Y137240D01*
X-148481Y137296D01*
X-148548Y137355D01*
X-148613Y137416D01*
X-148674Y137481D01*
X-148733Y137548D01*
X-148789Y137617D01*
X-148842Y137689D01*
X-148892Y137764D01*
X-148938Y137840D01*
X-148981Y137918D01*
X-149020Y137998D01*
X-149056Y138080D01*
X-149089Y138163D01*
X-149117Y138248D01*
X-149142Y138333D01*
X-149164Y138420D01*
X-149181Y138508D01*
X-149194Y138596D01*
X-149204Y138685D01*
X-149210Y138774D01*
X-149212Y138863D01*
X-149210Y138952D01*
X-149204Y139041D01*
X-149194Y139130D01*
X-149181Y139218D01*
X-149164Y139306D01*
X-149142Y139393D01*
X-149117Y139478D01*
X-149089Y139563D01*
X-149056Y139646D01*
X-149020Y139728D01*
X-148981Y139808D01*
X-148938Y139886D01*
X-148892Y139962D01*
X-148842Y140037D01*
X-148789Y140109D01*
X-148733Y140178D01*
X-148674Y140245D01*
X-148613Y140310D01*
X-148548Y140371D01*
X-148481Y140430D01*
X-148412Y140486D01*
X-148340Y140539D01*
X-148265Y140589D01*
X-148189Y140635D01*
X-148111Y140678D01*
X-148031Y140717D01*
X-147949Y140753D01*
X-147866Y140786D01*
X-147781Y140814D01*
X-147696Y140839D01*
X-147609Y140861D01*
X-147521Y140878D01*
X-147433Y140891D01*
X-147344Y140901D01*
X-147255Y140907D01*
X-147166Y140909D01*
X-147575Y144183D02*
X-145120Y144183D01*
X-147575Y144183D02*
X-147654Y144181D01*
X-147733Y144175D01*
X-147812Y144166D01*
X-147890Y144153D01*
X-147967Y144135D01*
X-148043Y144115D01*
X-148118Y144090D01*
X-148192Y144062D01*
X-148265Y144031D01*
X-148336Y143995D01*
X-148405Y143957D01*
X-148472Y143915D01*
X-148537Y143870D01*
X-148600Y143822D01*
X-148661Y143771D01*
X-148718Y143717D01*
X-148774Y143661D01*
X-148826Y143602D01*
X-148876Y143540D01*
X-148922Y143476D01*
X-148966Y143410D01*
X-149006Y143342D01*
X-149042Y143272D01*
X-149076Y143200D01*
X-149106Y143126D01*
X-149132Y143052D01*
X-149155Y142976D01*
X-149173Y142899D01*
X-149189Y142822D01*
X-149200Y142743D01*
X-149208Y142665D01*
X-149212Y142586D01*
X-149212Y142506D01*
X-149208Y142427D01*
X-149200Y142349D01*
X-149189Y142270D01*
X-149173Y142193D01*
X-149155Y142116D01*
X-149132Y142040D01*
X-149106Y141966D01*
X-149076Y141892D01*
X-149042Y141820D01*
X-149006Y141750D01*
X-148966Y141682D01*
X-148922Y141616D01*
X-148876Y141552D01*
X-148826Y141490D01*
X-148774Y141431D01*
X-148718Y141375D01*
X-148661Y141321D01*
X-148600Y141270D01*
X-148537Y141222D01*
X-148472Y141177D01*
X-148405Y141135D01*
X-148336Y141097D01*
X-148265Y141061D01*
X-148192Y141030D01*
X-148118Y141002D01*
X-148043Y140977D01*
X-147967Y140957D01*
X-147890Y140939D01*
X-147812Y140926D01*
X-147733Y140917D01*
X-147654Y140911D01*
X-147575Y140909D01*
X-145939Y140909D01*
D13*
X45911Y25400D02*
X52261Y25400D01*
D12*
X55550Y17170D02*
X55550Y9804D01*
X55550Y17170D02*
X53504Y17170D01*
X53415Y17168D01*
X53326Y17162D01*
X53237Y17152D01*
X53149Y17139D01*
X53061Y17122D01*
X52974Y17100D01*
X52889Y17075D01*
X52804Y17047D01*
X52721Y17014D01*
X52639Y16978D01*
X52559Y16939D01*
X52481Y16896D01*
X52405Y16850D01*
X52330Y16800D01*
X52258Y16747D01*
X52189Y16691D01*
X52122Y16632D01*
X52057Y16571D01*
X51996Y16506D01*
X51937Y16439D01*
X51881Y16370D01*
X51828Y16298D01*
X51778Y16223D01*
X51732Y16147D01*
X51689Y16069D01*
X51650Y15989D01*
X51614Y15907D01*
X51581Y15824D01*
X51553Y15739D01*
X51528Y15654D01*
X51506Y15567D01*
X51489Y15479D01*
X51476Y15391D01*
X51466Y15302D01*
X51460Y15213D01*
X51458Y15124D01*
X51460Y15035D01*
X51466Y14946D01*
X51476Y14857D01*
X51489Y14769D01*
X51506Y14681D01*
X51528Y14594D01*
X51553Y14509D01*
X51581Y14424D01*
X51614Y14341D01*
X51650Y14259D01*
X51689Y14179D01*
X51732Y14101D01*
X51778Y14025D01*
X51828Y13950D01*
X51881Y13878D01*
X51937Y13809D01*
X51996Y13742D01*
X52057Y13677D01*
X52122Y13616D01*
X52189Y13557D01*
X52258Y13501D01*
X52330Y13448D01*
X52405Y13398D01*
X52481Y13352D01*
X52559Y13309D01*
X52639Y13270D01*
X52721Y13234D01*
X52804Y13201D01*
X52889Y13173D01*
X52974Y13148D01*
X53061Y13126D01*
X53149Y13109D01*
X53237Y13096D01*
X53326Y13086D01*
X53415Y13080D01*
X53504Y13078D01*
X55550Y13078D01*
X53095Y13078D02*
X51458Y9804D01*
X48286Y15533D02*
X46240Y17170D01*
X46240Y9804D01*
X48286Y9804D02*
X44194Y9804D01*
D13*
X71438Y96711D02*
X71438Y103315D01*
D12*
X79756Y97317D02*
X79756Y95680D01*
X79758Y95602D01*
X79763Y95524D01*
X79773Y95447D01*
X79786Y95370D01*
X79802Y95294D01*
X79822Y95219D01*
X79846Y95145D01*
X79873Y95072D01*
X79904Y95000D01*
X79938Y94930D01*
X79975Y94862D01*
X80016Y94795D01*
X80060Y94730D01*
X80106Y94668D01*
X80156Y94608D01*
X80208Y94550D01*
X80263Y94495D01*
X80321Y94443D01*
X80381Y94393D01*
X80443Y94347D01*
X80508Y94303D01*
X80575Y94262D01*
X80643Y94225D01*
X80713Y94191D01*
X80785Y94160D01*
X80858Y94133D01*
X80932Y94109D01*
X81007Y94089D01*
X81083Y94073D01*
X81160Y94060D01*
X81237Y94050D01*
X81315Y94045D01*
X81393Y94043D01*
X81393Y94044D02*
X85485Y94044D01*
X85485Y94043D02*
X85563Y94045D01*
X85641Y94050D01*
X85718Y94060D01*
X85795Y94073D01*
X85871Y94089D01*
X85946Y94109D01*
X86020Y94133D01*
X86093Y94160D01*
X86165Y94191D01*
X86235Y94225D01*
X86304Y94262D01*
X86370Y94303D01*
X86435Y94347D01*
X86497Y94393D01*
X86557Y94443D01*
X86615Y94495D01*
X86670Y94550D01*
X86722Y94608D01*
X86772Y94668D01*
X86818Y94730D01*
X86862Y94795D01*
X86903Y94862D01*
X86940Y94930D01*
X86974Y95000D01*
X87005Y95072D01*
X87032Y95145D01*
X87056Y95219D01*
X87076Y95294D01*
X87092Y95370D01*
X87105Y95447D01*
X87115Y95524D01*
X87120Y95602D01*
X87122Y95680D01*
X87122Y97317D01*
X79756Y100163D02*
X79756Y102209D01*
X79758Y102298D01*
X79764Y102387D01*
X79774Y102476D01*
X79787Y102564D01*
X79804Y102652D01*
X79826Y102739D01*
X79851Y102824D01*
X79879Y102909D01*
X79912Y102992D01*
X79948Y103074D01*
X79987Y103154D01*
X80030Y103232D01*
X80076Y103308D01*
X80126Y103383D01*
X80179Y103455D01*
X80235Y103524D01*
X80294Y103591D01*
X80355Y103656D01*
X80420Y103717D01*
X80487Y103776D01*
X80556Y103832D01*
X80628Y103885D01*
X80703Y103935D01*
X80779Y103981D01*
X80857Y104024D01*
X80937Y104063D01*
X81019Y104099D01*
X81102Y104132D01*
X81187Y104160D01*
X81272Y104185D01*
X81359Y104207D01*
X81447Y104224D01*
X81535Y104237D01*
X81624Y104247D01*
X81713Y104253D01*
X81802Y104255D01*
X81891Y104253D01*
X81980Y104247D01*
X82069Y104237D01*
X82157Y104224D01*
X82245Y104207D01*
X82332Y104185D01*
X82417Y104160D01*
X82502Y104132D01*
X82585Y104099D01*
X82667Y104063D01*
X82747Y104024D01*
X82825Y103981D01*
X82901Y103935D01*
X82976Y103885D01*
X83048Y103832D01*
X83117Y103776D01*
X83184Y103717D01*
X83249Y103656D01*
X83310Y103591D01*
X83369Y103524D01*
X83425Y103455D01*
X83478Y103383D01*
X83528Y103308D01*
X83574Y103232D01*
X83617Y103154D01*
X83656Y103074D01*
X83692Y102992D01*
X83725Y102909D01*
X83753Y102824D01*
X83778Y102739D01*
X83800Y102652D01*
X83817Y102564D01*
X83830Y102476D01*
X83840Y102387D01*
X83846Y102298D01*
X83848Y102209D01*
X87122Y102618D02*
X87122Y100163D01*
X87122Y102618D02*
X87120Y102697D01*
X87114Y102776D01*
X87105Y102855D01*
X87092Y102933D01*
X87074Y103010D01*
X87054Y103086D01*
X87029Y103161D01*
X87001Y103235D01*
X86970Y103308D01*
X86934Y103379D01*
X86896Y103448D01*
X86854Y103515D01*
X86809Y103580D01*
X86761Y103643D01*
X86710Y103704D01*
X86656Y103761D01*
X86600Y103817D01*
X86541Y103869D01*
X86479Y103919D01*
X86415Y103965D01*
X86349Y104009D01*
X86281Y104049D01*
X86211Y104085D01*
X86139Y104119D01*
X86065Y104149D01*
X85991Y104175D01*
X85915Y104198D01*
X85838Y104216D01*
X85761Y104232D01*
X85682Y104243D01*
X85604Y104251D01*
X85525Y104255D01*
X85445Y104255D01*
X85366Y104251D01*
X85288Y104243D01*
X85209Y104232D01*
X85132Y104216D01*
X85055Y104198D01*
X84979Y104175D01*
X84905Y104149D01*
X84831Y104119D01*
X84759Y104085D01*
X84689Y104049D01*
X84621Y104009D01*
X84555Y103965D01*
X84491Y103919D01*
X84429Y103869D01*
X84370Y103817D01*
X84314Y103761D01*
X84260Y103704D01*
X84209Y103643D01*
X84161Y103580D01*
X84116Y103515D01*
X84074Y103448D01*
X84036Y103379D01*
X84000Y103308D01*
X83969Y103235D01*
X83941Y103161D01*
X83916Y103086D01*
X83896Y103010D01*
X83878Y102933D01*
X83865Y102855D01*
X83856Y102776D01*
X83850Y102697D01*
X83848Y102618D01*
X83848Y100981D01*
D13*
X57150Y134811D02*
X57150Y141415D01*
D12*
X56580Y154178D02*
X54944Y154178D01*
X56580Y154178D02*
X56658Y154180D01*
X56736Y154185D01*
X56813Y154195D01*
X56890Y154208D01*
X56966Y154224D01*
X57041Y154244D01*
X57115Y154268D01*
X57188Y154295D01*
X57260Y154326D01*
X57330Y154360D01*
X57399Y154397D01*
X57465Y154438D01*
X57530Y154482D01*
X57592Y154528D01*
X57652Y154578D01*
X57710Y154630D01*
X57765Y154685D01*
X57817Y154743D01*
X57867Y154803D01*
X57913Y154865D01*
X57957Y154930D01*
X57998Y154997D01*
X58035Y155065D01*
X58069Y155135D01*
X58100Y155207D01*
X58127Y155280D01*
X58151Y155354D01*
X58171Y155429D01*
X58187Y155505D01*
X58200Y155582D01*
X58210Y155659D01*
X58215Y155737D01*
X58217Y155815D01*
X58217Y159907D01*
X58215Y159985D01*
X58210Y160063D01*
X58200Y160140D01*
X58187Y160217D01*
X58171Y160293D01*
X58151Y160368D01*
X58127Y160442D01*
X58100Y160515D01*
X58069Y160587D01*
X58035Y160657D01*
X57998Y160726D01*
X57957Y160792D01*
X57913Y160857D01*
X57867Y160919D01*
X57817Y160979D01*
X57765Y161037D01*
X57710Y161092D01*
X57652Y161144D01*
X57592Y161194D01*
X57530Y161240D01*
X57465Y161284D01*
X57399Y161325D01*
X57330Y161362D01*
X57260Y161396D01*
X57188Y161427D01*
X57115Y161454D01*
X57041Y161478D01*
X56966Y161498D01*
X56890Y161514D01*
X56813Y161527D01*
X56736Y161537D01*
X56658Y161542D01*
X56580Y161544D01*
X54944Y161544D01*
X52098Y154178D02*
X49643Y154178D01*
X49563Y154180D01*
X49483Y154186D01*
X49403Y154196D01*
X49324Y154209D01*
X49245Y154227D01*
X49168Y154248D01*
X49092Y154274D01*
X49017Y154303D01*
X48943Y154335D01*
X48871Y154371D01*
X48801Y154411D01*
X48734Y154454D01*
X48668Y154500D01*
X48605Y154550D01*
X48544Y154602D01*
X48485Y154657D01*
X48430Y154716D01*
X48378Y154776D01*
X48328Y154840D01*
X48282Y154905D01*
X48239Y154973D01*
X48199Y155043D01*
X48163Y155115D01*
X48131Y155189D01*
X48102Y155263D01*
X48077Y155340D01*
X48055Y155417D01*
X48037Y155496D01*
X48024Y155575D01*
X48014Y155654D01*
X48008Y155735D01*
X48006Y155815D01*
X48006Y156633D01*
X48008Y156711D01*
X48013Y156789D01*
X48023Y156866D01*
X48036Y156943D01*
X48052Y157019D01*
X48072Y157094D01*
X48096Y157168D01*
X48123Y157241D01*
X48154Y157313D01*
X48188Y157383D01*
X48225Y157452D01*
X48266Y157518D01*
X48310Y157583D01*
X48356Y157645D01*
X48406Y157705D01*
X48458Y157763D01*
X48513Y157818D01*
X48571Y157870D01*
X48631Y157920D01*
X48693Y157966D01*
X48758Y158010D01*
X48825Y158051D01*
X48893Y158088D01*
X48963Y158122D01*
X49035Y158153D01*
X49108Y158180D01*
X49182Y158204D01*
X49257Y158224D01*
X49333Y158240D01*
X49410Y158253D01*
X49487Y158263D01*
X49565Y158268D01*
X49643Y158270D01*
X52098Y158270D01*
X52098Y161544D01*
X48006Y161544D01*
D13*
X47625Y141415D02*
X47625Y134811D01*
D12*
X42293Y154178D02*
X40656Y154178D01*
X42293Y154178D02*
X42371Y154180D01*
X42449Y154185D01*
X42526Y154195D01*
X42603Y154208D01*
X42679Y154224D01*
X42754Y154244D01*
X42828Y154268D01*
X42901Y154295D01*
X42973Y154326D01*
X43043Y154360D01*
X43112Y154397D01*
X43178Y154438D01*
X43243Y154482D01*
X43305Y154528D01*
X43365Y154578D01*
X43423Y154630D01*
X43478Y154685D01*
X43530Y154743D01*
X43580Y154803D01*
X43626Y154865D01*
X43670Y154930D01*
X43711Y154997D01*
X43748Y155065D01*
X43782Y155135D01*
X43813Y155207D01*
X43840Y155280D01*
X43864Y155354D01*
X43884Y155429D01*
X43900Y155505D01*
X43913Y155582D01*
X43923Y155659D01*
X43928Y155737D01*
X43930Y155815D01*
X43930Y159907D01*
X43928Y159985D01*
X43923Y160063D01*
X43913Y160140D01*
X43900Y160217D01*
X43884Y160293D01*
X43864Y160368D01*
X43840Y160442D01*
X43813Y160515D01*
X43782Y160587D01*
X43748Y160657D01*
X43711Y160726D01*
X43670Y160792D01*
X43626Y160857D01*
X43580Y160919D01*
X43530Y160979D01*
X43478Y161037D01*
X43423Y161092D01*
X43365Y161144D01*
X43305Y161194D01*
X43243Y161240D01*
X43178Y161284D01*
X43112Y161325D01*
X43043Y161362D01*
X42973Y161396D01*
X42901Y161427D01*
X42828Y161454D01*
X42754Y161478D01*
X42679Y161498D01*
X42603Y161514D01*
X42526Y161527D01*
X42449Y161537D01*
X42371Y161542D01*
X42293Y161544D01*
X40656Y161544D01*
X37811Y158270D02*
X35355Y158270D01*
X35275Y158268D01*
X35195Y158262D01*
X35115Y158252D01*
X35036Y158239D01*
X34957Y158221D01*
X34880Y158200D01*
X34804Y158174D01*
X34729Y158145D01*
X34655Y158113D01*
X34583Y158077D01*
X34513Y158037D01*
X34446Y157994D01*
X34380Y157948D01*
X34317Y157898D01*
X34256Y157846D01*
X34197Y157791D01*
X34142Y157732D01*
X34090Y157672D01*
X34040Y157608D01*
X33994Y157542D01*
X33951Y157475D01*
X33911Y157405D01*
X33875Y157333D01*
X33843Y157259D01*
X33814Y157185D01*
X33788Y157108D01*
X33767Y157031D01*
X33749Y156952D01*
X33736Y156873D01*
X33726Y156793D01*
X33720Y156713D01*
X33718Y156633D01*
X33719Y156633D02*
X33719Y156224D01*
X33721Y156135D01*
X33727Y156046D01*
X33737Y155957D01*
X33750Y155869D01*
X33767Y155781D01*
X33789Y155694D01*
X33814Y155609D01*
X33842Y155524D01*
X33875Y155441D01*
X33911Y155359D01*
X33950Y155279D01*
X33993Y155201D01*
X34039Y155125D01*
X34089Y155050D01*
X34142Y154978D01*
X34198Y154909D01*
X34257Y154842D01*
X34318Y154777D01*
X34383Y154716D01*
X34450Y154657D01*
X34519Y154601D01*
X34591Y154548D01*
X34666Y154498D01*
X34742Y154452D01*
X34820Y154409D01*
X34900Y154370D01*
X34982Y154334D01*
X35065Y154301D01*
X35150Y154273D01*
X35235Y154248D01*
X35322Y154226D01*
X35410Y154209D01*
X35498Y154196D01*
X35587Y154186D01*
X35676Y154180D01*
X35765Y154178D01*
X35854Y154180D01*
X35943Y154186D01*
X36032Y154196D01*
X36120Y154209D01*
X36208Y154226D01*
X36295Y154248D01*
X36380Y154273D01*
X36465Y154301D01*
X36548Y154334D01*
X36630Y154370D01*
X36710Y154409D01*
X36788Y154452D01*
X36864Y154498D01*
X36939Y154548D01*
X37011Y154601D01*
X37080Y154657D01*
X37147Y154716D01*
X37212Y154777D01*
X37273Y154842D01*
X37332Y154909D01*
X37388Y154978D01*
X37441Y155050D01*
X37491Y155125D01*
X37537Y155201D01*
X37580Y155279D01*
X37619Y155359D01*
X37655Y155441D01*
X37688Y155524D01*
X37716Y155609D01*
X37741Y155694D01*
X37763Y155781D01*
X37780Y155869D01*
X37793Y155957D01*
X37803Y156046D01*
X37809Y156135D01*
X37811Y156224D01*
X37811Y158270D01*
X37809Y158382D01*
X37803Y158493D01*
X37794Y158605D01*
X37781Y158716D01*
X37763Y158826D01*
X37743Y158936D01*
X37718Y159045D01*
X37690Y159153D01*
X37658Y159260D01*
X37622Y159366D01*
X37583Y159471D01*
X37540Y159574D01*
X37494Y159676D01*
X37444Y159776D01*
X37391Y159875D01*
X37334Y159971D01*
X37275Y160066D01*
X37212Y160158D01*
X37146Y160248D01*
X37077Y160336D01*
X37005Y160422D01*
X36930Y160505D01*
X36852Y160585D01*
X36772Y160663D01*
X36689Y160738D01*
X36603Y160810D01*
X36515Y160879D01*
X36425Y160945D01*
X36333Y161008D01*
X36238Y161067D01*
X36142Y161124D01*
X36043Y161177D01*
X35943Y161227D01*
X35841Y161273D01*
X35738Y161316D01*
X35633Y161355D01*
X35527Y161391D01*
X35420Y161423D01*
X35312Y161451D01*
X35203Y161476D01*
X35093Y161496D01*
X34983Y161514D01*
X34872Y161527D01*
X34760Y161536D01*
X34649Y161542D01*
X34537Y161544D01*
D14*
X82804Y144209D02*
X82804Y130493D01*
D12*
X92266Y138682D02*
X92266Y140319D01*
X92265Y138682D02*
X92267Y138604D01*
X92272Y138526D01*
X92282Y138449D01*
X92295Y138372D01*
X92311Y138296D01*
X92331Y138221D01*
X92355Y138147D01*
X92382Y138074D01*
X92413Y138002D01*
X92447Y137932D01*
X92484Y137864D01*
X92525Y137797D01*
X92569Y137732D01*
X92615Y137670D01*
X92665Y137610D01*
X92717Y137552D01*
X92772Y137497D01*
X92830Y137445D01*
X92890Y137395D01*
X92952Y137349D01*
X93017Y137305D01*
X93084Y137264D01*
X93152Y137227D01*
X93222Y137193D01*
X93294Y137162D01*
X93367Y137135D01*
X93441Y137111D01*
X93516Y137091D01*
X93592Y137075D01*
X93669Y137062D01*
X93746Y137052D01*
X93824Y137047D01*
X93902Y137045D01*
X97995Y137045D01*
X98073Y137047D01*
X98151Y137052D01*
X98228Y137062D01*
X98305Y137075D01*
X98381Y137091D01*
X98456Y137111D01*
X98530Y137135D01*
X98603Y137162D01*
X98675Y137193D01*
X98745Y137227D01*
X98814Y137264D01*
X98880Y137305D01*
X98945Y137349D01*
X99007Y137395D01*
X99067Y137445D01*
X99125Y137497D01*
X99180Y137552D01*
X99232Y137610D01*
X99282Y137670D01*
X99328Y137732D01*
X99372Y137797D01*
X99413Y137864D01*
X99450Y137932D01*
X99484Y138002D01*
X99515Y138074D01*
X99542Y138147D01*
X99566Y138221D01*
X99586Y138296D01*
X99602Y138372D01*
X99615Y138449D01*
X99625Y138526D01*
X99630Y138604D01*
X99632Y138682D01*
X99632Y140319D01*
X99632Y144801D02*
X93902Y143164D01*
X93902Y147257D01*
X92266Y146029D02*
X95539Y146029D01*
D14*
X68517Y144209D02*
X68517Y130493D01*
D12*
X72406Y155766D02*
X74043Y155766D01*
X74043Y155765D02*
X74121Y155767D01*
X74199Y155772D01*
X74276Y155782D01*
X74353Y155795D01*
X74429Y155811D01*
X74504Y155831D01*
X74578Y155855D01*
X74651Y155882D01*
X74723Y155913D01*
X74793Y155947D01*
X74862Y155984D01*
X74928Y156025D01*
X74993Y156069D01*
X75055Y156115D01*
X75115Y156165D01*
X75173Y156217D01*
X75228Y156272D01*
X75280Y156330D01*
X75330Y156390D01*
X75376Y156452D01*
X75420Y156517D01*
X75461Y156584D01*
X75498Y156652D01*
X75532Y156722D01*
X75563Y156794D01*
X75590Y156867D01*
X75614Y156941D01*
X75634Y157016D01*
X75650Y157092D01*
X75663Y157169D01*
X75673Y157246D01*
X75678Y157324D01*
X75680Y157402D01*
X75680Y161495D01*
X75678Y161573D01*
X75673Y161651D01*
X75663Y161728D01*
X75650Y161805D01*
X75634Y161881D01*
X75614Y161956D01*
X75590Y162030D01*
X75563Y162103D01*
X75532Y162175D01*
X75498Y162245D01*
X75461Y162314D01*
X75420Y162380D01*
X75376Y162445D01*
X75330Y162507D01*
X75280Y162567D01*
X75228Y162625D01*
X75173Y162680D01*
X75115Y162732D01*
X75055Y162782D01*
X74993Y162828D01*
X74928Y162872D01*
X74862Y162913D01*
X74793Y162950D01*
X74723Y162984D01*
X74651Y163015D01*
X74578Y163042D01*
X74504Y163066D01*
X74429Y163086D01*
X74353Y163102D01*
X74276Y163115D01*
X74199Y163125D01*
X74121Y163130D01*
X74043Y163132D01*
X72406Y163132D01*
X69561Y161495D02*
X67515Y163132D01*
X67515Y155766D01*
X69561Y155766D02*
X65469Y155766D01*
D15*
X97613Y181125D02*
X115113Y181125D01*
X115113Y168125D02*
X97613Y168125D01*
D12*
X112369Y171806D02*
X112369Y179172D01*
X110323Y179172D01*
X110234Y179170D01*
X110145Y179164D01*
X110056Y179154D01*
X109968Y179141D01*
X109880Y179124D01*
X109793Y179102D01*
X109708Y179077D01*
X109623Y179049D01*
X109540Y179016D01*
X109458Y178980D01*
X109378Y178941D01*
X109300Y178898D01*
X109224Y178852D01*
X109149Y178802D01*
X109077Y178749D01*
X109008Y178693D01*
X108941Y178634D01*
X108876Y178573D01*
X108815Y178508D01*
X108756Y178441D01*
X108700Y178372D01*
X108647Y178300D01*
X108597Y178225D01*
X108551Y178149D01*
X108508Y178071D01*
X108469Y177991D01*
X108433Y177909D01*
X108400Y177826D01*
X108372Y177741D01*
X108347Y177656D01*
X108325Y177569D01*
X108308Y177481D01*
X108295Y177393D01*
X108285Y177304D01*
X108279Y177215D01*
X108277Y177126D01*
X108277Y173852D01*
X108279Y173763D01*
X108285Y173674D01*
X108295Y173585D01*
X108308Y173497D01*
X108325Y173409D01*
X108347Y173322D01*
X108372Y173237D01*
X108400Y173152D01*
X108433Y173069D01*
X108469Y172987D01*
X108508Y172907D01*
X108551Y172829D01*
X108597Y172753D01*
X108647Y172678D01*
X108700Y172606D01*
X108756Y172537D01*
X108815Y172470D01*
X108876Y172405D01*
X108941Y172344D01*
X109008Y172285D01*
X109077Y172229D01*
X109149Y172176D01*
X109224Y172126D01*
X109300Y172080D01*
X109378Y172037D01*
X109458Y171998D01*
X109540Y171962D01*
X109623Y171929D01*
X109708Y171901D01*
X109793Y171876D01*
X109880Y171854D01*
X109968Y171837D01*
X110056Y171824D01*
X110145Y171814D01*
X110234Y171808D01*
X110323Y171806D01*
X112369Y171806D01*
X104810Y171806D02*
X102355Y171806D01*
X102275Y171808D01*
X102195Y171814D01*
X102115Y171824D01*
X102036Y171837D01*
X101957Y171855D01*
X101880Y171876D01*
X101804Y171902D01*
X101729Y171931D01*
X101655Y171963D01*
X101583Y171999D01*
X101513Y172039D01*
X101446Y172082D01*
X101380Y172128D01*
X101317Y172178D01*
X101256Y172230D01*
X101197Y172285D01*
X101142Y172344D01*
X101090Y172404D01*
X101040Y172468D01*
X100994Y172533D01*
X100951Y172601D01*
X100911Y172671D01*
X100875Y172743D01*
X100843Y172817D01*
X100814Y172891D01*
X100789Y172968D01*
X100767Y173045D01*
X100749Y173124D01*
X100736Y173203D01*
X100726Y173282D01*
X100720Y173363D01*
X100718Y173443D01*
X100718Y174261D01*
X100720Y174339D01*
X100725Y174417D01*
X100735Y174494D01*
X100748Y174571D01*
X100764Y174647D01*
X100784Y174722D01*
X100808Y174796D01*
X100835Y174869D01*
X100866Y174941D01*
X100900Y175011D01*
X100937Y175080D01*
X100978Y175146D01*
X101022Y175211D01*
X101068Y175273D01*
X101118Y175333D01*
X101170Y175391D01*
X101225Y175446D01*
X101283Y175498D01*
X101343Y175548D01*
X101405Y175594D01*
X101470Y175638D01*
X101537Y175679D01*
X101605Y175716D01*
X101675Y175750D01*
X101747Y175781D01*
X101820Y175808D01*
X101894Y175832D01*
X101969Y175852D01*
X102045Y175868D01*
X102122Y175881D01*
X102199Y175891D01*
X102277Y175896D01*
X102355Y175898D01*
X104810Y175898D01*
X104810Y179172D01*
X100718Y179172D01*
D16*
X-92393Y180023D02*
X-96203Y176213D01*
X-92393Y172403D01*
D10*
X-89394Y167329D02*
X-89394Y160217D01*
X-89394Y167329D02*
X-91370Y167329D01*
X-91456Y167327D01*
X-91542Y167321D01*
X-91628Y167312D01*
X-91713Y167299D01*
X-91798Y167282D01*
X-91881Y167262D01*
X-91964Y167238D01*
X-92046Y167210D01*
X-92126Y167179D01*
X-92205Y167144D01*
X-92282Y167106D01*
X-92358Y167064D01*
X-92432Y167020D01*
X-92503Y166972D01*
X-92573Y166921D01*
X-92640Y166867D01*
X-92705Y166810D01*
X-92767Y166750D01*
X-92827Y166688D01*
X-92884Y166623D01*
X-92938Y166556D01*
X-92989Y166486D01*
X-93037Y166415D01*
X-93081Y166341D01*
X-93123Y166265D01*
X-93161Y166188D01*
X-93196Y166109D01*
X-93227Y166029D01*
X-93255Y165947D01*
X-93279Y165864D01*
X-93299Y165781D01*
X-93316Y165696D01*
X-93329Y165611D01*
X-93338Y165525D01*
X-93344Y165439D01*
X-93346Y165353D01*
X-93345Y165353D02*
X-93345Y162193D01*
X-93346Y162193D02*
X-93344Y162107D01*
X-93338Y162021D01*
X-93329Y161935D01*
X-93316Y161850D01*
X-93299Y161765D01*
X-93279Y161682D01*
X-93255Y161599D01*
X-93227Y161517D01*
X-93196Y161437D01*
X-93161Y161358D01*
X-93123Y161281D01*
X-93081Y161205D01*
X-93037Y161131D01*
X-92989Y161060D01*
X-92938Y160990D01*
X-92884Y160923D01*
X-92827Y160858D01*
X-92767Y160796D01*
X-92705Y160736D01*
X-92640Y160679D01*
X-92573Y160625D01*
X-92503Y160574D01*
X-92432Y160526D01*
X-92358Y160482D01*
X-92282Y160440D01*
X-92205Y160402D01*
X-92126Y160367D01*
X-92046Y160336D01*
X-91964Y160308D01*
X-91881Y160284D01*
X-91798Y160264D01*
X-91713Y160247D01*
X-91628Y160234D01*
X-91542Y160225D01*
X-91456Y160219D01*
X-91370Y160217D01*
X-89394Y160217D01*
X-96953Y160217D02*
X-98929Y160217D01*
X-99016Y160219D01*
X-99104Y160225D01*
X-99191Y160234D01*
X-99277Y160248D01*
X-99363Y160265D01*
X-99447Y160286D01*
X-99531Y160311D01*
X-99614Y160340D01*
X-99695Y160372D01*
X-99775Y160407D01*
X-99853Y160446D01*
X-99930Y160489D01*
X-100004Y160535D01*
X-100076Y160584D01*
X-100146Y160636D01*
X-100214Y160692D01*
X-100279Y160750D01*
X-100342Y160811D01*
X-100401Y160875D01*
X-100458Y160942D01*
X-100512Y161010D01*
X-100563Y161082D01*
X-100610Y161155D01*
X-100655Y161230D01*
X-100696Y161308D01*
X-100733Y161387D01*
X-100767Y161467D01*
X-100797Y161549D01*
X-100824Y161632D01*
X-100847Y161717D01*
X-100866Y161802D01*
X-100881Y161888D01*
X-100893Y161975D01*
X-100901Y162062D01*
X-100905Y162149D01*
X-100905Y162237D01*
X-100901Y162324D01*
X-100893Y162411D01*
X-100881Y162498D01*
X-100866Y162584D01*
X-100847Y162669D01*
X-100824Y162754D01*
X-100797Y162837D01*
X-100767Y162919D01*
X-100733Y162999D01*
X-100696Y163078D01*
X-100655Y163156D01*
X-100610Y163231D01*
X-100563Y163304D01*
X-100512Y163376D01*
X-100458Y163444D01*
X-100401Y163511D01*
X-100342Y163575D01*
X-100279Y163636D01*
X-100214Y163694D01*
X-100146Y163750D01*
X-100076Y163802D01*
X-100004Y163851D01*
X-99930Y163897D01*
X-99853Y163940D01*
X-99775Y163979D01*
X-99695Y164014D01*
X-99614Y164046D01*
X-99531Y164075D01*
X-99447Y164100D01*
X-99363Y164121D01*
X-99277Y164138D01*
X-99191Y164152D01*
X-99104Y164161D01*
X-99016Y164167D01*
X-98929Y164169D01*
X-99324Y167329D02*
X-96953Y167329D01*
X-99324Y167329D02*
X-99403Y167327D01*
X-99481Y167321D01*
X-99559Y167311D01*
X-99637Y167298D01*
X-99714Y167280D01*
X-99790Y167259D01*
X-99864Y167234D01*
X-99938Y167205D01*
X-100010Y167173D01*
X-100080Y167137D01*
X-100148Y167097D01*
X-100214Y167054D01*
X-100278Y167008D01*
X-100340Y166959D01*
X-100399Y166907D01*
X-100455Y166852D01*
X-100509Y166794D01*
X-100559Y166734D01*
X-100607Y166671D01*
X-100651Y166606D01*
X-100692Y166539D01*
X-100730Y166470D01*
X-100764Y166399D01*
X-100795Y166326D01*
X-100822Y166252D01*
X-100845Y166177D01*
X-100864Y166101D01*
X-100880Y166023D01*
X-100892Y165945D01*
X-100900Y165867D01*
X-100904Y165788D01*
X-100904Y165710D01*
X-100900Y165631D01*
X-100892Y165553D01*
X-100880Y165475D01*
X-100864Y165397D01*
X-100845Y165321D01*
X-100822Y165246D01*
X-100795Y165172D01*
X-100764Y165099D01*
X-100730Y165028D01*
X-100692Y164959D01*
X-100651Y164892D01*
X-100607Y164827D01*
X-100559Y164764D01*
X-100509Y164704D01*
X-100455Y164646D01*
X-100399Y164591D01*
X-100340Y164539D01*
X-100278Y164490D01*
X-100214Y164444D01*
X-100148Y164401D01*
X-100080Y164361D01*
X-100010Y164325D01*
X-99938Y164293D01*
X-99864Y164264D01*
X-99790Y164239D01*
X-99714Y164218D01*
X-99637Y164200D01*
X-99559Y164187D01*
X-99481Y164177D01*
X-99403Y164171D01*
X-99324Y164169D01*
X-99324Y164168D02*
X-97743Y164168D01*
D13*
X-55563Y201613D02*
X-42863Y201613D01*
X-30163Y214313D01*
X-42863Y201613D02*
X-30163Y188913D01*
D12*
X-32881Y180135D02*
X-32881Y176862D01*
X-32881Y180135D02*
X-32883Y180224D01*
X-32889Y180313D01*
X-32899Y180402D01*
X-32912Y180490D01*
X-32929Y180578D01*
X-32951Y180665D01*
X-32976Y180750D01*
X-33004Y180835D01*
X-33037Y180918D01*
X-33073Y181000D01*
X-33112Y181080D01*
X-33155Y181158D01*
X-33201Y181234D01*
X-33251Y181309D01*
X-33304Y181381D01*
X-33360Y181450D01*
X-33419Y181517D01*
X-33480Y181582D01*
X-33545Y181643D01*
X-33612Y181702D01*
X-33681Y181758D01*
X-33753Y181811D01*
X-33828Y181861D01*
X-33904Y181907D01*
X-33982Y181950D01*
X-34062Y181989D01*
X-34144Y182025D01*
X-34227Y182058D01*
X-34312Y182086D01*
X-34397Y182111D01*
X-34484Y182133D01*
X-34572Y182150D01*
X-34660Y182163D01*
X-34749Y182173D01*
X-34838Y182179D01*
X-34927Y182181D01*
X-35016Y182179D01*
X-35105Y182173D01*
X-35194Y182163D01*
X-35282Y182150D01*
X-35370Y182133D01*
X-35457Y182111D01*
X-35542Y182086D01*
X-35627Y182058D01*
X-35710Y182025D01*
X-35792Y181989D01*
X-35872Y181950D01*
X-35950Y181907D01*
X-36026Y181861D01*
X-36101Y181811D01*
X-36173Y181758D01*
X-36242Y181702D01*
X-36309Y181643D01*
X-36374Y181582D01*
X-36435Y181517D01*
X-36494Y181450D01*
X-36550Y181381D01*
X-36603Y181309D01*
X-36653Y181234D01*
X-36699Y181158D01*
X-36742Y181080D01*
X-36781Y181000D01*
X-36817Y180918D01*
X-36850Y180835D01*
X-36878Y180750D01*
X-36903Y180665D01*
X-36925Y180578D01*
X-36942Y180490D01*
X-36955Y180402D01*
X-36965Y180313D01*
X-36971Y180224D01*
X-36973Y180135D01*
X-36974Y180135D02*
X-36974Y176862D01*
X-36973Y176862D02*
X-36971Y176773D01*
X-36965Y176684D01*
X-36955Y176595D01*
X-36942Y176507D01*
X-36925Y176419D01*
X-36903Y176332D01*
X-36878Y176247D01*
X-36850Y176162D01*
X-36817Y176079D01*
X-36781Y175997D01*
X-36742Y175917D01*
X-36699Y175839D01*
X-36653Y175763D01*
X-36603Y175688D01*
X-36550Y175616D01*
X-36494Y175547D01*
X-36435Y175480D01*
X-36374Y175415D01*
X-36309Y175354D01*
X-36242Y175295D01*
X-36173Y175239D01*
X-36101Y175186D01*
X-36026Y175136D01*
X-35950Y175090D01*
X-35872Y175047D01*
X-35792Y175008D01*
X-35710Y174972D01*
X-35627Y174939D01*
X-35542Y174911D01*
X-35457Y174886D01*
X-35370Y174864D01*
X-35282Y174847D01*
X-35194Y174834D01*
X-35105Y174824D01*
X-35016Y174818D01*
X-34927Y174816D01*
X-34838Y174818D01*
X-34749Y174824D01*
X-34660Y174834D01*
X-34572Y174847D01*
X-34484Y174864D01*
X-34397Y174886D01*
X-34312Y174911D01*
X-34227Y174939D01*
X-34144Y174972D01*
X-34062Y175008D01*
X-33982Y175047D01*
X-33904Y175090D01*
X-33828Y175136D01*
X-33753Y175186D01*
X-33681Y175239D01*
X-33612Y175295D01*
X-33545Y175354D01*
X-33480Y175415D01*
X-33419Y175480D01*
X-33360Y175547D01*
X-33304Y175616D01*
X-33251Y175688D01*
X-33201Y175763D01*
X-33155Y175839D01*
X-33112Y175917D01*
X-33073Y175997D01*
X-33037Y176079D01*
X-33004Y176162D01*
X-32976Y176247D01*
X-32951Y176332D01*
X-32929Y176419D01*
X-32912Y176507D01*
X-32899Y176595D01*
X-32889Y176684D01*
X-32883Y176773D01*
X-32881Y176862D01*
X-36155Y176452D02*
X-37792Y174816D01*
X-44070Y180340D02*
X-44068Y180425D01*
X-44062Y180510D01*
X-44052Y180594D01*
X-44039Y180678D01*
X-44021Y180762D01*
X-44000Y180844D01*
X-43975Y180925D01*
X-43946Y181005D01*
X-43913Y181084D01*
X-43877Y181161D01*
X-43837Y181236D01*
X-43794Y181310D01*
X-43748Y181381D01*
X-43698Y181450D01*
X-43645Y181517D01*
X-43589Y181581D01*
X-43530Y181642D01*
X-43469Y181701D01*
X-43405Y181757D01*
X-43338Y181810D01*
X-43269Y181860D01*
X-43198Y181906D01*
X-43124Y181949D01*
X-43049Y181989D01*
X-42972Y182025D01*
X-42893Y182058D01*
X-42813Y182087D01*
X-42732Y182112D01*
X-42650Y182133D01*
X-42566Y182151D01*
X-42482Y182164D01*
X-42398Y182174D01*
X-42313Y182180D01*
X-42228Y182182D01*
X-42132Y182180D01*
X-42036Y182174D01*
X-41941Y182164D01*
X-41846Y182151D01*
X-41751Y182133D01*
X-41658Y182112D01*
X-41565Y182087D01*
X-41474Y182058D01*
X-41383Y182026D01*
X-41294Y181990D01*
X-41207Y181950D01*
X-41121Y181907D01*
X-41037Y181861D01*
X-40955Y181811D01*
X-40875Y181757D01*
X-40798Y181701D01*
X-40723Y181641D01*
X-40650Y181579D01*
X-40580Y181513D01*
X-40512Y181445D01*
X-40447Y181374D01*
X-40386Y181301D01*
X-40327Y181225D01*
X-40271Y181146D01*
X-40219Y181066D01*
X-40170Y180983D01*
X-40124Y180899D01*
X-40082Y180813D01*
X-40044Y180725D01*
X-40009Y180636D01*
X-39977Y180545D01*
X-43455Y178908D02*
X-43515Y178967D01*
X-43572Y179029D01*
X-43627Y179093D01*
X-43678Y179160D01*
X-43727Y179229D01*
X-43773Y179299D01*
X-43816Y179372D01*
X-43856Y179446D01*
X-43892Y179522D01*
X-43925Y179600D01*
X-43955Y179679D01*
X-43982Y179759D01*
X-44005Y179840D01*
X-44024Y179922D01*
X-44040Y180004D01*
X-44053Y180088D01*
X-44062Y180172D01*
X-44067Y180256D01*
X-44069Y180340D01*
X-43455Y178908D02*
X-39977Y174816D01*
X-44069Y174816D01*
D13*
X-90615Y152400D02*
X-96965Y152400D01*
D12*
X-87694Y144272D02*
X-87694Y136906D01*
X-87694Y144272D02*
X-89740Y144272D01*
X-89829Y144270D01*
X-89918Y144264D01*
X-90007Y144254D01*
X-90095Y144241D01*
X-90183Y144224D01*
X-90270Y144202D01*
X-90355Y144177D01*
X-90440Y144149D01*
X-90523Y144116D01*
X-90605Y144080D01*
X-90685Y144041D01*
X-90763Y143998D01*
X-90839Y143952D01*
X-90914Y143902D01*
X-90986Y143849D01*
X-91055Y143793D01*
X-91122Y143734D01*
X-91187Y143673D01*
X-91248Y143608D01*
X-91307Y143541D01*
X-91363Y143472D01*
X-91416Y143400D01*
X-91466Y143325D01*
X-91512Y143249D01*
X-91555Y143171D01*
X-91594Y143091D01*
X-91630Y143009D01*
X-91663Y142926D01*
X-91691Y142841D01*
X-91716Y142756D01*
X-91738Y142669D01*
X-91755Y142581D01*
X-91768Y142493D01*
X-91778Y142404D01*
X-91784Y142315D01*
X-91786Y142226D01*
X-91784Y142137D01*
X-91778Y142048D01*
X-91768Y141959D01*
X-91755Y141871D01*
X-91738Y141783D01*
X-91716Y141696D01*
X-91691Y141611D01*
X-91663Y141526D01*
X-91630Y141443D01*
X-91594Y141361D01*
X-91555Y141281D01*
X-91512Y141203D01*
X-91466Y141127D01*
X-91416Y141052D01*
X-91363Y140980D01*
X-91307Y140911D01*
X-91248Y140844D01*
X-91187Y140779D01*
X-91122Y140718D01*
X-91055Y140659D01*
X-90986Y140603D01*
X-90914Y140550D01*
X-90839Y140500D01*
X-90763Y140454D01*
X-90685Y140411D01*
X-90605Y140372D01*
X-90523Y140336D01*
X-90440Y140303D01*
X-90355Y140275D01*
X-90270Y140250D01*
X-90183Y140228D01*
X-90095Y140211D01*
X-90007Y140198D01*
X-89918Y140188D01*
X-89829Y140182D01*
X-89740Y140180D01*
X-87694Y140180D01*
X-90149Y140180D02*
X-91786Y136906D01*
X-94958Y142635D02*
X-97004Y144272D01*
X-97004Y136906D01*
X-94958Y136906D02*
X-99050Y136906D01*
X-102273Y140589D02*
X-102275Y140742D01*
X-102281Y140895D01*
X-102290Y141047D01*
X-102304Y141200D01*
X-102321Y141352D01*
X-102342Y141503D01*
X-102367Y141654D01*
X-102396Y141804D01*
X-102428Y141954D01*
X-102465Y142102D01*
X-102505Y142250D01*
X-102548Y142397D01*
X-102596Y142542D01*
X-102647Y142686D01*
X-102701Y142829D01*
X-102760Y142971D01*
X-102821Y143110D01*
X-102887Y143249D01*
X-102913Y143319D01*
X-102943Y143389D01*
X-102976Y143456D01*
X-103012Y143522D01*
X-103051Y143586D01*
X-103094Y143648D01*
X-103140Y143707D01*
X-103188Y143765D01*
X-103239Y143819D01*
X-103293Y143872D01*
X-103350Y143921D01*
X-103409Y143968D01*
X-103470Y144011D01*
X-103533Y144052D01*
X-103598Y144089D01*
X-103665Y144124D01*
X-103734Y144154D01*
X-103804Y144182D01*
X-103875Y144205D01*
X-103947Y144226D01*
X-104020Y144242D01*
X-104094Y144255D01*
X-104169Y144265D01*
X-104244Y144270D01*
X-104319Y144272D01*
X-104394Y144270D01*
X-104469Y144265D01*
X-104544Y144255D01*
X-104618Y144242D01*
X-104691Y144226D01*
X-104763Y144205D01*
X-104834Y144182D01*
X-104904Y144154D01*
X-104973Y144124D01*
X-105040Y144089D01*
X-105105Y144052D01*
X-105168Y144011D01*
X-105229Y143968D01*
X-105288Y143921D01*
X-105345Y143872D01*
X-105399Y143819D01*
X-105450Y143765D01*
X-105499Y143707D01*
X-105544Y143648D01*
X-105587Y143586D01*
X-105626Y143522D01*
X-105663Y143456D01*
X-105695Y143388D01*
X-105725Y143319D01*
X-105751Y143249D01*
X-105816Y143111D01*
X-105878Y142971D01*
X-105936Y142829D01*
X-105991Y142686D01*
X-106042Y142542D01*
X-106090Y142397D01*
X-106133Y142250D01*
X-106173Y142103D01*
X-106210Y141954D01*
X-106242Y141804D01*
X-106271Y141654D01*
X-106296Y141503D01*
X-106317Y141352D01*
X-106334Y141200D01*
X-106348Y141047D01*
X-106357Y140895D01*
X-106363Y140742D01*
X-106365Y140589D01*
X-102272Y140589D02*
X-102274Y140436D01*
X-102280Y140283D01*
X-102289Y140130D01*
X-102303Y139978D01*
X-102320Y139826D01*
X-102341Y139675D01*
X-102366Y139524D01*
X-102395Y139373D01*
X-102427Y139224D01*
X-102464Y139075D01*
X-102504Y138928D01*
X-102547Y138781D01*
X-102595Y138636D01*
X-102646Y138491D01*
X-102701Y138349D01*
X-102759Y138207D01*
X-102821Y138067D01*
X-102886Y137929D01*
X-102887Y137929D02*
X-102913Y137858D01*
X-102943Y137789D01*
X-102976Y137722D01*
X-103012Y137656D01*
X-103051Y137592D01*
X-103094Y137530D01*
X-103140Y137471D01*
X-103188Y137413D01*
X-103239Y137359D01*
X-103293Y137306D01*
X-103350Y137257D01*
X-103409Y137210D01*
X-103470Y137167D01*
X-103533Y137126D01*
X-103598Y137089D01*
X-103665Y137054D01*
X-103734Y137024D01*
X-103804Y136996D01*
X-103875Y136973D01*
X-103947Y136952D01*
X-104020Y136936D01*
X-104094Y136923D01*
X-104169Y136913D01*
X-104244Y136908D01*
X-104319Y136906D01*
X-105751Y137929D02*
X-105816Y138067D01*
X-105878Y138207D01*
X-105936Y138349D01*
X-105991Y138492D01*
X-106042Y138636D01*
X-106090Y138781D01*
X-106133Y138928D01*
X-106173Y139076D01*
X-106210Y139224D01*
X-106242Y139374D01*
X-106271Y139524D01*
X-106296Y139675D01*
X-106317Y139826D01*
X-106334Y139978D01*
X-106348Y140131D01*
X-106357Y140283D01*
X-106363Y140436D01*
X-106365Y140589D01*
X-105751Y137929D02*
X-105725Y137859D01*
X-105695Y137789D01*
X-105663Y137722D01*
X-105626Y137656D01*
X-105587Y137592D01*
X-105544Y137530D01*
X-105498Y137471D01*
X-105450Y137413D01*
X-105399Y137359D01*
X-105345Y137306D01*
X-105288Y137257D01*
X-105229Y137210D01*
X-105168Y137167D01*
X-105105Y137126D01*
X-105040Y137089D01*
X-104973Y137054D01*
X-104904Y137024D01*
X-104834Y136996D01*
X-104763Y136973D01*
X-104691Y136952D01*
X-104618Y136936D01*
X-104544Y136923D01*
X-104469Y136913D01*
X-104394Y136908D01*
X-104319Y136906D01*
X-102682Y138543D02*
X-105956Y142635D01*
D13*
X-65215Y152400D02*
X-58611Y152400D01*
D12*
X-59307Y135128D02*
X-60944Y135128D01*
X-59307Y135128D02*
X-59229Y135130D01*
X-59151Y135135D01*
X-59074Y135145D01*
X-58997Y135158D01*
X-58921Y135174D01*
X-58846Y135194D01*
X-58772Y135218D01*
X-58699Y135245D01*
X-58627Y135276D01*
X-58557Y135310D01*
X-58488Y135347D01*
X-58422Y135388D01*
X-58357Y135432D01*
X-58295Y135478D01*
X-58235Y135528D01*
X-58177Y135580D01*
X-58122Y135635D01*
X-58070Y135693D01*
X-58020Y135753D01*
X-57974Y135815D01*
X-57930Y135880D01*
X-57889Y135947D01*
X-57852Y136015D01*
X-57818Y136085D01*
X-57787Y136157D01*
X-57760Y136230D01*
X-57736Y136304D01*
X-57716Y136379D01*
X-57700Y136455D01*
X-57687Y136532D01*
X-57677Y136609D01*
X-57672Y136687D01*
X-57670Y136765D01*
X-57670Y140857D01*
X-57672Y140937D01*
X-57678Y141017D01*
X-57688Y141097D01*
X-57701Y141176D01*
X-57719Y141255D01*
X-57740Y141332D01*
X-57766Y141408D01*
X-57795Y141483D01*
X-57827Y141557D01*
X-57863Y141629D01*
X-57903Y141699D01*
X-57946Y141766D01*
X-57992Y141832D01*
X-58042Y141895D01*
X-58094Y141956D01*
X-58149Y142015D01*
X-58208Y142070D01*
X-58268Y142122D01*
X-58332Y142172D01*
X-58398Y142218D01*
X-58465Y142261D01*
X-58535Y142301D01*
X-58607Y142337D01*
X-58681Y142369D01*
X-58755Y142398D01*
X-58832Y142424D01*
X-58909Y142445D01*
X-58988Y142463D01*
X-59067Y142476D01*
X-59147Y142486D01*
X-59227Y142492D01*
X-59307Y142494D01*
X-60944Y142494D01*
X-63789Y137174D02*
X-63791Y137263D01*
X-63797Y137352D01*
X-63807Y137441D01*
X-63820Y137529D01*
X-63837Y137617D01*
X-63859Y137704D01*
X-63884Y137789D01*
X-63912Y137874D01*
X-63945Y137957D01*
X-63981Y138039D01*
X-64020Y138119D01*
X-64063Y138197D01*
X-64109Y138273D01*
X-64159Y138348D01*
X-64212Y138420D01*
X-64268Y138489D01*
X-64327Y138556D01*
X-64388Y138621D01*
X-64453Y138682D01*
X-64520Y138741D01*
X-64589Y138797D01*
X-64661Y138850D01*
X-64736Y138900D01*
X-64812Y138946D01*
X-64890Y138989D01*
X-64970Y139028D01*
X-65052Y139064D01*
X-65135Y139097D01*
X-65220Y139125D01*
X-65305Y139150D01*
X-65392Y139172D01*
X-65480Y139189D01*
X-65568Y139202D01*
X-65657Y139212D01*
X-65746Y139218D01*
X-65835Y139220D01*
X-65924Y139218D01*
X-66013Y139212D01*
X-66102Y139202D01*
X-66190Y139189D01*
X-66278Y139172D01*
X-66365Y139150D01*
X-66450Y139125D01*
X-66535Y139097D01*
X-66618Y139064D01*
X-66700Y139028D01*
X-66780Y138989D01*
X-66858Y138946D01*
X-66934Y138900D01*
X-67009Y138850D01*
X-67081Y138797D01*
X-67150Y138741D01*
X-67217Y138682D01*
X-67282Y138621D01*
X-67343Y138556D01*
X-67402Y138489D01*
X-67458Y138420D01*
X-67511Y138348D01*
X-67561Y138273D01*
X-67607Y138197D01*
X-67650Y138119D01*
X-67689Y138039D01*
X-67725Y137957D01*
X-67758Y137874D01*
X-67786Y137789D01*
X-67811Y137704D01*
X-67833Y137617D01*
X-67850Y137529D01*
X-67863Y137441D01*
X-67873Y137352D01*
X-67879Y137263D01*
X-67881Y137174D01*
X-67879Y137085D01*
X-67873Y136996D01*
X-67863Y136907D01*
X-67850Y136819D01*
X-67833Y136731D01*
X-67811Y136644D01*
X-67786Y136559D01*
X-67758Y136474D01*
X-67725Y136391D01*
X-67689Y136309D01*
X-67650Y136229D01*
X-67607Y136151D01*
X-67561Y136075D01*
X-67511Y136000D01*
X-67458Y135928D01*
X-67402Y135859D01*
X-67343Y135792D01*
X-67282Y135727D01*
X-67217Y135666D01*
X-67150Y135607D01*
X-67081Y135551D01*
X-67009Y135498D01*
X-66934Y135448D01*
X-66858Y135402D01*
X-66780Y135359D01*
X-66700Y135320D01*
X-66618Y135284D01*
X-66535Y135251D01*
X-66450Y135223D01*
X-66365Y135198D01*
X-66278Y135176D01*
X-66190Y135159D01*
X-66102Y135146D01*
X-66013Y135136D01*
X-65924Y135130D01*
X-65835Y135128D01*
X-65746Y135130D01*
X-65657Y135136D01*
X-65568Y135146D01*
X-65480Y135159D01*
X-65392Y135176D01*
X-65305Y135198D01*
X-65220Y135223D01*
X-65135Y135251D01*
X-65052Y135284D01*
X-64970Y135320D01*
X-64890Y135359D01*
X-64812Y135402D01*
X-64736Y135448D01*
X-64661Y135498D01*
X-64589Y135551D01*
X-64520Y135607D01*
X-64453Y135666D01*
X-64388Y135727D01*
X-64327Y135792D01*
X-64268Y135859D01*
X-64212Y135928D01*
X-64159Y136000D01*
X-64109Y136075D01*
X-64063Y136151D01*
X-64020Y136229D01*
X-63981Y136309D01*
X-63945Y136391D01*
X-63912Y136474D01*
X-63884Y136559D01*
X-63859Y136644D01*
X-63837Y136731D01*
X-63820Y136819D01*
X-63807Y136907D01*
X-63797Y136996D01*
X-63791Y137085D01*
X-63789Y137174D01*
X-64198Y140857D02*
X-64200Y140936D01*
X-64206Y141015D01*
X-64215Y141094D01*
X-64228Y141172D01*
X-64246Y141249D01*
X-64266Y141325D01*
X-64291Y141400D01*
X-64319Y141474D01*
X-64350Y141547D01*
X-64386Y141618D01*
X-64424Y141687D01*
X-64466Y141754D01*
X-64511Y141819D01*
X-64559Y141882D01*
X-64610Y141943D01*
X-64664Y142000D01*
X-64720Y142056D01*
X-64779Y142108D01*
X-64841Y142158D01*
X-64905Y142204D01*
X-64971Y142248D01*
X-65039Y142288D01*
X-65109Y142324D01*
X-65181Y142358D01*
X-65255Y142388D01*
X-65329Y142414D01*
X-65405Y142437D01*
X-65482Y142455D01*
X-65559Y142471D01*
X-65638Y142482D01*
X-65716Y142490D01*
X-65795Y142494D01*
X-65875Y142494D01*
X-65954Y142490D01*
X-66032Y142482D01*
X-66111Y142471D01*
X-66188Y142455D01*
X-66265Y142437D01*
X-66341Y142414D01*
X-66415Y142388D01*
X-66489Y142358D01*
X-66561Y142324D01*
X-66631Y142288D01*
X-66699Y142248D01*
X-66765Y142204D01*
X-66829Y142158D01*
X-66891Y142108D01*
X-66950Y142056D01*
X-67006Y142000D01*
X-67060Y141943D01*
X-67111Y141882D01*
X-67159Y141819D01*
X-67204Y141754D01*
X-67246Y141687D01*
X-67284Y141618D01*
X-67320Y141547D01*
X-67351Y141474D01*
X-67379Y141400D01*
X-67404Y141325D01*
X-67424Y141249D01*
X-67442Y141172D01*
X-67455Y141094D01*
X-67464Y141015D01*
X-67470Y140936D01*
X-67472Y140857D01*
X-67470Y140778D01*
X-67464Y140699D01*
X-67455Y140620D01*
X-67442Y140542D01*
X-67424Y140465D01*
X-67404Y140389D01*
X-67379Y140314D01*
X-67351Y140240D01*
X-67320Y140167D01*
X-67284Y140096D01*
X-67246Y140027D01*
X-67204Y139960D01*
X-67159Y139895D01*
X-67111Y139832D01*
X-67060Y139771D01*
X-67006Y139714D01*
X-66950Y139658D01*
X-66891Y139606D01*
X-66829Y139556D01*
X-66765Y139510D01*
X-66699Y139466D01*
X-66631Y139426D01*
X-66561Y139390D01*
X-66489Y139356D01*
X-66415Y139326D01*
X-66341Y139300D01*
X-66265Y139277D01*
X-66188Y139259D01*
X-66111Y139243D01*
X-66032Y139232D01*
X-65954Y139224D01*
X-65875Y139220D01*
X-65795Y139220D01*
X-65716Y139224D01*
X-65638Y139232D01*
X-65559Y139243D01*
X-65482Y139259D01*
X-65405Y139277D01*
X-65329Y139300D01*
X-65255Y139326D01*
X-65181Y139356D01*
X-65109Y139390D01*
X-65039Y139426D01*
X-64971Y139466D01*
X-64905Y139510D01*
X-64841Y139556D01*
X-64779Y139606D01*
X-64720Y139658D01*
X-64664Y139714D01*
X-64610Y139771D01*
X-64559Y139832D01*
X-64511Y139895D01*
X-64466Y139960D01*
X-64424Y140027D01*
X-64386Y140096D01*
X-64350Y140167D01*
X-64319Y140240D01*
X-64291Y140314D01*
X-64266Y140389D01*
X-64246Y140465D01*
X-64228Y140542D01*
X-64215Y140620D01*
X-64206Y140699D01*
X-64200Y140778D01*
X-64198Y140857D01*
D13*
X-19050Y198311D02*
X-19050Y204661D01*
D12*
X-16256Y172413D02*
X-23622Y172413D01*
X-16256Y172413D02*
X-16256Y174459D01*
X-16258Y174548D01*
X-16264Y174637D01*
X-16274Y174726D01*
X-16287Y174814D01*
X-16304Y174902D01*
X-16326Y174989D01*
X-16351Y175074D01*
X-16379Y175159D01*
X-16412Y175242D01*
X-16448Y175324D01*
X-16487Y175404D01*
X-16530Y175482D01*
X-16576Y175558D01*
X-16626Y175633D01*
X-16679Y175705D01*
X-16735Y175774D01*
X-16794Y175841D01*
X-16855Y175906D01*
X-16920Y175967D01*
X-16987Y176026D01*
X-17056Y176082D01*
X-17128Y176135D01*
X-17203Y176185D01*
X-17279Y176231D01*
X-17357Y176274D01*
X-17437Y176313D01*
X-17519Y176349D01*
X-17602Y176382D01*
X-17687Y176410D01*
X-17772Y176435D01*
X-17859Y176457D01*
X-17947Y176474D01*
X-18035Y176487D01*
X-18124Y176497D01*
X-18213Y176503D01*
X-18302Y176505D01*
X-18391Y176503D01*
X-18480Y176497D01*
X-18569Y176487D01*
X-18657Y176474D01*
X-18745Y176457D01*
X-18832Y176435D01*
X-18917Y176410D01*
X-19002Y176382D01*
X-19085Y176349D01*
X-19167Y176313D01*
X-19247Y176274D01*
X-19325Y176231D01*
X-19401Y176185D01*
X-19476Y176135D01*
X-19548Y176082D01*
X-19617Y176026D01*
X-19684Y175967D01*
X-19749Y175906D01*
X-19810Y175841D01*
X-19869Y175774D01*
X-19925Y175705D01*
X-19978Y175633D01*
X-20028Y175558D01*
X-20074Y175482D01*
X-20117Y175404D01*
X-20156Y175324D01*
X-20192Y175242D01*
X-20225Y175159D01*
X-20253Y175074D01*
X-20278Y174989D01*
X-20300Y174902D01*
X-20317Y174814D01*
X-20330Y174726D01*
X-20340Y174637D01*
X-20346Y174548D01*
X-20348Y174459D01*
X-20348Y172413D01*
X-20348Y174868D02*
X-23622Y176505D01*
X-21576Y179677D02*
X-21487Y179679D01*
X-21398Y179685D01*
X-21309Y179695D01*
X-21221Y179708D01*
X-21133Y179725D01*
X-21046Y179747D01*
X-20961Y179772D01*
X-20876Y179800D01*
X-20793Y179833D01*
X-20711Y179869D01*
X-20631Y179908D01*
X-20553Y179951D01*
X-20477Y179997D01*
X-20402Y180047D01*
X-20330Y180100D01*
X-20261Y180156D01*
X-20194Y180215D01*
X-20129Y180276D01*
X-20068Y180341D01*
X-20009Y180408D01*
X-19953Y180477D01*
X-19900Y180549D01*
X-19850Y180624D01*
X-19804Y180700D01*
X-19761Y180778D01*
X-19722Y180858D01*
X-19686Y180940D01*
X-19653Y181023D01*
X-19625Y181108D01*
X-19600Y181193D01*
X-19578Y181280D01*
X-19561Y181368D01*
X-19548Y181456D01*
X-19538Y181545D01*
X-19532Y181634D01*
X-19530Y181723D01*
X-19532Y181812D01*
X-19538Y181901D01*
X-19548Y181990D01*
X-19561Y182078D01*
X-19578Y182166D01*
X-19600Y182253D01*
X-19625Y182338D01*
X-19653Y182423D01*
X-19686Y182506D01*
X-19722Y182588D01*
X-19761Y182668D01*
X-19804Y182746D01*
X-19850Y182822D01*
X-19900Y182897D01*
X-19953Y182969D01*
X-20009Y183038D01*
X-20068Y183105D01*
X-20129Y183170D01*
X-20194Y183231D01*
X-20261Y183290D01*
X-20330Y183346D01*
X-20402Y183399D01*
X-20477Y183449D01*
X-20553Y183495D01*
X-20631Y183538D01*
X-20711Y183577D01*
X-20793Y183613D01*
X-20876Y183646D01*
X-20961Y183674D01*
X-21046Y183699D01*
X-21133Y183721D01*
X-21221Y183738D01*
X-21309Y183751D01*
X-21398Y183761D01*
X-21487Y183767D01*
X-21576Y183769D01*
X-21665Y183767D01*
X-21754Y183761D01*
X-21843Y183751D01*
X-21931Y183738D01*
X-22019Y183721D01*
X-22106Y183699D01*
X-22191Y183674D01*
X-22276Y183646D01*
X-22359Y183613D01*
X-22441Y183577D01*
X-22521Y183538D01*
X-22599Y183495D01*
X-22675Y183449D01*
X-22750Y183399D01*
X-22822Y183346D01*
X-22891Y183290D01*
X-22958Y183231D01*
X-23023Y183170D01*
X-23084Y183105D01*
X-23143Y183038D01*
X-23199Y182969D01*
X-23252Y182897D01*
X-23302Y182822D01*
X-23348Y182746D01*
X-23391Y182668D01*
X-23430Y182588D01*
X-23466Y182506D01*
X-23499Y182423D01*
X-23527Y182338D01*
X-23552Y182253D01*
X-23574Y182166D01*
X-23591Y182078D01*
X-23604Y181990D01*
X-23614Y181901D01*
X-23620Y181812D01*
X-23622Y181723D01*
X-23620Y181634D01*
X-23614Y181545D01*
X-23604Y181456D01*
X-23591Y181368D01*
X-23574Y181280D01*
X-23552Y181193D01*
X-23527Y181108D01*
X-23499Y181023D01*
X-23466Y180940D01*
X-23430Y180858D01*
X-23391Y180778D01*
X-23348Y180700D01*
X-23302Y180624D01*
X-23252Y180549D01*
X-23199Y180477D01*
X-23143Y180408D01*
X-23084Y180341D01*
X-23023Y180276D01*
X-22958Y180215D01*
X-22891Y180156D01*
X-22822Y180100D01*
X-22750Y180047D01*
X-22675Y179997D01*
X-22599Y179951D01*
X-22521Y179908D01*
X-22441Y179869D01*
X-22359Y179833D01*
X-22276Y179800D01*
X-22191Y179772D01*
X-22106Y179747D01*
X-22019Y179725D01*
X-21931Y179708D01*
X-21843Y179695D01*
X-21754Y179685D01*
X-21665Y179679D01*
X-21576Y179677D01*
X-17893Y180086D02*
X-17814Y180088D01*
X-17735Y180094D01*
X-17656Y180103D01*
X-17578Y180116D01*
X-17501Y180134D01*
X-17425Y180154D01*
X-17350Y180179D01*
X-17276Y180207D01*
X-17203Y180238D01*
X-17132Y180274D01*
X-17063Y180312D01*
X-16996Y180354D01*
X-16931Y180399D01*
X-16868Y180447D01*
X-16807Y180498D01*
X-16750Y180552D01*
X-16694Y180608D01*
X-16642Y180667D01*
X-16592Y180729D01*
X-16546Y180793D01*
X-16502Y180859D01*
X-16462Y180927D01*
X-16426Y180997D01*
X-16392Y181069D01*
X-16362Y181143D01*
X-16336Y181217D01*
X-16313Y181293D01*
X-16295Y181370D01*
X-16279Y181447D01*
X-16268Y181526D01*
X-16260Y181604D01*
X-16256Y181683D01*
X-16256Y181763D01*
X-16260Y181842D01*
X-16268Y181920D01*
X-16279Y181999D01*
X-16295Y182076D01*
X-16313Y182153D01*
X-16336Y182229D01*
X-16362Y182303D01*
X-16392Y182377D01*
X-16426Y182449D01*
X-16462Y182519D01*
X-16502Y182587D01*
X-16546Y182653D01*
X-16592Y182717D01*
X-16642Y182779D01*
X-16694Y182838D01*
X-16750Y182894D01*
X-16807Y182948D01*
X-16868Y182999D01*
X-16931Y183047D01*
X-16996Y183092D01*
X-17063Y183134D01*
X-17132Y183172D01*
X-17203Y183208D01*
X-17276Y183239D01*
X-17350Y183267D01*
X-17425Y183292D01*
X-17501Y183312D01*
X-17578Y183330D01*
X-17656Y183343D01*
X-17735Y183352D01*
X-17814Y183358D01*
X-17893Y183360D01*
X-17972Y183358D01*
X-18051Y183352D01*
X-18130Y183343D01*
X-18208Y183330D01*
X-18285Y183312D01*
X-18361Y183292D01*
X-18436Y183267D01*
X-18510Y183239D01*
X-18583Y183208D01*
X-18654Y183172D01*
X-18723Y183134D01*
X-18790Y183092D01*
X-18855Y183047D01*
X-18918Y182999D01*
X-18979Y182948D01*
X-19036Y182894D01*
X-19092Y182838D01*
X-19144Y182779D01*
X-19194Y182717D01*
X-19240Y182653D01*
X-19284Y182587D01*
X-19324Y182519D01*
X-19360Y182449D01*
X-19394Y182377D01*
X-19424Y182303D01*
X-19450Y182229D01*
X-19473Y182153D01*
X-19491Y182076D01*
X-19507Y181999D01*
X-19518Y181920D01*
X-19526Y181842D01*
X-19530Y181763D01*
X-19530Y181683D01*
X-19526Y181604D01*
X-19518Y181526D01*
X-19507Y181447D01*
X-19491Y181370D01*
X-19473Y181293D01*
X-19450Y181217D01*
X-19424Y181143D01*
X-19394Y181069D01*
X-19360Y180997D01*
X-19324Y180927D01*
X-19284Y180859D01*
X-19240Y180793D01*
X-19194Y180729D01*
X-19144Y180667D01*
X-19092Y180608D01*
X-19036Y180552D01*
X-18979Y180498D01*
X-18918Y180447D01*
X-18855Y180399D01*
X-18790Y180354D01*
X-18723Y180312D01*
X-18654Y180274D01*
X-18583Y180238D01*
X-18510Y180207D01*
X-18436Y180179D01*
X-18361Y180154D01*
X-18285Y180134D01*
X-18208Y180116D01*
X-18130Y180103D01*
X-18051Y180094D01*
X-17972Y180088D01*
X-17893Y180086D01*
M02*
