G04 EAGLE Gerber RS-274X export*
G75*
%MOMM*%
%FSLAX34Y34*%
%LPD*%
%INSolderpaste Bottom*%
%IPPOS*%
%AMOC8*
5,1,8,0,0,1.08239X$1,22.5*%
G01*
%ADD10R,1.100000X1.000000*%
%ADD11R,1.000000X1.100000*%
%ADD12R,1.399997X0.400000*%
%ADD13R,0.550000X0.254000*%
%ADD14R,0.254000X0.550000*%
%ADD15R,1.500000X1.300000*%
%ADD16R,0.800000X0.500000*%
%ADD17C,0.200000*%
%ADD18R,1.400000X1.000000*%

G36*
X-19985Y132574D02*
X-19985Y132574D01*
X-19982Y132573D01*
X-19939Y132593D01*
X-19896Y132611D01*
X-19895Y132613D01*
X-19893Y132614D01*
X-19860Y132699D01*
X-19860Y144923D01*
X-19861Y144925D01*
X-19860Y144927D01*
X-19880Y144970D01*
X-19899Y145014D01*
X-19901Y145014D01*
X-19902Y145016D01*
X-19987Y145049D01*
X-32211Y145049D01*
X-32213Y145048D01*
X-32215Y145049D01*
X-32258Y145029D01*
X-32301Y145011D01*
X-32302Y145009D01*
X-32304Y145008D01*
X-32337Y144923D01*
X-32337Y132699D01*
X-32336Y132697D01*
X-32337Y132695D01*
X-32317Y132652D01*
X-32298Y132608D01*
X-32296Y132608D01*
X-32295Y132606D01*
X-32211Y132573D01*
X-19987Y132573D01*
X-19985Y132574D01*
G37*
G36*
X8464Y132574D02*
X8464Y132574D01*
X8466Y132573D01*
X8509Y132593D01*
X8552Y132611D01*
X8553Y132613D01*
X8555Y132614D01*
X8588Y132699D01*
X8588Y144923D01*
X8587Y144925D01*
X8588Y144927D01*
X8568Y144970D01*
X8549Y145014D01*
X8547Y145014D01*
X8546Y145016D01*
X8462Y145049D01*
X-3763Y145049D01*
X-3765Y145048D01*
X-3767Y145049D01*
X-3810Y145029D01*
X-3853Y145011D01*
X-3854Y145009D01*
X-3856Y145008D01*
X-3889Y144923D01*
X-3889Y132699D01*
X-3888Y132697D01*
X-3889Y132695D01*
X-3869Y132652D01*
X-3850Y132608D01*
X-3848Y132608D01*
X-3847Y132606D01*
X-3763Y132573D01*
X8462Y132573D01*
X8464Y132574D01*
G37*
G36*
X-5761Y132574D02*
X-5761Y132574D01*
X-5758Y132573D01*
X-5715Y132593D01*
X-5672Y132611D01*
X-5671Y132613D01*
X-5669Y132614D01*
X-5636Y132699D01*
X-5636Y144923D01*
X-5637Y144925D01*
X-5636Y144927D01*
X-5656Y144970D01*
X-5675Y145014D01*
X-5677Y145014D01*
X-5678Y145016D01*
X-5763Y145049D01*
X-17987Y145049D01*
X-17989Y145048D01*
X-17991Y145049D01*
X-18034Y145029D01*
X-18077Y145011D01*
X-18078Y145009D01*
X-18080Y145008D01*
X-18113Y144923D01*
X-18113Y132699D01*
X-18112Y132697D01*
X-18113Y132695D01*
X-18093Y132652D01*
X-18074Y132608D01*
X-18072Y132608D01*
X-18071Y132606D01*
X-17987Y132573D01*
X-5763Y132573D01*
X-5761Y132574D01*
G37*
G36*
X22688Y132574D02*
X22688Y132574D01*
X22690Y132573D01*
X22733Y132593D01*
X22776Y132611D01*
X22777Y132613D01*
X22779Y132614D01*
X22812Y132699D01*
X22812Y144923D01*
X22811Y144925D01*
X22812Y144927D01*
X22792Y144970D01*
X22773Y145014D01*
X22771Y145014D01*
X22770Y145016D01*
X22686Y145049D01*
X10462Y145049D01*
X10460Y145048D01*
X10457Y145049D01*
X10414Y145029D01*
X10371Y145011D01*
X10370Y145009D01*
X10368Y145008D01*
X10335Y144923D01*
X10335Y132699D01*
X10336Y132697D01*
X10335Y132695D01*
X10355Y132652D01*
X10374Y132608D01*
X10376Y132608D01*
X10377Y132606D01*
X10462Y132573D01*
X22686Y132573D01*
X22688Y132574D01*
G37*
G36*
X8464Y118350D02*
X8464Y118350D01*
X8466Y118349D01*
X8509Y118369D01*
X8552Y118387D01*
X8553Y118389D01*
X8555Y118390D01*
X8588Y118475D01*
X8588Y130699D01*
X8587Y130701D01*
X8588Y130703D01*
X8568Y130746D01*
X8549Y130790D01*
X8547Y130790D01*
X8546Y130792D01*
X8462Y130825D01*
X-3763Y130825D01*
X-3765Y130824D01*
X-3767Y130825D01*
X-3810Y130805D01*
X-3853Y130787D01*
X-3854Y130785D01*
X-3856Y130784D01*
X-3889Y130699D01*
X-3889Y118475D01*
X-3888Y118473D01*
X-3889Y118471D01*
X-3869Y118428D01*
X-3850Y118384D01*
X-3848Y118384D01*
X-3847Y118382D01*
X-3763Y118349D01*
X8462Y118349D01*
X8464Y118350D01*
G37*
G36*
X-19985Y118350D02*
X-19985Y118350D01*
X-19982Y118349D01*
X-19939Y118369D01*
X-19896Y118387D01*
X-19895Y118389D01*
X-19893Y118390D01*
X-19860Y118475D01*
X-19860Y130699D01*
X-19861Y130701D01*
X-19860Y130703D01*
X-19880Y130746D01*
X-19899Y130790D01*
X-19901Y130790D01*
X-19902Y130792D01*
X-19987Y130825D01*
X-32211Y130825D01*
X-32213Y130824D01*
X-32215Y130825D01*
X-32258Y130805D01*
X-32301Y130787D01*
X-32302Y130785D01*
X-32304Y130784D01*
X-32337Y130699D01*
X-32337Y118475D01*
X-32336Y118473D01*
X-32337Y118471D01*
X-32317Y118428D01*
X-32298Y118384D01*
X-32296Y118384D01*
X-32295Y118382D01*
X-32211Y118349D01*
X-19987Y118349D01*
X-19985Y118350D01*
G37*
G36*
X-5761Y118350D02*
X-5761Y118350D01*
X-5758Y118349D01*
X-5715Y118369D01*
X-5672Y118387D01*
X-5671Y118389D01*
X-5669Y118390D01*
X-5636Y118475D01*
X-5636Y130699D01*
X-5637Y130701D01*
X-5636Y130703D01*
X-5656Y130746D01*
X-5675Y130790D01*
X-5677Y130790D01*
X-5678Y130792D01*
X-5763Y130825D01*
X-17987Y130825D01*
X-17989Y130824D01*
X-17991Y130825D01*
X-18034Y130805D01*
X-18077Y130787D01*
X-18078Y130785D01*
X-18080Y130784D01*
X-18113Y130699D01*
X-18113Y118475D01*
X-18112Y118473D01*
X-18113Y118471D01*
X-18093Y118428D01*
X-18074Y118384D01*
X-18072Y118384D01*
X-18071Y118382D01*
X-17987Y118349D01*
X-5763Y118349D01*
X-5761Y118350D01*
G37*
G36*
X22688Y118350D02*
X22688Y118350D01*
X22690Y118349D01*
X22733Y118369D01*
X22776Y118387D01*
X22777Y118389D01*
X22779Y118390D01*
X22812Y118475D01*
X22812Y130699D01*
X22811Y130701D01*
X22812Y130703D01*
X22792Y130746D01*
X22773Y130790D01*
X22771Y130790D01*
X22770Y130792D01*
X22686Y130825D01*
X10462Y130825D01*
X10460Y130824D01*
X10457Y130825D01*
X10414Y130805D01*
X10371Y130787D01*
X10370Y130785D01*
X10368Y130784D01*
X10335Y130699D01*
X10335Y118475D01*
X10336Y118473D01*
X10335Y118471D01*
X10355Y118428D01*
X10374Y118384D01*
X10376Y118384D01*
X10377Y118382D01*
X10462Y118349D01*
X22686Y118349D01*
X22688Y118350D01*
G37*
G36*
X-19985Y104126D02*
X-19985Y104126D01*
X-19982Y104125D01*
X-19939Y104145D01*
X-19896Y104163D01*
X-19895Y104165D01*
X-19893Y104166D01*
X-19860Y104251D01*
X-19860Y116475D01*
X-19861Y116477D01*
X-19860Y116479D01*
X-19880Y116522D01*
X-19899Y116566D01*
X-19901Y116566D01*
X-19902Y116568D01*
X-19987Y116601D01*
X-32211Y116601D01*
X-32213Y116600D01*
X-32215Y116601D01*
X-32258Y116581D01*
X-32301Y116563D01*
X-32302Y116561D01*
X-32304Y116560D01*
X-32337Y116475D01*
X-32337Y104251D01*
X-32336Y104249D01*
X-32337Y104247D01*
X-32317Y104204D01*
X-32298Y104160D01*
X-32296Y104160D01*
X-32295Y104158D01*
X-32211Y104125D01*
X-19987Y104125D01*
X-19985Y104126D01*
G37*
G36*
X8464Y104126D02*
X8464Y104126D01*
X8466Y104125D01*
X8509Y104145D01*
X8552Y104163D01*
X8553Y104165D01*
X8555Y104166D01*
X8588Y104251D01*
X8588Y116475D01*
X8587Y116477D01*
X8588Y116479D01*
X8568Y116522D01*
X8549Y116566D01*
X8547Y116566D01*
X8546Y116568D01*
X8462Y116601D01*
X-3763Y116601D01*
X-3765Y116600D01*
X-3767Y116601D01*
X-3810Y116581D01*
X-3853Y116563D01*
X-3854Y116561D01*
X-3856Y116560D01*
X-3889Y116475D01*
X-3889Y104251D01*
X-3888Y104249D01*
X-3889Y104247D01*
X-3869Y104204D01*
X-3850Y104160D01*
X-3848Y104160D01*
X-3847Y104158D01*
X-3763Y104125D01*
X8462Y104125D01*
X8464Y104126D01*
G37*
G36*
X-5761Y104126D02*
X-5761Y104126D01*
X-5758Y104125D01*
X-5715Y104145D01*
X-5672Y104163D01*
X-5671Y104165D01*
X-5669Y104166D01*
X-5636Y104251D01*
X-5636Y116475D01*
X-5637Y116477D01*
X-5636Y116479D01*
X-5656Y116522D01*
X-5675Y116566D01*
X-5677Y116566D01*
X-5678Y116568D01*
X-5763Y116601D01*
X-17987Y116601D01*
X-17989Y116600D01*
X-17991Y116601D01*
X-18034Y116581D01*
X-18077Y116563D01*
X-18078Y116561D01*
X-18080Y116560D01*
X-18113Y116475D01*
X-18113Y104251D01*
X-18112Y104249D01*
X-18113Y104247D01*
X-18093Y104204D01*
X-18074Y104160D01*
X-18072Y104160D01*
X-18071Y104158D01*
X-17987Y104125D01*
X-5763Y104125D01*
X-5761Y104126D01*
G37*
G36*
X22688Y104126D02*
X22688Y104126D01*
X22690Y104125D01*
X22733Y104145D01*
X22776Y104163D01*
X22777Y104165D01*
X22779Y104166D01*
X22812Y104251D01*
X22812Y116475D01*
X22811Y116477D01*
X22812Y116479D01*
X22792Y116522D01*
X22773Y116566D01*
X22771Y116566D01*
X22770Y116568D01*
X22686Y116601D01*
X10462Y116601D01*
X10460Y116600D01*
X10457Y116601D01*
X10414Y116581D01*
X10371Y116563D01*
X10370Y116561D01*
X10368Y116560D01*
X10335Y116475D01*
X10335Y104251D01*
X10336Y104249D01*
X10335Y104247D01*
X10355Y104204D01*
X10374Y104160D01*
X10376Y104160D01*
X10377Y104158D01*
X10462Y104125D01*
X22686Y104125D01*
X22688Y104126D01*
G37*
G36*
X-5761Y89902D02*
X-5761Y89902D01*
X-5758Y89901D01*
X-5715Y89921D01*
X-5672Y89939D01*
X-5671Y89941D01*
X-5669Y89942D01*
X-5636Y90027D01*
X-5636Y102251D01*
X-5637Y102253D01*
X-5636Y102255D01*
X-5656Y102298D01*
X-5675Y102342D01*
X-5677Y102342D01*
X-5678Y102344D01*
X-5763Y102377D01*
X-17987Y102377D01*
X-17989Y102376D01*
X-17991Y102377D01*
X-18034Y102357D01*
X-18077Y102339D01*
X-18078Y102337D01*
X-18080Y102336D01*
X-18113Y102251D01*
X-18113Y90027D01*
X-18112Y90025D01*
X-18113Y90023D01*
X-18093Y89980D01*
X-18074Y89936D01*
X-18072Y89936D01*
X-18071Y89934D01*
X-17987Y89901D01*
X-5763Y89901D01*
X-5761Y89902D01*
G37*
G36*
X8464Y89902D02*
X8464Y89902D01*
X8466Y89901D01*
X8509Y89921D01*
X8552Y89939D01*
X8553Y89941D01*
X8555Y89942D01*
X8588Y90027D01*
X8588Y102251D01*
X8587Y102253D01*
X8588Y102255D01*
X8568Y102298D01*
X8549Y102342D01*
X8547Y102342D01*
X8546Y102344D01*
X8462Y102377D01*
X-3763Y102377D01*
X-3765Y102376D01*
X-3767Y102377D01*
X-3810Y102357D01*
X-3853Y102339D01*
X-3854Y102337D01*
X-3856Y102336D01*
X-3889Y102251D01*
X-3889Y90027D01*
X-3888Y90025D01*
X-3889Y90023D01*
X-3869Y89980D01*
X-3850Y89936D01*
X-3848Y89936D01*
X-3847Y89934D01*
X-3763Y89901D01*
X8462Y89901D01*
X8464Y89902D01*
G37*
G36*
X22688Y89902D02*
X22688Y89902D01*
X22690Y89901D01*
X22733Y89921D01*
X22776Y89939D01*
X22777Y89941D01*
X22779Y89942D01*
X22812Y90027D01*
X22812Y102251D01*
X22811Y102253D01*
X22812Y102255D01*
X22792Y102298D01*
X22773Y102342D01*
X22771Y102342D01*
X22770Y102344D01*
X22686Y102377D01*
X10462Y102377D01*
X10460Y102376D01*
X10457Y102377D01*
X10414Y102357D01*
X10371Y102339D01*
X10370Y102337D01*
X10368Y102336D01*
X10335Y102251D01*
X10335Y90027D01*
X10336Y90025D01*
X10335Y90023D01*
X10355Y89980D01*
X10374Y89936D01*
X10376Y89936D01*
X10377Y89934D01*
X10462Y89901D01*
X22686Y89901D01*
X22688Y89902D01*
G37*
G36*
X-19985Y89902D02*
X-19985Y89902D01*
X-19982Y89901D01*
X-19939Y89921D01*
X-19896Y89939D01*
X-19895Y89941D01*
X-19893Y89942D01*
X-19860Y90027D01*
X-19860Y102251D01*
X-19861Y102253D01*
X-19860Y102255D01*
X-19880Y102298D01*
X-19899Y102342D01*
X-19901Y102342D01*
X-19902Y102344D01*
X-19987Y102377D01*
X-32211Y102377D01*
X-32213Y102376D01*
X-32215Y102377D01*
X-32258Y102357D01*
X-32301Y102339D01*
X-32302Y102337D01*
X-32304Y102336D01*
X-32337Y102251D01*
X-32337Y90027D01*
X-32336Y90025D01*
X-32337Y90023D01*
X-32317Y89980D01*
X-32298Y89936D01*
X-32296Y89936D01*
X-32295Y89934D01*
X-32211Y89901D01*
X-19987Y89901D01*
X-19985Y89902D01*
G37*
D10*
X-3175Y193113D03*
X-3175Y210113D03*
X-92075Y194700D03*
X-92075Y211700D03*
X85725Y158188D03*
X85725Y175188D03*
D11*
X111688Y128588D03*
X94688Y128588D03*
D12*
X49213Y92775D03*
X49213Y104775D03*
X49213Y116775D03*
D13*
X29038Y144982D03*
X29038Y139981D03*
X29038Y134979D03*
X29038Y129978D03*
X29038Y124977D03*
X29038Y119976D03*
X29038Y114974D03*
X29038Y109973D03*
X29038Y104972D03*
X29038Y99971D03*
X29038Y94969D03*
X29038Y89968D03*
D14*
X22745Y83675D03*
X17744Y83675D03*
X12742Y83675D03*
X7741Y83675D03*
X2740Y83675D03*
X-2262Y83675D03*
X-7264Y83675D03*
X-12265Y83675D03*
X-17266Y83675D03*
X-22267Y83675D03*
X-27269Y83675D03*
X-32270Y83675D03*
D13*
X-38563Y89968D03*
X-38563Y94969D03*
X-38563Y99971D03*
X-38563Y104972D03*
X-38563Y109973D03*
X-38563Y114974D03*
X-38563Y119976D03*
X-38563Y124977D03*
X-38563Y129978D03*
X-38563Y134979D03*
X-38563Y139981D03*
X-38563Y144982D03*
D14*
X-32270Y151275D03*
X-27269Y151275D03*
X-22267Y151275D03*
X-17266Y151275D03*
X-12265Y151275D03*
X-7264Y151275D03*
X-2262Y151275D03*
X2740Y151275D03*
X7741Y151275D03*
X12742Y151275D03*
X17744Y151275D03*
X22745Y151275D03*
D11*
X-152963Y152400D03*
X-135963Y152400D03*
X57713Y25400D03*
X40713Y25400D03*
X71438Y91513D03*
X71438Y108513D03*
X57150Y146613D03*
X57150Y129613D03*
X47625Y146613D03*
X47625Y129613D03*
D15*
X82550Y147613D03*
X82550Y128613D03*
X68263Y147613D03*
X68263Y128613D03*
D16*
X117363Y174625D03*
X95363Y174625D03*
D17*
X-77663Y179213D02*
X-85663Y179213D01*
X-77663Y179213D02*
X-77663Y173213D01*
X-85663Y173213D01*
X-85663Y179213D01*
X-85663Y175113D02*
X-77663Y175113D01*
X-77663Y177013D02*
X-85663Y177013D01*
X-85663Y178913D02*
X-77663Y178913D01*
X-101663Y179213D02*
X-109663Y179213D01*
X-101663Y179213D02*
X-101663Y173213D01*
X-109663Y173213D01*
X-109663Y179213D01*
X-109663Y175113D02*
X-101663Y175113D01*
X-101663Y177013D02*
X-109663Y177013D01*
X-109663Y178913D02*
X-101663Y178913D01*
D18*
X-53863Y201613D03*
X-31863Y192113D03*
X-31863Y211113D03*
D11*
X-85163Y152400D03*
X-102163Y152400D03*
D10*
X-70413Y152400D03*
X-53413Y152400D03*
X-19050Y210113D03*
X-19050Y193113D03*
M02*
