M48
;GenerationSoftware,Autodesk,EAGLE,9.2.2*%
;CreationDate,2019-05-31T16:11:26Z*%
FMAT,2
ICI,OFF
METRIC,TZ,000.000
T3C0.350
T2C1.500
T1C1.600
%
G90
M71
T1
X39726Y44685
X34646Y44685
X29566Y44685
T2
X26321Y32289
X28321Y26289
X40521Y26289
X40521Y38289
X28321Y38289
T3
X21006Y32067
X35686Y29064
X23520Y32017
X39484Y23228
X31369Y30734
X25590Y29362
X46266Y31686
X28219Y42062
X35642Y25029
X29464Y40513
X38989Y32766
X48133Y38608
X25146Y27638
X23472Y39343
X25502Y36439
X44831Y44450
X42926Y42926
X42926Y45212
X47437Y36183
X44032Y27601
X37249Y21746
X25273Y42977
X26543Y45212
X29959Y25984
M30