G04 EAGLE Gerber RS-274X export*
G75*
%MOMM*%
%FSLAX34Y34*%
%LPD*%
%INTop Copper*%
%IPPOS*%
%AMOC8*
5,1,8,0,0,1.08239X$1,22.5*%
G01*
%ADD10R,0.800000X0.800000*%
%ADD11R,1.100000X1.000000*%
%ADD12C,0.499997*%
%ADD13C,1.000000*%
%ADD14C,2.250000*%
%ADD15R,2.400000X2.400000*%
%ADD16C,2.400000*%
%ADD17C,0.304800*%
%ADD18C,0.756400*%
%ADD19C,0.406400*%
%ADD20C,1.016000*%
%ADD21C,2.540000*%

G36*
X278630Y195708D02*
X278630Y195708D01*
X278658Y195706D01*
X278726Y195728D01*
X278797Y195742D01*
X278820Y195758D01*
X278847Y195767D01*
X278902Y195814D01*
X278961Y195855D01*
X278976Y195879D01*
X278998Y195897D01*
X279029Y195962D01*
X279068Y196022D01*
X279073Y196050D01*
X279085Y196076D01*
X279094Y196177D01*
X279101Y196219D01*
X279099Y196229D01*
X279100Y196242D01*
X279043Y196957D01*
X316758Y196957D01*
X316842Y196974D01*
X316928Y196986D01*
X316940Y196994D01*
X316954Y196996D01*
X317026Y197045D01*
X317100Y197090D01*
X317108Y197101D01*
X317120Y197109D01*
X317167Y197181D01*
X317218Y197252D01*
X317222Y197266D01*
X317229Y197277D01*
X317239Y197332D01*
X317263Y197426D01*
X317422Y199547D01*
X317413Y199617D01*
X317413Y199687D01*
X317401Y199718D01*
X317397Y199746D01*
X317372Y199790D01*
X317346Y199854D01*
X317343Y199859D01*
X317487Y200492D01*
X317488Y200526D01*
X317499Y200567D01*
X317547Y201214D01*
X317551Y201217D01*
X317595Y201273D01*
X317644Y201323D01*
X317657Y201353D01*
X317674Y201375D01*
X317688Y201425D01*
X317715Y201489D01*
X318242Y203799D01*
X318244Y203869D01*
X318254Y203939D01*
X318247Y203971D01*
X318247Y203999D01*
X318229Y204047D01*
X318213Y204114D01*
X318210Y204119D01*
X318447Y204723D01*
X318454Y204758D01*
X318470Y204796D01*
X318614Y205429D01*
X318619Y205431D01*
X318670Y205480D01*
X318727Y205522D01*
X318744Y205550D01*
X318764Y205570D01*
X318785Y205617D01*
X318821Y205676D01*
X319687Y207881D01*
X319699Y207951D01*
X319719Y208018D01*
X319717Y208051D01*
X319722Y208078D01*
X319710Y208129D01*
X319704Y208198D01*
X319703Y208203D01*
X320027Y208765D01*
X320039Y208798D01*
X320060Y208833D01*
X320297Y209437D01*
X320303Y209439D01*
X320360Y209480D01*
X320423Y209513D01*
X320444Y209538D01*
X320467Y209554D01*
X320494Y209598D01*
X320539Y209651D01*
X321724Y211702D01*
X321746Y211769D01*
X321776Y211833D01*
X321779Y211866D01*
X321787Y211892D01*
X321784Y211944D01*
X321788Y212013D01*
X321788Y212018D01*
X322192Y212526D01*
X322208Y212557D01*
X322235Y212588D01*
X322559Y213150D01*
X322565Y213152D01*
X322628Y213183D01*
X322694Y213207D01*
X322719Y213228D01*
X322744Y213241D01*
X322778Y213280D01*
X322830Y213325D01*
X324307Y215178D01*
X324339Y215240D01*
X324379Y215299D01*
X324386Y215331D01*
X324399Y215356D01*
X324403Y215407D01*
X324417Y215475D01*
X324418Y215480D01*
X324893Y215922D01*
X324914Y215950D01*
X324945Y215977D01*
X325349Y216485D01*
X325355Y216485D01*
X325422Y216507D01*
X325491Y216520D01*
X325519Y216538D01*
X325546Y216547D01*
X325585Y216580D01*
X325643Y216618D01*
X327380Y218229D01*
X327421Y218286D01*
X327469Y218338D01*
X327481Y218369D01*
X327497Y218392D01*
X327509Y218442D01*
X327533Y218507D01*
X327534Y218512D01*
X328070Y218877D01*
X328095Y218902D01*
X328130Y218925D01*
X328605Y219366D01*
X328611Y219366D01*
X328680Y219377D01*
X328751Y219380D01*
X328781Y219394D01*
X328809Y219398D01*
X328852Y219425D01*
X328916Y219454D01*
X330873Y220788D01*
X330922Y220839D01*
X330977Y220883D01*
X330994Y220912D01*
X331013Y220932D01*
X331032Y220980D01*
X331066Y221040D01*
X331068Y221045D01*
X331653Y221327D01*
X331680Y221348D01*
X331718Y221365D01*
X332254Y221730D01*
X332260Y221729D01*
X332330Y221730D01*
X332401Y221722D01*
X332432Y221731D01*
X332460Y221731D01*
X332508Y221752D01*
X332574Y221770D01*
X334709Y222798D01*
X334765Y222841D01*
X334826Y222876D01*
X334846Y222902D01*
X334868Y222919D01*
X334894Y222964D01*
X334937Y223018D01*
X334940Y223023D01*
X335560Y223214D01*
X335590Y223231D01*
X335630Y223242D01*
X336215Y223524D01*
X336220Y223522D01*
X336290Y223512D01*
X336358Y223494D01*
X336391Y223498D01*
X336419Y223494D01*
X336468Y223508D01*
X336537Y223516D01*
X338801Y224214D01*
X338863Y224248D01*
X338929Y224274D01*
X338952Y224297D01*
X338977Y224310D01*
X339009Y224350D01*
X339060Y224398D01*
X339063Y224402D01*
X339704Y224499D01*
X339737Y224511D01*
X339778Y224516D01*
X340399Y224707D01*
X340403Y224704D01*
X340471Y224684D01*
X340536Y224657D01*
X340569Y224656D01*
X340596Y224648D01*
X340647Y224653D01*
X340716Y224651D01*
X343059Y225004D01*
X343125Y225029D01*
X343194Y225045D01*
X343221Y225063D01*
X343247Y225073D01*
X343285Y225108D01*
X343342Y225147D01*
X343346Y225151D01*
X343995Y225151D01*
X344029Y225158D01*
X344070Y225157D01*
X344712Y225254D01*
X344716Y225250D01*
X344780Y225221D01*
X344840Y225183D01*
X344872Y225177D01*
X344898Y225166D01*
X344949Y225164D01*
X345017Y225151D01*
X347387Y225151D01*
X347456Y225165D01*
X347526Y225171D01*
X347556Y225185D01*
X347583Y225191D01*
X347626Y225220D01*
X347688Y225250D01*
X347692Y225254D01*
X348334Y225157D01*
X348369Y225159D01*
X348409Y225151D01*
X349058Y225151D01*
X349062Y225147D01*
X349121Y225108D01*
X349175Y225062D01*
X349206Y225052D01*
X349229Y225036D01*
X349280Y225027D01*
X349345Y225004D01*
X351688Y224651D01*
X351758Y224655D01*
X351829Y224650D01*
X351860Y224660D01*
X351888Y224661D01*
X351935Y224684D01*
X352001Y224704D01*
X352005Y224707D01*
X352626Y224516D01*
X352660Y224512D01*
X352700Y224499D01*
X353341Y224402D01*
X353344Y224398D01*
X353397Y224350D01*
X353443Y224297D01*
X353472Y224282D01*
X353493Y224263D01*
X353542Y224246D01*
X353603Y224214D01*
X355867Y223516D01*
X355937Y223509D01*
X356006Y223494D01*
X356038Y223499D01*
X356066Y223496D01*
X356116Y223511D01*
X356184Y223522D01*
X356189Y223524D01*
X356774Y223242D01*
X356807Y223234D01*
X356844Y223214D01*
X357464Y223023D01*
X357467Y223018D01*
X357512Y222964D01*
X357550Y222904D01*
X357576Y222885D01*
X357594Y222863D01*
X357639Y222839D01*
X357695Y222798D01*
X359830Y221770D01*
X359898Y221753D01*
X359964Y221727D01*
X359997Y221728D01*
X360024Y221721D01*
X360075Y221728D01*
X360144Y221729D01*
X360150Y221730D01*
X360686Y221365D01*
X360718Y221351D01*
X360751Y221327D01*
X361336Y221045D01*
X361338Y221040D01*
X361374Y220979D01*
X361403Y220915D01*
X361426Y220892D01*
X361440Y220867D01*
X361482Y220837D01*
X361531Y220788D01*
X363488Y219454D01*
X363553Y219426D01*
X363615Y219391D01*
X363647Y219387D01*
X363673Y219376D01*
X363724Y219376D01*
X363793Y219366D01*
X363799Y219366D01*
X364274Y218925D01*
X364301Y218909D01*
X364302Y218906D01*
X364308Y218903D01*
X364334Y218877D01*
X364870Y218512D01*
X364871Y218507D01*
X364897Y218441D01*
X364916Y218373D01*
X364936Y218347D01*
X364946Y218321D01*
X364983Y218284D01*
X365024Y218229D01*
X366328Y217019D01*
X366408Y216970D01*
X366486Y216920D01*
X366493Y216918D01*
X366499Y216915D01*
X366592Y216900D01*
X366683Y216884D01*
X366690Y216885D01*
X366697Y216884D01*
X366788Y216907D01*
X366879Y216927D01*
X366885Y216932D01*
X366892Y216933D01*
X366966Y216989D01*
X367042Y217043D01*
X367046Y217049D01*
X367052Y217054D01*
X367099Y217134D01*
X367148Y217214D01*
X367150Y217221D01*
X367153Y217227D01*
X367159Y217274D01*
X367180Y217391D01*
X367180Y219653D01*
X370289Y222762D01*
X374685Y222762D01*
X377794Y219653D01*
X377794Y215257D01*
X374685Y212148D01*
X371702Y212148D01*
X371694Y212147D01*
X371686Y212148D01*
X371597Y212127D01*
X371505Y212109D01*
X371499Y212104D01*
X371491Y212102D01*
X371343Y212000D01*
X371090Y211746D01*
X371067Y211713D01*
X371038Y211686D01*
X371012Y211630D01*
X370979Y211579D01*
X370971Y211540D01*
X370954Y211504D01*
X370952Y211442D01*
X370941Y211382D01*
X370949Y211343D01*
X370948Y211303D01*
X370972Y211237D01*
X370983Y211186D01*
X370998Y211164D01*
X371009Y211134D01*
X371865Y209651D01*
X371912Y209598D01*
X371952Y209540D01*
X371979Y209521D01*
X371998Y209500D01*
X372044Y209478D01*
X372101Y209439D01*
X372107Y209437D01*
X372344Y208833D01*
X372362Y208804D01*
X372377Y208765D01*
X372701Y208203D01*
X372700Y208198D01*
X372695Y208127D01*
X372682Y208058D01*
X372689Y208026D01*
X372687Y207998D01*
X372704Y207949D01*
X372717Y207881D01*
X373583Y205676D01*
X373621Y205616D01*
X373652Y205553D01*
X373676Y205531D01*
X373691Y205507D01*
X373734Y205478D01*
X373785Y205431D01*
X373790Y205429D01*
X373934Y204796D01*
X373948Y204764D01*
X373957Y204723D01*
X374194Y204119D01*
X374191Y204114D01*
X374177Y204045D01*
X374154Y203979D01*
X374155Y203946D01*
X374149Y203918D01*
X374159Y203868D01*
X374162Y203799D01*
X374689Y201489D01*
X374718Y201425D01*
X374739Y201357D01*
X374760Y201332D01*
X374771Y201306D01*
X374809Y201271D01*
X374853Y201217D01*
X374857Y201214D01*
X374905Y200567D01*
X374915Y200533D01*
X374917Y200492D01*
X375061Y199859D01*
X375058Y199854D01*
X375033Y199789D01*
X375000Y199726D01*
X374997Y199693D01*
X374987Y199667D01*
X374989Y199616D01*
X374982Y199547D01*
X375141Y197426D01*
X375164Y197343D01*
X375183Y197258D01*
X375191Y197247D01*
X375195Y197233D01*
X375249Y197165D01*
X375299Y197095D01*
X375311Y197087D01*
X375320Y197076D01*
X375395Y197035D01*
X375469Y196989D01*
X375484Y196986D01*
X375495Y196980D01*
X375551Y196974D01*
X375647Y196957D01*
X413361Y196957D01*
X413304Y196242D01*
X413308Y196213D01*
X413303Y196185D01*
X413320Y196116D01*
X413328Y196044D01*
X413343Y196020D01*
X413349Y195992D01*
X413392Y195934D01*
X413428Y195872D01*
X413450Y195855D01*
X413467Y195832D01*
X413529Y195795D01*
X413586Y195752D01*
X413614Y195745D01*
X413638Y195730D01*
X413738Y195714D01*
X413779Y195703D01*
X413789Y195705D01*
X413802Y195703D01*
X432802Y195703D01*
X432878Y195718D01*
X432956Y195727D01*
X432975Y195738D01*
X432997Y195742D01*
X433061Y195786D01*
X433129Y195825D01*
X433145Y195844D01*
X433161Y195855D01*
X433185Y195893D01*
X433235Y195953D01*
X442735Y212453D01*
X442744Y212480D01*
X442760Y212504D01*
X442775Y212574D01*
X442798Y212642D01*
X442795Y212670D01*
X442801Y212698D01*
X442788Y212769D01*
X442782Y212840D01*
X442769Y212865D01*
X442763Y212893D01*
X442723Y212953D01*
X442690Y213016D01*
X442668Y213034D01*
X442652Y213058D01*
X442569Y213116D01*
X442537Y213143D01*
X442526Y213146D01*
X442516Y213153D01*
X441888Y213450D01*
X460719Y246067D01*
X460747Y246149D01*
X460779Y246230D01*
X460779Y246243D01*
X460783Y246257D01*
X460777Y246343D01*
X460775Y246430D01*
X460769Y246443D01*
X460768Y246457D01*
X460729Y246534D01*
X460694Y246613D01*
X460683Y246624D01*
X460677Y246635D01*
X460635Y246671D01*
X460565Y246740D01*
X458814Y247933D01*
X458749Y247960D01*
X458687Y247995D01*
X458655Y248000D01*
X458629Y248011D01*
X458577Y248011D01*
X458509Y248021D01*
X458503Y248020D01*
X458028Y248462D01*
X457998Y248480D01*
X457968Y248509D01*
X457432Y248874D01*
X457431Y248880D01*
X457404Y248945D01*
X457386Y249013D01*
X457366Y249039D01*
X457356Y249065D01*
X457319Y249102D01*
X457278Y249157D01*
X455539Y250770D01*
X455479Y250806D01*
X455423Y250850D01*
X455392Y250860D01*
X455368Y250874D01*
X455317Y250882D01*
X455250Y250902D01*
X455245Y250902D01*
X454840Y251410D01*
X454814Y251432D01*
X454789Y251465D01*
X454313Y251906D01*
X454313Y251912D01*
X454296Y251980D01*
X454288Y252051D01*
X454272Y252079D01*
X454266Y252107D01*
X454235Y252148D01*
X454202Y252209D01*
X452723Y254063D01*
X452669Y254108D01*
X452621Y254159D01*
X452591Y254173D01*
X452570Y254191D01*
X452520Y254207D01*
X452458Y254236D01*
X452452Y254238D01*
X452128Y254800D01*
X452105Y254826D01*
X452085Y254862D01*
X451680Y255369D01*
X451681Y255375D01*
X451675Y255445D01*
X451677Y255516D01*
X451666Y255547D01*
X451664Y255575D01*
X451640Y255620D01*
X451616Y255685D01*
X450430Y257739D01*
X450383Y257792D01*
X450343Y257850D01*
X450316Y257868D01*
X450297Y257889D01*
X450251Y257911D01*
X450193Y257950D01*
X450188Y257952D01*
X449951Y258556D01*
X449932Y258585D01*
X449918Y258624D01*
X449593Y259186D01*
X449595Y259191D01*
X449599Y259262D01*
X449612Y259331D01*
X449606Y259363D01*
X449607Y259391D01*
X449590Y259440D01*
X449577Y259508D01*
X448710Y261715D01*
X448672Y261774D01*
X448641Y261838D01*
X448616Y261860D01*
X448601Y261884D01*
X448559Y261913D01*
X448507Y261959D01*
X448503Y261962D01*
X448358Y262595D01*
X448344Y262626D01*
X448336Y262667D01*
X448099Y263271D01*
X448101Y263276D01*
X448116Y263345D01*
X448139Y263412D01*
X448137Y263445D01*
X448143Y263472D01*
X448133Y263523D01*
X448130Y263592D01*
X447602Y265904D01*
X447573Y265968D01*
X447552Y266035D01*
X447531Y266061D01*
X447519Y266086D01*
X447482Y266121D01*
X447438Y266175D01*
X447434Y266179D01*
X447385Y266826D01*
X447376Y266859D01*
X447374Y266901D01*
X447229Y267533D01*
X447232Y267538D01*
X447257Y267604D01*
X447290Y267667D01*
X447293Y267699D01*
X447303Y267726D01*
X447301Y267777D01*
X447308Y267846D01*
X447131Y270211D01*
X447111Y270278D01*
X447101Y270348D01*
X447084Y270377D01*
X447076Y270404D01*
X447044Y270444D01*
X447009Y270504D01*
X447005Y270508D01*
X447054Y271155D01*
X447049Y271189D01*
X447054Y271231D01*
X447005Y271878D01*
X447009Y271882D01*
X447043Y271943D01*
X447085Y272000D01*
X447093Y272032D01*
X447107Y272057D01*
X447113Y272108D01*
X447130Y272175D01*
X447148Y272420D01*
X447145Y272445D01*
X447150Y272469D01*
X447133Y272543D01*
X447123Y272619D01*
X447111Y272640D01*
X447106Y272664D01*
X447062Y272727D01*
X447023Y272793D01*
X447004Y272808D01*
X446990Y272828D01*
X446925Y272868D01*
X446864Y272915D01*
X446840Y272921D01*
X446820Y272933D01*
X446724Y272951D01*
X446670Y272965D01*
X446657Y272963D01*
X446642Y272965D01*
X444990Y272965D01*
X444983Y272964D01*
X444975Y272965D01*
X444885Y272944D01*
X444794Y272926D01*
X444787Y272921D01*
X444780Y272920D01*
X444632Y272817D01*
X442522Y270707D01*
X438126Y270707D01*
X435018Y273816D01*
X435018Y278212D01*
X438126Y281321D01*
X442522Y281321D01*
X444632Y279211D01*
X444638Y279207D01*
X444643Y279201D01*
X444722Y279152D01*
X444799Y279101D01*
X444806Y279099D01*
X444813Y279095D01*
X444990Y279063D01*
X447727Y279063D01*
X447738Y279065D01*
X447750Y279063D01*
X447836Y279085D01*
X447924Y279103D01*
X447933Y279109D01*
X447944Y279112D01*
X448016Y279165D01*
X448089Y279215D01*
X448096Y279225D01*
X448105Y279232D01*
X448192Y279373D01*
X448199Y279383D01*
X448199Y279384D01*
X448199Y279385D01*
X448330Y279719D01*
X448336Y279753D01*
X448353Y279791D01*
X448497Y280424D01*
X448502Y280427D01*
X448553Y280476D01*
X448609Y280518D01*
X448626Y280546D01*
X448647Y280565D01*
X448667Y280612D01*
X448704Y280671D01*
X449569Y282879D01*
X449582Y282949D01*
X449602Y283016D01*
X449599Y283049D01*
X449604Y283076D01*
X449593Y283127D01*
X449587Y283196D01*
X449586Y283201D01*
X449910Y283763D01*
X449921Y283796D01*
X449943Y283831D01*
X450180Y284435D01*
X450185Y284438D01*
X450243Y284478D01*
X450305Y284511D01*
X450326Y284536D01*
X450349Y284553D01*
X450376Y284596D01*
X450421Y284649D01*
X451606Y286703D01*
X451629Y286770D01*
X451659Y286834D01*
X451661Y286866D01*
X451670Y286893D01*
X451666Y286944D01*
X451671Y287014D01*
X451670Y287019D01*
X452075Y287526D01*
X452091Y287557D01*
X452117Y287589D01*
X452442Y288151D01*
X452447Y288153D01*
X452510Y288184D01*
X452577Y288208D01*
X452601Y288229D01*
X452626Y288242D01*
X452660Y288281D01*
X452712Y288326D01*
X454190Y290181D01*
X454222Y290244D01*
X454262Y290302D01*
X454269Y290334D01*
X454282Y290359D01*
X454286Y290411D01*
X454300Y290478D01*
X454300Y290484D01*
X454776Y290925D01*
X454789Y290943D01*
X454800Y290950D01*
X454809Y290965D01*
X454828Y290981D01*
X455232Y291488D01*
X455237Y291489D01*
X455305Y291510D01*
X455374Y291524D01*
X455402Y291542D01*
X455428Y291550D01*
X455467Y291584D01*
X455526Y291621D01*
X457263Y293235D01*
X457305Y293292D01*
X457352Y293344D01*
X457364Y293375D01*
X457380Y293397D01*
X457392Y293448D01*
X457417Y293512D01*
X457418Y293518D01*
X457954Y293883D01*
X457978Y293908D01*
X458013Y293931D01*
X458489Y294372D01*
X458494Y294372D01*
X458564Y294383D01*
X458634Y294386D01*
X458664Y294400D01*
X458692Y294404D01*
X458736Y294432D01*
X458799Y294460D01*
X460758Y295796D01*
X460807Y295847D01*
X460862Y295891D01*
X460878Y295920D01*
X460898Y295940D01*
X460917Y295988D01*
X460951Y296048D01*
X460952Y296053D01*
X461537Y296335D01*
X461565Y296356D01*
X461603Y296373D01*
X462139Y296739D01*
X462144Y296738D01*
X462215Y296738D01*
X462285Y296731D01*
X462316Y296740D01*
X462344Y296740D01*
X462392Y296761D01*
X462458Y296779D01*
X464595Y297809D01*
X464651Y297851D01*
X464712Y297887D01*
X464732Y297913D01*
X464754Y297930D01*
X464780Y297974D01*
X464823Y298029D01*
X464826Y298034D01*
X465446Y298225D01*
X465476Y298242D01*
X465516Y298253D01*
X466101Y298534D01*
X466106Y298533D01*
X466176Y298523D01*
X466244Y298505D01*
X466277Y298509D01*
X466304Y298505D01*
X466354Y298518D01*
X466423Y298527D01*
X468689Y299226D01*
X468751Y299260D01*
X468816Y299286D01*
X468840Y299309D01*
X468865Y299322D01*
X468897Y299363D01*
X468947Y299410D01*
X468950Y299415D01*
X469592Y299511D01*
X469625Y299523D01*
X469666Y299528D01*
X470286Y299720D01*
X470291Y299717D01*
X470359Y299697D01*
X470423Y299669D01*
X470456Y299668D01*
X470483Y299660D01*
X470534Y299666D01*
X470604Y299664D01*
X472948Y300018D01*
X473015Y300043D01*
X473083Y300059D01*
X473110Y300077D01*
X473137Y300087D01*
X473175Y300122D01*
X473231Y300161D01*
X473235Y300165D01*
X473884Y300165D01*
X473918Y300172D01*
X473960Y300171D01*
X474601Y300268D01*
X474606Y300265D01*
X474670Y300235D01*
X474730Y300198D01*
X474762Y300192D01*
X474787Y300180D01*
X474839Y300178D01*
X474907Y300166D01*
X477278Y300167D01*
X477348Y300181D01*
X477418Y300186D01*
X477447Y300201D01*
X477475Y300206D01*
X477518Y300235D01*
X477580Y300266D01*
X477584Y300269D01*
X478226Y300173D01*
X478260Y300174D01*
X478301Y300167D01*
X478950Y300167D01*
X478954Y300163D01*
X479013Y300124D01*
X479067Y300078D01*
X479098Y300068D01*
X479121Y300052D01*
X479172Y300043D01*
X479237Y300020D01*
X481582Y299668D01*
X481653Y299671D01*
X481723Y299666D01*
X481754Y299676D01*
X481782Y299678D01*
X481829Y299700D01*
X481895Y299721D01*
X481900Y299724D01*
X482520Y299532D01*
X482554Y299529D01*
X482594Y299516D01*
X483235Y299419D01*
X483239Y299415D01*
X483291Y299367D01*
X483337Y299314D01*
X483366Y299299D01*
X483387Y299280D01*
X483436Y299263D01*
X483497Y299231D01*
X485764Y298533D01*
X485834Y298526D01*
X485903Y298511D01*
X485935Y298516D01*
X485963Y298513D01*
X486012Y298528D01*
X486081Y298539D01*
X486086Y298541D01*
X486671Y298259D01*
X486704Y298251D01*
X486741Y298232D01*
X487361Y298041D01*
X487364Y298036D01*
X487409Y297981D01*
X487446Y297922D01*
X487473Y297902D01*
X487491Y297881D01*
X487536Y297857D01*
X487592Y297816D01*
X489519Y296889D01*
X489603Y296868D01*
X489685Y296842D01*
X489699Y296843D01*
X489713Y296839D01*
X489799Y296852D01*
X489885Y296860D01*
X489897Y296867D01*
X489911Y296869D01*
X489985Y296914D01*
X490062Y296955D01*
X490071Y296966D01*
X490083Y296973D01*
X490115Y297018D01*
X490178Y297092D01*
X509010Y329711D01*
X509618Y329291D01*
X509645Y329280D01*
X509667Y329261D01*
X509736Y329241D01*
X509801Y329213D01*
X509830Y329213D01*
X509858Y329205D01*
X509929Y329213D01*
X510000Y329213D01*
X510027Y329224D01*
X510056Y329227D01*
X510118Y329262D01*
X510183Y329290D01*
X510204Y329310D01*
X510229Y329325D01*
X510292Y329402D01*
X510322Y329432D01*
X510326Y329442D01*
X510335Y329453D01*
X519835Y345953D01*
X519845Y345985D01*
X519854Y345998D01*
X519858Y346022D01*
X519859Y346026D01*
X519890Y346096D01*
X519890Y346120D01*
X519898Y346142D01*
X519892Y346218D01*
X519893Y346295D01*
X519883Y346319D01*
X519882Y346340D01*
X519861Y346379D01*
X519835Y346451D01*
X510335Y362951D01*
X510316Y362973D01*
X510303Y362999D01*
X510250Y363047D01*
X510203Y363100D01*
X510177Y363113D01*
X510156Y363132D01*
X510088Y363155D01*
X510024Y363186D01*
X509995Y363188D01*
X509968Y363197D01*
X509896Y363192D01*
X509825Y363195D01*
X509798Y363185D01*
X509769Y363183D01*
X509679Y363141D01*
X509639Y363126D01*
X509631Y363119D01*
X509618Y363113D01*
X509010Y362693D01*
X490178Y395312D01*
X490121Y395377D01*
X490067Y395445D01*
X490055Y395451D01*
X490045Y395462D01*
X489967Y395500D01*
X489892Y395542D01*
X489878Y395543D01*
X489865Y395549D01*
X489778Y395554D01*
X489692Y395563D01*
X489678Y395559D01*
X489665Y395560D01*
X489612Y395541D01*
X489519Y395515D01*
X487592Y394588D01*
X487536Y394545D01*
X487475Y394510D01*
X487455Y394484D01*
X487432Y394467D01*
X487406Y394422D01*
X487364Y394368D01*
X487361Y394363D01*
X486741Y394172D01*
X486711Y394156D01*
X486671Y394145D01*
X486086Y393863D01*
X486081Y393865D01*
X486011Y393875D01*
X485942Y393893D01*
X485910Y393889D01*
X485882Y393893D01*
X485832Y393879D01*
X485764Y393871D01*
X483497Y393173D01*
X483435Y393139D01*
X483370Y393113D01*
X483346Y393090D01*
X483321Y393077D01*
X483289Y393037D01*
X483239Y392989D01*
X483235Y392985D01*
X482594Y392888D01*
X482561Y392877D01*
X482520Y392872D01*
X481900Y392680D01*
X481895Y392683D01*
X481827Y392703D01*
X481762Y392731D01*
X481730Y392732D01*
X481703Y392740D01*
X481651Y392734D01*
X481582Y392736D01*
X479237Y392384D01*
X479171Y392360D01*
X479102Y392343D01*
X479075Y392325D01*
X479049Y392315D01*
X479011Y392280D01*
X478954Y392241D01*
X478950Y392237D01*
X478301Y392237D01*
X478267Y392230D01*
X478226Y392231D01*
X477584Y392135D01*
X477580Y392138D01*
X477516Y392168D01*
X477456Y392205D01*
X477423Y392211D01*
X477398Y392223D01*
X477346Y392225D01*
X477278Y392237D01*
X476504Y392238D01*
X476499Y392237D01*
X476494Y392238D01*
X476401Y392217D01*
X476308Y392198D01*
X476303Y392195D01*
X476298Y392194D01*
X476220Y392139D01*
X476142Y392086D01*
X476139Y392081D01*
X476135Y392078D01*
X476084Y391997D01*
X476032Y391918D01*
X476032Y391912D01*
X476029Y391908D01*
X475997Y391730D01*
X475997Y367642D01*
X475998Y367637D01*
X475997Y367632D01*
X476018Y367539D01*
X476036Y367446D01*
X476039Y367441D01*
X476040Y367436D01*
X476096Y367358D01*
X476149Y367280D01*
X476153Y367277D01*
X476156Y367273D01*
X476238Y367222D01*
X476317Y367171D01*
X476322Y367170D01*
X476327Y367167D01*
X476504Y367135D01*
X476566Y367135D01*
X479675Y364026D01*
X479675Y359630D01*
X478073Y358029D01*
X478069Y358022D01*
X478062Y358017D01*
X478014Y357939D01*
X477962Y357862D01*
X477961Y357854D01*
X477957Y357847D01*
X477925Y357670D01*
X477925Y357504D01*
X477926Y357499D01*
X477925Y357494D01*
X477945Y357401D01*
X477964Y357307D01*
X477967Y357303D01*
X477968Y357298D01*
X478024Y357220D01*
X478077Y357142D01*
X478081Y357139D01*
X478084Y357134D01*
X478166Y357084D01*
X478245Y357032D01*
X478250Y357031D01*
X478255Y357029D01*
X478432Y356997D01*
X479147Y356997D01*
X481505Y354639D01*
X481505Y340305D01*
X479147Y337947D01*
X476504Y337947D01*
X476499Y337946D01*
X476494Y337947D01*
X476401Y337926D01*
X476307Y337908D01*
X476303Y337905D01*
X476298Y337904D01*
X476220Y337848D01*
X476142Y337795D01*
X476139Y337791D01*
X476135Y337788D01*
X476084Y337706D01*
X476032Y337627D01*
X476032Y337622D01*
X476029Y337617D01*
X475997Y337440D01*
X475997Y327457D01*
X419503Y270963D01*
X419499Y270957D01*
X419493Y270952D01*
X419444Y270874D01*
X419392Y270796D01*
X419391Y270789D01*
X419387Y270782D01*
X419355Y270605D01*
X419355Y266014D01*
X419357Y266005D01*
X419355Y265995D01*
X419393Y265819D01*
X419435Y265720D01*
X419435Y260060D01*
X417269Y254832D01*
X413268Y250831D01*
X412917Y250686D01*
X411693Y250178D01*
X411692Y250178D01*
X410468Y249671D01*
X409243Y249164D01*
X408040Y248665D01*
X402380Y248665D01*
X397152Y250831D01*
X393071Y254912D01*
X391895Y257750D01*
X391892Y257756D01*
X391890Y257762D01*
X391836Y257839D01*
X391784Y257917D01*
X391778Y257920D01*
X391774Y257925D01*
X391695Y257975D01*
X391616Y258027D01*
X391610Y258028D01*
X391604Y258031D01*
X391427Y258063D01*
X383337Y258063D01*
X381253Y260147D01*
X381253Y307543D01*
X403297Y329587D01*
X403299Y329590D01*
X403301Y329591D01*
X403353Y329672D01*
X403408Y329754D01*
X403409Y329757D01*
X403410Y329759D01*
X403428Y329855D01*
X403446Y329951D01*
X403445Y329954D01*
X403446Y329956D01*
X403424Y330053D01*
X403404Y330147D01*
X403403Y330149D01*
X403402Y330152D01*
X403346Y330232D01*
X403290Y330312D01*
X403288Y330313D01*
X403286Y330315D01*
X403203Y330367D01*
X403121Y330419D01*
X403118Y330420D01*
X403116Y330421D01*
X402939Y330453D01*
X333807Y330453D01*
X331723Y332537D01*
X331723Y454863D01*
X333807Y456947D01*
X336226Y456947D01*
X336234Y456948D01*
X336242Y456947D01*
X336332Y456968D01*
X336423Y456986D01*
X336429Y456991D01*
X336437Y456993D01*
X336585Y457095D01*
X338398Y458909D01*
X339209Y459245D01*
X340434Y459752D01*
X341658Y460259D01*
X341659Y460259D01*
X342883Y460766D01*
X343626Y461074D01*
X349286Y461074D01*
X354514Y458909D01*
X356327Y457095D01*
X356334Y457091D01*
X356338Y457085D01*
X356417Y457036D01*
X356494Y456984D01*
X356502Y456983D01*
X356508Y456979D01*
X356686Y456947D01*
X383224Y456947D01*
X383229Y456948D01*
X383234Y456947D01*
X383327Y456968D01*
X383421Y456986D01*
X383425Y456989D01*
X383430Y456990D01*
X383508Y457046D01*
X383586Y457099D01*
X383589Y457103D01*
X383593Y457106D01*
X383644Y457188D01*
X383696Y457267D01*
X383696Y457272D01*
X383699Y457277D01*
X383731Y457454D01*
X383731Y459481D01*
X384624Y460374D01*
X392636Y460374D01*
X392645Y460376D01*
X392654Y460375D01*
X392830Y460413D01*
X392832Y460414D01*
X393683Y460766D01*
X394426Y461074D01*
X400086Y461074D01*
X401682Y460413D01*
X401691Y460411D01*
X401699Y460406D01*
X401876Y460374D01*
X409888Y460374D01*
X410781Y459481D01*
X410781Y457454D01*
X410782Y457449D01*
X410781Y457444D01*
X410802Y457351D01*
X410820Y457257D01*
X410823Y457253D01*
X410824Y457248D01*
X410880Y457170D01*
X410933Y457092D01*
X410937Y457089D01*
X410940Y457085D01*
X411022Y457034D01*
X411101Y456982D01*
X411106Y456982D01*
X411111Y456979D01*
X411288Y456947D01*
X418033Y456947D01*
X419155Y455825D01*
X419161Y455821D01*
X419166Y455815D01*
X419244Y455766D01*
X419322Y455714D01*
X419329Y455713D01*
X419336Y455709D01*
X419513Y455677D01*
X425102Y455677D01*
X425110Y455678D01*
X425117Y455677D01*
X425207Y455698D01*
X425298Y455716D01*
X425305Y455721D01*
X425312Y455723D01*
X425460Y455825D01*
X427062Y457427D01*
X430045Y457427D01*
X430053Y457428D01*
X430061Y457427D01*
X430150Y457448D01*
X430242Y457466D01*
X430248Y457471D01*
X430256Y457473D01*
X430404Y457575D01*
X434093Y461265D01*
X434928Y461265D01*
X434933Y461266D01*
X434938Y461265D01*
X435031Y461286D01*
X435125Y461304D01*
X435129Y461307D01*
X435134Y461308D01*
X435212Y461364D01*
X435290Y461417D01*
X435293Y461421D01*
X435298Y461424D01*
X435348Y461506D01*
X435400Y461585D01*
X435401Y461590D01*
X435403Y461595D01*
X435435Y461772D01*
X435435Y465383D01*
X437793Y467741D01*
X446127Y467741D01*
X448485Y465383D01*
X448485Y451049D01*
X448108Y450673D01*
X448107Y450670D01*
X448105Y450669D01*
X448052Y450588D01*
X447997Y450506D01*
X447997Y450503D01*
X447996Y450501D01*
X447978Y450405D01*
X447960Y450309D01*
X447960Y450306D01*
X447960Y450304D01*
X447982Y450207D01*
X448001Y450113D01*
X448003Y450111D01*
X448004Y450108D01*
X448061Y450028D01*
X448116Y449948D01*
X448118Y449947D01*
X448120Y449945D01*
X448203Y449893D01*
X448285Y449841D01*
X448288Y449840D01*
X448290Y449839D01*
X448467Y449807D01*
X450508Y449807D01*
X453617Y446698D01*
X453617Y443715D01*
X453618Y443707D01*
X453617Y443699D01*
X453638Y443610D01*
X453656Y443518D01*
X453661Y443512D01*
X453663Y443504D01*
X453765Y443356D01*
X455167Y441955D01*
X455246Y441902D01*
X455325Y441847D01*
X455330Y441847D01*
X455334Y441844D01*
X455427Y441826D01*
X455522Y441806D01*
X455526Y441807D01*
X455530Y441806D01*
X455623Y441826D01*
X455718Y441845D01*
X455722Y441847D01*
X455727Y441848D01*
X455759Y441871D01*
X455870Y441942D01*
X457278Y443247D01*
X457319Y443304D01*
X457367Y443356D01*
X457378Y443387D01*
X457395Y443409D01*
X457406Y443460D01*
X457431Y443524D01*
X457432Y443530D01*
X457968Y443895D01*
X457993Y443920D01*
X458028Y443942D01*
X458503Y444384D01*
X458509Y444383D01*
X458579Y444395D01*
X458649Y444398D01*
X458679Y444411D01*
X458707Y444415D01*
X458751Y444443D01*
X458814Y444471D01*
X460565Y445664D01*
X460626Y445727D01*
X460690Y445785D01*
X460696Y445798D01*
X460705Y445808D01*
X460737Y445888D01*
X460774Y445967D01*
X460774Y445981D01*
X460779Y445994D01*
X460777Y446081D01*
X460780Y446168D01*
X460775Y446182D01*
X460775Y446195D01*
X460752Y446245D01*
X460719Y446337D01*
X441888Y478954D01*
X442516Y479251D01*
X442538Y479268D01*
X442565Y479278D01*
X442617Y479327D01*
X442675Y479370D01*
X442689Y479395D01*
X442710Y479414D01*
X442739Y479480D01*
X442775Y479542D01*
X442778Y479570D01*
X442790Y479596D01*
X442791Y479668D01*
X442800Y479739D01*
X442792Y479766D01*
X442793Y479795D01*
X442757Y479890D01*
X442746Y479930D01*
X442739Y479939D01*
X442735Y479951D01*
X433235Y496451D01*
X433183Y496510D01*
X433137Y496572D01*
X433118Y496583D01*
X433103Y496600D01*
X433033Y496634D01*
X432966Y496674D01*
X432942Y496678D01*
X432924Y496686D01*
X432879Y496688D01*
X432802Y496701D01*
X413802Y496701D01*
X413774Y496696D01*
X413746Y496698D01*
X413678Y496676D01*
X413607Y496662D01*
X413584Y496646D01*
X413557Y496637D01*
X413502Y496590D01*
X413443Y496549D01*
X413428Y496525D01*
X413407Y496507D01*
X413375Y496442D01*
X413336Y496382D01*
X413331Y496354D01*
X413319Y496328D01*
X413310Y496227D01*
X413303Y496185D01*
X413305Y496175D01*
X413304Y496162D01*
X413361Y495447D01*
X279043Y495447D01*
X279100Y496162D01*
X279096Y496191D01*
X279101Y496219D01*
X279084Y496288D01*
X279076Y496360D01*
X279062Y496384D01*
X279055Y496412D01*
X279012Y496470D01*
X278977Y496532D01*
X278954Y496549D01*
X278937Y496572D01*
X278875Y496609D01*
X278818Y496652D01*
X278790Y496659D01*
X278766Y496674D01*
X278666Y496690D01*
X278625Y496701D01*
X278615Y496699D01*
X278602Y496701D01*
X259602Y496701D01*
X259526Y496686D01*
X259448Y496677D01*
X259429Y496666D01*
X259407Y496662D01*
X259343Y496618D01*
X259275Y496579D01*
X259259Y496560D01*
X259243Y496549D01*
X259219Y496511D01*
X259169Y496451D01*
X249669Y479951D01*
X249660Y479924D01*
X249644Y479900D01*
X249629Y479830D01*
X249606Y479762D01*
X249609Y479734D01*
X249603Y479706D01*
X249617Y479636D01*
X249622Y479564D01*
X249635Y479539D01*
X249641Y479511D01*
X249681Y479451D01*
X249714Y479388D01*
X249736Y479370D01*
X249752Y479346D01*
X249835Y479288D01*
X249867Y479261D01*
X249878Y479258D01*
X249889Y479251D01*
X250516Y478954D01*
X246122Y471344D01*
X246110Y471308D01*
X246090Y471277D01*
X246078Y471214D01*
X246058Y471154D01*
X246061Y471116D01*
X246054Y471080D01*
X246068Y471017D01*
X246073Y470954D01*
X246089Y470920D01*
X246098Y470884D01*
X246135Y470832D01*
X246163Y470775D01*
X246192Y470751D01*
X246214Y470720D01*
X246268Y470687D01*
X246317Y470646D01*
X246352Y470634D01*
X246384Y470615D01*
X246457Y470602D01*
X246508Y470586D01*
X246533Y470588D01*
X246561Y470583D01*
X259389Y470583D01*
X261747Y468225D01*
X261747Y460325D01*
X261748Y460317D01*
X261747Y460309D01*
X261768Y460219D01*
X261786Y460128D01*
X261791Y460122D01*
X261793Y460114D01*
X261895Y459966D01*
X264286Y457575D01*
X264293Y457571D01*
X264297Y457565D01*
X264376Y457516D01*
X264453Y457464D01*
X264461Y457463D01*
X264468Y457459D01*
X264645Y457427D01*
X267628Y457427D01*
X270737Y454318D01*
X270737Y449922D01*
X267628Y446813D01*
X263232Y446813D01*
X260123Y449922D01*
X260123Y452905D01*
X260122Y452913D01*
X260123Y452921D01*
X260102Y453010D01*
X260084Y453102D01*
X260079Y453108D01*
X260077Y453116D01*
X259975Y453264D01*
X255854Y457385D01*
X255847Y457389D01*
X255843Y457396D01*
X255764Y457444D01*
X255687Y457496D01*
X255679Y457497D01*
X255672Y457501D01*
X255495Y457533D01*
X245055Y457533D01*
X242697Y459891D01*
X242697Y463519D01*
X242684Y463586D01*
X242679Y463655D01*
X242664Y463684D01*
X242658Y463715D01*
X242619Y463772D01*
X242588Y463834D01*
X242563Y463854D01*
X242545Y463881D01*
X242487Y463919D01*
X242435Y463963D01*
X242404Y463973D01*
X242377Y463990D01*
X242309Y464003D01*
X242243Y464023D01*
X242211Y464020D01*
X242180Y464026D01*
X242112Y464011D01*
X242044Y464004D01*
X242016Y463989D01*
X241984Y463982D01*
X241928Y463942D01*
X241867Y463910D01*
X241845Y463883D01*
X241821Y463866D01*
X241794Y463823D01*
X241751Y463772D01*
X231685Y446337D01*
X231657Y446255D01*
X231625Y446174D01*
X231625Y446161D01*
X231621Y446147D01*
X231627Y446061D01*
X231629Y445974D01*
X231635Y445961D01*
X231636Y445947D01*
X231675Y445870D01*
X231710Y445791D01*
X231721Y445780D01*
X231727Y445769D01*
X231769Y445733D01*
X231839Y445664D01*
X233590Y444471D01*
X233655Y444444D01*
X233717Y444409D01*
X233749Y444404D01*
X233775Y444393D01*
X233827Y444393D01*
X233895Y444383D01*
X233901Y444384D01*
X234376Y443942D01*
X234406Y443924D01*
X234436Y443895D01*
X234972Y443530D01*
X234973Y443524D01*
X235000Y443459D01*
X235018Y443391D01*
X235038Y443365D01*
X235048Y443339D01*
X235085Y443302D01*
X235126Y443247D01*
X236865Y441634D01*
X236925Y441598D01*
X236981Y441554D01*
X237012Y441544D01*
X237036Y441530D01*
X237087Y441522D01*
X237154Y441502D01*
X237159Y441502D01*
X237564Y440994D01*
X237590Y440972D01*
X237615Y440939D01*
X238091Y440498D01*
X238091Y440492D01*
X238108Y440424D01*
X238116Y440353D01*
X238132Y440325D01*
X238138Y440297D01*
X238169Y440256D01*
X238202Y440195D01*
X239681Y438341D01*
X239735Y438296D01*
X239783Y438244D01*
X239813Y438230D01*
X239834Y438212D01*
X239884Y438197D01*
X239946Y438168D01*
X239952Y438166D01*
X240276Y437604D01*
X240299Y437578D01*
X240319Y437542D01*
X240724Y437035D01*
X240723Y437029D01*
X240729Y436959D01*
X240727Y436888D01*
X240738Y436857D01*
X240740Y436829D01*
X240765Y436784D01*
X240788Y436719D01*
X241751Y435052D01*
X241796Y435000D01*
X241835Y434944D01*
X241862Y434926D01*
X241883Y434902D01*
X241946Y434872D01*
X242003Y434834D01*
X242035Y434829D01*
X242064Y434815D01*
X242133Y434811D01*
X242200Y434799D01*
X242232Y434806D01*
X242264Y434804D01*
X242329Y434827D01*
X242396Y434842D01*
X242422Y434861D01*
X242453Y434872D01*
X242503Y434919D01*
X242560Y434958D01*
X242577Y434986D01*
X242600Y435008D01*
X242629Y435070D01*
X242665Y435129D01*
X242671Y435163D01*
X242684Y435190D01*
X242685Y435240D01*
X242697Y435306D01*
X242697Y442825D01*
X245055Y445183D01*
X259389Y445183D01*
X261747Y442825D01*
X261747Y434491D01*
X259389Y432133D01*
X258541Y432133D01*
X258536Y432132D01*
X258531Y432133D01*
X258438Y432112D01*
X258345Y432094D01*
X258341Y432091D01*
X258335Y432090D01*
X258258Y432034D01*
X258179Y431981D01*
X258176Y431977D01*
X258172Y431974D01*
X258121Y431892D01*
X258070Y431813D01*
X258069Y431808D01*
X258066Y431803D01*
X258034Y431626D01*
X258034Y427570D01*
X254926Y424461D01*
X250529Y424461D01*
X247421Y427570D01*
X247421Y431626D01*
X247420Y431631D01*
X247421Y431636D01*
X247400Y431729D01*
X247381Y431823D01*
X247378Y431827D01*
X247377Y431832D01*
X247322Y431910D01*
X247268Y431988D01*
X247264Y431991D01*
X247261Y431996D01*
X247180Y432046D01*
X247100Y432098D01*
X247095Y432099D01*
X247091Y432101D01*
X246913Y432133D01*
X245055Y432133D01*
X243677Y433511D01*
X243646Y433532D01*
X243621Y433560D01*
X243563Y433587D01*
X243510Y433622D01*
X243473Y433629D01*
X243439Y433645D01*
X243376Y433648D01*
X243313Y433660D01*
X243276Y433652D01*
X243239Y433654D01*
X243179Y433631D01*
X243117Y433618D01*
X243086Y433597D01*
X243051Y433584D01*
X243005Y433540D01*
X242952Y433504D01*
X242932Y433472D01*
X242905Y433447D01*
X242873Y433380D01*
X242845Y433335D01*
X242841Y433310D01*
X242828Y433284D01*
X242809Y433213D01*
X242805Y433142D01*
X242792Y433073D01*
X242798Y433040D01*
X242797Y433012D01*
X242814Y432964D01*
X242827Y432896D01*
X243694Y430689D01*
X243732Y430630D01*
X243763Y430566D01*
X243788Y430544D01*
X243803Y430520D01*
X243845Y430491D01*
X243897Y430445D01*
X243901Y430442D01*
X244046Y429809D01*
X244060Y429778D01*
X244068Y429737D01*
X244305Y429133D01*
X244303Y429128D01*
X244288Y429059D01*
X244265Y428992D01*
X244267Y428959D01*
X244261Y428932D01*
X244271Y428881D01*
X244274Y428812D01*
X244802Y426500D01*
X244831Y426436D01*
X244852Y426369D01*
X244873Y426343D01*
X244885Y426318D01*
X244922Y426283D01*
X244966Y426229D01*
X244970Y426225D01*
X245019Y425578D01*
X245028Y425545D01*
X245030Y425503D01*
X245175Y424871D01*
X245172Y424866D01*
X245147Y424800D01*
X245114Y424737D01*
X245111Y424705D01*
X245101Y424678D01*
X245103Y424627D01*
X245096Y424558D01*
X245273Y422193D01*
X245293Y422126D01*
X245303Y422056D01*
X245320Y422027D01*
X245328Y422000D01*
X245360Y421960D01*
X245395Y421900D01*
X245399Y421896D01*
X245350Y421249D01*
X245355Y421215D01*
X245350Y421173D01*
X245399Y420526D01*
X245395Y420522D01*
X245361Y420461D01*
X245319Y420404D01*
X245311Y420372D01*
X245297Y420347D01*
X245291Y420296D01*
X245274Y420229D01*
X245098Y417864D01*
X245106Y417794D01*
X245107Y417724D01*
X245119Y417693D01*
X245123Y417665D01*
X245148Y417621D01*
X245174Y417557D01*
X245177Y417552D01*
X245033Y416919D01*
X245032Y416885D01*
X245022Y416844D01*
X244973Y416197D01*
X244969Y416194D01*
X244926Y416138D01*
X244876Y416088D01*
X244863Y416058D01*
X244846Y416035D01*
X244833Y415986D01*
X244806Y415922D01*
X244279Y413610D01*
X244277Y413539D01*
X244267Y413469D01*
X244274Y413438D01*
X244274Y413410D01*
X244292Y413361D01*
X244308Y413294D01*
X244311Y413289D01*
X244074Y412685D01*
X244068Y412651D01*
X244051Y412613D01*
X243907Y411980D01*
X243902Y411977D01*
X243851Y411928D01*
X243795Y411886D01*
X243778Y411858D01*
X243757Y411839D01*
X243737Y411792D01*
X243700Y411733D01*
X242835Y409525D01*
X242822Y409455D01*
X242802Y409388D01*
X242805Y409355D01*
X242800Y409328D01*
X242811Y409277D01*
X242817Y409208D01*
X242818Y409203D01*
X242494Y408641D01*
X242483Y408608D01*
X242461Y408573D01*
X242224Y407969D01*
X242219Y407966D01*
X242161Y407926D01*
X242099Y407893D01*
X242078Y407868D01*
X242055Y407851D01*
X242028Y407808D01*
X241983Y407755D01*
X240798Y405701D01*
X240777Y405639D01*
X240767Y405623D01*
X240765Y405612D01*
X240745Y405570D01*
X240743Y405538D01*
X240734Y405511D01*
X240738Y405461D01*
X240731Y405426D01*
X240735Y405412D01*
X240733Y405390D01*
X240734Y405385D01*
X240329Y404878D01*
X240313Y404847D01*
X240287Y404815D01*
X239962Y404253D01*
X239957Y404251D01*
X239894Y404220D01*
X239827Y404196D01*
X239803Y404175D01*
X239778Y404162D01*
X239744Y404123D01*
X239692Y404078D01*
X238214Y402223D01*
X238182Y402160D01*
X238142Y402102D01*
X238135Y402070D01*
X238122Y402045D01*
X238118Y401993D01*
X238104Y401926D01*
X238104Y401920D01*
X237628Y401479D01*
X237608Y401451D01*
X237576Y401423D01*
X237172Y400916D01*
X237167Y400915D01*
X237099Y400893D01*
X237030Y400880D01*
X237002Y400862D01*
X236976Y400854D01*
X236936Y400820D01*
X236878Y400783D01*
X235624Y399618D01*
X235617Y399608D01*
X235607Y399601D01*
X235558Y399527D01*
X235507Y399455D01*
X235504Y399443D01*
X235497Y399433D01*
X235482Y399346D01*
X235462Y399260D01*
X235464Y399248D01*
X235462Y399236D01*
X235481Y399149D01*
X235496Y399062D01*
X235503Y399052D01*
X235505Y399040D01*
X235557Y398968D01*
X235604Y398894D01*
X235614Y398887D01*
X235621Y398877D01*
X235697Y398830D01*
X235769Y398780D01*
X235781Y398777D01*
X235792Y398771D01*
X235944Y398743D01*
X235966Y398739D01*
X235967Y398739D01*
X235969Y398739D01*
X236913Y398739D01*
X240022Y395630D01*
X240022Y391234D01*
X236913Y388125D01*
X232517Y388125D01*
X229408Y391234D01*
X229408Y394217D01*
X229407Y394225D01*
X229408Y394233D01*
X229387Y394322D01*
X229369Y394414D01*
X229364Y394420D01*
X229363Y394428D01*
X229260Y394576D01*
X229030Y394806D01*
X229012Y394818D01*
X228999Y394834D01*
X228929Y394873D01*
X228863Y394917D01*
X228842Y394921D01*
X228824Y394931D01*
X228744Y394940D01*
X228666Y394955D01*
X228645Y394950D01*
X228624Y394953D01*
X228522Y394924D01*
X228470Y394913D01*
X228461Y394907D01*
X228451Y394904D01*
X227809Y394595D01*
X227753Y394553D01*
X227692Y394517D01*
X227672Y394491D01*
X227650Y394474D01*
X227624Y394430D01*
X227581Y394375D01*
X227579Y394370D01*
X226958Y394179D01*
X226928Y394162D01*
X226888Y394151D01*
X226303Y393870D01*
X226298Y393871D01*
X226228Y393881D01*
X226160Y393899D01*
X226127Y393895D01*
X226100Y393899D01*
X226050Y393886D01*
X225981Y393877D01*
X223715Y393178D01*
X223653Y393144D01*
X223588Y393118D01*
X223564Y393095D01*
X223539Y393082D01*
X223507Y393041D01*
X223457Y392994D01*
X223454Y392989D01*
X222812Y392893D01*
X222779Y392881D01*
X222738Y392876D01*
X222118Y392684D01*
X222113Y392687D01*
X222045Y392707D01*
X221981Y392735D01*
X221948Y392736D01*
X221921Y392744D01*
X221870Y392738D01*
X221800Y392740D01*
X219456Y392386D01*
X219389Y392361D01*
X219321Y392345D01*
X219294Y392327D01*
X219267Y392317D01*
X219229Y392282D01*
X219173Y392243D01*
X219169Y392239D01*
X218520Y392239D01*
X218486Y392232D01*
X218444Y392233D01*
X217803Y392136D01*
X217798Y392139D01*
X217734Y392169D01*
X217674Y392206D01*
X217642Y392212D01*
X217617Y392224D01*
X217565Y392226D01*
X217497Y392238D01*
X215126Y392237D01*
X215056Y392223D01*
X214986Y392218D01*
X214957Y392203D01*
X214929Y392198D01*
X214886Y392169D01*
X214824Y392138D01*
X214820Y392135D01*
X214178Y392231D01*
X214144Y392230D01*
X214103Y392237D01*
X213454Y392237D01*
X213450Y392241D01*
X213391Y392280D01*
X213337Y392326D01*
X213306Y392336D01*
X213283Y392352D01*
X213232Y392361D01*
X213167Y392384D01*
X210822Y392736D01*
X210751Y392733D01*
X210681Y392738D01*
X210650Y392728D01*
X210622Y392726D01*
X210575Y392704D01*
X210509Y392683D01*
X210504Y392680D01*
X209884Y392872D01*
X209850Y392875D01*
X209810Y392888D01*
X209169Y392985D01*
X209165Y392989D01*
X209113Y393037D01*
X209067Y393090D01*
X209038Y393105D01*
X209017Y393124D01*
X208968Y393141D01*
X208907Y393173D01*
X206640Y393871D01*
X206570Y393878D01*
X206501Y393893D01*
X206469Y393888D01*
X206441Y393891D01*
X206392Y393876D01*
X206323Y393865D01*
X206318Y393863D01*
X205733Y394145D01*
X205700Y394153D01*
X205663Y394172D01*
X205043Y394363D01*
X205040Y394368D01*
X204996Y394423D01*
X204958Y394482D01*
X204931Y394502D01*
X204913Y394523D01*
X204868Y394547D01*
X204812Y394588D01*
X202885Y395515D01*
X202801Y395536D01*
X202719Y395562D01*
X202705Y395561D01*
X202691Y395565D01*
X202605Y395552D01*
X202519Y395544D01*
X202507Y395537D01*
X202493Y395535D01*
X202419Y395490D01*
X202342Y395449D01*
X202333Y395438D01*
X202321Y395431D01*
X202289Y395386D01*
X202226Y395312D01*
X183394Y362693D01*
X182786Y363113D01*
X182759Y363124D01*
X182737Y363143D01*
X182668Y363163D01*
X182603Y363191D01*
X182574Y363191D01*
X182546Y363199D01*
X182475Y363191D01*
X182404Y363192D01*
X182377Y363180D01*
X182348Y363177D01*
X182286Y363142D01*
X182221Y363114D01*
X182200Y363094D01*
X182175Y363079D01*
X182112Y363002D01*
X182082Y362972D01*
X182078Y362962D01*
X182069Y362951D01*
X172569Y346451D01*
X172545Y346378D01*
X172514Y346308D01*
X172514Y346284D01*
X172506Y346262D01*
X172513Y346186D01*
X172512Y346109D01*
X172521Y346085D01*
X172522Y346064D01*
X172543Y346025D01*
X172562Y345973D01*
X172563Y345967D01*
X172565Y345965D01*
X172569Y345953D01*
X182069Y329453D01*
X182088Y329431D01*
X182101Y329405D01*
X182154Y329357D01*
X182201Y329304D01*
X182227Y329291D01*
X182249Y329272D01*
X182316Y329249D01*
X182380Y329218D01*
X182409Y329217D01*
X182436Y329207D01*
X182508Y329212D01*
X182579Y329209D01*
X182606Y329219D01*
X182635Y329221D01*
X182725Y329263D01*
X182765Y329278D01*
X182773Y329285D01*
X182786Y329291D01*
X183394Y329711D01*
X202226Y297092D01*
X202283Y297028D01*
X202337Y296960D01*
X202349Y296953D01*
X202359Y296942D01*
X202437Y296904D01*
X202512Y296862D01*
X202526Y296861D01*
X202539Y296855D01*
X202626Y296850D01*
X202712Y296841D01*
X202726Y296845D01*
X202739Y296844D01*
X202792Y296863D01*
X202885Y296889D01*
X204812Y297816D01*
X204868Y297859D01*
X204929Y297894D01*
X204949Y297920D01*
X204972Y297937D01*
X204998Y297982D01*
X205040Y298036D01*
X205043Y298041D01*
X205663Y298232D01*
X205693Y298248D01*
X205733Y298259D01*
X206318Y298541D01*
X206323Y298539D01*
X206393Y298529D01*
X206462Y298511D01*
X206494Y298515D01*
X206522Y298511D01*
X206572Y298525D01*
X206640Y298533D01*
X208907Y299231D01*
X208969Y299265D01*
X209034Y299291D01*
X209058Y299314D01*
X209083Y299327D01*
X209115Y299367D01*
X209165Y299415D01*
X209169Y299419D01*
X209810Y299516D01*
X209843Y299527D01*
X209884Y299532D01*
X210504Y299724D01*
X210509Y299721D01*
X210577Y299701D01*
X210642Y299673D01*
X210674Y299672D01*
X210701Y299664D01*
X210753Y299670D01*
X210822Y299668D01*
X213167Y300020D01*
X213233Y300044D01*
X213302Y300061D01*
X213329Y300079D01*
X213355Y300089D01*
X213393Y300124D01*
X213450Y300163D01*
X213454Y300167D01*
X214103Y300167D01*
X214137Y300174D01*
X214178Y300173D01*
X214820Y300269D01*
X214824Y300266D01*
X214888Y300236D01*
X214948Y300199D01*
X214981Y300193D01*
X215006Y300181D01*
X215058Y300179D01*
X215126Y300167D01*
X217497Y300166D01*
X217566Y300180D01*
X217637Y300185D01*
X217666Y300200D01*
X217693Y300205D01*
X217736Y300234D01*
X217798Y300265D01*
X217803Y300268D01*
X218444Y300171D01*
X218479Y300173D01*
X218520Y300165D01*
X219169Y300165D01*
X219173Y300161D01*
X219231Y300122D01*
X219285Y300077D01*
X219316Y300066D01*
X219340Y300050D01*
X219390Y300041D01*
X219456Y300018D01*
X221800Y299664D01*
X221871Y299668D01*
X221941Y299663D01*
X221973Y299673D01*
X222001Y299674D01*
X222047Y299696D01*
X222113Y299717D01*
X222118Y299720D01*
X222738Y299528D01*
X222772Y299525D01*
X222812Y299511D01*
X223454Y299415D01*
X223457Y299410D01*
X223509Y299363D01*
X223555Y299309D01*
X223585Y299294D01*
X223605Y299275D01*
X223654Y299258D01*
X223715Y299226D01*
X225981Y298527D01*
X226051Y298520D01*
X226120Y298504D01*
X226153Y298509D01*
X226181Y298507D01*
X226230Y298522D01*
X226298Y298533D01*
X226303Y298534D01*
X226888Y298253D01*
X226922Y298244D01*
X226958Y298225D01*
X227579Y298034D01*
X227581Y298029D01*
X227626Y297974D01*
X227664Y297914D01*
X227690Y297895D01*
X227708Y297873D01*
X227753Y297849D01*
X227809Y297809D01*
X229946Y296779D01*
X230014Y296762D01*
X230080Y296736D01*
X230113Y296736D01*
X230140Y296729D01*
X230191Y296737D01*
X230260Y296738D01*
X230265Y296739D01*
X230801Y296373D01*
X230833Y296359D01*
X230867Y296335D01*
X231452Y296053D01*
X231453Y296048D01*
X231489Y295987D01*
X231518Y295923D01*
X231541Y295900D01*
X231556Y295876D01*
X231597Y295845D01*
X231646Y295796D01*
X233605Y294460D01*
X233670Y294432D01*
X233732Y294397D01*
X233764Y294393D01*
X233790Y294382D01*
X233841Y294382D01*
X233910Y294372D01*
X233915Y294372D01*
X234391Y293931D01*
X234420Y293913D01*
X234450Y293883D01*
X234986Y293518D01*
X234987Y293512D01*
X235014Y293447D01*
X235032Y293379D01*
X235052Y293352D01*
X235063Y293327D01*
X235099Y293290D01*
X235141Y293235D01*
X236878Y291621D01*
X236938Y291584D01*
X236994Y291541D01*
X237025Y291531D01*
X237049Y291517D01*
X237100Y291509D01*
X237167Y291489D01*
X237172Y291488D01*
X237576Y290981D01*
X237603Y290959D01*
X237619Y290936D01*
X237621Y290935D01*
X237628Y290925D01*
X238104Y290484D01*
X238104Y290478D01*
X238120Y290409D01*
X238128Y290339D01*
X238144Y290311D01*
X238151Y290283D01*
X238181Y290242D01*
X238214Y290181D01*
X239692Y288326D01*
X239746Y288281D01*
X239794Y288229D01*
X239824Y288215D01*
X239845Y288197D01*
X239895Y288182D01*
X239957Y288153D01*
X239962Y288151D01*
X240287Y287589D01*
X240310Y287563D01*
X240329Y287526D01*
X240734Y287019D01*
X240733Y287014D01*
X240739Y286943D01*
X240737Y286873D01*
X240748Y286842D01*
X240750Y286814D01*
X240774Y286768D01*
X240798Y286703D01*
X241983Y284649D01*
X242030Y284596D01*
X242070Y284538D01*
X242097Y284520D01*
X242115Y284499D01*
X242162Y284476D01*
X242219Y284438D01*
X242224Y284435D01*
X242461Y283831D01*
X242480Y283802D01*
X242494Y283763D01*
X242818Y283201D01*
X242817Y283196D01*
X242812Y283125D01*
X242800Y283056D01*
X242806Y283024D01*
X242804Y282996D01*
X242821Y282947D01*
X242835Y282879D01*
X243700Y280671D01*
X243738Y280612D01*
X243769Y280549D01*
X243794Y280526D01*
X243809Y280503D01*
X243851Y280474D01*
X243902Y280427D01*
X243907Y280424D01*
X244044Y279823D01*
X244064Y279778D01*
X244075Y279730D01*
X244105Y279688D01*
X244126Y279640D01*
X244162Y279607D01*
X244191Y279567D01*
X244235Y279539D01*
X244273Y279504D01*
X244319Y279487D01*
X244361Y279461D01*
X244418Y279450D01*
X244461Y279435D01*
X244497Y279436D01*
X244539Y279429D01*
X246794Y279429D01*
X246802Y279430D01*
X246809Y279429D01*
X246899Y279450D01*
X246990Y279468D01*
X246997Y279473D01*
X247004Y279475D01*
X247152Y279577D01*
X249262Y281687D01*
X253658Y281687D01*
X256767Y278578D01*
X256767Y274182D01*
X253658Y271073D01*
X249262Y271073D01*
X247152Y273183D01*
X247146Y273187D01*
X247141Y273193D01*
X247063Y273242D01*
X246985Y273294D01*
X246978Y273295D01*
X246971Y273299D01*
X246794Y273331D01*
X245734Y273331D01*
X245711Y273326D01*
X245686Y273329D01*
X245613Y273307D01*
X245538Y273292D01*
X245518Y273278D01*
X245494Y273271D01*
X245435Y273222D01*
X245372Y273179D01*
X245359Y273159D01*
X245340Y273143D01*
X245304Y273075D01*
X245263Y273011D01*
X245259Y272987D01*
X245247Y272965D01*
X245237Y272869D01*
X245227Y272814D01*
X245230Y272801D01*
X245229Y272786D01*
X245274Y272175D01*
X245293Y272107D01*
X245304Y272037D01*
X245321Y272009D01*
X245328Y271982D01*
X245360Y271942D01*
X245395Y271882D01*
X245399Y271878D01*
X245350Y271231D01*
X245355Y271196D01*
X245350Y271155D01*
X245399Y270508D01*
X245395Y270504D01*
X245360Y270442D01*
X245319Y270385D01*
X245310Y270353D01*
X245297Y270329D01*
X245291Y270277D01*
X245273Y270211D01*
X245096Y267846D01*
X245104Y267776D01*
X245105Y267705D01*
X245117Y267675D01*
X245120Y267647D01*
X245146Y267602D01*
X245172Y267538D01*
X245175Y267533D01*
X245030Y266901D01*
X245029Y266866D01*
X245019Y266826D01*
X244970Y266179D01*
X244966Y266175D01*
X244922Y266119D01*
X244873Y266069D01*
X244860Y266039D01*
X244843Y266017D01*
X244829Y265967D01*
X244802Y265904D01*
X244274Y263592D01*
X244272Y263521D01*
X244262Y263451D01*
X244269Y263420D01*
X244269Y263392D01*
X244287Y263343D01*
X244303Y263276D01*
X244305Y263271D01*
X244068Y262667D01*
X244062Y262633D01*
X244046Y262595D01*
X243901Y261962D01*
X243897Y261959D01*
X243845Y261911D01*
X243789Y261868D01*
X243772Y261841D01*
X243751Y261821D01*
X243730Y261774D01*
X243694Y261715D01*
X242827Y259508D01*
X242815Y259438D01*
X242794Y259371D01*
X242797Y259338D01*
X242792Y259311D01*
X242803Y259260D01*
X242809Y259191D01*
X242811Y259186D01*
X242486Y258624D01*
X242475Y258591D01*
X242453Y258556D01*
X242216Y257952D01*
X242211Y257950D01*
X242153Y257909D01*
X242091Y257876D01*
X242069Y257851D01*
X242046Y257835D01*
X242019Y257791D01*
X241974Y257739D01*
X240788Y255685D01*
X240765Y255618D01*
X240735Y255555D01*
X240733Y255522D01*
X240724Y255495D01*
X240728Y255444D01*
X240723Y255375D01*
X240724Y255369D01*
X240319Y254862D01*
X240303Y254831D01*
X240276Y254800D01*
X239952Y254238D01*
X239946Y254236D01*
X239883Y254205D01*
X239816Y254181D01*
X239792Y254160D01*
X239767Y254147D01*
X239733Y254108D01*
X239681Y254063D01*
X238202Y252209D01*
X238169Y252146D01*
X238130Y252088D01*
X238123Y252056D01*
X238110Y252031D01*
X238106Y251979D01*
X238091Y251912D01*
X238091Y251906D01*
X237615Y251465D01*
X237595Y251437D01*
X237564Y251410D01*
X237159Y250902D01*
X237154Y250902D01*
X237086Y250880D01*
X237017Y250867D01*
X236989Y250849D01*
X236963Y250840D01*
X236924Y250807D01*
X236865Y250770D01*
X235126Y249157D01*
X235085Y249100D01*
X235037Y249048D01*
X235026Y249017D01*
X235009Y248995D01*
X234998Y248944D01*
X234973Y248880D01*
X234972Y248874D01*
X234436Y248509D01*
X234411Y248484D01*
X234376Y248462D01*
X233901Y248021D01*
X233895Y248021D01*
X233825Y248009D01*
X233755Y248006D01*
X233725Y247993D01*
X233697Y247989D01*
X233653Y247961D01*
X233590Y247933D01*
X231839Y246740D01*
X231778Y246677D01*
X231714Y246619D01*
X231708Y246606D01*
X231698Y246596D01*
X231667Y246516D01*
X231630Y246437D01*
X231630Y246423D01*
X231625Y246410D01*
X231627Y246323D01*
X231624Y246236D01*
X231629Y246222D01*
X231629Y246209D01*
X231652Y246159D01*
X231685Y246067D01*
X250516Y213450D01*
X249889Y213153D01*
X249866Y213136D01*
X249839Y213126D01*
X249787Y213077D01*
X249729Y213034D01*
X249715Y213009D01*
X249694Y212990D01*
X249665Y212924D01*
X249629Y212862D01*
X249626Y212834D01*
X249614Y212808D01*
X249613Y212736D01*
X249604Y212665D01*
X249612Y212638D01*
X249612Y212609D01*
X249647Y212514D01*
X249658Y212474D01*
X249665Y212465D01*
X249669Y212453D01*
X259169Y195953D01*
X259221Y195895D01*
X259267Y195832D01*
X259286Y195821D01*
X259301Y195804D01*
X259371Y195770D01*
X259438Y195730D01*
X259463Y195726D01*
X259480Y195718D01*
X259525Y195716D01*
X259602Y195703D01*
X278602Y195703D01*
X278630Y195708D01*
G37*
G36*
X403510Y259591D02*
X403510Y259591D01*
X403527Y259589D01*
X403710Y259610D01*
X403892Y259629D01*
X403909Y259634D01*
X403927Y259636D01*
X404102Y259693D01*
X404277Y259747D01*
X404293Y259755D01*
X404310Y259761D01*
X404470Y259851D01*
X404631Y259939D01*
X404645Y259950D01*
X404661Y259959D01*
X404800Y260079D01*
X404941Y260196D01*
X404952Y260210D01*
X404965Y260222D01*
X405078Y260367D01*
X405193Y260510D01*
X405201Y260526D01*
X405212Y260540D01*
X405294Y260705D01*
X405378Y260867D01*
X405383Y260884D01*
X405391Y260901D01*
X405439Y261079D01*
X405490Y261254D01*
X405491Y261272D01*
X405496Y261289D01*
X405523Y261620D01*
X405523Y262577D01*
X406928Y262577D01*
X406946Y262579D01*
X406964Y262577D01*
X407146Y262599D01*
X407329Y262617D01*
X407346Y262622D01*
X407363Y262624D01*
X407538Y262681D01*
X407714Y262735D01*
X407729Y262743D01*
X407746Y262749D01*
X407906Y262839D01*
X408068Y262927D01*
X408081Y262938D01*
X408097Y262947D01*
X408236Y263067D01*
X408377Y263185D01*
X408388Y263198D01*
X408402Y263210D01*
X408514Y263355D01*
X408629Y263498D01*
X408637Y263514D01*
X408648Y263528D01*
X408730Y263693D01*
X408815Y263856D01*
X408820Y263873D01*
X408828Y263889D01*
X408875Y264067D01*
X408926Y264242D01*
X408928Y264260D01*
X408932Y264277D01*
X408959Y264608D01*
X408959Y276172D01*
X410504Y275670D01*
X412438Y274685D01*
X414194Y273409D01*
X415557Y272047D01*
X415570Y272035D01*
X415582Y272022D01*
X415726Y271908D01*
X415868Y271791D01*
X415884Y271783D01*
X415898Y271772D01*
X416062Y271688D01*
X416224Y271603D01*
X416241Y271598D01*
X416257Y271590D01*
X416434Y271540D01*
X416610Y271488D01*
X416627Y271486D01*
X416645Y271482D01*
X416828Y271468D01*
X417011Y271452D01*
X417028Y271454D01*
X417046Y271452D01*
X417228Y271475D01*
X417411Y271495D01*
X417428Y271500D01*
X417446Y271503D01*
X417619Y271561D01*
X417795Y271617D01*
X417810Y271625D01*
X417827Y271631D01*
X417987Y271723D01*
X418147Y271811D01*
X418161Y271823D01*
X418176Y271832D01*
X418429Y272047D01*
X457812Y311429D01*
X457826Y311446D01*
X457843Y311461D01*
X457953Y311602D01*
X458067Y311740D01*
X458077Y311760D01*
X458091Y311778D01*
X458172Y311939D01*
X458255Y312096D01*
X458262Y312117D01*
X458272Y312137D01*
X458319Y312311D01*
X458370Y312482D01*
X458372Y312504D01*
X458378Y312526D01*
X458390Y312704D01*
X458406Y312883D01*
X458404Y312905D01*
X458406Y312927D01*
X458382Y313105D01*
X458363Y313283D01*
X458356Y313305D01*
X458353Y313327D01*
X458252Y313643D01*
X457354Y315809D01*
X457354Y317921D01*
X458162Y319871D01*
X459655Y321364D01*
X461605Y322172D01*
X463717Y322172D01*
X465883Y321274D01*
X465905Y321268D01*
X465925Y321258D01*
X466097Y321210D01*
X466269Y321158D01*
X466291Y321156D01*
X466313Y321150D01*
X466492Y321137D01*
X466670Y321120D01*
X466692Y321122D01*
X466714Y321120D01*
X466892Y321143D01*
X467070Y321161D01*
X467091Y321168D01*
X467114Y321171D01*
X467283Y321228D01*
X467455Y321281D01*
X467474Y321292D01*
X467495Y321299D01*
X467650Y321388D01*
X467808Y321474D01*
X467825Y321489D01*
X467844Y321500D01*
X468097Y321714D01*
X473876Y327494D01*
X473893Y327514D01*
X473914Y327532D01*
X474021Y327670D01*
X474131Y327805D01*
X474144Y327829D01*
X474160Y327850D01*
X474238Y328007D01*
X474320Y328161D01*
X474328Y328186D01*
X474340Y328211D01*
X474385Y328380D01*
X474435Y328547D01*
X474437Y328573D01*
X474444Y328599D01*
X474471Y328930D01*
X474471Y335916D01*
X474469Y335934D01*
X474471Y335952D01*
X474450Y336134D01*
X474431Y336317D01*
X474426Y336334D01*
X474424Y336351D01*
X474367Y336526D01*
X474313Y336702D01*
X474305Y336717D01*
X474299Y336734D01*
X474209Y336894D01*
X474121Y337056D01*
X474110Y337069D01*
X474101Y337085D01*
X473981Y337224D01*
X473864Y337365D01*
X473850Y337376D01*
X473838Y337390D01*
X473693Y337502D01*
X473550Y337617D01*
X473534Y337625D01*
X473520Y337636D01*
X473355Y337718D01*
X473193Y337803D01*
X473176Y337808D01*
X473160Y337816D01*
X472981Y337864D01*
X472806Y337914D01*
X472788Y337916D01*
X472771Y337920D01*
X472440Y337947D01*
X470813Y337947D01*
X468455Y340305D01*
X468455Y354639D01*
X469817Y356001D01*
X469829Y356015D01*
X469842Y356026D01*
X469956Y356171D01*
X470072Y356313D01*
X470081Y356328D01*
X470092Y356342D01*
X470175Y356506D01*
X470261Y356668D01*
X470266Y356685D01*
X470274Y356701D01*
X470324Y356878D01*
X470376Y357054D01*
X470377Y357072D01*
X470382Y357089D01*
X470396Y357272D01*
X470412Y357455D01*
X470410Y357473D01*
X470412Y357491D01*
X470389Y357673D01*
X470369Y357855D01*
X470363Y357872D01*
X470361Y357890D01*
X470303Y358064D01*
X470247Y358239D01*
X470239Y358255D01*
X470233Y358272D01*
X470142Y358431D01*
X470053Y358592D01*
X470041Y358605D01*
X470032Y358621D01*
X469876Y358804D01*
X469061Y360772D01*
X469061Y362884D01*
X469869Y364834D01*
X471362Y366327D01*
X473217Y367095D01*
X473237Y367106D01*
X473258Y367113D01*
X473414Y367201D01*
X473572Y367286D01*
X473589Y367300D01*
X473609Y367311D01*
X473745Y367428D01*
X473883Y367542D01*
X473897Y367559D01*
X473914Y367574D01*
X474023Y367715D01*
X474136Y367855D01*
X474147Y367874D01*
X474160Y367892D01*
X474240Y368053D01*
X474323Y368211D01*
X474330Y368233D01*
X474340Y368253D01*
X474386Y368426D01*
X474436Y368598D01*
X474438Y368620D01*
X474444Y368641D01*
X474471Y368972D01*
X474471Y390208D01*
X474469Y390225D01*
X474471Y390243D01*
X474450Y390426D01*
X474431Y390608D01*
X474426Y390625D01*
X474424Y390643D01*
X474367Y390818D01*
X474313Y390993D01*
X474305Y391009D01*
X474299Y391026D01*
X474209Y391186D01*
X474121Y391347D01*
X474110Y391361D01*
X474101Y391377D01*
X473981Y391516D01*
X473864Y391657D01*
X473850Y391668D01*
X473838Y391681D01*
X473693Y391794D01*
X473626Y391848D01*
X473586Y391888D01*
X473527Y391936D01*
X473474Y391992D01*
X473372Y392063D01*
X473275Y392143D01*
X473207Y392179D01*
X473144Y392223D01*
X473030Y392273D01*
X472919Y392332D01*
X472845Y392354D01*
X472775Y392384D01*
X472617Y392422D01*
X472533Y392447D01*
X472497Y392450D01*
X472452Y392461D01*
X471099Y392665D01*
X471023Y392669D01*
X470947Y392682D01*
X470822Y392679D01*
X470697Y392685D01*
X470622Y392674D01*
X470545Y392672D01*
X470423Y392644D01*
X470418Y392644D01*
X469775Y392842D01*
X469709Y392855D01*
X469479Y392910D01*
X468825Y393009D01*
X468752Y393054D01*
X468652Y393129D01*
X468582Y393161D01*
X468517Y393202D01*
X468366Y393263D01*
X468287Y393300D01*
X468252Y393308D01*
X468209Y393326D01*
X466902Y393729D01*
X466827Y393744D01*
X466755Y393769D01*
X466630Y393784D01*
X466507Y393809D01*
X466431Y393809D01*
X466355Y393819D01*
X466230Y393810D01*
X466225Y393810D01*
X465619Y394102D01*
X465555Y394125D01*
X465336Y394213D01*
X464704Y394408D01*
X464639Y394464D01*
X464551Y394553D01*
X464487Y394595D01*
X464429Y394645D01*
X464288Y394728D01*
X464216Y394776D01*
X464183Y394790D01*
X464143Y394813D01*
X462910Y395407D01*
X462838Y395433D01*
X462770Y395468D01*
X462650Y395502D01*
X462532Y395545D01*
X462456Y395557D01*
X462383Y395578D01*
X462258Y395587D01*
X462252Y395588D01*
X461697Y395967D01*
X461638Y395999D01*
X461434Y396119D01*
X460838Y396406D01*
X460782Y396471D01*
X460708Y396572D01*
X460651Y396623D01*
X460601Y396682D01*
X460475Y396784D01*
X460410Y396843D01*
X460379Y396861D01*
X460343Y396890D01*
X459213Y397661D01*
X459146Y397698D01*
X459084Y397743D01*
X458969Y397794D01*
X458860Y397854D01*
X458787Y397877D01*
X458717Y397908D01*
X458595Y397937D01*
X458589Y397938D01*
X458097Y398396D01*
X458043Y398437D01*
X457859Y398585D01*
X457313Y398958D01*
X457267Y399031D01*
X457209Y399141D01*
X457160Y399201D01*
X457120Y399266D01*
X457010Y399386D01*
X456955Y399454D01*
X456927Y399477D01*
X456896Y399511D01*
X455893Y400442D01*
X455832Y400488D01*
X455777Y400541D01*
X455672Y400609D01*
X455572Y400685D01*
X455503Y400718D01*
X455439Y400760D01*
X455323Y400806D01*
X455318Y400808D01*
X454899Y401334D01*
X454852Y401382D01*
X454692Y401557D01*
X454207Y402007D01*
X454173Y402085D01*
X454132Y402204D01*
X454093Y402270D01*
X454062Y402340D01*
X453972Y402475D01*
X453927Y402550D01*
X453903Y402577D01*
X453878Y402615D01*
X453025Y403685D01*
X452971Y403740D01*
X452925Y403801D01*
X452831Y403884D01*
X452744Y403974D01*
X452681Y404017D01*
X452623Y404068D01*
X452515Y404130D01*
X452510Y404134D01*
X452174Y404716D01*
X452135Y404771D01*
X452003Y404967D01*
X451591Y405485D01*
X451569Y405567D01*
X451546Y405691D01*
X451517Y405761D01*
X451497Y405835D01*
X451427Y405983D01*
X451395Y406064D01*
X451375Y406094D01*
X451356Y406135D01*
X450672Y407321D01*
X450627Y407383D01*
X450590Y407450D01*
X450510Y407546D01*
X450437Y407648D01*
X450381Y407700D01*
X450332Y407759D01*
X450234Y407837D01*
X450230Y407840D01*
X449985Y408466D01*
X449954Y408526D01*
X449853Y408740D01*
X449522Y409313D01*
X449513Y409398D01*
X449508Y409524D01*
X449490Y409598D01*
X449482Y409674D01*
X449435Y409830D01*
X449415Y409915D01*
X449400Y409948D01*
X449386Y409992D01*
X448887Y411266D01*
X448852Y411334D01*
X448826Y411406D01*
X448760Y411513D01*
X448703Y411624D01*
X448656Y411684D01*
X448616Y411749D01*
X448531Y411842D01*
X448527Y411846D01*
X448378Y412501D01*
X448357Y412565D01*
X448289Y412791D01*
X448047Y413408D01*
X448050Y413493D01*
X448065Y413618D01*
X448058Y413694D01*
X448061Y413770D01*
X448038Y413932D01*
X448031Y414019D01*
X448021Y414053D01*
X448014Y414099D01*
X447710Y415433D01*
X447686Y415506D01*
X447670Y415581D01*
X447622Y415696D01*
X447582Y415815D01*
X447544Y415881D01*
X447514Y415952D01*
X447444Y416055D01*
X447441Y416060D01*
X447391Y416731D01*
X447379Y416797D01*
X447346Y417031D01*
X447199Y417676D01*
X447215Y417760D01*
X447247Y417881D01*
X447252Y417958D01*
X447267Y418033D01*
X447268Y418196D01*
X447273Y418283D01*
X447269Y418318D01*
X447269Y418364D01*
X447167Y419729D01*
X447154Y419804D01*
X447150Y419881D01*
X447119Y420002D01*
X447098Y420126D01*
X447070Y420197D01*
X447051Y420271D01*
X446997Y420384D01*
X446995Y420389D01*
X447045Y421059D01*
X447044Y421127D01*
X447045Y421363D01*
X446996Y422023D01*
X447024Y422104D01*
X447075Y422219D01*
X447091Y422294D01*
X447116Y422366D01*
X447142Y422527D01*
X447160Y422612D01*
X447161Y422648D01*
X447168Y422694D01*
X447271Y424058D01*
X447269Y424135D01*
X447277Y424211D01*
X447264Y424335D01*
X447261Y424461D01*
X447244Y424535D01*
X447237Y424611D01*
X447200Y424731D01*
X447199Y424736D01*
X447348Y425392D01*
X447357Y425458D01*
X447394Y425692D01*
X447444Y426352D01*
X447484Y426428D01*
X447550Y426534D01*
X447578Y426605D01*
X447614Y426673D01*
X447663Y426828D01*
X447694Y426910D01*
X447700Y426945D01*
X447714Y426989D01*
X448019Y428323D01*
X448028Y428399D01*
X448047Y428473D01*
X448053Y428598D01*
X448069Y428723D01*
X448063Y428799D01*
X448067Y428875D01*
X448049Y428999D01*
X448048Y429005D01*
X448294Y429631D01*
X448312Y429695D01*
X448384Y429921D01*
X448531Y430566D01*
X448582Y430635D01*
X448664Y430730D01*
X448701Y430796D01*
X448747Y430858D01*
X448819Y431004D01*
X448862Y431080D01*
X448873Y431114D01*
X448893Y431156D01*
X449394Y432429D01*
X449414Y432503D01*
X449444Y432573D01*
X449469Y432696D01*
X449503Y432817D01*
X449509Y432893D01*
X449524Y432968D01*
X449524Y433093D01*
X449525Y433099D01*
X449806Y433586D01*
X449870Y433728D01*
X449941Y433866D01*
X449953Y433911D01*
X449972Y433953D01*
X450007Y434105D01*
X450049Y434254D01*
X450052Y434300D01*
X450062Y434346D01*
X450067Y434501D01*
X450078Y434656D01*
X450072Y434702D01*
X450074Y434748D01*
X450047Y434901D01*
X450028Y435055D01*
X450013Y435099D01*
X450005Y435145D01*
X449949Y435290D01*
X449899Y435437D01*
X449876Y435477D01*
X449860Y435520D01*
X449776Y435651D01*
X449698Y435786D01*
X449665Y435826D01*
X449643Y435860D01*
X449583Y435922D01*
X449484Y436039D01*
X445961Y439562D01*
X445937Y439581D01*
X445916Y439605D01*
X445781Y439709D01*
X445649Y439817D01*
X445622Y439831D01*
X445597Y439850D01*
X445304Y440001D01*
X443811Y441494D01*
X443797Y441519D01*
X443787Y441549D01*
X443702Y441696D01*
X443622Y441847D01*
X443602Y441871D01*
X443586Y441898D01*
X443372Y442151D01*
X436520Y449003D01*
X436506Y449014D01*
X436495Y449028D01*
X436350Y449142D01*
X436209Y449258D01*
X436193Y449266D01*
X436179Y449277D01*
X436014Y449361D01*
X435853Y449446D01*
X435836Y449451D01*
X435820Y449459D01*
X435643Y449509D01*
X435467Y449561D01*
X435449Y449563D01*
X435432Y449567D01*
X435249Y449581D01*
X435066Y449597D01*
X435048Y449596D01*
X435030Y449597D01*
X434849Y449574D01*
X434666Y449554D01*
X434649Y449549D01*
X434631Y449546D01*
X434458Y449488D01*
X434282Y449433D01*
X434266Y449424D01*
X434249Y449418D01*
X434090Y449326D01*
X433930Y449238D01*
X433916Y449226D01*
X433900Y449217D01*
X433647Y449003D01*
X432904Y448259D01*
X432887Y448238D01*
X432866Y448221D01*
X432760Y448083D01*
X432649Y447947D01*
X432636Y447924D01*
X432620Y447903D01*
X432542Y447746D01*
X432460Y447592D01*
X432452Y447566D01*
X432440Y447542D01*
X432395Y447373D01*
X432345Y447206D01*
X432343Y447179D01*
X432336Y447153D01*
X432309Y446822D01*
X432309Y434557D01*
X432311Y434531D01*
X432309Y434504D01*
X432331Y434331D01*
X432349Y434157D01*
X432357Y434131D01*
X432360Y434105D01*
X432415Y433939D01*
X432467Y433772D01*
X432480Y433748D01*
X432488Y433723D01*
X432575Y433572D01*
X432659Y433418D01*
X432676Y433397D01*
X432689Y433374D01*
X432904Y433121D01*
X433759Y432266D01*
X434567Y430316D01*
X434567Y428204D01*
X433759Y426254D01*
X432266Y424761D01*
X430316Y423953D01*
X428204Y423953D01*
X426254Y424761D01*
X424761Y426254D01*
X423953Y428204D01*
X423953Y430316D01*
X424761Y432266D01*
X425616Y433121D01*
X425633Y433142D01*
X425654Y433159D01*
X425761Y433297D01*
X425871Y433433D01*
X425884Y433456D01*
X425900Y433477D01*
X425978Y433634D01*
X426060Y433788D01*
X426068Y433814D01*
X426080Y433838D01*
X426125Y434007D01*
X426175Y434174D01*
X426177Y434201D01*
X426184Y434227D01*
X426211Y434557D01*
X426211Y446822D01*
X426209Y446849D01*
X426211Y446876D01*
X426189Y447050D01*
X426171Y447223D01*
X426164Y447249D01*
X426160Y447275D01*
X426105Y447441D01*
X426053Y447608D01*
X426040Y447632D01*
X426032Y447657D01*
X425945Y447809D01*
X425861Y447962D01*
X425844Y447983D01*
X425831Y448006D01*
X425616Y448259D01*
X424761Y449114D01*
X423953Y451064D01*
X423953Y452120D01*
X423951Y452138D01*
X423953Y452156D01*
X423932Y452338D01*
X423913Y452521D01*
X423908Y452538D01*
X423906Y452555D01*
X423849Y452730D01*
X423795Y452906D01*
X423787Y452921D01*
X423781Y452938D01*
X423691Y453098D01*
X423603Y453260D01*
X423592Y453273D01*
X423583Y453289D01*
X423463Y453428D01*
X423346Y453569D01*
X423332Y453580D01*
X423320Y453594D01*
X423175Y453706D01*
X423032Y453821D01*
X423016Y453829D01*
X423002Y453840D01*
X422837Y453922D01*
X422675Y454007D01*
X422658Y454012D01*
X422642Y454020D01*
X422463Y454067D01*
X422288Y454118D01*
X422270Y454120D01*
X422253Y454124D01*
X421922Y454151D01*
X413828Y454151D01*
X413810Y454149D01*
X413792Y454151D01*
X413610Y454130D01*
X413427Y454111D01*
X413410Y454106D01*
X413393Y454104D01*
X413218Y454047D01*
X413042Y453993D01*
X413027Y453985D01*
X413010Y453979D01*
X412850Y453889D01*
X412688Y453801D01*
X412675Y453790D01*
X412659Y453781D01*
X412520Y453661D01*
X412379Y453544D01*
X412368Y453530D01*
X412354Y453518D01*
X412242Y453373D01*
X412127Y453230D01*
X412119Y453214D01*
X412108Y453200D01*
X412026Y453035D01*
X411941Y452873D01*
X411936Y452856D01*
X411928Y452840D01*
X411881Y452661D01*
X411830Y452486D01*
X411828Y452468D01*
X411824Y452451D01*
X411797Y452120D01*
X411797Y450849D01*
X399224Y450849D01*
X399206Y450847D01*
X399189Y450848D01*
X399006Y450827D01*
X398824Y450809D01*
X398807Y450804D01*
X398789Y450802D01*
X398614Y450745D01*
X398439Y450691D01*
X398423Y450682D01*
X398406Y450677D01*
X398246Y450586D01*
X398085Y450499D01*
X398071Y450488D01*
X398055Y450479D01*
X397916Y450359D01*
X397775Y450241D01*
X397764Y450227D01*
X397751Y450216D01*
X397638Y450071D01*
X397523Y449927D01*
X397515Y449912D01*
X397504Y449898D01*
X397422Y449733D01*
X397338Y449570D01*
X397333Y449553D01*
X397325Y449537D01*
X397277Y449359D01*
X397258Y449295D01*
X397215Y449427D01*
X397161Y449603D01*
X397153Y449619D01*
X397147Y449636D01*
X397057Y449796D01*
X396969Y449957D01*
X396958Y449971D01*
X396949Y449986D01*
X396829Y450126D01*
X396711Y450266D01*
X396698Y450278D01*
X396686Y450291D01*
X396541Y450404D01*
X396398Y450519D01*
X396382Y450527D01*
X396368Y450538D01*
X396203Y450620D01*
X396040Y450704D01*
X396023Y450709D01*
X396007Y450717D01*
X395829Y450765D01*
X395654Y450816D01*
X395636Y450817D01*
X395619Y450822D01*
X395288Y450849D01*
X382715Y450849D01*
X382715Y452120D01*
X382713Y452138D01*
X382715Y452156D01*
X382694Y452338D01*
X382675Y452521D01*
X382670Y452538D01*
X382668Y452555D01*
X382611Y452730D01*
X382557Y452906D01*
X382549Y452921D01*
X382543Y452938D01*
X382453Y453098D01*
X382366Y453260D01*
X382354Y453273D01*
X382345Y453289D01*
X382225Y453428D01*
X382108Y453569D01*
X382094Y453580D01*
X382082Y453594D01*
X381937Y453706D01*
X381794Y453821D01*
X381778Y453829D01*
X381764Y453840D01*
X381600Y453922D01*
X381437Y454007D01*
X381420Y454012D01*
X381404Y454020D01*
X381226Y454067D01*
X381050Y454118D01*
X381032Y454120D01*
X381015Y454124D01*
X380684Y454151D01*
X379730Y454151D01*
X379712Y454149D01*
X379694Y454151D01*
X379512Y454130D01*
X379329Y454111D01*
X379312Y454106D01*
X379295Y454104D01*
X379120Y454047D01*
X378944Y453993D01*
X378929Y453985D01*
X378912Y453979D01*
X378752Y453889D01*
X378590Y453801D01*
X378577Y453790D01*
X378561Y453781D01*
X378422Y453661D01*
X378281Y453544D01*
X378270Y453530D01*
X378257Y453518D01*
X378144Y453373D01*
X378029Y453230D01*
X378021Y453214D01*
X378010Y453200D01*
X377928Y453035D01*
X377843Y452873D01*
X377838Y452856D01*
X377830Y452840D01*
X377783Y452661D01*
X377732Y452486D01*
X377730Y452468D01*
X377726Y452451D01*
X377699Y452120D01*
X377699Y427990D01*
X377701Y427963D01*
X377699Y427937D01*
X377721Y427763D01*
X377739Y427589D01*
X377747Y427564D01*
X377750Y427537D01*
X377806Y427372D01*
X377857Y427204D01*
X377870Y427181D01*
X377878Y427156D01*
X377965Y427004D01*
X378049Y426850D01*
X378066Y426830D01*
X378079Y426807D01*
X378294Y426554D01*
X407230Y397617D01*
X407254Y397598D01*
X407275Y397574D01*
X407410Y397470D01*
X407541Y397362D01*
X407569Y397348D01*
X407594Y397329D01*
X407889Y397177D01*
X413268Y394949D01*
X417269Y390948D01*
X419497Y385569D01*
X419512Y385541D01*
X419522Y385512D01*
X419607Y385364D01*
X419687Y385214D01*
X419707Y385190D01*
X419723Y385163D01*
X419937Y384910D01*
X427229Y377619D01*
X427229Y351361D01*
X383374Y307506D01*
X383357Y307486D01*
X383337Y307468D01*
X383229Y307330D01*
X383119Y307195D01*
X383106Y307171D01*
X383090Y307150D01*
X383012Y306993D01*
X382930Y306839D01*
X382922Y306814D01*
X382910Y306790D01*
X382865Y306620D01*
X382815Y306453D01*
X382813Y306427D01*
X382806Y306401D01*
X382779Y306070D01*
X382779Y261620D01*
X382781Y261602D01*
X382779Y261584D01*
X382800Y261402D01*
X382819Y261219D01*
X382824Y261202D01*
X382826Y261185D01*
X382883Y261010D01*
X382937Y260834D01*
X382945Y260819D01*
X382951Y260802D01*
X383041Y260642D01*
X383129Y260480D01*
X383140Y260467D01*
X383149Y260451D01*
X383269Y260312D01*
X383386Y260171D01*
X383400Y260160D01*
X383412Y260147D01*
X383557Y260034D01*
X383700Y259919D01*
X383716Y259911D01*
X383730Y259900D01*
X383895Y259818D01*
X384057Y259733D01*
X384074Y259728D01*
X384091Y259720D01*
X384269Y259673D01*
X384444Y259622D01*
X384462Y259620D01*
X384479Y259616D01*
X384810Y259589D01*
X403492Y259589D01*
X403510Y259591D01*
G37*
%LPC*%
G36*
X297395Y254535D02*
X297395Y254535D01*
X294286Y257644D01*
X294286Y262040D01*
X295888Y263642D01*
X295892Y263648D01*
X295898Y263653D01*
X295947Y263731D01*
X295999Y263809D01*
X296000Y263816D01*
X296004Y263823D01*
X296036Y264000D01*
X296036Y270224D01*
X296035Y270231D01*
X296036Y270239D01*
X296015Y270329D01*
X295997Y270420D01*
X295992Y270427D01*
X295990Y270434D01*
X295888Y270582D01*
X269185Y297285D01*
X269179Y297289D01*
X269174Y297295D01*
X269096Y297344D01*
X269018Y297396D01*
X269011Y297397D01*
X269004Y297401D01*
X268827Y297433D01*
X253797Y297433D01*
X241553Y309677D01*
X241553Y332943D01*
X278758Y370148D01*
X278760Y370151D01*
X278763Y370153D01*
X278815Y370234D01*
X278869Y370315D01*
X278869Y370319D01*
X278872Y370322D01*
X278888Y370416D01*
X278906Y370512D01*
X278906Y370515D01*
X278906Y370519D01*
X278885Y370614D01*
X278865Y370708D01*
X278862Y370711D01*
X278862Y370715D01*
X278805Y370793D01*
X278750Y370872D01*
X278747Y370874D01*
X278745Y370878D01*
X278593Y370975D01*
X275974Y372060D01*
X272380Y375654D01*
X270435Y380349D01*
X270435Y385431D01*
X272380Y390126D01*
X275974Y393720D01*
X276190Y393809D01*
X277414Y394317D01*
X278639Y394824D01*
X279863Y395331D01*
X279864Y395331D01*
X280669Y395665D01*
X284226Y395665D01*
X284231Y395666D01*
X284236Y395665D01*
X284329Y395686D01*
X284423Y395704D01*
X284427Y395707D01*
X284432Y395708D01*
X284510Y395764D01*
X284588Y395817D01*
X284591Y395821D01*
X284595Y395824D01*
X284646Y395906D01*
X284698Y395985D01*
X284698Y395990D01*
X284701Y395995D01*
X284733Y396172D01*
X284733Y437445D01*
X284732Y437453D01*
X284733Y437461D01*
X284712Y437551D01*
X284694Y437642D01*
X284689Y437648D01*
X284687Y437656D01*
X284585Y437804D01*
X283597Y438792D01*
X281431Y444020D01*
X281431Y449679D01*
X283597Y454907D01*
X284585Y455895D01*
X284589Y455902D01*
X284595Y455906D01*
X284644Y455985D01*
X284696Y456062D01*
X284697Y456070D01*
X284701Y456076D01*
X284733Y456254D01*
X284733Y458147D01*
X286073Y459487D01*
X288893Y459487D01*
X288902Y459489D01*
X288911Y459487D01*
X289087Y459525D01*
X289089Y459526D01*
X289090Y459526D01*
X289634Y459752D01*
X290858Y460259D01*
X290859Y460259D01*
X292083Y460766D01*
X292826Y461074D01*
X298486Y461074D01*
X302225Y459525D01*
X302234Y459524D01*
X302242Y459519D01*
X302419Y459487D01*
X327337Y459487D01*
X328677Y458147D01*
X328677Y431882D01*
X328679Y431873D01*
X328677Y431864D01*
X328715Y431688D01*
X329312Y430248D01*
X329312Y345900D01*
X328715Y344460D01*
X328714Y344451D01*
X328709Y344443D01*
X328677Y344266D01*
X328677Y335603D01*
X327189Y334115D01*
X295135Y302061D01*
X295133Y302058D01*
X295130Y302056D01*
X294470Y301380D01*
X293522Y301380D01*
X293519Y301380D01*
X293516Y301380D01*
X276569Y301180D01*
X276471Y301159D01*
X276374Y301138D01*
X276373Y301138D01*
X276291Y301081D01*
X276209Y301024D01*
X276209Y301023D01*
X276208Y301023D01*
X276154Y300937D01*
X276102Y300854D01*
X276101Y300854D01*
X276082Y300737D01*
X276068Y300657D01*
X276068Y300656D01*
X276093Y300551D01*
X276114Y300462D01*
X276114Y300461D01*
X276118Y300456D01*
X276216Y300314D01*
X303150Y273380D01*
X303150Y264000D01*
X303151Y263992D01*
X303150Y263985D01*
X303171Y263895D01*
X303189Y263804D01*
X303194Y263797D01*
X303196Y263790D01*
X303298Y263642D01*
X304900Y262040D01*
X304900Y257644D01*
X301791Y254535D01*
X297395Y254535D01*
G37*
%LPD*%
G36*
X386076Y331982D02*
X386076Y331982D01*
X386107Y331980D01*
X386277Y332002D01*
X386446Y332019D01*
X386476Y332028D01*
X386507Y332032D01*
X386822Y332133D01*
X388834Y332967D01*
X390946Y332967D01*
X392958Y332133D01*
X392987Y332124D01*
X393015Y332110D01*
X393180Y332066D01*
X393343Y332017D01*
X393374Y332014D01*
X393404Y332006D01*
X393735Y331979D01*
X404847Y331979D01*
X404874Y331981D01*
X404901Y331979D01*
X405075Y332001D01*
X405248Y332019D01*
X405274Y332027D01*
X405300Y332030D01*
X405466Y332086D01*
X405633Y332137D01*
X405657Y332150D01*
X405682Y332158D01*
X405833Y332245D01*
X405987Y332329D01*
X406007Y332346D01*
X406031Y332359D01*
X406284Y332574D01*
X417299Y343589D01*
X417316Y343610D01*
X417337Y343627D01*
X417444Y343765D01*
X417554Y343901D01*
X417567Y343924D01*
X417583Y343946D01*
X417661Y344102D01*
X417743Y344256D01*
X417751Y344282D01*
X417763Y344306D01*
X417808Y344475D01*
X417858Y344642D01*
X417860Y344669D01*
X417867Y344695D01*
X417894Y345026D01*
X417894Y371167D01*
X417893Y371176D01*
X417894Y371185D01*
X417873Y371376D01*
X417854Y371568D01*
X417852Y371577D01*
X417851Y371586D01*
X417793Y371768D01*
X417736Y371953D01*
X417732Y371961D01*
X417729Y371969D01*
X417636Y372138D01*
X417544Y372307D01*
X417539Y372314D01*
X417534Y372322D01*
X417409Y372469D01*
X417287Y372616D01*
X417280Y372622D01*
X417274Y372629D01*
X417122Y372748D01*
X416973Y372869D01*
X416965Y372873D01*
X416958Y372878D01*
X416785Y372966D01*
X416616Y373054D01*
X416607Y373057D01*
X416599Y373061D01*
X416414Y373112D01*
X416229Y373165D01*
X416220Y373166D01*
X416211Y373169D01*
X416019Y373183D01*
X415827Y373198D01*
X415819Y373197D01*
X415810Y373198D01*
X415618Y373174D01*
X415428Y373151D01*
X415419Y373149D01*
X415410Y373148D01*
X415229Y373086D01*
X415045Y373027D01*
X415037Y373022D01*
X415029Y373019D01*
X414863Y372924D01*
X414694Y372829D01*
X414687Y372823D01*
X414680Y372818D01*
X414427Y372604D01*
X414194Y372371D01*
X412438Y371095D01*
X410504Y370110D01*
X408959Y369608D01*
X408959Y381172D01*
X408957Y381190D01*
X408959Y381207D01*
X408938Y381390D01*
X408919Y381572D01*
X408914Y381589D01*
X408912Y381607D01*
X408855Y381782D01*
X408801Y381957D01*
X408793Y381973D01*
X408787Y381990D01*
X408697Y382150D01*
X408609Y382311D01*
X408598Y382325D01*
X408589Y382341D01*
X408469Y382480D01*
X408352Y382621D01*
X408338Y382632D01*
X408326Y382645D01*
X408181Y382758D01*
X408038Y382873D01*
X408022Y382881D01*
X408008Y382892D01*
X407843Y382974D01*
X407681Y383058D01*
X407664Y383063D01*
X407648Y383071D01*
X407469Y383119D01*
X407294Y383170D01*
X407276Y383171D01*
X407259Y383176D01*
X406928Y383203D01*
X405523Y383203D01*
X405523Y384608D01*
X405521Y384626D01*
X405523Y384644D01*
X405501Y384826D01*
X405483Y385009D01*
X405478Y385026D01*
X405476Y385043D01*
X405419Y385218D01*
X405365Y385394D01*
X405357Y385409D01*
X405351Y385426D01*
X405261Y385586D01*
X405173Y385748D01*
X405162Y385761D01*
X405153Y385777D01*
X405033Y385916D01*
X404915Y386057D01*
X404902Y386068D01*
X404890Y386082D01*
X404745Y386194D01*
X404602Y386309D01*
X404586Y386317D01*
X404572Y386328D01*
X404407Y386410D01*
X404244Y386495D01*
X404227Y386500D01*
X404211Y386508D01*
X404033Y386555D01*
X403858Y386606D01*
X403840Y386608D01*
X403823Y386612D01*
X403492Y386639D01*
X391928Y386639D01*
X392430Y388184D01*
X393415Y390118D01*
X394691Y391874D01*
X396226Y393409D01*
X397982Y394685D01*
X399916Y395670D01*
X402125Y396388D01*
X402211Y396426D01*
X402299Y396454D01*
X402394Y396506D01*
X402494Y396550D01*
X402570Y396603D01*
X402652Y396648D01*
X402734Y396719D01*
X402823Y396781D01*
X402888Y396849D01*
X402959Y396909D01*
X403026Y396994D01*
X403101Y397073D01*
X403151Y397152D01*
X403208Y397225D01*
X403258Y397322D01*
X403315Y397414D01*
X403348Y397501D01*
X403391Y397584D01*
X403420Y397688D01*
X403458Y397790D01*
X403474Y397882D01*
X403499Y397972D01*
X403507Y398080D01*
X403524Y398187D01*
X403521Y398280D01*
X403528Y398373D01*
X403514Y398481D01*
X403511Y398590D01*
X403489Y398680D01*
X403478Y398773D01*
X403443Y398876D01*
X403418Y398981D01*
X403379Y399066D01*
X403349Y399154D01*
X403295Y399249D01*
X403250Y399347D01*
X403195Y399422D01*
X403148Y399503D01*
X403062Y399606D01*
X403013Y399673D01*
X402976Y399706D01*
X402934Y399756D01*
X378852Y423838D01*
X376173Y426517D01*
X376173Y453390D01*
X376171Y453408D01*
X376173Y453426D01*
X376152Y453608D01*
X376133Y453791D01*
X376128Y453808D01*
X376126Y453825D01*
X376069Y454000D01*
X376015Y454176D01*
X376007Y454191D01*
X376001Y454208D01*
X375911Y454368D01*
X375823Y454530D01*
X375812Y454543D01*
X375803Y454559D01*
X375683Y454698D01*
X375566Y454839D01*
X375552Y454850D01*
X375540Y454864D01*
X375395Y454976D01*
X375252Y455091D01*
X375236Y455099D01*
X375222Y455110D01*
X375057Y455192D01*
X374895Y455277D01*
X374878Y455282D01*
X374862Y455290D01*
X374683Y455337D01*
X374508Y455388D01*
X374490Y455390D01*
X374473Y455394D01*
X374142Y455421D01*
X361684Y455421D01*
X361671Y455420D01*
X361658Y455421D01*
X361471Y455400D01*
X361284Y455381D01*
X361271Y455377D01*
X361257Y455376D01*
X361078Y455318D01*
X360899Y455263D01*
X360887Y455257D01*
X360874Y455253D01*
X360709Y455161D01*
X360545Y455071D01*
X360534Y455063D01*
X360523Y455056D01*
X360379Y454934D01*
X360235Y454814D01*
X360227Y454803D01*
X360217Y454795D01*
X360100Y454646D01*
X359983Y454500D01*
X359977Y454488D01*
X359969Y454478D01*
X359884Y454309D01*
X359798Y454143D01*
X359794Y454130D01*
X359788Y454118D01*
X359738Y453937D01*
X359686Y453756D01*
X359685Y453742D01*
X359682Y453729D01*
X359669Y453541D01*
X359653Y453354D01*
X359655Y453341D01*
X359654Y453328D01*
X359678Y453140D01*
X359700Y452955D01*
X359704Y452942D01*
X359706Y452929D01*
X359808Y452613D01*
X360255Y451533D01*
X360438Y450849D01*
X348424Y450849D01*
X348406Y450847D01*
X348389Y450848D01*
X348206Y450827D01*
X348024Y450809D01*
X348007Y450804D01*
X347989Y450802D01*
X347814Y450745D01*
X347639Y450691D01*
X347623Y450682D01*
X347606Y450677D01*
X347446Y450586D01*
X347285Y450499D01*
X347271Y450488D01*
X347255Y450479D01*
X347116Y450359D01*
X346975Y450241D01*
X346964Y450227D01*
X346951Y450216D01*
X346838Y450071D01*
X346723Y449927D01*
X346715Y449912D01*
X346704Y449898D01*
X346622Y449733D01*
X346538Y449570D01*
X346533Y449553D01*
X346525Y449537D01*
X346477Y449359D01*
X346426Y449183D01*
X346425Y449165D01*
X346420Y449148D01*
X346393Y448818D01*
X346393Y446913D01*
X344488Y446913D01*
X344470Y446911D01*
X344452Y446912D01*
X344270Y446891D01*
X344087Y446873D01*
X344070Y446867D01*
X344053Y446865D01*
X343878Y446808D01*
X343702Y446755D01*
X343687Y446746D01*
X343670Y446740D01*
X343510Y446650D01*
X343348Y446563D01*
X343335Y446551D01*
X343319Y446543D01*
X343180Y446422D01*
X343039Y446305D01*
X343028Y446291D01*
X343014Y446279D01*
X342902Y446134D01*
X342787Y445991D01*
X342779Y445975D01*
X342768Y445961D01*
X342686Y445796D01*
X342601Y445634D01*
X342596Y445617D01*
X342588Y445601D01*
X342540Y445423D01*
X342490Y445247D01*
X342488Y445229D01*
X342484Y445212D01*
X342457Y444881D01*
X342457Y432867D01*
X341772Y433051D01*
X340011Y433780D01*
X338360Y434733D01*
X336848Y435894D01*
X336716Y436025D01*
X336709Y436031D01*
X336704Y436038D01*
X336554Y436158D01*
X336405Y436281D01*
X336397Y436285D01*
X336390Y436290D01*
X336221Y436378D01*
X336049Y436469D01*
X336041Y436472D01*
X336033Y436476D01*
X335849Y436529D01*
X335663Y436584D01*
X335654Y436585D01*
X335646Y436587D01*
X335454Y436603D01*
X335262Y436620D01*
X335253Y436619D01*
X335244Y436620D01*
X335054Y436598D01*
X334862Y436577D01*
X334854Y436574D01*
X334845Y436573D01*
X334660Y436513D01*
X334478Y436456D01*
X334470Y436451D01*
X334462Y436448D01*
X334294Y436354D01*
X334126Y436261D01*
X334119Y436255D01*
X334111Y436250D01*
X333966Y436125D01*
X333819Y436000D01*
X333813Y435993D01*
X333807Y435987D01*
X333690Y435837D01*
X333569Y435684D01*
X333565Y435676D01*
X333560Y435669D01*
X333474Y435497D01*
X333387Y435325D01*
X333385Y435317D01*
X333380Y435309D01*
X333330Y435122D01*
X333279Y434938D01*
X333278Y434929D01*
X333276Y434920D01*
X333249Y434589D01*
X333249Y334010D01*
X333251Y333992D01*
X333249Y333974D01*
X333270Y333792D01*
X333289Y333609D01*
X333294Y333592D01*
X333296Y333575D01*
X333353Y333400D01*
X333407Y333224D01*
X333415Y333209D01*
X333421Y333192D01*
X333511Y333032D01*
X333599Y332870D01*
X333610Y332857D01*
X333619Y332841D01*
X333739Y332702D01*
X333856Y332561D01*
X333870Y332550D01*
X333882Y332537D01*
X334027Y332424D01*
X334170Y332309D01*
X334186Y332301D01*
X334200Y332290D01*
X334365Y332208D01*
X334527Y332123D01*
X334544Y332118D01*
X334561Y332110D01*
X334739Y332063D01*
X334914Y332012D01*
X334932Y332010D01*
X334949Y332006D01*
X335280Y331979D01*
X386045Y331979D01*
X386076Y331982D01*
G37*
G36*
X293516Y302906D02*
X293516Y302906D01*
X293601Y302921D01*
X293688Y302928D01*
X293722Y302942D01*
X293758Y302948D01*
X293835Y302990D01*
X293914Y303024D01*
X293951Y303053D01*
X293974Y303066D01*
X293995Y303089D01*
X294045Y303129D01*
X326928Y336012D01*
X326981Y336086D01*
X327041Y336155D01*
X327053Y336185D01*
X327072Y336211D01*
X327099Y336298D01*
X327133Y336383D01*
X327137Y336424D01*
X327144Y336447D01*
X327143Y336479D01*
X327151Y336550D01*
X327151Y457200D01*
X327148Y457220D01*
X327150Y457239D01*
X327128Y457341D01*
X327112Y457443D01*
X327102Y457460D01*
X327098Y457480D01*
X327045Y457569D01*
X326996Y457660D01*
X326982Y457674D01*
X326972Y457691D01*
X326893Y457758D01*
X326818Y457830D01*
X326800Y457838D01*
X326785Y457851D01*
X326689Y457890D01*
X326595Y457933D01*
X326575Y457935D01*
X326557Y457943D01*
X326390Y457961D01*
X287020Y457961D01*
X287000Y457958D01*
X286981Y457960D01*
X286879Y457938D01*
X286777Y457922D01*
X286760Y457912D01*
X286740Y457908D01*
X286651Y457855D01*
X286560Y457806D01*
X286546Y457792D01*
X286529Y457782D01*
X286462Y457703D01*
X286391Y457628D01*
X286382Y457610D01*
X286369Y457595D01*
X286330Y457499D01*
X286287Y457405D01*
X286285Y457385D01*
X286277Y457367D01*
X286259Y457200D01*
X286259Y424379D01*
X286274Y424289D01*
X286281Y424198D01*
X286293Y424169D01*
X286299Y424137D01*
X286341Y424056D01*
X286377Y423972D01*
X286403Y423940D01*
X286414Y423919D01*
X286437Y423897D01*
X286482Y423841D01*
X287501Y422822D01*
X287501Y418426D01*
X286482Y417407D01*
X286429Y417333D01*
X286425Y417328D01*
X286391Y417292D01*
X286386Y417284D01*
X286369Y417263D01*
X286357Y417233D01*
X286338Y417207D01*
X286313Y417126D01*
X286287Y417069D01*
X286285Y417055D01*
X286277Y417035D01*
X286273Y416994D01*
X286266Y416972D01*
X286267Y416940D01*
X286259Y416869D01*
X286259Y412496D01*
X286262Y412476D01*
X286260Y412457D01*
X286282Y412355D01*
X286299Y412253D01*
X286308Y412236D01*
X286312Y412216D01*
X286365Y412127D01*
X286414Y412036D01*
X286428Y412022D01*
X286438Y412005D01*
X286517Y411938D01*
X286592Y411866D01*
X286610Y411858D01*
X286625Y411845D01*
X286721Y411806D01*
X286815Y411763D01*
X286835Y411761D01*
X286853Y411753D01*
X287020Y411735D01*
X295954Y411735D01*
X298381Y410729D01*
X300239Y408871D01*
X301245Y406444D01*
X301245Y403816D01*
X300239Y401389D01*
X298381Y399531D01*
X295954Y398525D01*
X287020Y398525D01*
X287000Y398522D01*
X286981Y398524D01*
X286879Y398502D01*
X286777Y398486D01*
X286760Y398476D01*
X286740Y398472D01*
X286651Y398419D01*
X286560Y398370D01*
X286546Y398356D01*
X286529Y398346D01*
X286462Y398267D01*
X286391Y398192D01*
X286382Y398174D01*
X286369Y398159D01*
X286330Y398063D01*
X286287Y397969D01*
X286285Y397949D01*
X286277Y397931D01*
X286259Y397764D01*
X286259Y395963D01*
X286278Y395848D01*
X286295Y395732D01*
X286298Y395727D01*
X286299Y395720D01*
X286353Y395618D01*
X286406Y395513D01*
X286411Y395508D01*
X286414Y395503D01*
X286498Y395423D01*
X286582Y395341D01*
X286588Y395337D01*
X286592Y395334D01*
X286609Y395326D01*
X286729Y395260D01*
X290446Y393720D01*
X294040Y390126D01*
X295985Y385431D01*
X295985Y380349D01*
X294040Y375654D01*
X290446Y372060D01*
X287237Y370731D01*
X287137Y370669D01*
X287037Y370609D01*
X287033Y370604D01*
X287028Y370601D01*
X286953Y370511D01*
X286877Y370422D01*
X286875Y370416D01*
X286871Y370412D01*
X286829Y370303D01*
X286785Y370194D01*
X286784Y370186D01*
X286783Y370182D01*
X286782Y370164D01*
X286767Y370027D01*
X286767Y368097D01*
X248890Y330220D01*
X248837Y330146D01*
X248777Y330076D01*
X248765Y330046D01*
X248746Y330020D01*
X248719Y329933D01*
X248685Y329848D01*
X248681Y329807D01*
X248674Y329785D01*
X248675Y329753D01*
X248667Y329681D01*
X248667Y312939D01*
X248681Y312848D01*
X248689Y312758D01*
X248701Y312728D01*
X248706Y312696D01*
X248749Y312615D01*
X248785Y312531D01*
X248811Y312499D01*
X248822Y312478D01*
X248845Y312456D01*
X248890Y312400D01*
X256520Y304770D01*
X256594Y304717D01*
X256664Y304657D01*
X256694Y304645D01*
X256720Y304626D01*
X256807Y304599D01*
X256892Y304565D01*
X256933Y304561D01*
X256955Y304554D01*
X256987Y304555D01*
X257059Y304547D01*
X271983Y304547D01*
X273630Y302900D01*
X273708Y302844D01*
X273781Y302783D01*
X273807Y302772D01*
X273830Y302756D01*
X273921Y302728D01*
X274011Y302693D01*
X274045Y302690D01*
X274065Y302684D01*
X274098Y302685D01*
X274177Y302677D01*
X293516Y302906D01*
G37*
G36*
X478143Y393769D02*
X478143Y393769D01*
X478186Y393768D01*
X482179Y394369D01*
X482209Y394380D01*
X482252Y394385D01*
X486111Y395574D01*
X486139Y395589D01*
X486180Y395601D01*
X489818Y397352D01*
X489840Y397369D01*
X489866Y397378D01*
X489919Y397428D01*
X489977Y397472D01*
X489990Y397496D01*
X490010Y397515D01*
X490040Y397581D01*
X490076Y397645D01*
X490079Y397672D01*
X490090Y397697D01*
X490091Y397770D01*
X490100Y397842D01*
X490092Y397868D01*
X490092Y397896D01*
X490056Y397994D01*
X490044Y398033D01*
X490038Y398041D01*
X490034Y398052D01*
X463034Y444852D01*
X463016Y444872D01*
X463005Y444897D01*
X462951Y444946D01*
X462903Y445001D01*
X462878Y445012D01*
X462858Y445031D01*
X462789Y445055D01*
X462723Y445086D01*
X462696Y445088D01*
X462671Y445097D01*
X462598Y445092D01*
X462525Y445095D01*
X462499Y445086D01*
X462472Y445084D01*
X462376Y445040D01*
X462338Y445026D01*
X462331Y445019D01*
X462321Y445015D01*
X458984Y442741D01*
X458962Y442718D01*
X458926Y442695D01*
X455965Y439949D01*
X455946Y439923D01*
X455914Y439895D01*
X453396Y436739D01*
X453381Y436710D01*
X453354Y436677D01*
X451334Y433181D01*
X451324Y433151D01*
X451301Y433114D01*
X449825Y429356D01*
X449820Y429324D01*
X449803Y429284D01*
X448903Y425348D01*
X448903Y425316D01*
X448892Y425274D01*
X448589Y421248D01*
X448592Y421225D01*
X448589Y421205D01*
X448591Y421195D01*
X448589Y421174D01*
X448890Y417147D01*
X448898Y417116D01*
X448901Y417073D01*
X449798Y413137D01*
X449811Y413108D01*
X449820Y413065D01*
X451294Y409306D01*
X451311Y409279D01*
X451326Y409239D01*
X453344Y405742D01*
X453365Y405718D01*
X453386Y405680D01*
X455902Y402522D01*
X455927Y402502D01*
X455953Y402468D01*
X458912Y399720D01*
X458939Y399704D01*
X458970Y399674D01*
X462306Y397398D01*
X462335Y397386D01*
X462370Y397361D01*
X466008Y395608D01*
X466038Y395600D01*
X466077Y395581D01*
X469935Y394389D01*
X469967Y394386D01*
X470008Y394373D01*
X474000Y393770D01*
X474032Y393771D01*
X474074Y393764D01*
X478112Y393763D01*
X478143Y393769D01*
G37*
G36*
X218330Y393764D02*
X218330Y393764D01*
X218361Y393770D01*
X218404Y393770D01*
X222396Y394373D01*
X222426Y394384D01*
X222469Y394389D01*
X226327Y395581D01*
X226355Y395596D01*
X226397Y395608D01*
X230034Y397361D01*
X230059Y397380D01*
X230098Y397398D01*
X233434Y399674D01*
X233456Y399697D01*
X233492Y399720D01*
X236451Y402468D01*
X236470Y402493D01*
X236502Y402522D01*
X239018Y405680D01*
X239033Y405708D01*
X239060Y405742D01*
X241078Y409239D01*
X241088Y409269D01*
X241110Y409306D01*
X242584Y413065D01*
X242590Y413097D01*
X242606Y413137D01*
X243503Y417073D01*
X243504Y417105D01*
X243514Y417147D01*
X243815Y421174D01*
X243811Y421205D01*
X243812Y421221D01*
X243815Y421238D01*
X243814Y421242D01*
X243815Y421248D01*
X243512Y425274D01*
X243503Y425305D01*
X243501Y425348D01*
X242601Y429284D01*
X242588Y429313D01*
X242579Y429356D01*
X241103Y433114D01*
X241085Y433141D01*
X241070Y433181D01*
X239050Y436677D01*
X239029Y436701D01*
X239008Y436739D01*
X236490Y439895D01*
X236465Y439915D01*
X236439Y439949D01*
X233478Y442695D01*
X233451Y442711D01*
X233420Y442741D01*
X230083Y445015D01*
X230058Y445025D01*
X230037Y445042D01*
X229967Y445063D01*
X229900Y445092D01*
X229872Y445092D01*
X229846Y445099D01*
X229774Y445091D01*
X229701Y445091D01*
X229676Y445080D01*
X229649Y445077D01*
X229585Y445041D01*
X229518Y445013D01*
X229499Y444993D01*
X229476Y444980D01*
X229409Y444899D01*
X229380Y444869D01*
X229377Y444860D01*
X229370Y444852D01*
X202370Y398052D01*
X202361Y398026D01*
X202345Y398003D01*
X202330Y397932D01*
X202306Y397863D01*
X202309Y397836D01*
X202303Y397809D01*
X202316Y397738D01*
X202322Y397665D01*
X202335Y397640D01*
X202340Y397614D01*
X202380Y397553D01*
X202414Y397488D01*
X202435Y397471D01*
X202450Y397448D01*
X202536Y397387D01*
X202567Y397362D01*
X202576Y397359D01*
X202586Y397352D01*
X206224Y395601D01*
X206255Y395594D01*
X206293Y395574D01*
X210152Y394385D01*
X210184Y394382D01*
X210225Y394369D01*
X214218Y393768D01*
X214249Y393770D01*
X214292Y393763D01*
X218330Y393764D01*
G37*
G36*
X462630Y247313D02*
X462630Y247313D01*
X462703Y247313D01*
X462728Y247324D01*
X462755Y247327D01*
X462819Y247363D01*
X462886Y247391D01*
X462905Y247411D01*
X462928Y247424D01*
X462996Y247505D01*
X463024Y247535D01*
X463027Y247544D01*
X463034Y247553D01*
X490034Y294353D01*
X490043Y294378D01*
X490059Y294401D01*
X490074Y294472D01*
X490098Y294541D01*
X490095Y294568D01*
X490101Y294595D01*
X490088Y294666D01*
X490082Y294739D01*
X490069Y294764D01*
X490064Y294790D01*
X490024Y294851D01*
X489990Y294916D01*
X489969Y294933D01*
X489954Y294956D01*
X489868Y295017D01*
X489837Y295042D01*
X489828Y295045D01*
X489818Y295052D01*
X486180Y296803D01*
X486149Y296810D01*
X486111Y296830D01*
X482252Y298019D01*
X482220Y298022D01*
X482179Y298035D01*
X478186Y298636D01*
X478155Y298634D01*
X478112Y298641D01*
X474074Y298640D01*
X474043Y298634D01*
X474000Y298634D01*
X470008Y298031D01*
X469978Y298020D01*
X469935Y298015D01*
X466077Y296823D01*
X466049Y296808D01*
X466008Y296796D01*
X462370Y295043D01*
X462345Y295024D01*
X462306Y295006D01*
X458970Y292730D01*
X458948Y292707D01*
X458912Y292684D01*
X455953Y289936D01*
X455934Y289911D01*
X455902Y289882D01*
X453386Y286724D01*
X453371Y286696D01*
X453344Y286662D01*
X451326Y283165D01*
X451316Y283135D01*
X451294Y283098D01*
X449820Y279339D01*
X449814Y279307D01*
X449798Y279267D01*
X448901Y275331D01*
X448900Y275299D01*
X448890Y275257D01*
X448589Y271231D01*
X448593Y271199D01*
X448589Y271156D01*
X448892Y267130D01*
X448901Y267099D01*
X448903Y267056D01*
X449803Y263120D01*
X449816Y263091D01*
X449825Y263048D01*
X451301Y259290D01*
X451319Y259263D01*
X451334Y259223D01*
X453354Y255727D01*
X453375Y255703D01*
X453396Y255665D01*
X455914Y252509D01*
X455939Y252489D01*
X455965Y252455D01*
X458926Y249709D01*
X458953Y249693D01*
X458984Y249663D01*
X462321Y247389D01*
X462346Y247379D01*
X462367Y247362D01*
X462437Y247341D01*
X462504Y247312D01*
X462532Y247313D01*
X462558Y247305D01*
X462630Y247313D01*
G37*
G36*
X229806Y247312D02*
X229806Y247312D01*
X229879Y247309D01*
X229905Y247318D01*
X229932Y247320D01*
X230028Y247364D01*
X230066Y247378D01*
X230073Y247385D01*
X230083Y247389D01*
X233420Y249663D01*
X233442Y249686D01*
X233478Y249709D01*
X236439Y252455D01*
X236458Y252481D01*
X236490Y252509D01*
X239008Y255665D01*
X239023Y255694D01*
X239050Y255727D01*
X241070Y259223D01*
X241080Y259253D01*
X241103Y259290D01*
X242579Y263048D01*
X242584Y263080D01*
X242601Y263120D01*
X243501Y267056D01*
X243501Y267088D01*
X243512Y267130D01*
X243815Y271156D01*
X243811Y271187D01*
X243815Y271231D01*
X243514Y275257D01*
X243506Y275288D01*
X243503Y275331D01*
X242606Y279267D01*
X242593Y279296D01*
X242584Y279339D01*
X241110Y283098D01*
X241093Y283125D01*
X241078Y283165D01*
X239060Y286662D01*
X239039Y286686D01*
X239018Y286724D01*
X236502Y289882D01*
X236477Y289902D01*
X236451Y289936D01*
X233492Y292684D01*
X233465Y292700D01*
X233434Y292730D01*
X230098Y295006D01*
X230069Y295018D01*
X230034Y295043D01*
X226397Y296796D01*
X226366Y296804D01*
X226327Y296823D01*
X222469Y298015D01*
X222437Y298018D01*
X222396Y298031D01*
X218404Y298634D01*
X218372Y298633D01*
X218330Y298640D01*
X214292Y298641D01*
X214261Y298635D01*
X214218Y298636D01*
X210225Y298035D01*
X210195Y298024D01*
X210152Y298019D01*
X206293Y296830D01*
X206265Y296815D01*
X206224Y296803D01*
X202586Y295052D01*
X202564Y295035D01*
X202538Y295026D01*
X202485Y294976D01*
X202427Y294932D01*
X202414Y294908D01*
X202394Y294889D01*
X202364Y294823D01*
X202328Y294759D01*
X202325Y294732D01*
X202314Y294707D01*
X202313Y294634D01*
X202304Y294562D01*
X202312Y294536D01*
X202312Y294508D01*
X202348Y294410D01*
X202360Y294371D01*
X202366Y294363D01*
X202370Y294353D01*
X229370Y247553D01*
X229388Y247532D01*
X229399Y247507D01*
X229453Y247458D01*
X229501Y247404D01*
X229526Y247392D01*
X229546Y247373D01*
X229615Y247349D01*
X229681Y247318D01*
X229708Y247317D01*
X229733Y247307D01*
X229806Y247312D01*
G37*
G36*
X373229Y195708D02*
X373229Y195708D01*
X373256Y195706D01*
X373325Y195728D01*
X373397Y195742D01*
X373419Y195758D01*
X373445Y195766D01*
X373501Y195814D01*
X373561Y195855D01*
X373575Y195878D01*
X373596Y195896D01*
X373629Y195961D01*
X373668Y196022D01*
X373672Y196049D01*
X373684Y196074D01*
X373694Y196178D01*
X373701Y196219D01*
X373699Y196228D01*
X373700Y196239D01*
X373398Y200263D01*
X373390Y200294D01*
X373387Y200337D01*
X372489Y204271D01*
X372476Y204300D01*
X372467Y204343D01*
X370993Y208099D01*
X370976Y208126D01*
X370961Y208167D01*
X368943Y211661D01*
X368922Y211685D01*
X368901Y211723D01*
X366385Y214878D01*
X366360Y214898D01*
X366334Y214933D01*
X363376Y217677D01*
X363349Y217694D01*
X363317Y217724D01*
X359983Y219997D01*
X359954Y220010D01*
X359919Y220035D01*
X356283Y221785D01*
X356252Y221793D01*
X356213Y221813D01*
X352357Y223002D01*
X352326Y223005D01*
X352284Y223019D01*
X348294Y223620D01*
X348262Y223619D01*
X348220Y223626D01*
X344184Y223626D01*
X344153Y223619D01*
X344110Y223620D01*
X340120Y223019D01*
X340090Y223008D01*
X340047Y223002D01*
X336191Y221813D01*
X336163Y221797D01*
X336121Y221785D01*
X332485Y220035D01*
X332460Y220015D01*
X332421Y219997D01*
X329087Y217724D01*
X329064Y217701D01*
X329028Y217677D01*
X326070Y214933D01*
X326052Y214907D01*
X326019Y214878D01*
X323503Y211723D01*
X323489Y211695D01*
X323461Y211661D01*
X321443Y208167D01*
X321433Y208136D01*
X321411Y208099D01*
X319937Y204343D01*
X319931Y204311D01*
X319915Y204271D01*
X319017Y200337D01*
X319016Y200305D01*
X319006Y200263D01*
X318704Y196239D01*
X318708Y196212D01*
X318703Y196185D01*
X318720Y196115D01*
X318729Y196042D01*
X318743Y196018D01*
X318749Y195992D01*
X318792Y195933D01*
X318829Y195870D01*
X318851Y195854D01*
X318867Y195832D01*
X318930Y195795D01*
X318988Y195751D01*
X319015Y195744D01*
X319038Y195730D01*
X319142Y195713D01*
X319181Y195703D01*
X319191Y195705D01*
X319202Y195703D01*
X373202Y195703D01*
X373229Y195708D01*
G37*
%LPC*%
G36*
X392645Y226976D02*
X392645Y226976D01*
X389536Y230085D01*
X389536Y233068D01*
X389535Y233076D01*
X389536Y233084D01*
X389515Y233173D01*
X389497Y233265D01*
X389492Y233271D01*
X389490Y233279D01*
X389388Y233427D01*
X357015Y265799D01*
X355081Y267734D01*
X355081Y284823D01*
X355080Y284828D01*
X355081Y284834D01*
X355060Y284927D01*
X355041Y285020D01*
X355038Y285024D01*
X355037Y285029D01*
X354982Y285107D01*
X354928Y285186D01*
X354924Y285189D01*
X354921Y285193D01*
X354840Y285243D01*
X354760Y285295D01*
X354755Y285296D01*
X354751Y285299D01*
X354681Y285311D01*
X351553Y288439D01*
X351553Y292836D01*
X354661Y295944D01*
X359058Y295944D01*
X362166Y292836D01*
X362166Y288439D01*
X361327Y287600D01*
X361322Y287593D01*
X361316Y287589D01*
X361267Y287510D01*
X361216Y287433D01*
X361214Y287425D01*
X361210Y287418D01*
X361178Y287241D01*
X361178Y270470D01*
X361180Y270462D01*
X361178Y270454D01*
X361199Y270364D01*
X361218Y270273D01*
X361222Y270266D01*
X361224Y270259D01*
X361327Y270111D01*
X393699Y237738D01*
X393706Y237734D01*
X393710Y237728D01*
X393789Y237679D01*
X393866Y237627D01*
X393874Y237626D01*
X393881Y237622D01*
X394058Y237590D01*
X397041Y237590D01*
X400150Y234481D01*
X400150Y230085D01*
X397041Y226976D01*
X392645Y226976D01*
G37*
%LPD*%
%LPC*%
G36*
X252818Y359084D02*
X252818Y359084D01*
X249709Y362193D01*
X249709Y364264D01*
X249708Y364269D01*
X249709Y364274D01*
X249688Y364367D01*
X249670Y364460D01*
X249667Y364465D01*
X249666Y364470D01*
X249610Y364548D01*
X249557Y364626D01*
X249553Y364629D01*
X249550Y364633D01*
X249468Y364684D01*
X249389Y364735D01*
X249384Y364736D01*
X249379Y364739D01*
X249202Y364771D01*
X230977Y364771D01*
X230972Y364770D01*
X230966Y364771D01*
X230873Y364750D01*
X230780Y364732D01*
X230776Y364729D01*
X230771Y364728D01*
X230693Y364672D01*
X230614Y364619D01*
X230612Y364615D01*
X230607Y364612D01*
X230557Y364530D01*
X230505Y364451D01*
X230504Y364446D01*
X230502Y364441D01*
X230470Y364264D01*
X230470Y363406D01*
X229576Y362513D01*
X217313Y362513D01*
X216420Y363406D01*
X216420Y374669D01*
X217313Y375563D01*
X229576Y375563D01*
X230470Y374669D01*
X230470Y371376D01*
X230471Y371371D01*
X230470Y371366D01*
X230490Y371273D01*
X230509Y371179D01*
X230512Y371175D01*
X230513Y371170D01*
X230568Y371092D01*
X230622Y371014D01*
X230626Y371011D01*
X230629Y371006D01*
X230711Y370956D01*
X230790Y370904D01*
X230795Y370903D01*
X230799Y370901D01*
X230977Y370869D01*
X252850Y370869D01*
X253872Y369846D01*
X253879Y369842D01*
X253883Y369835D01*
X253962Y369787D01*
X254039Y369735D01*
X254047Y369734D01*
X254054Y369730D01*
X254231Y369698D01*
X257214Y369698D01*
X260323Y366589D01*
X260323Y362193D01*
X257214Y359084D01*
X252818Y359084D01*
G37*
%LPD*%
%LPC*%
G36*
X233006Y314860D02*
X233006Y314860D01*
X230413Y317453D01*
X230407Y317457D01*
X230402Y317464D01*
X230323Y317513D01*
X230246Y317564D01*
X230239Y317565D01*
X230232Y317569D01*
X230055Y317601D01*
X229869Y317601D01*
X229864Y317600D01*
X229859Y317601D01*
X229766Y317581D01*
X229673Y317562D01*
X229669Y317559D01*
X229664Y317558D01*
X229586Y317503D01*
X229507Y317449D01*
X229504Y317445D01*
X229500Y317442D01*
X229449Y317360D01*
X229398Y317281D01*
X229397Y317276D01*
X229394Y317272D01*
X229362Y317094D01*
X229362Y316019D01*
X228469Y315125D01*
X219206Y315125D01*
X218313Y316019D01*
X218313Y317094D01*
X218312Y317099D01*
X218313Y317105D01*
X218292Y317198D01*
X218273Y317291D01*
X218270Y317295D01*
X218269Y317300D01*
X218214Y317378D01*
X218161Y317457D01*
X218156Y317459D01*
X218153Y317464D01*
X218072Y317514D01*
X217992Y317566D01*
X217987Y317567D01*
X217983Y317569D01*
X217806Y317601D01*
X214699Y317601D01*
X214692Y317600D01*
X214684Y317601D01*
X214594Y317580D01*
X214503Y317562D01*
X214496Y317557D01*
X214489Y317556D01*
X214341Y317453D01*
X212256Y315368D01*
X207860Y315368D01*
X204751Y318477D01*
X204751Y322873D01*
X207860Y325982D01*
X212256Y325982D01*
X214390Y323847D01*
X214397Y323843D01*
X214401Y323837D01*
X214480Y323788D01*
X214557Y323737D01*
X214565Y323735D01*
X214572Y323731D01*
X214749Y323699D01*
X217806Y323699D01*
X217811Y323700D01*
X217816Y323699D01*
X217909Y323720D01*
X218002Y323739D01*
X218006Y323741D01*
X218011Y323743D01*
X218089Y323798D01*
X218168Y323851D01*
X218171Y323856D01*
X218175Y323859D01*
X218226Y323940D01*
X218277Y324019D01*
X218278Y324024D01*
X218281Y324029D01*
X218313Y324206D01*
X218313Y325282D01*
X219206Y326175D01*
X228469Y326175D01*
X229362Y325282D01*
X229362Y324206D01*
X229363Y324201D01*
X229362Y324196D01*
X229383Y324103D01*
X229402Y324010D01*
X229405Y324005D01*
X229406Y324000D01*
X229461Y323922D01*
X229514Y323844D01*
X229519Y323841D01*
X229522Y323837D01*
X229603Y323786D01*
X229683Y323735D01*
X229688Y323734D01*
X229692Y323731D01*
X229869Y323699D01*
X231021Y323699D01*
X231029Y323700D01*
X231036Y323699D01*
X231126Y323720D01*
X231217Y323739D01*
X231224Y323743D01*
X231232Y323745D01*
X231380Y323847D01*
X233006Y325474D01*
X237402Y325474D01*
X240511Y322365D01*
X240511Y317969D01*
X237402Y314860D01*
X233006Y314860D01*
G37*
%LPD*%
%LPC*%
G36*
X219206Y330125D02*
X219206Y330125D01*
X218313Y331019D01*
X218313Y340282D01*
X219206Y341175D01*
X219889Y341175D01*
X219894Y341176D01*
X219899Y341175D01*
X219992Y341196D01*
X220085Y341215D01*
X220090Y341217D01*
X220095Y341219D01*
X220173Y341274D01*
X220251Y341327D01*
X220254Y341332D01*
X220258Y341335D01*
X220309Y341416D01*
X220360Y341495D01*
X220361Y341500D01*
X220364Y341505D01*
X220396Y341682D01*
X220396Y345006D01*
X220395Y345011D01*
X220396Y345016D01*
X220375Y345109D01*
X220356Y345202D01*
X220354Y345207D01*
X220352Y345212D01*
X220297Y345290D01*
X220244Y345368D01*
X220239Y345371D01*
X220236Y345375D01*
X220155Y345426D01*
X220076Y345477D01*
X220071Y345478D01*
X220066Y345481D01*
X219889Y345513D01*
X217313Y345513D01*
X216420Y346406D01*
X216420Y357669D01*
X217313Y358563D01*
X229576Y358563D01*
X230470Y357669D01*
X230470Y346406D01*
X229576Y345513D01*
X227001Y345513D01*
X226996Y345512D01*
X226990Y345513D01*
X226897Y345492D01*
X226804Y345473D01*
X226800Y345471D01*
X226795Y345469D01*
X226717Y345414D01*
X226638Y345361D01*
X226636Y345356D01*
X226631Y345353D01*
X226581Y345272D01*
X226529Y345193D01*
X226528Y345188D01*
X226526Y345183D01*
X226494Y345006D01*
X226494Y341682D01*
X226495Y341677D01*
X226494Y341672D01*
X226514Y341579D01*
X226533Y341486D01*
X226536Y341481D01*
X226537Y341476D01*
X226592Y341398D01*
X226646Y341320D01*
X226650Y341317D01*
X226653Y341313D01*
X226735Y341262D01*
X226814Y341211D01*
X226819Y341210D01*
X226823Y341207D01*
X227001Y341175D01*
X228469Y341175D01*
X229362Y340282D01*
X229362Y331019D01*
X228469Y330125D01*
X219206Y330125D01*
G37*
%LPD*%
%LPC*%
G36*
X401255Y432309D02*
X401255Y432309D01*
X401255Y442850D01*
X411797Y442850D01*
X411797Y434515D01*
X411624Y433869D01*
X411289Y433289D01*
X410816Y432816D01*
X410237Y432482D01*
X409591Y432309D01*
X401255Y432309D01*
G37*
%LPD*%
%LPC*%
G36*
X384921Y432309D02*
X384921Y432309D01*
X384275Y432482D01*
X383696Y432816D01*
X383223Y433289D01*
X382888Y433869D01*
X382715Y434515D01*
X382715Y442850D01*
X393257Y442850D01*
X393257Y432309D01*
X384921Y432309D01*
G37*
%LPD*%
%LPC*%
G36*
X350455Y442850D02*
X350455Y442850D01*
X360438Y442850D01*
X360255Y442165D01*
X359525Y440405D01*
X358572Y438754D01*
X357412Y437242D01*
X356064Y435894D01*
X354552Y434733D01*
X352901Y433780D01*
X351942Y433383D01*
X351140Y433051D01*
X350455Y432867D01*
X350455Y442850D01*
G37*
%LPD*%
%LPC*%
G36*
X391928Y266639D02*
X391928Y266639D01*
X392430Y268184D01*
X393415Y270118D01*
X394691Y271874D01*
X396226Y273409D01*
X397982Y274685D01*
X399916Y275670D01*
X401461Y276172D01*
X401461Y266639D01*
X391928Y266639D01*
G37*
%LPD*%
%LPC*%
G36*
X399916Y370110D02*
X399916Y370110D01*
X397982Y371095D01*
X396226Y372371D01*
X394691Y373906D01*
X393415Y375662D01*
X392430Y377596D01*
X391928Y379141D01*
X401461Y379141D01*
X401461Y369608D01*
X399916Y370110D01*
G37*
%LPD*%
D10*
X223838Y335650D03*
X223838Y320650D03*
D11*
X223445Y352038D03*
X223445Y369038D03*
D12*
X246722Y441158D02*
X257722Y441158D01*
X257722Y436158D01*
X246722Y436158D01*
X246722Y441158D01*
X246722Y440908D02*
X257722Y440908D01*
X257722Y461558D02*
X246722Y461558D01*
X246722Y466558D01*
X257722Y466558D01*
X257722Y461558D01*
X257722Y466308D02*
X246722Y466308D01*
X444460Y463716D02*
X444460Y452716D01*
X439460Y452716D01*
X439460Y463716D01*
X444460Y463716D01*
X444460Y457466D02*
X439460Y457466D01*
X439460Y462216D02*
X444460Y462216D01*
X477480Y352972D02*
X477480Y341972D01*
X472480Y341972D01*
X472480Y352972D01*
X477480Y352972D01*
X477480Y346722D02*
X472480Y346722D01*
X472480Y351472D02*
X477480Y351472D01*
D13*
X428802Y489302D03*
X511402Y346202D03*
X428802Y203102D03*
X263602Y203102D03*
X181002Y346202D03*
X263602Y489302D03*
X470102Y417702D03*
X470102Y274702D03*
X346202Y203102D03*
X222302Y274702D03*
X222302Y417702D03*
D14*
X263210Y322890D03*
X283210Y262890D03*
X405210Y262890D03*
X405210Y382890D03*
X283210Y382890D03*
D15*
X397256Y446850D03*
D16*
X346456Y446850D03*
X295656Y446850D03*
D17*
X223838Y320650D02*
X210083Y320650D01*
X210058Y320675D01*
D18*
X210058Y320675D03*
X356859Y290637D03*
X235204Y320167D03*
D17*
X234721Y320650D02*
X223838Y320650D01*
X234721Y320650D02*
X235204Y320167D01*
X356859Y290637D02*
X358129Y289367D01*
X358129Y268997D01*
X394843Y232283D01*
D18*
X394843Y232283D03*
X313690Y307340D03*
D19*
X283210Y266192D02*
X283210Y262890D01*
X283210Y266192D02*
X255905Y293497D01*
X255905Y293624D01*
D18*
X255905Y293624D03*
D19*
X243332Y293624D02*
X230251Y306705D01*
X208324Y306705D02*
X197739Y317290D01*
X208324Y306705D02*
X230251Y306705D01*
X197739Y317290D02*
X197739Y331216D01*
D20*
X182753Y346202D02*
X181002Y346202D01*
D19*
X182753Y346202D02*
X197739Y331216D01*
D17*
X313690Y307340D02*
X313690Y252730D01*
X307340Y246380D01*
X289433Y246380D01*
X283210Y252603D01*
X283210Y262890D01*
D18*
X462661Y316865D03*
D17*
X511402Y346175D02*
X511402Y346202D01*
X511402Y346175D02*
X482092Y316865D01*
X462661Y316865D01*
D18*
X282194Y420624D03*
X356424Y250293D03*
D17*
X316127Y250293D01*
X313690Y252730D01*
D19*
X255905Y293624D02*
X243332Y293624D01*
D18*
X294640Y405130D03*
X389890Y327660D03*
X481330Y386080D03*
D20*
X294640Y405130D02*
X276860Y405130D01*
D18*
X251460Y276380D03*
D17*
X223980Y276380D01*
X222302Y274702D01*
D18*
X234715Y393432D03*
D17*
X222302Y405845D01*
X222302Y417702D01*
D18*
X255016Y364391D03*
D17*
X251587Y367820D01*
X224663Y367820D01*
X223445Y369038D01*
X223445Y352038D02*
X223445Y335650D01*
X223838Y335650D01*
D18*
X448310Y444500D03*
D17*
X463264Y429546D01*
X470102Y417702D01*
D18*
X429260Y429260D03*
X429260Y452120D03*
D17*
X435356Y458216D01*
X441960Y458216D01*
X429260Y452120D02*
X429260Y429260D01*
D18*
X474368Y361828D03*
D19*
X474368Y348084D01*
X474980Y347472D01*
D18*
X440324Y276014D03*
D17*
X468790Y276014D01*
X470102Y274702D01*
X346202Y204372D02*
X346202Y203102D01*
D18*
X372487Y217455D03*
D17*
X359404Y204372D01*
X346202Y204372D01*
X252727Y429768D02*
X252222Y430273D01*
X252222Y438658D01*
D18*
X252727Y429768D03*
X265430Y452120D03*
D17*
X253492Y464058D01*
X252222Y464058D01*
D21*
X397256Y446850D02*
X397256Y440459D01*
X431800Y400050D02*
X431800Y394376D01*
X432119Y394057D01*
X432119Y333059D01*
X405130Y306070D01*
X405130Y262970D01*
X405210Y262890D01*
X431800Y400050D02*
X397256Y434594D01*
X397256Y446850D01*
X315087Y348729D02*
X288811Y322453D01*
X263647Y322453D01*
D20*
X263210Y322890D01*
D21*
X315087Y348729D02*
X315087Y427418D01*
X295656Y446850D01*
X376570Y382890D02*
X405210Y382890D01*
X346456Y413004D02*
X346456Y446850D01*
X346456Y413004D02*
X376570Y382890D01*
D18*
X299593Y259842D03*
D19*
X299593Y271907D01*
X270510Y300990D01*
X255270Y300990D01*
X245110Y311150D01*
X245110Y331470D01*
X283210Y369570D01*
X283210Y382890D01*
M02*
